<svg width="112" height="40" viewBox="0 0 112 40" fill="none" xmlns="http://www.w3.org/2000/svg">
<g clip-path="url(#clip0_2006_13834)">
<path d="M38.4378 13.3913C38.4378 13.3913 36.6212 13.7871 34.5961 12.7516C32.5746 11.7126 31.8359 10.0055 31.8359 10.0055C31.8359 10.0055 33.5889 9.62385 35.568 10.5922C32.3767 5.37222 26.676 2.06421 20.5442 1.91224C14.3487 1.76027 8.57034 4.72192 5.08209 9.85357C4.78522 10.2883 4.19148 10.4014 3.75677 10.1045C3.32206 9.80763 3.20897 9.21742 3.50584 8.78271C7.36165 3.11387 13.7444 -0.176466 20.5901 0.0073117C27.2804 0.176953 33.497 3.73589 37.0489 9.36939C37.0595 7.31602 38.0455 5.98363 38.0455 5.98363C38.0455 5.98363 39.3002 7.3549 39.4203 9.62385C39.544 11.8963 38.4378 13.3913 38.4378 13.3913Z" fill="white"/>
<path d="M6.60522 19.7422C6.60522 12.0836 12.5497 6.48193 20.0175 6.48193C24.5519 6.48193 28.0931 8.08292 30.5317 11.8539L26.3402 14.8262C24.9689 12.6173 22.9509 11.2814 20.014 11.2814C15.2887 11.2814 12.0903 14.9004 12.0903 19.7387C12.0903 24.577 15.2923 28.3126 20.0528 28.3126C24.0147 28.3126 26.6052 26.1038 27.2166 23.4743H20.7385V18.8269H32.8537C33.2742 27.4008 28.7752 33.0379 20.0917 33.0379C12.2811 33.0379 6.60522 27.3973 6.60522 19.7422Z" fill="white"/>
<path d="M35.6387 24.6193C35.6387 19.6678 39.5617 16.123 44.5908 16.123C49.62 16.123 53.5076 19.6678 53.5076 24.6193C53.5076 29.5707 49.62 33.0412 44.5908 33.0412C39.5617 33.0412 35.6387 29.5353 35.6387 24.6193ZM48.2487 24.6193C48.2487 22.1807 46.8775 20.5443 44.5908 20.5443C42.3042 20.5443 40.8941 22.1842 40.8941 24.6193C40.8941 27.0543 42.3042 28.6977 44.5908 28.6977C46.8775 28.6977 48.2487 27.0225 48.2487 24.6193Z" fill="white"/>
<path d="M57.2784 6.78894H67.2979C72.1362 6.78894 74.8434 9.83542 74.8434 13.4933C74.8434 15.893 73.4332 17.5329 71.1855 18.2574C74.7303 19.095 76.4444 21.4594 76.4444 24.6967C76.4444 29.3053 73.1682 32.6981 67.7573 32.6981H57.2784V6.78894ZM66.7289 16.3525C68.443 16.3525 69.588 15.3982 69.588 13.9139C69.588 12.4295 68.6338 11.4753 66.9975 11.4753H62.6151V16.3525H66.7289ZM67.5276 28.0118C69.6976 28.0118 71.0724 26.5628 71.0724 24.4316C71.0724 22.3005 69.6623 20.8868 67.2237 20.8868H62.6151V28.0118H67.5311H67.5276Z" fill="white"/>
<path d="M79.339 10.5213C79.339 8.65526 80.8622 7.31934 82.6152 7.31934C84.3681 7.31934 85.8525 8.65173 85.8525 10.5213C85.8525 12.3909 84.3681 13.7586 82.6152 13.7586C80.8622 13.7586 79.339 12.4262 79.339 10.5213ZM80.0282 16.4658H85.1704V32.6948H80.0282V16.4658Z" fill="white"/>
<path d="M88.8284 24.6193C88.8284 19.6678 92.7514 16.123 97.7805 16.123C102.81 16.123 106.697 19.6678 106.697 24.6193C106.697 29.5707 102.81 33.0412 97.7805 33.0412C92.7514 33.0412 88.8284 29.5353 88.8284 24.6193ZM101.438 24.6193C101.438 22.1807 100.067 20.5443 97.7805 20.5443C95.4939 20.5443 94.0838 22.1842 94.0838 24.6193C94.0838 27.0543 95.4939 28.6977 97.7805 28.6977C100.067 28.6977 101.438 27.0225 101.438 24.6193Z" fill="white"/>
<path d="M34.8894 33.4584C31.5283 37.1516 26.9339 39.4418 21.9542 39.9118C21.3181 39.9684 20.6819 40.0002 20.0493 40.0002C13.1929 40.0002 6.82786 36.5225 3.11696 30.631C3.07455 30.5639 3.03921 30.4896 3.018 30.4154C2.78121 30.0337 2.55856 29.6414 2.35357 29.2421C1.95067 31.2919 0.706638 32.4228 0.706638 32.4228C0.706638 32.4228 -0.258197 30.8325 0.0669488 28.5812C0.395629 26.3299 1.77043 25.0788 1.77043 25.0788C1.77043 25.0788 3.62942 25.047 5.41065 26.4607C7.19188 27.8743 7.58064 29.6945 7.58064 29.6945C7.58064 29.6945 5.80648 29.7263 4.06059 28.4045C6.94802 33.8719 12.3942 37.4944 18.6462 37.9927C23.1594 38.3532 27.6125 37.0314 31.1855 34.2642C31.2421 34.2182 31.3057 34.1829 31.3693 34.1546C32.1185 33.5573 32.8254 32.8964 33.4792 32.1755C33.8362 31.7867 34.437 31.7584 34.8257 32.1154C35.2145 32.4688 35.2428 33.0696 34.8894 33.4584Z" fill="white"/>
<path d="M111.712 13.4372C111.712 13.8012 111.645 14.1546 111.5 14.4833C111.362 14.8049 111.171 15.0912 110.924 15.3386C110.677 15.586 110.39 15.7768 110.069 15.9147C109.74 16.056 109.387 16.1267 109.023 16.1267C108.659 16.1267 108.309 16.0596 107.977 15.9147C107.662 15.7768 107.369 15.586 107.121 15.3386C106.881 15.0912 106.683 14.8049 106.545 14.4833C106.407 14.1546 106.337 13.8012 106.337 13.4372C106.337 13.0732 106.411 12.7233 106.545 12.3911C106.683 12.0765 106.881 11.7832 107.121 11.5358C107.369 11.2955 107.662 11.0976 107.977 10.9597C108.312 10.8219 108.662 10.7477 109.023 10.7477C109.383 10.7477 109.74 10.8219 110.069 10.9597C110.39 11.0976 110.677 11.2955 110.924 11.5358C111.171 11.7832 111.362 12.073 111.5 12.3911C111.641 12.7268 111.712 13.0767 111.712 13.4372ZM111.03 13.4372C111.03 12.3275 110.132 11.4298 109.023 11.4298C107.913 11.4298 107.015 12.3275 107.015 13.4372C107.015 14.5469 107.913 15.4446 109.023 15.4446C110.132 15.4446 111.03 14.5469 111.03 13.4372ZM109.549 13.8083L110.136 14.7449H109.51L108.966 13.9108H108.662V14.7449H108.03V12.1189H109.09C109.733 12.1189 110.026 12.6137 110.026 13.0166C110.026 13.2888 109.896 13.6422 109.549 13.8083ZM108.666 13.4231H109.086C109.178 13.4231 109.259 13.4054 109.327 13.3736C109.376 13.3559 109.415 13.3241 109.443 13.2852C109.517 13.1969 109.542 13.0873 109.542 13.0131C109.542 12.9141 109.507 12.8081 109.436 12.7339C109.397 12.6915 109.362 12.6597 109.312 12.642C109.249 12.6173 109.175 12.5996 109.09 12.5996H108.662V13.4231H108.666Z" fill="white"/>
</g>
<defs>
<clipPath id="clip0_2006_13834">
<rect width="111.712" height="40" fill="white"/>
</clipPath>
</defs>
</svg>
