<svg width="16" height="16" viewBox="0 0 16 16" fill="none" xmlns="http://www.w3.org/2000/svg">
<mask id="mask0_2006_13846" style="mask-type:alpha" maskUnits="userSpaceOnUse" x="0" y="0" width="16" height="16">
<rect width="16" height="16" fill="#D9D9D9"/>
</mask>
<g mask="url(#mask0_2006_13846)">
<path d="M8 10.4073C7.8971 10.4073 7.79384 10.3855 7.69022 10.342C7.5866 10.2986 7.49759 10.2396 7.42319 10.1652L4.26594 7.00799C4.09975 6.8418 4.021 6.64832 4.0297 6.42754C4.0384 6.20676 4.1227 6.01642 4.2826 5.85652C4.44879 5.69033 4.6407 5.60724 4.85834 5.60724C5.07597 5.60724 5.26788 5.69033 5.43407 5.85652L8 8.44854L10.5826 5.85652C10.7488 5.69033 10.9423 5.61159 11.1631 5.62029C11.3838 5.62898 11.5742 5.71328 11.7341 5.87319C11.9003 6.03938 11.9834 6.23129 11.9834 6.44892C11.9834 6.66655 11.9003 6.85847 11.7341 7.02465L8.57682 10.1652C8.50242 10.2396 8.41341 10.2986 8.30979 10.342C8.20616 10.3855 8.1029 10.4073 8 10.4073Z" fill="white"/>
</g>
</svg>
