<svg width="27" height="27" viewBox="0 0 27 27" fill="none" xmlns="http://www.w3.org/2000/svg">
<mask id="mask0_2059_162" style="mask-type:alpha" maskUnits="userSpaceOnUse" x="0" y="0" width="28" height="27">
<rect x="0.933838" y="0.825073" width="26.0667" height="26.0667" fill="#D9D9D9"/>
</mask>
<g mask="url(#mask0_2059_162)">
<path d="M22.7088 14.7786C23.2179 14.2697 23.2179 13.4432 22.7088 12.9343L16.1918 6.42014C15.6826 5.91122 14.8558 5.91122 14.3466 6.42014C13.8375 6.92905 13.8375 7.75553 14.3466 8.26445L18.6438 12.5556H6.1474C5.42645 12.5556 4.84399 13.1378 4.84399 13.8585C4.84399 14.5791 5.42645 15.1613 6.1474 15.1613H18.6397L14.3507 19.4525C13.8416 19.9614 13.8416 20.7879 14.3507 21.2968C14.8599 21.8057 15.6867 21.8057 16.1958 21.2968L22.7129 14.7826L22.7088 14.7786Z" fill="#1E1E1E"/>
</g>
</svg>
