<svg width="25" height="25" viewBox="0 0 25 25" fill="none" xmlns="http://www.w3.org/2000/svg">
<mask id="mask0_2006_11915" style="mask-type:alpha" maskUnits="userSpaceOnUse" x="0" y="0" width="25" height="25">
<rect x="0.734375" y="0.31543" width="24" height="24" fill="#D9D9D9"/>
</mask>
<g mask="url(#mask0_2006_11915)">
<path d="M20.7828 13.1626C21.2516 12.694 21.2516 11.9331 20.7828 11.4645L14.7825 5.46684C14.3137 4.99828 13.5524 4.99828 13.0836 5.46684C12.6148 5.93541 12.6148 6.69636 13.0836 7.16493L17.0401 11.1159H5.53444C4.87065 11.1159 4.33437 11.6519 4.33437 12.3154C4.33437 12.9789 4.87065 13.5149 5.53444 13.5149H17.0363L13.0874 17.4659C12.6186 17.9345 12.6186 18.6954 13.0874 19.164C13.5561 19.6326 14.3174 19.6326 14.7862 19.164L20.7865 13.1663L20.7828 13.1626Z" fill="#1E1E1E"/>
</g>
</svg>
