<svg width="138" height="366" viewBox="0 0 138 366" fill="none" xmlns="http://www.w3.org/2000/svg">
<g clip-path="url(#clip0_2006_13236)">
<path d="M11.685 35.0021C21.485 34.0221 31.305 33.0321 41.545 32.0021V0.772095C43.715 0.972095 45.405 1.12209 47.095 1.29209C49.255 1.51209 49.975 2.57209 49.765 4.84209C49.115 11.8421 48.685 18.8721 48.215 25.8921C48.115 27.3621 48.205 28.8321 48.205 30.9721C58.325 28.7321 68.055 26.5821 77.765 24.4321C79.275 29.9221 78.865 30.7721 73.755 31.8621C66.155 33.4821 58.545 35.0321 50.905 36.4821C48.585 36.9221 47.465 37.7521 47.515 40.3621C47.655 48.9821 47.565 57.6021 47.565 66.7421C49.235 66.1821 50.495 65.7821 51.745 65.3221C64.225 60.7821 76.985 57.8321 90.365 58.5121C105.595 59.2821 117.005 68.7621 119.265 82.3621C121.985 98.7821 113.265 113.292 98.195 116.442C89.225 118.322 80.225 116.902 71.465 114.402C69.035 113.712 68.685 111.402 69.865 107.272C75.855 108.352 81.765 109.802 87.755 110.422C109.485 112.662 116.045 94.7721 112.205 80.5121C109.735 71.3521 100.355 64.7921 89.065 64.3421C75.275 63.7821 62.245 67.3221 49.695 72.7421C48.645 73.1921 47.685 75.2021 47.685 76.4821C47.705 85.2721 48.115 94.0621 48.145 102.862C48.145 106.212 47.905 109.682 47.015 112.892C45.615 117.952 41.445 120.392 36.275 119.542C28.925 118.342 22.395 115.312 17.065 109.992C11.475 104.402 10.215 97.9821 14.885 91.6521C18.765 86.3921 24.005 82.1321 28.765 77.5621C30.095 76.2821 31.765 75.1321 33.485 74.5121C40.615 71.9721 42.085 66.9121 41.415 59.8821C40.745 52.9321 41.265 45.8721 41.265 38.4121C36.965 38.9821 32.935 39.5521 28.905 40.0521C25.295 40.4921 21.675 40.9021 18.055 41.2521C12.585 41.7821 11.735 40.9321 11.675 35.0221L11.685 35.0021ZM41.435 76.3721C36.795 79.5321 32.835 81.7421 29.475 84.6521C26.105 87.5621 23.005 90.9221 20.405 94.5221C18.035 97.8121 18.055 101.652 20.935 104.942C25.015 109.622 30.355 111.772 36.395 112.422C39.495 112.752 41.345 111.162 41.385 108.192C41.525 97.9621 41.435 87.7221 41.435 76.3621V76.3721Z" fill="#363636"/>
<path d="M30.835 232.622C21.925 239.722 13.515 246.412 5.06501 253.132C3.45501 251.042 2.31501 249.562 1.01501 247.882C22.945 233.442 41.865 214.972 54.965 190.072H2.50501V183.742H30.865V155.422C33.995 155.652 36.635 155.852 38.275 155.982C37.915 160.532 37.465 164.462 37.345 168.392C37.195 173.262 37.305 178.142 37.305 183.082C46.275 184.992 55.605 181.392 65.095 185.912C56.405 198.982 48.245 211.232 39.865 223.842C47.955 229.922 56.735 236.522 65.675 243.242C64.365 245.142 63.315 246.662 62.095 248.432C53.995 242.052 46.085 235.822 37.425 229.002V290.972H30.815V232.632L30.835 232.622Z" fill="#363636"/>
<path d="M74.515 155.472C77.395 155.662 79.925 155.822 83.215 156.032C79.025 160.862 80.555 165.962 80.535 170.752C80.425 204.802 80.475 238.842 80.475 272.892C80.475 280.912 81.835 282.252 89.895 282.272C99.925 282.282 109.965 282.282 119.995 282.272C125.655 282.272 127.885 280.872 128.795 275.202C129.915 268.282 130.245 261.232 130.915 254.242C130.985 253.512 131.065 252.782 131.135 252.022C137.115 253.882 137.315 253.902 136.835 259.592C136.295 265.962 135.705 272.362 134.465 278.612C133.305 284.492 129.305 288.352 123.175 288.442C110.275 288.622 97.355 288.572 84.465 288.062C78.025 287.802 75.185 284.332 74.535 277.892C74.345 276.022 74.305 274.132 74.305 272.252C74.295 234.812 74.295 197.382 74.305 159.942C74.305 158.592 74.425 157.252 74.505 155.482L74.515 155.472Z" fill="#363636"/>
<path d="M15.165 335.752C23.265 335.742 29.675 342.122 29.765 350.282C29.845 358.532 23.315 365.282 15.195 365.342C7.025 365.412 0.434998 359.022 0.434998 351.012C0.434998 342.422 6.855 335.762 15.165 335.742V335.752ZM24.275 351.882C24.275 347.712 23.195 343.932 20.105 340.972C15.295 336.362 8.535 337.852 6.795 344.252C5.955 347.362 5.965 350.992 6.625 354.172C7.805 359.852 12.775 363.502 17.265 362.842C21.635 362.202 24.205 358.162 24.265 351.872L24.275 351.882Z" fill="#363636"/>
<path d="M108.995 358.192C108.255 359.672 108.035 360.492 107.535 361.062C102.745 366.462 93.275 366.782 88.295 361.532C83.975 356.992 83.595 351.442 85.205 345.672C86.705 340.322 90.475 337.242 95.745 336.012C100.465 334.912 105.705 337.202 107.365 340.892C108.695 343.832 107.885 345.182 104.715 345.132C100.705 345.082 96.695 344.972 92.685 344.792C90.435 344.692 89.505 345.702 89.415 347.872C89.215 352.692 90.405 356.992 94.685 359.622C98.815 362.162 103.045 361.812 106.975 358.822C107.245 358.612 107.655 358.592 109.005 358.172L108.995 358.192ZM102.115 342.372C102.455 339.602 100.865 338.472 98.765 338.192C95.545 337.762 93.175 339.252 91.285 342.372H102.105H102.115Z" fill="#363636"/>
<path d="M131.865 44.8221C120.245 38.1821 108.995 31.7421 97.565 25.2021C98.675 20.3621 99.825 19.6421 104.595 22.1921C113.305 26.8521 121.975 31.6121 130.505 36.5921C135.695 39.6221 135.645 40.6421 131.865 44.8221Z" fill="#363636"/>
<path d="M48.435 338.272C51.175 337.162 53.375 336.272 55.855 335.262C56.265 336.852 56.565 338.012 56.885 339.252C59.215 338.152 61.435 336.712 63.845 336.152C64.965 335.892 66.485 337.352 67.825 338.032C67.165 339.152 66.715 340.502 65.775 341.282C65.285 341.692 63.925 341.232 63.015 340.982C59.575 340.012 56.865 341.602 56.715 345.202C56.525 349.822 56.595 354.482 56.975 359.092C57.065 360.242 58.685 361.382 59.785 362.302C60.445 362.852 61.455 362.962 62.315 363.282C62.275 363.622 62.235 363.962 62.195 364.302H46.625C53.275 361.292 51.455 356.002 51.415 351.612C51.365 347.232 53.495 342.262 48.435 338.282V338.272Z" fill="#363636"/>
<path d="M126.145 338.652C129.255 337.422 131.605 336.482 134.615 335.292C134.615 340.412 134.615 344.872 134.615 349.322C134.615 351.702 134.625 354.092 134.615 356.472C134.595 359.312 134.135 362.332 137.565 364.272H125.995C131.625 360.972 129.305 355.762 129.325 351.542C129.355 347.352 131.555 342.472 126.145 338.652Z" fill="#363636"/>
<path d="M133.045 321.702C134.225 323.982 135.465 325.282 135.265 326.272C135.045 327.342 133.465 328.122 132.475 329.032C131.635 327.992 130.175 326.982 130.135 325.922C130.095 324.882 131.515 323.792 133.055 321.702H133.045Z" fill="#363636"/>
</g>
<defs>
<clipPath id="clip0_2006_13236">
<rect width="137.13" height="364.57" fill="white" transform="translate(0.434998 0.772095)"/>
</clipPath>
</defs>
</svg>
