<svg width="406" height="142" viewBox="0 0 406 142" fill="none" xmlns="http://www.w3.org/2000/svg">
<g clip-path="url(#clip0_2006_13374)">
<path d="M231.96 60.7271C231.96 54.6471 231.88 48.5671 232.01 42.4871C232.04 40.8271 230.97 38.0571 233.4 37.7771C236.35 37.4271 240.26 35.7971 242.27 39.1071C244.34 42.5171 245.87 41.1871 248.27 39.8571C255.6 35.7671 263.02 33.6371 269.95 40.7071C271.72 42.5071 273.07 41.1771 274.34 40.2171C279.11 36.6071 284.54 36.0071 290.23 36.5171C295.91 37.0271 299.99 40.5671 300.15 46.1471C300.49 57.9571 300.31 69.7871 300.39 81.6071C300.4 83.5071 299.66 84.1371 297.74 84.3571C288.48 85.4071 288.03 85.0771 288.03 76.0371C288.03 68.7771 288.08 61.5071 287.98 54.2471C287.91 49.2871 285.23 46.7071 280.47 46.7471C275.81 46.7771 273.47 48.9871 273.34 54.0071C273.11 62.6171 272.94 71.2371 273.09 79.8371C273.15 83.3471 272.19 84.8871 268.58 84.3271C267.59 84.1771 266.54 84.1771 265.55 84.3271C261.86 84.8971 260.48 83.6371 260.63 79.6771C260.93 71.5771 260.71 63.4671 260.69 55.3571C260.68 49.0171 258.65 46.8071 252.85 46.7671C246.88 46.7271 244.44 49.1371 244.37 55.4671C244.28 63.5771 244.2 71.6871 244.44 79.7871C244.54 83.2771 243.59 84.5671 239.94 84.3771C230.95 83.8971 231.89 86.1371 231.77 76.4271C231.71 71.1971 231.76 65.9571 231.76 60.7171C231.83 60.7171 231.91 60.7171 231.98 60.7171L231.96 60.7271Z" fill="#363636"/>
<path d="M65.45 16.6671C65.47 20.2171 60.37 22.4971 62 25.4171C63.31 27.7671 67.36 28.5671 70.13 30.1571C71.64 31.0271 72.49 32.5571 73.19 34.0971C76.78 42.0071 77.56 50.3371 76.58 58.8571C76.38 60.5771 76.29 63.1671 74.21 63.4371C72.2 63.6971 72.26 61.0771 71.52 59.6771C67.79 52.6871 64.51 45.3671 57.99 40.3571C52.91 36.4471 51.52 36.6671 47.76 41.7471C41.55 50.1471 36.54 59.2771 31.63 68.4571C30.68 70.2371 29.68 72.0071 28.65 73.7471C28.15 74.5971 27.6 75.7371 26.38 75.2571C24.69 74.5971 25.56 73.3271 25.99 72.2771C28.8 65.4071 31.62 58.5471 34.47 51.6871C35.33 49.6171 36.32 47.4971 34.47 45.5571C32.71 43.7071 30.4 44.1171 28.29 44.7971C20.26 47.3871 12.27 50.1071 4.24 52.7071C2.94 53.1271 1.09 54.5571 0.279996 52.5171C-0.500004 50.5371 1.8 50.2371 3.01 49.6071C13.91 43.8871 25.31 39.0871 35.42 31.9171C40.71 28.1671 41.17 25.8271 36.87 20.8771C31.23 14.3871 23.89 10.1971 16.26 6.47706C14.96 5.84706 12.73 5.79706 12.84 4.03706C12.97 1.97706 15.29 2.05706 16.84 1.72706C23.53 0.32706 30.22 0.54706 36.98 1.45706C44.44 2.46706 47.84 7.48706 50.2 13.7871C51.55 17.3871 53.07 19.9571 57.3 16.3971C59.8 14.3071 62.75 15.6271 65.44 16.6371L65.45 16.6671Z" fill="#363636"/>
<path d="M206.95 65.9671C204.92 65.9671 202.86 65.7371 200.88 66.0371C199.08 66.3171 196.02 64.4371 195.83 68.2071C195.66 71.5971 197.05 74.3971 200.68 74.8171C204.86 75.2971 209.1 75.1571 213.32 75.2771C215.98 75.3571 218.75 74.7571 218.86 79.1071C218.96 82.9471 217.72 84.7571 213.88 84.9171C207.14 85.1871 200.38 86.0371 193.76 84.0771C186.48 81.9271 183.22 77.6871 183.05 70.0571C182.9 63.3071 182.87 56.5571 182.91 49.8071C182.95 43.5571 185.07 40.3571 190.85 38.2871C198.4 35.5871 206.11 35.5771 213.68 38.1471C219.68 40.1871 221.87 43.5771 221.98 49.9571C222.02 52.3171 222.02 54.6871 222.02 57.0471C222.03 64.1571 220.28 65.8971 213.02 65.9671C210.99 65.9871 208.97 65.9671 206.94 65.9671H206.95ZM202.59 56.6171C205.45 55.8271 210.02 58.7371 209.82 52.1271C209.66 47.0371 207.03 46.2871 203.08 46.2471C197 46.1971 196.02 47.2571 195.71 52.4371C195.33 58.8071 200.04 55.6671 202.6 56.6071L202.59 56.6171Z" fill="#363636"/>
<path d="M352.6 60.9671C352.6 67.2171 352.66 73.4771 352.56 79.7271C352.53 81.3771 353.54 83.9971 350.71 84.1571C348.19 84.2971 344.79 85.7571 343.26 82.8271C341.4 79.2771 339.55 80.2671 337.31 81.8671C332.94 84.9871 328.02 85.6071 322.83 85.2571C316.28 84.8171 312.09 81.3971 311.86 74.9471C311.46 63.4671 311.68 51.9671 311.62 40.4771C311.61 38.4171 312.45 37.6271 314.63 37.4371C324.34 36.5571 324.4 36.5171 324.31 46.3471C324.25 52.9371 324.05 59.5271 324 66.1171C323.95 72.4971 326.07 74.8671 331.67 74.9471C337.37 75.0171 339.6 72.7071 339.69 66.4371C339.8 58.3271 339.98 50.2071 339.83 42.1071C339.77 38.6871 340.64 37.2671 344.34 37.4271C353.99 37.8371 352.57 36.0871 352.67 45.7671C352.72 50.8371 352.67 55.9071 352.67 60.9771C352.64 60.9771 352.61 60.9771 352.59 60.9771L352.6 60.9671Z" fill="#363636"/>
<path d="M365.02 60.3471C365.02 54.2671 364.94 48.1871 365.07 42.1171C365.1 40.4971 363.99 37.7971 366.82 37.6571C369.3 37.5271 372.63 36.0171 374.22 39.0571C376.06 42.5871 377.81 41.3971 380.2 39.9471C382.34 38.6471 384.66 37.2571 387.06 36.8571C397.91 35.0471 406.51 38.3871 405.83 51.6271C405.35 61.0571 405.62 70.5371 405.79 79.9871C405.85 83.1271 405.2 84.5171 401.67 84.3971C391.26 84.0471 393.48 85.4971 393.3 76.2571C393.16 68.9971 393.35 61.7371 393.25 54.4771C393.17 48.6471 391.23 46.7771 385.69 46.7771C380.14 46.7771 378.08 48.6771 377.92 54.3271C377.67 62.9371 377.44 71.5471 377.5 80.1471C377.52 83.4571 376.47 84.5071 373.17 84.3871C363.22 84.0271 365.14 85.6571 364.96 76.0571C364.86 70.8271 364.94 65.5871 364.94 60.3571H365.01L365.02 60.3471Z" fill="#363636"/>
<path d="M114.2 36.1171C119.26 36.1171 124.32 36.0071 129.37 36.1471C134.71 36.2871 132.04 40.4871 132.56 42.9771C133.11 45.6671 131.96 46.8071 129 46.8971C119.7 47.1771 119.7 47.3071 119.67 56.4671C119.66 60.8471 119.78 65.2371 119.62 69.6171C119.48 73.4071 120.95 75.4071 124.87 75.2371C127.75 75.1171 129.17 76.2371 129.21 79.3371C129.25 82.3671 128.85 84.5571 125.17 84.8871C120.44 85.3171 115.69 86.0271 111.47 83.1071C108.3 80.9071 107.25 77.5471 107.23 73.8371C107.2 66.4171 106.97 58.9871 107.33 51.5971C107.53 47.4771 106.11 46.0771 102.24 46.7371C97.54 47.5371 95.67 45.8971 95.98 40.8571C96.19 37.4071 97 36.0471 100.54 36.2271C105.08 36.4571 109.64 36.2871 114.19 36.2871C114.19 36.2371 114.19 36.1871 114.19 36.1371L114.2 36.1171Z" fill="#363636"/>
<path d="M144.66 60.787C144.66 54.887 144.56 48.977 144.72 43.077C144.77 41.247 143.58 38.187 146.02 37.837C149.05 37.407 153.08 35.687 155.31 39.237C157.3 42.397 158.71 41.467 160.75 39.657C161.87 38.667 163.14 37.687 164.52 37.197C167.56 36.127 171.34 35.267 173.66 37.297C175.64 39.027 174.22 42.717 174.36 45.547C174.43 47.017 173.46 47.597 172.08 47.587C171.57 47.587 171.07 47.637 170.56 47.607C154.68 46.627 157.22 51.137 157.14 61.577C157.09 67.817 157 74.057 157.19 80.297C157.28 83.297 156.47 84.397 153.26 84.407C144.66 84.427 144.66 84.597 144.66 75.977C144.66 70.917 144.66 65.857 144.66 60.797V60.787Z" fill="#363636"/>
<path d="M262.75 111.197C263.77 109.377 265.25 109.317 266.45 108.867C270.25 107.457 271.38 108.847 270.35 112.647C269.52 115.707 268.95 118.837 268.37 121.487C268.98 122.657 269.48 122.357 269.9 122.187C272.82 120.997 275.96 118.657 278.84 121.267C281.55 123.727 280.19 127.377 279.52 130.407C278.61 134.517 277.42 138.727 272.97 140.627C271.79 141.127 270.04 141.677 269.4 140.067C268.64 138.177 270.3 138.227 271.67 137.817C275.05 136.807 277.65 126.597 275.3 124.147C273.34 122.107 267.82 124.467 266.9 127.887C266.02 131.137 265.38 134.457 264.71 137.767C264.4 139.287 264.33 141.067 262.09 140.527C259.84 139.987 261.2 138.337 261.42 137.237C262.8 130.287 264.26 123.357 265.73 116.427C266.29 113.807 267.14 111.117 262.75 111.207V111.197Z" fill="#363636"/>
<path d="M284.51 133.027C284.48 126.007 288.29 120.927 294.2 120.167C297.04 119.807 299.63 120.357 301.46 122.757C305.82 128.487 301.23 139.817 294.09 141.047C288.25 142.047 284.55 138.957 284.52 133.037L284.51 133.027ZM299.07 128.277C299.04 125.587 299.15 122.987 296.12 122.327C293.43 121.737 291.68 123.327 290.47 125.587C288.91 128.497 288.44 131.647 288.57 134.877C288.65 136.797 289.21 138.627 291.47 139.067C293.47 139.457 295.14 138.737 296.31 137.067C298.2 134.347 298.7 131.187 299.07 128.287V128.277Z" fill="#363636"/>
<path d="M336.33 136.577C336.27 137.207 336.32 137.447 336.24 137.497C332.44 140.067 328.22 143.187 323.88 140.047C320.03 137.267 321.76 132.637 323 128.807C324.75 123.377 329.19 119.797 333.5 120.077C335.39 120.197 337.22 120.717 337.87 122.847C338.47 124.837 337.75 126.537 336.28 127.837C334.22 129.667 331.64 130.497 329.02 131.167C326.86 131.717 325.17 132.567 325.86 135.267C326.56 138.017 328.49 138.347 330.94 137.977C332.73 137.707 334.13 136.087 336.32 136.577H336.33ZM327.75 129.027C330.68 128.537 333.44 127.727 334 124.237C334.14 123.377 333.37 122.647 332.41 122.647C329.01 122.647 328.1 125.357 326.99 127.807C326.92 127.957 326.93 128.137 326.91 128.307C326.61 128.757 326.45 129.227 327.02 129.537C327.14 129.597 327.49 129.207 327.74 129.027H327.75Z" fill="#363636"/>
<path d="M368.19 137.457C365.47 139.537 362.49 141.057 358.86 141.157C356.87 141.207 355.25 140.537 354.29 138.617C351.36 132.777 356.46 122.047 362.95 120.437C365.59 119.777 368.21 119.677 369.51 122.537C370.83 125.427 368.98 127.457 366.7 128.787C364.83 129.877 362.71 130.637 360.61 131.187C358.21 131.807 357.15 132.917 357.77 135.477C358.42 138.197 360.34 138.377 362.47 137.917C364.23 137.547 365.92 136.847 367.63 136.297C367.82 136.677 368.01 137.057 368.2 137.447L368.19 137.457ZM359.21 129.017C362.33 128.627 365.23 127.777 365.9 124.187C366.1 123.127 364.82 122.387 363.76 122.627C360.61 123.347 359.02 125.477 358.87 128.697C358.76 128.897 358.64 129.097 358.53 129.307C358.75 129.207 358.98 129.117 359.2 129.017H359.21Z" fill="#363636"/>
<path d="M343.25 110.637C343.66 110.307 343.99 109.847 344.43 109.717C346.46 109.107 348.83 107.277 350.54 108.867C351.99 110.217 350.52 112.657 350.09 114.577C348.68 120.817 347.19 127.027 345.88 133.287C345.4 135.557 343.76 138.647 348.63 138.047C347.97 139.787 346.88 139.947 345.98 140.277C341.75 141.797 340.67 140.977 341.55 136.607C342.91 129.847 344.53 123.137 345.97 116.397C346.83 112.387 346.76 112.367 343.26 110.627L343.25 110.637Z" fill="#363636"/>
<path d="M376.66 141.127C375.93 140.977 374.58 140.837 373.33 140.397C372.12 139.967 371.32 139.037 372.01 137.637C372.67 136.317 373.63 136.977 374.57 137.357C375.5 137.727 376.47 138.067 377.45 138.237C379.16 138.537 381.09 138.617 381.86 136.777C382.57 135.087 380.88 134.107 379.81 133.087C379.2 132.507 378.51 132.017 377.84 131.497C375.06 129.367 373.06 126.807 375.28 123.317C377.37 120.037 380.81 119.837 384.31 120.407C385.35 120.577 386.44 120.967 386.21 122.277C385.92 123.927 384.74 123.717 383.47 123.367C382.35 123.057 381.12 122.697 380.01 122.867C377.64 123.237 376.65 124.557 378.5 126.657C379.38 127.657 380.55 128.407 381.6 129.247C383.92 131.097 386.09 132.997 384.86 136.447C383.58 140.057 380.72 141.067 376.64 141.117L376.66 141.127Z" fill="#363636"/>
<path d="M306.64 122.717C309.65 121.057 312.29 120.397 312.68 117.357C312.81 116.377 313.61 115.477 314.85 115.737C316.37 116.057 315.94 117.227 315.61 118.117C314.23 121.867 318.4 120.427 319.6 122.537C313.33 123.327 313.86 128.317 313.14 132.597C312.28 137.727 312.27 137.727 317.75 137.387C316.77 139.417 314.94 139.877 313.34 140.437C309.34 141.847 307.89 140.727 308.42 136.607C308.76 133.947 309.38 131.307 310 128.697C310.63 126.047 311.31 123.467 306.63 122.727L306.64 122.717Z" fill="#363636"/>
<path d="M327.75 129.027C327.5 129.207 327.15 129.597 327.03 129.537C326.45 129.227 326.62 128.757 326.91 128.307C327.19 128.547 327.47 128.787 327.75 129.037V129.027Z" fill="#363636"/>
<path d="M359.21 129.017C358.99 129.117 358.76 129.207 358.54 129.307C358.65 129.107 358.77 128.907 358.88 128.697L359.21 129.017Z" fill="#363636"/>
</g>
<defs>
<clipPath id="clip0_2006_13374">
<rect width="405.76" height="140.62" fill="white" transform="translate(0.119995 0.74707)"/>
</clipPath>
</defs>
</svg>
