<svg width="66" height="90" viewBox="0 0 66 90" fill="none" xmlns="http://www.w3.org/2000/svg">
<g clip-path="url(#clip0_1047_234)">
<path fill-rule="evenodd" clip-rule="evenodd" d="M51.043 74.945H14.6051V82.0227H51.043V74.945ZM41.4162 26.7811L44.3552 17.5741L42.2259 18.3839C41.8361 17.5741 41.4162 16.3146 40.5465 15.5048C38.867 13.3755 36.7977 13.3755 35.1483 13.3755H27.6208C26.7511 13.3755 25.9414 13.7654 25.0716 14.6351L20.873 21.7128L28.4005 25.9114V25.5215C29.6601 24.2619 30.5298 22.5825 31.3396 21.3229C31.3396 20.933 31.8194 20.5132 32.2093 20.0633L33.8887 23.4822L31.8194 24.2919L41.4162 26.8411V26.7811ZM23.4222 37.2776L25.4915 33.8587C25.9713 33.8587 26.7511 34.2486 26.7511 34.7284L27.6208 35.1183L24.6818 25.1016L14.995 27.5608L16.7344 28.8204C16.2546 29.6901 15.4748 30.8897 15.4748 32.1493C14.6051 34.6984 15.4748 36.3479 16.2846 37.6375C16.2846 37.6375 19.6135 43.0357 20.0933 43.9054C20.903 45.105 21.7727 45.5848 22.5525 45.5848H30.5598V37.2476H23.4222V37.2776ZM50.2333 32.2093L46.0347 25.1316L38.897 30.14C39.7667 31.3995 40.5765 33.079 41.4462 34.2786C41.8361 34.7584 42.2559 35.1483 42.7058 36.018H38.5072V34.2786L38.897 33.4688L31.8194 41.0263L38.897 48.104V45.6448H42.7058C44.7751 44.7751 46.0347 43.0956 46.8444 41.4462L50.2333 35.1783C50.6231 33.9187 50.6231 33.109 50.2333 32.2393V32.2093ZM19.6135 83.3122V90H46.0347V83.3122H19.6135ZM51.043 66.5478H14.6051V73.6854H51.043V66.5478ZM52.3026 63.1889C52.6924 62.3192 53.1723 61.5095 53.1723 60.6398V59.8301C54.3719 53.1423 56.921 48.9437 59.8301 44.7451C62.7691 40.1266 65.7081 35.988 65.7081 28.0407C65.7081 12.5058 51.043 0 32.6291 0C14.2153 0 0 12.5058 0 28.0706C0 36.018 2.93902 40.1566 5.78807 44.7751C8.72709 48.9737 11.6661 53.5921 12.5358 61.5395C12.5358 63.2189 14.2153 64.8684 16.2846 64.8684H49.3635C50.6231 64.8684 51.9127 63.9987 52.3026 63.1889Z" fill="url(#paint0_linear_1047_234)"/>
</g>
<defs>
<linearGradient id="paint0_linear_1047_234" x1="0" y1="45" x2="65.7081" y2="45" gradientUnits="userSpaceOnUse">
<stop stop-color="#32AA93"/>
<stop offset="1" stop-color="#7CBF80"/>
</linearGradient>
<clipPath id="clip0_1047_234">
<rect width="65.7081" height="90" fill="white"/>
</clipPath>
</defs>
</svg>
