<svg width="90" height="86" viewBox="0 0 90 86" fill="none" xmlns="http://www.w3.org/2000/svg">
<g clip-path="url(#clip0_1047_232)">
<path fill-rule="evenodd" clip-rule="evenodd" d="M42.3009 0.000244141C62.7346 0.000244141 79.7526 16.2253 80.576 36.2015H90L83.1379 47.6688L76.7638 58.7397L70.3897 47.6688L64.0156 36.2015H72.494C71.6706 20.434 58.4649 8.08225 42.3009 8.08225V0.000244141ZM5.27614 59.6546C-4.97123 42.1792 0.121957 19.641 17.1399 8.57022L12.4737 0.488214H38.8546L32.084 11.9555L25.7099 23.0263L21.0132 15.3408C8.17346 24.3073 3.96472 41.7827 12.0467 55.8423L5.27614 59.6546ZM75.4828 62.1554C65.2965 80.0884 42.6974 86.493 24.7949 77.496L20.1287 85.1815L13.7546 74.1107L7.38051 62.6434H33.3649L28.6682 70.7254C43.1243 77.5265 60.1423 72.0063 68.2243 58.3737L75.4828 62.1859V62.1554Z" fill="url(#paint0_linear_1047_232)"/>
</g>
<defs>
<linearGradient id="paint0_linear_1047_232" x1="0.00732422" y1="42.5909" x2="90" y2="42.5909" gradientUnits="userSpaceOnUse">
<stop stop-color="#32AA93"/>
<stop offset="1" stop-color="#7CBF80"/>
</linearGradient>
<clipPath id="clip0_1047_232">
<rect width="90" height="85.1813" fill="white"/>
</clipPath>
</defs>
</svg>
