<svg width="90" height="82" viewBox="0 0 90 82" fill="none" xmlns="http://www.w3.org/2000/svg">
<g clip-path="url(#clip0_1047_230)">
<path fill-rule="evenodd" clip-rule="evenodd" d="M45.0299 33.1753C44.1639 31.4434 42.4917 28.9948 40.4313 26.4566V26.0684C40.4313 24.0081 40.4313 21.4699 39.1772 18.5436C37.505 12.6909 33.3245 7.70415 27.9496 4.38962C24.9635 2.71742 22.0372 1.07509 18.7823 0.657037C15.4081 -0.208921 11.6755 -0.208921 8.77903 0.657037C5.85269 1.43341 3.31453 2.71742 2.06038 3.97157C1.25415 4.77781 0.865959 5.22572 0.388188 5.64377L0 6.45C0 6.45 0 6.83819 0.388188 6.83819C0.865959 7.31596 1.64234 7.70415 2.06038 8.51039C3.31453 9.76453 4.59854 11.0485 5.85269 13.1089C10.4214 18.9616 16.2741 24.0081 23.3809 26.4865C25.8295 27.3525 28.3676 27.7406 30.8162 28.1587C32.9363 28.6365 37.923 29.0247 39.5952 29.0247L39.9834 29.8309C41.2376 32.7572 42.1035 35.2954 42.5216 36.0718V73.1886C24.9934 73.5767 14.6317 79.0412 14.6317 79.0412C66.7087 85.2821 22.933 77.7871 80.8626 79.0412C67.9628 74.8607 56.6755 73.1886 47.1201 73.1886C47.5083 58.6166 45.866 42.7904 50.9124 29.0247C52.5846 29.0247 57.1533 28.6365 59.2137 28.1587C61.7518 27.7705 64.2004 27.3525 66.7087 26.4865C73.8155 24.0379 79.6682 18.9616 84.2369 13.1089C85.4313 11.0485 86.6855 9.7944 87.9695 8.51039C88.3577 7.70415 88.8354 7.31596 89.2236 6.83819C89.6118 6.83819 90.0299 6.45 90.0299 6.45L89.6417 5.64377C89.2535 5.25558 88.8354 4.77781 87.9695 3.97157C86.7153 2.71742 84.2369 1.43341 81.3404 0.657037C78.0259 -0.208921 74.6218 -0.208921 71.3072 0.657037C67.9927 1.04523 65.0664 2.71742 62.14 4.38962C56.7054 7.70415 52.5846 12.6909 50.4645 18.5436C49.6583 21.4699 49.2104 24.0081 49.2104 26.0684C48.8222 27.3226 48.0159 28.6066 47.5382 29.383L45.0896 33.1753H45.0299Z" fill="url(#paint0_linear_1047_230)"/>
</g>
<defs>
<linearGradient id="paint0_linear_1047_230" x1="0" y1="40.782" x2="90.0299" y2="40.782" gradientUnits="userSpaceOnUse">
<stop stop-color="#32AA93"/>
<stop offset="1" stop-color="#7CBF80"/>
</linearGradient>
<clipPath id="clip0_1047_230">
<rect width="90" height="81.5196" fill="white"/>
</clipPath>
</defs>
</svg>
