<svg width="69" height="65" viewBox="0 0 69 65" fill="none" xmlns="http://www.w3.org/2000/svg">
<g clip-path="url(#clip0_2006_13587)">
<path fill-rule="evenodd" clip-rule="evenodd" d="M68.0632 14.6213C68.0632 7.68567 53.8711 2.038 35.957 1.66705L35.7736 0.841777C35.636 0.474991 35.2234 0.154053 34.8524 0.154053H33.3853C32.9727 0.154053 32.56 0.474991 32.4683 0.841777L32.2391 1.66705C14.3249 2.038 0.0869522 7.68567 0.0869522 14.6213C0.0869522 20.6399 10.8363 25.6915 25.3952 27.1587L24.7075 29.822C24.6158 30.1888 24.845 30.5098 25.2576 30.5098H42.9384C43.351 30.5098 43.5803 30.1888 43.4886 29.822L42.8009 27.1587C57.3139 25.6874 68.0632 20.6357 68.0632 14.6213ZM40.8252 19.7646L36.6905 4.42211C50.1949 4.83474 60.7109 8.14415 60.7109 12.2288C60.7109 15.8592 52.2581 18.8893 40.8252 19.7604V19.7646ZM7.48103 12.233C7.48103 8.14415 17.997 4.79306 31.5013 4.42628L27.3667 19.7688C15.9296 18.8977 7.48103 15.8633 7.48103 12.2372V12.233Z" fill="white"/>
<path fill-rule="evenodd" clip-rule="evenodd" d="M15.2543 39.5836H12.27L13.7871 35.8157L15.2585 39.5836H15.2543ZM10.6611 42.0177H11.303L12.0366 40.1796H15.4335L16.1671 42.0177H16.9007L14.1914 35.1738H13.412L10.657 42.0177H10.6611ZM17.7343 39.171C17.7343 38.3457 18.2844 37.4246 19.2056 37.4246C20.1267 37.4246 20.4935 38.2957 20.4935 39.171H17.7384H17.7343ZM20.7686 41.2383C20.4935 41.4217 19.8516 41.6051 19.389 41.6051C18.3345 41.6051 17.7343 40.734 17.7343 39.6753H21.1312V39.3544C21.1312 38.0206 20.581 36.9202 19.1556 36.9202C17.9135 36.9202 17.0882 37.9747 17.0882 39.4919C17.0882 41.0091 17.6842 42.1094 19.3389 42.1094C19.7974 42.1094 20.3476 42.0177 20.7644 41.8343V41.2383H20.7686ZM21.7772 38.1623C21.7772 37.6121 21.7772 37.3829 21.7314 37.0161H22.3733V37.9789C22.6025 37.4287 23.0151 36.9244 23.6612 36.9244C23.7987 36.9244 23.9821 36.9244 24.0738 36.9702V37.6121C23.9363 37.5663 23.7987 37.5663 23.6153 37.5663C22.6525 37.5663 22.4191 38.6666 22.4191 39.5419V42.0219H21.7772V38.1623ZM24.8074 39.4919C24.8074 38.3457 25.3576 37.4246 26.4621 37.4246C27.5666 37.4246 28.1168 38.3415 28.1168 39.4919C28.1168 40.6423 27.5208 41.6051 26.4621 41.6051C25.4034 41.6051 24.8074 40.6423 24.8074 39.4919ZM24.1197 39.4919C24.1197 40.8715 24.8532 42.1094 26.4621 42.1094C28.071 42.1094 28.7587 40.8715 28.7587 39.4919C28.7587 38.1123 28.071 36.9202 26.4621 36.9202C24.8532 36.9202 24.1197 38.1623 24.1197 39.4919ZM33.0768 39.4919C33.0768 40.4547 32.8017 41.6051 31.6054 41.6051C30.5051 41.6051 30.1341 40.4089 30.1341 39.4919C30.1341 38.5749 30.5009 37.4246 31.6054 37.4246C32.8017 37.4246 33.0768 38.5249 33.0768 39.4919ZM29.5381 44.0392H30.1341V41.1466H30.18C30.4551 41.7885 30.9135 42.1094 31.6971 42.1094C33.0768 42.1094 33.7645 40.9632 33.7645 39.4919C33.7645 38.0206 33.1684 36.9202 31.6971 36.9202C30.6426 36.9202 30.2717 37.6538 30.1341 37.9289H30.0883L30.1341 37.0119H29.5381V44.0392ZM38.3576 40.8257C38.3576 41.1925 38.3576 41.6051 38.4035 42.0219H37.8075V41.1049H37.7616C37.5782 41.5634 37.2114 42.1136 36.1528 42.1136C34.9565 42.1136 34.4522 41.2883 34.4522 40.2296V37.0161H35.0941V40.0462C35.0941 40.9632 35.415 41.6093 36.2403 41.6093C37.3865 41.6093 37.7116 40.6006 37.7116 39.7712V37.0161H38.3535V40.8257H38.3576ZM40.0582 39.171C40.0582 38.3457 40.6084 37.4246 41.5295 37.4246C42.4506 37.4246 42.7716 38.2957 42.7716 39.171H40.0624H40.0582ZM43.0883 41.2383C42.7674 41.4217 42.1255 41.6051 41.6629 41.6051C40.6084 41.6051 40.054 40.734 40.054 39.6753H43.451V39.3544C43.451 38.0206 42.8549 36.9202 41.4753 36.9202C40.1874 36.9202 39.3621 37.9747 39.3621 39.4919C39.3621 41.0091 39.9582 42.1094 41.6129 42.1094C42.0713 42.1094 42.6215 42.0177 43.0842 41.8343V41.2383H43.0883ZM44.2846 38.1623C44.2846 37.6121 44.2846 37.3829 44.2387 37.0161H44.8347V37.9789H44.8806C45.1098 37.4287 45.5225 36.9244 46.1685 36.9244C46.3061 36.9244 46.4895 36.9244 46.5812 36.9702V37.6121C46.4436 37.5663 46.3061 37.5663 46.1227 37.5663C45.1599 37.5663 44.8806 38.6666 44.8806 39.5419V42.0219H44.2846V38.1623ZM49.5196 37.5621H48.3734V40.7757C48.3734 41.2341 48.5568 41.6051 49.0611 41.6051C49.2904 41.6051 49.4279 41.5592 49.6113 41.4675L49.6572 41.9719C49.5196 42.0177 49.1987 42.1094 48.9236 42.1094C47.8232 42.1094 47.7774 41.3758 47.7774 40.4547V37.5621H46.8146V37.0119H47.7774V35.8157L48.3734 35.6323V37.0119H49.5196V37.5621ZM50.5741 39.4919C50.5741 38.3457 51.1243 37.4246 52.2288 37.4246C53.3333 37.4246 53.8377 38.3415 53.8377 39.4919C53.8377 40.6423 53.2875 41.6051 52.2288 41.6051C51.1701 41.6051 50.5741 40.6423 50.5741 39.4919ZM49.8864 39.4919C49.8864 40.8715 50.62 42.1094 52.2288 42.1094C53.8377 42.1094 54.5254 40.8715 54.5254 39.4919C54.5254 38.1123 53.8377 36.9202 52.2288 36.9202C50.62 36.9202 49.8864 38.1623 49.8864 39.4919ZM55.1673 41.2842C55.5341 41.4675 55.9925 41.6051 56.4552 41.6051C57.0512 41.6051 57.5556 41.2842 57.5556 40.6881C57.5556 39.5419 55.1673 39.7253 55.1673 38.254C55.1673 37.2912 55.9925 36.9202 56.7761 36.9202C57.0512 36.9202 57.6014 36.9661 58.0182 37.1495L57.9724 37.6538C57.6222 37.5121 57.2471 37.4329 56.872 37.4246C56.2301 37.4246 55.7716 37.6538 55.7716 38.2498C55.7716 39.1668 58.2516 39.0751 58.2516 40.684C58.2516 41.7385 57.243 42.1053 56.5052 42.1053C56.0467 42.1053 55.5424 42.0594 55.1256 41.876L55.1714 41.28L55.1673 41.2842ZM14.404 49.7577H12.7035L13.5746 47.0944H13.6204L14.3998 49.7577H14.404ZM9.90254 52.5128H11.7406L12.2908 51.0415H14.8625L15.3668 52.5128H17.3425L14.7249 45.6689H12.4742L9.90254 52.5128ZM21.0645 48.8408C20.8811 48.7491 20.6519 48.7491 20.4685 48.7491C19.6432 48.7491 19.1806 49.3451 19.1806 50.3579V52.517H17.4342V47.4195H19.043V48.3364C19.364 47.6946 19.7766 47.2819 20.5602 47.2819C20.7436 47.2819 20.9728 47.3278 21.1562 47.3736L21.0645 48.8408ZM22.9943 49.8953C22.9943 49.2076 23.3152 48.6532 23.9571 48.6532C24.7866 48.6532 25.1075 49.2951 25.1075 49.8494C25.1075 50.6289 24.6032 51.1374 23.9571 51.1374C23.4528 51.1374 22.9943 50.7247 22.9943 49.8953ZM26.808 47.4153H25.1992V48.3323C24.8324 47.6904 24.1905 47.2778 23.4528 47.2778C21.8898 47.2778 21.1562 48.424 21.1562 49.9411C21.1562 51.4583 22.0273 52.5128 23.4069 52.5128C24.1405 52.5128 24.7407 52.2377 25.1533 51.6417V51.9168C25.1533 52.8796 24.6032 53.3881 23.5903 53.3881C22.8568 53.3881 22.3983 53.2047 21.8898 52.9755L21.7981 54.3551C22.4191 54.5635 23.0693 54.6718 23.7279 54.676C25.7952 54.676 26.8039 53.9883 26.8039 51.9209V47.4195L26.808 47.4153ZM28.9212 49.4827C28.9212 48.8866 29.2422 48.4281 29.884 48.4281C30.5718 48.4281 30.8469 48.8866 30.8469 49.4827H28.9171H28.9212ZM32.4099 50.4455V50.1245C32.4099 48.6532 31.7221 47.2778 29.884 47.2778C28.2752 47.2778 27.129 48.2864 27.129 49.9411C27.129 51.5958 28.4169 52.6045 30.1133 52.6045C30.7552 52.6045 31.4012 52.5128 31.9514 52.2836V51.0457C31.4721 51.3082 30.9344 51.45 30.3884 51.4583C29.5631 51.4583 29.0088 51.1832 28.9212 50.4496H32.4099V50.4455ZM33.0059 47.4153H34.6148V48.3323C34.9815 47.5987 35.6693 47.2778 36.4529 47.2778C37.8325 47.2778 38.4285 48.2864 38.4285 49.3451V52.5128H36.6362V50.0328C36.6362 49.07 36.3153 48.7449 35.8568 48.7449C35.1233 48.7449 34.7523 49.2492 34.7523 50.3538V52.5128H33.0101V47.4153H33.0059ZM38.7036 47.4153H39.7581V46.2691L41.4587 45.7648V47.4195H42.6966V48.6616H41.4587V50.4997C41.4587 51.1415 41.5962 51.4625 42.1464 51.4625C42.3298 51.4625 42.5132 51.4166 42.6966 51.3708L42.7424 52.517C42.4215 52.5628 42.1005 52.6087 41.6379 52.6087C40.0749 52.6087 39.7081 51.9209 39.7081 50.7247V48.6574H38.6994V47.4153H38.7036ZM43.3426 47.4153H45.089V52.5128H43.3426V47.4153ZM45.0848 46.59H43.3384V45.3021H45.0848V46.59ZM46.0518 47.4153H47.6607V48.3323C48.0275 47.5987 48.7152 47.2778 49.5446 47.2778C50.9242 47.2778 51.4744 48.2864 51.4744 49.3451V52.5128H49.728V50.0328C49.728 49.07 49.3612 48.7449 48.9027 48.7449C48.1692 48.7449 47.7982 49.2492 47.7982 50.3538V52.5128H46.0518V47.4153ZM53.4 50.9081C53.4 50.4038 53.8585 50.2204 54.4545 50.2204C54.7296 50.2204 55.0047 50.2204 55.234 50.2662C55.234 50.8164 54.7755 51.4625 54.1294 51.4625C53.7168 51.4625 53.3959 51.2332 53.3959 50.9123L53.4 50.9081ZM56.9387 52.5128C56.8928 52.1002 56.847 51.6875 56.847 51.2707V49.3868C56.847 47.8696 55.7425 47.2736 54.4587 47.2736C53.7543 47.2736 53.0541 47.3945 52.3914 47.6404L52.4372 48.8366C52.9416 48.5615 53.4917 48.4698 54.0461 48.4698C54.688 48.4698 55.1965 48.6532 55.2423 49.3409C55.0131 49.2951 54.6921 49.2951 54.4129 49.2951C53.4501 49.2951 51.7953 49.4785 51.7953 50.9956C51.7953 52.1002 52.6665 52.6045 53.6793 52.6045C54.4129 52.6045 54.8755 52.3294 55.2882 51.6875C55.2882 51.9626 55.334 52.2377 55.334 52.5128H56.9429H56.9387ZM24.028 62.7286C25.4076 61.5324 27.0123 60.2487 27.0123 59.3317C27.0123 58.7357 26.5996 58.4606 26.0495 58.4606C25.4534 58.4606 24.6699 58.6898 24.2572 58.9191L24.2114 57.5394C25.1742 57.1727 25.8202 57.1268 26.187 57.1268C27.75 57.1268 28.8045 57.7687 28.8045 59.1024C28.8045 60.4362 27.3791 61.7658 26.7372 62.316L26.2787 62.7745H28.9421V64.0624H24.028V62.7286ZM31.8347 62.912C31.0094 62.912 30.9636 61.7158 30.9636 60.6613C30.9636 59.6068 31.0094 58.3647 31.8347 58.3647C32.66 58.3647 32.71 59.5609 32.71 60.6613C32.71 61.7616 32.6641 62.912 31.8347 62.912ZM31.8347 64.1541C34.0854 64.1541 34.4522 62.4077 34.4522 60.6655C34.4522 58.9232 34.0854 57.1268 31.8347 57.1268C29.5839 57.1268 29.1713 58.8732 29.1713 60.6655C29.1713 62.4577 29.5839 64.1541 31.8347 64.1541ZM37.4407 62.912C36.6112 62.912 36.5654 61.7158 36.5654 60.6613C36.5654 59.6068 36.6112 58.3647 37.4407 58.3647C38.2701 58.3647 38.3576 59.5609 38.3576 60.6613C38.3576 61.7616 38.2659 62.912 37.4407 62.912ZM37.4407 64.1541C39.6914 64.1541 40.104 62.4077 40.104 60.6655C40.104 58.9232 39.6914 57.1268 37.4407 57.1268C35.1899 57.1268 34.8232 58.8732 34.8232 60.6655C34.8232 62.4119 35.1899 64.1541 37.4407 64.1541ZM43.0425 62.912C42.2131 62.912 42.1255 61.7158 42.1255 60.6613C42.1255 59.6068 42.2172 58.3647 43.0425 58.3647C43.8219 58.3647 43.9136 59.5609 43.9136 60.6613C43.9136 61.7616 43.8219 62.912 43.0425 62.912ZM43.0425 64.1541C45.2932 64.1541 45.66 62.4077 45.66 60.6655C45.66 58.9232 45.2932 57.1268 43.0425 57.1268C40.7918 57.1268 40.3791 58.8732 40.3791 60.6655C40.3791 62.4577 40.7918 64.1541 43.0425 64.1541Z" fill="white"/>
</g>
<defs>
<clipPath id="clip0_2006_13587">
<rect width="67.9763" height="64" fill="white" transform="translate(0.0870972 0.154053)"/>
</clipPath>
</defs>
</svg>
