<svg width="247" height="233" viewBox="0 0 247 233" fill="none" xmlns="http://www.w3.org/2000/svg">
<path fill-rule="evenodd" clip-rule="evenodd" d="M246.617 52.838C246.617 27.6876 195.208 7.20747 130.317 5.86228L129.652 2.86962C129.154 1.53955 127.659 0.375732 126.316 0.375732H121.001C119.506 0.375732 118.012 1.53955 117.679 2.86962L116.849 5.86228C51.9577 7.20747 0.382812 27.6876 0.382812 52.838C0.382812 74.6633 39.3206 92.982 92.0581 98.3023L89.5669 107.96C89.2347 109.291 90.0651 110.454 91.5598 110.454H155.606C157.1 110.454 157.931 109.291 157.599 107.96L155.107 98.3023C207.679 92.9669 246.617 74.6482 246.617 52.838ZM147.951 71.4893L132.974 15.8529C181.891 17.3493 219.984 29.3501 219.984 44.1623C219.984 57.327 189.365 68.3152 147.951 71.4741V71.4893ZM27.1667 44.1774C27.1667 29.3501 65.2591 17.1981 114.177 15.8681L99.1994 71.5044C57.7704 68.3455 27.1667 57.3421 27.1667 44.1925V44.1774Z" fill="black"/>
<path fill-rule="evenodd" clip-rule="evenodd" d="M55.3234 143.358H44.5132L50.0089 129.695L55.3385 143.358H55.3234ZM38.6853 152.185H41.0104L43.6677 145.52H55.9726L58.6299 152.185H61.2871L51.4734 127.367H48.65L38.6702 152.185H38.6853ZM64.3067 141.862C64.3067 138.869 66.2996 135.529 69.6363 135.529C72.973 135.529 74.3016 138.688 74.3016 141.862H64.3218H64.3067ZM75.2981 149.359C74.3016 150.024 71.9765 150.689 70.3006 150.689C66.4808 150.689 64.3067 147.53 64.3067 143.691H76.6116V142.527C76.6116 137.69 74.6187 133.7 69.4551 133.7C64.9559 133.7 61.9665 137.524 61.9665 143.026C61.9665 148.527 64.1255 152.518 70.1195 152.518C71.7802 152.518 73.7732 152.185 75.283 151.52V149.359H75.2981ZM78.9518 138.204C78.9518 136.209 78.9518 135.378 78.7857 134.048H81.1108V137.539C81.9412 135.544 83.4359 133.715 85.7761 133.715C86.2744 133.715 86.9387 133.715 87.2708 133.882V136.209C86.7726 136.043 86.2744 136.043 85.61 136.043C82.1224 136.043 81.2769 140.033 81.2769 143.207V152.2H78.9518V138.204ZM89.9281 143.026C89.9281 138.869 91.921 135.529 95.922 135.529C99.923 135.529 101.916 138.854 101.916 143.026C101.916 147.197 99.7569 150.689 95.922 150.689C92.0871 150.689 89.9281 147.197 89.9281 143.026ZM87.4369 143.026C87.4369 148.029 90.0942 152.518 95.922 152.518C101.75 152.518 104.241 148.029 104.241 143.026C104.241 138.023 101.75 133.7 95.922 133.7C90.0942 133.7 87.4369 138.204 87.4369 143.026ZM119.883 143.026C119.883 146.517 118.886 150.689 114.553 150.689C110.567 150.689 109.223 146.351 109.223 143.026C109.223 139.701 110.552 135.529 114.553 135.529C118.886 135.529 119.883 139.519 119.883 143.026ZM107.064 159.516H109.223V149.026H109.389C110.386 151.354 112.047 152.518 114.885 152.518C119.883 152.518 122.374 148.361 122.374 143.026C122.374 137.69 120.215 133.7 114.885 133.7C111.065 133.7 109.722 136.36 109.223 137.358H109.057L109.223 134.033H107.064V159.516ZM139.012 147.862C139.012 149.192 139.012 150.689 139.178 152.2H137.019V148.875H136.853C136.188 150.538 134.86 152.533 131.025 152.533C126.692 152.533 124.865 149.54 124.865 145.701V134.048H127.19V145.036C127.19 148.361 128.353 150.704 131.342 150.704C135.494 150.704 136.672 147.046 136.672 144.038V134.048H138.997V147.862H139.012ZM145.172 141.862C145.172 138.869 147.165 135.529 150.501 135.529C153.838 135.529 155.001 138.688 155.001 141.862H145.187H145.172ZM156.148 149.359C154.986 150.024 152.66 150.689 150.985 150.689C147.165 150.689 145.157 147.53 145.157 143.691H157.462V142.527C157.462 137.69 155.303 133.7 150.305 133.7C145.64 133.7 142.65 137.524 142.65 143.026C142.65 148.527 144.809 152.518 150.803 152.518C152.464 152.518 154.457 152.185 156.133 151.52V149.359H156.148ZM160.481 138.204C160.481 136.209 160.481 135.378 160.315 134.048H162.474V137.539H162.64C163.471 135.544 164.965 133.715 167.305 133.715C167.804 133.715 168.468 133.715 168.8 133.882V136.209C168.302 136.043 167.804 136.043 167.139 136.043C163.652 136.043 162.64 140.033 162.64 143.207V152.2H160.481V138.204ZM179.444 136.028H175.292V147.681C175.292 149.344 175.957 150.689 177.784 150.689C178.614 150.689 179.112 150.523 179.776 150.19L179.943 152.019C179.444 152.185 178.282 152.518 177.285 152.518C173.299 152.518 173.133 149.858 173.133 146.517V136.028H169.646V134.033H173.133V129.695L175.292 129.03V134.033H179.444V136.028ZM183.264 143.026C183.264 138.869 185.257 135.529 189.258 135.529C193.259 135.529 195.086 138.854 195.086 143.026C195.086 147.197 193.093 150.689 189.258 150.689C185.423 150.689 183.264 147.197 183.264 143.026ZM180.773 143.026C180.773 148.029 183.43 152.518 189.258 152.518C195.086 152.518 197.577 148.029 197.577 143.026C197.577 138.023 195.086 133.7 189.258 133.7C183.43 133.7 180.773 138.204 180.773 143.026ZM199.902 149.525C201.231 150.19 202.892 150.689 204.567 150.689C206.726 150.689 208.553 149.525 208.553 147.364C208.553 143.207 199.902 143.872 199.902 138.537C199.902 135.045 202.892 133.7 205.73 133.7C206.726 133.7 208.719 133.866 210.229 134.531L210.063 136.36C208.795 135.846 207.436 135.559 206.077 135.529C203.752 135.529 202.091 136.36 202.091 138.522C202.091 141.847 211.075 141.514 211.075 147.349C211.075 151.172 207.421 152.503 204.749 152.503C203.088 152.503 201.261 152.336 199.751 151.671L199.917 149.51L199.902 149.525ZM52.2434 180.253H46.0834L49.2389 170.595H49.405L52.2283 180.253H52.2434ZM35.9375 190.243H42.5957L44.5887 184.908H53.9042L55.731 190.243H62.8875L53.4059 165.425H45.253L35.9375 190.243ZM76.37 176.927C75.7057 176.595 74.8753 176.595 74.211 176.595C71.2216 176.595 69.5457 178.756 69.5457 182.429V190.258H63.2196V171.773H69.0475V175.099C70.21 172.771 71.7047 171.275 74.5432 171.275C75.2075 171.275 76.0379 171.441 76.7022 171.607L76.37 176.927ZM83.3604 180.751C83.3604 178.258 84.523 176.247 86.8481 176.247C89.8526 176.247 91.0151 178.575 91.0151 180.585C91.0151 183.412 89.1883 185.256 86.8481 185.256C85.0212 185.256 83.3604 183.759 83.3604 180.751ZM97.1751 171.758H91.3473V175.084C90.0187 172.756 87.6936 171.26 85.0212 171.26C79.3595 171.26 76.7022 175.416 76.7022 180.918C76.7022 186.419 79.8577 190.243 84.8551 190.243C87.5124 190.243 89.6865 189.246 91.1812 187.084V188.082C91.1812 191.573 89.1883 193.417 85.5194 193.417C82.8622 193.417 81.2014 192.752 79.3595 191.921L79.0273 196.924C81.2769 197.68 83.6322 198.073 86.0177 198.088C93.5063 198.088 97.16 195.594 97.16 188.097V171.773L97.1751 171.758ZM104.83 179.255C104.83 177.094 105.992 175.431 108.317 175.431C110.809 175.431 111.805 177.094 111.805 179.255H104.815H104.83ZM117.467 182.747V181.583C117.467 176.247 114.976 171.26 108.317 171.26C102.49 171.26 98.3377 174.917 98.3377 180.918C98.3377 186.918 103.003 190.576 109.148 190.576C111.473 190.576 113.813 190.243 115.806 189.412V184.923C114.07 185.875 112.122 186.389 110.144 186.419C107.155 186.419 105.147 185.422 104.83 182.762H117.467V182.747ZM119.626 171.758H125.454V175.084C126.782 172.423 129.274 171.26 132.112 171.26C137.109 171.26 139.268 174.917 139.268 178.756V190.243H132.776V181.25C132.776 177.759 131.614 176.58 129.953 176.58C127.296 176.58 125.952 178.409 125.952 182.414V190.243H119.641V171.758H119.626ZM140.265 171.758H144.085V167.602L150.245 165.773V171.773H154.729V176.278H150.245V182.943C150.245 185.271 150.743 186.434 152.736 186.434C153.4 186.434 154.065 186.268 154.729 186.102L154.895 190.258C153.732 190.425 152.57 190.591 150.894 190.591C145.232 190.591 143.904 188.097 143.904 183.759V176.262H140.25V171.758H140.265ZM157.069 171.758H163.395V190.243H157.069V171.758ZM163.38 168.766H157.054V164.095H163.38V168.766ZM166.883 171.758H172.711V175.084C174.039 172.423 176.53 171.26 179.535 171.26C184.532 171.26 186.525 174.917 186.525 178.756V190.243H180.199V181.25C180.199 177.759 178.871 176.58 177.21 176.58C174.553 176.58 173.209 178.409 173.209 182.414V190.243H166.883V171.758ZM193.501 184.424C193.501 182.595 195.161 181.93 197.32 181.93C198.317 181.93 199.313 181.93 200.144 182.097C200.144 184.092 198.483 186.434 196.143 186.434C194.648 186.434 193.486 185.603 193.486 184.439L193.501 184.424ZM206.319 190.243C206.153 188.747 205.987 187.251 205.987 185.739V178.907C205.987 173.406 201.986 171.244 197.335 171.244C194.784 171.244 192.247 171.683 189.847 172.575L190.013 176.912C191.84 175.915 193.833 175.582 195.841 175.582C198.166 175.582 200.008 176.247 200.174 178.741C199.344 178.575 198.181 178.575 197.169 178.575C193.682 178.575 187.688 179.24 187.688 184.742C187.688 188.747 190.843 190.576 194.512 190.576C197.169 190.576 198.845 189.578 200.34 187.251C200.34 188.248 200.506 189.246 200.506 190.243H206.334H206.319ZM87.1047 227.289C92.1022 222.951 97.9149 218.296 97.9149 214.971C97.9149 212.809 96.4202 211.812 94.4273 211.812C92.2683 211.812 89.4298 212.643 87.9351 213.474L87.7691 208.471C91.2567 207.141 93.5969 206.975 94.9255 206.975C100.587 206.975 104.407 209.303 104.407 214.139C104.407 218.976 99.2436 223.797 96.9185 225.793L95.2577 227.455H104.905V232.125H87.1047V227.289ZM115.383 227.954C112.394 227.954 112.228 223.616 112.228 219.792C112.228 215.968 112.394 211.464 115.383 211.464C118.373 211.464 118.554 215.802 118.554 219.792C118.554 223.782 118.388 227.954 115.383 227.954ZM115.383 232.458C123.536 232.458 124.865 226.125 124.865 219.807C124.865 213.489 123.536 206.975 115.383 206.975C107.23 206.975 105.736 213.308 105.736 219.807C105.736 226.306 107.23 232.458 115.383 232.458ZM135.69 227.954C132.686 227.954 132.52 223.616 132.52 219.792C132.52 215.968 132.686 211.464 135.69 211.464C138.695 211.464 139.012 215.802 139.012 219.792C139.012 223.782 138.68 227.954 135.69 227.954ZM135.69 232.458C143.843 232.458 145.338 226.125 145.338 219.807C145.338 213.489 143.843 206.975 135.69 206.975C127.537 206.975 126.209 213.308 126.209 219.807C126.209 226.14 127.537 232.458 135.69 232.458ZM155.982 227.954C152.977 227.954 152.66 223.616 152.66 219.792C152.66 215.968 152.993 211.464 155.982 211.464C158.805 211.464 159.137 215.802 159.137 219.792C159.137 223.782 158.805 227.954 155.982 227.954ZM155.982 232.458C164.135 232.458 165.464 226.125 165.464 219.807C165.464 213.489 164.135 206.975 155.982 206.975C147.829 206.975 146.334 213.308 146.334 219.807C146.334 226.306 147.829 232.458 155.982 232.458Z" fill="black"/>
</svg>
