<svg width="330" height="218" viewBox="0 0 330 218" fill="none" xmlns="http://www.w3.org/2000/svg">
<g clip-path="url(#clip0_1047_353)">
<path d="M329.241 160.561C329.035 161.111 328.857 161.68 328.624 162.212C326.856 166.157 322.843 167.77 318.886 166.94C317.381 166.623 316.024 165.97 314.827 165.103C313.798 165.504 313.405 166.744 312.245 166.791C311.946 165.886 311.89 159.834 312.152 158.593C313.218 158.379 313.246 158.369 313.508 159.283C313.966 160.869 314.63 162.352 315.706 163.629C318.26 166.66 322.684 166.95 325.518 164.282C326.482 163.378 327.127 162.286 327.286 160.971C327.539 158.873 326.837 157.129 324.882 156.187C323.161 155.357 321.328 154.76 319.541 154.079C318.643 153.734 317.717 153.482 316.838 153.109C313.199 151.552 311.927 148.138 312.264 144.706C312.61 141.153 315.033 138.635 318.606 138.038C320.813 137.665 322.909 138.057 324.863 139.148C325.247 139.362 325.621 139.586 325.958 139.791C326.893 139.54 327.146 138.309 328.212 138.346C328.511 139.185 328.605 144.333 328.334 146.217C327.95 146.236 327.548 146.255 327.052 146.273C326.959 145.807 326.893 145.415 326.8 145.042C326.079 142.16 324.63 139.903 321.571 139.064C318.877 138.327 316.127 139.474 315.033 141.759C314.528 142.813 314.481 143.914 314.752 145.023C314.967 145.881 315.519 146.525 316.314 146.889C316.96 147.187 317.652 147.42 318.335 147.644C320.346 148.306 322.385 148.894 324.368 149.612C326.276 150.302 327.772 151.543 328.652 153.408C328.904 153.939 329.054 154.527 329.26 155.086V160.589L329.241 160.561Z" fill="black"/>
<path d="M161.464 41.9961C160.987 41.3153 160.126 40.7464 158.779 40.2428C158.256 42.0801 157.302 43.479 155.122 43.4883C154.972 41.8096 155.693 41.0449 158.424 39.963C157.582 39.3661 156.862 38.7133 155.852 38.5361L155.88 38.5641C155.001 38.0045 154.131 37.4449 153.251 36.8853L153.279 36.9133C152.428 36.3537 151.577 35.7848 150.623 35.1507C150.034 37.2211 148.986 38.5827 146.825 38.7133C146.573 37.0252 147.293 36.2512 150.239 35.0294C149.313 34.4792 148.593 33.761 147.527 33.5372C145.927 33.2015 145.011 32.0637 144.908 30.3849C146.461 30.3197 147.536 31.0658 148.416 32.3901C148.827 31.7466 148.593 31.1404 148.715 30.5062C146.638 30.1145 145.31 29.0886 144.992 26.8783C146.722 26.9902 147.892 27.7083 148.593 29.3777C148.921 28.5197 148.836 27.8389 148.836 27.0275C147.686 26.8503 146.545 26.5985 145.871 25.5353C145.516 24.9757 145.17 24.3975 145.217 23.5861C146.853 23.7446 148.079 24.3695 148.939 25.8151C148.967 25.2368 148.995 24.6586 149.024 24.0804V24.099C149.117 24.5001 149.313 24.9104 149.332 25.3208C149.435 27.2327 149.482 29.1445 149.557 31.0564C149.566 31.3549 149.613 31.6533 149.678 32.2409C150.548 30.4875 151.727 29.6482 153.438 29.6109C153.401 31.4481 152.54 32.3155 149.865 33.1362C150.763 33.6398 151.521 34.0595 152.372 34.5351C152.634 33.8823 152.784 33.2574 153.12 32.7538C153.448 32.2782 153.925 31.8678 154.411 31.5507C154.935 31.215 155.534 30.9632 156.273 31.1404C155.964 33.0522 154.86 34.1434 152.905 34.6284C153.663 35.2906 154.467 35.5797 155.29 35.9807C155.534 35.3652 155.683 34.7403 156.011 34.2274C156.329 33.7517 156.806 33.332 157.292 33.0149C157.816 32.6699 158.433 32.4647 159.238 32.5859C158.817 34.4978 157.797 35.6823 155.655 36.0833C156.516 36.7548 157.273 37.0998 158.162 37.4636C158.639 35.4025 159.864 34.2087 162.016 33.9662C161.885 35.9154 161.034 36.8201 158.733 37.6035C159.266 38.1724 161.492 39.4034 162.876 39.8697C162.914 39.6366 162.989 39.4221 162.989 39.1983C163.054 35.533 163.101 31.8678 163.176 28.2026C163.185 27.671 163.073 27.27 162.549 27.0461C162.119 26.8596 161.698 26.6544 161.277 26.4586L161.296 26.4772C160.444 25.7498 159.5 25.1809 158.377 24.7332C157.891 26.6451 156.918 27.9508 154.813 28.0254C154.542 26.4119 155.262 25.6285 158.097 24.5001C157.273 23.9964 156.563 23.5674 155.711 23.0452C155.272 24.3042 154.795 25.414 153.672 26.0016C153.13 26.2814 152.512 26.4399 151.886 26.6638C151.764 24.7425 152.559 23.8752 155.253 22.9053C154.561 22.3177 153.859 21.926 152.971 21.7861C151.306 21.525 150.286 20.3032 150.183 18.5033C151.783 18.6245 152.989 19.296 153.71 20.9747C154.028 20.1447 153.915 19.4732 153.934 18.6991C151.933 18.4566 150.595 17.4774 150.277 15.2391C152.007 15.2111 153.111 15.9945 154.028 17.4028C154.084 16.9178 154.14 16.4235 154.177 16.0784C154.495 15.7707 154.776 15.5748 154.954 15.3137C155.739 14.1479 156.609 13.6256 158.115 13.4671C158.368 15.1738 157.217 16.3676 154.617 17.067V19.6411C155.206 18.9416 155.637 18.2981 156.198 17.7945C156.768 17.2909 157.517 17.0857 158.293 17.0577C158.489 18.7364 157.432 19.8276 154.795 20.7229C154.552 21.3198 155.019 21.4877 155.393 21.6929C156.591 22.3364 157.797 22.9612 159.004 23.5954C159.995 24.1177 160.978 24.6493 161.969 25.1622C162.306 25.3394 162.661 25.4793 163.157 25.7031V23.0079C161.099 22.784 159.79 21.6742 159.359 19.5571C161.09 19.3893 162.119 20.126 163.045 22.0659C163.372 21.3664 163.428 20.3405 163.194 19.0535C160.631 18.5406 159.743 17.7665 159.444 15.7613C160.828 15.5095 161.754 16.0691 163.279 18.1395V15.1551C162.222 15.0059 161.193 14.7261 160.482 13.8308C159.977 13.1966 159.687 12.4972 159.509 11.6858C161.342 11.6671 162.053 12.1987 163.344 14.5396V11.2101C160.865 10.8184 159.911 9.96973 159.621 7.91795C161.267 7.73143 162.371 8.49618 163.391 10.6972V7.45164C160.482 6.36979 159.977 5.90348 159.565 3.80507C161.426 3.82372 162.54 4.86826 163.484 6.32316V3.34808C162.502 3.27347 161.539 3.07762 160.818 2.30354C160.239 1.68801 159.836 0.969884 159.762 -0.0373535C161.604 0.0465829 162.773 0.923252 163.54 2.52737C163.587 2.10769 163.634 1.68801 163.681 1.26832C163.718 1.26832 163.746 1.26832 163.784 1.259C163.83 1.85588 163.915 2.45276 163.924 3.04964C164.036 9.98839 164.148 16.9271 164.251 23.8565C164.251 24.3695 164.251 24.8824 164.251 25.6379C165.926 24.9011 167.338 24.1177 168.741 23.3249C170.116 22.5415 171.706 22.0752 172.997 20.7882C172.202 20.5084 171.566 20.3872 171.042 20.0701C170.537 19.7716 170.088 19.3333 169.733 18.8763C169.358 18.3914 169.031 17.8225 169.106 17.1416C170.752 17.039 171.613 17.6266 172.922 19.8929C172.576 17.9717 173.811 17.0484 174.727 16.0225C175.317 15.3603 176.215 15.1645 177.131 15.2018C177.131 17.1043 176.187 18.009 173.455 18.7084C173.455 19.4919 173.39 20.3219 173.474 21.1333C173.549 21.8514 173.268 22.2058 172.67 22.5415C170.294 23.8565 167.965 25.2555 165.57 26.5518C164.654 27.0461 164.27 27.5871 164.326 28.6969C164.476 31.7652 164.448 34.8336 164.485 37.9019C164.485 38.4895 164.485 39.077 164.485 39.7765C164.859 39.6832 165.056 39.6739 165.215 39.59C168.769 37.762 172.324 35.9341 175.878 34.0968C176.009 34.0315 176.093 33.8823 176.205 33.7704L176.177 33.7984C176.402 33.7237 176.636 33.6585 176.86 33.5745C177.608 33.3041 177.964 32.8471 177.973 31.9704C178.001 29.6202 178.142 27.27 178.375 24.9011C178.478 25.3581 178.581 25.8057 178.731 26.4679C179.423 24.7519 180.564 23.9032 182.229 23.754C182.454 25.6006 181.2 26.9062 178.656 27.4005C178.656 27.8762 178.637 28.3798 178.656 28.8834C178.703 30.2357 178.74 31.5973 178.843 32.9403C178.899 33.6211 178.675 34.0222 178.067 34.3766C174.381 36.5403 170.715 38.7413 167.039 40.9329C166.767 41.0915 166.506 41.2687 166.197 41.4739C167.067 41.9029 167.918 42.2106 168.638 42.7143C169.377 43.2272 169.723 44.0386 169.761 44.9619C167.75 45.1484 166.702 44.2997 165.86 41.8656C164.728 42.1733 164.616 42.2666 164.625 43.2179C164.682 47.5639 164.756 51.91 164.822 56.2467C164.822 56.4332 164.887 56.6197 164.934 56.8995C165.233 56.7969 165.449 56.741 165.654 56.6384C171.379 53.6913 177.085 50.7255 182.818 47.8064C183.688 47.3587 184.081 46.8178 183.997 45.8572C183.941 45.1857 183.988 44.5142 183.988 43.7681C182.931 43.4977 181.808 43.3858 181.097 42.4531C180.611 41.8096 180.293 41.0915 180.19 40.2894C181.696 40.0656 182.678 40.6625 183.969 42.6117C184.306 41.7257 184.156 40.8677 184.221 40.0376C184.287 39.2076 184.268 38.3682 184.315 37.5289C184.362 36.6522 184.427 35.7848 184.614 34.8988C184.68 35.3838 184.736 35.8595 184.811 36.4377C185.353 35.8035 185.793 35.1786 186.354 34.6843C186.925 34.1807 187.654 33.9476 188.44 33.9382C188.515 35.8688 187.542 36.876 184.904 37.6221C184.886 37.7993 184.848 37.9858 184.839 38.1817C184.839 38.7319 184.839 39.2915 184.839 40.0563C185.512 39.3288 185.971 38.7226 186.541 38.247C187.13 37.762 187.86 37.5475 188.646 37.5848C188.571 39.5154 187.729 40.3267 185.045 41.1008C185.045 42.0428 185.026 42.9847 185.045 43.936C185.073 45.0925 185.091 46.2489 185.194 47.396C185.269 48.1888 184.96 48.6364 184.287 49.0281C181.21 50.8001 178.142 52.6188 175.083 54.4187C171.987 56.2373 168.891 58.0746 165.785 59.8839C165.28 60.173 164.897 60.4528 164.915 61.1523C165.018 65.4983 165.084 69.8444 165.159 74.1811C165.159 74.3303 165.205 74.4889 165.252 74.7127C165.514 74.6288 165.748 74.6008 165.944 74.4982C169.611 72.6143 173.268 70.7304 176.926 68.8371C177.131 68.7345 177.29 68.548 177.477 68.3988L177.44 68.4361C177.739 68.3242 178.048 68.2496 178.329 68.1004C182.061 66.1885 185.784 64.2486 189.525 62.3554C190.227 62.001 190.535 61.5906 190.526 60.7979C190.516 59.6135 190.629 58.4197 190.685 57.1886C188.599 56.8156 187.261 55.7804 186.925 53.5887C188.674 53.626 189.824 54.4281 190.713 55.8643C190.872 52.1431 191.04 48.4219 191.199 44.7008C191.265 44.7008 191.33 44.7008 191.396 44.7008C191.583 49.2613 191.779 53.8125 191.966 58.457C192.556 57.8415 193.023 57.2726 193.575 56.8156C194.164 56.3213 194.913 56.1441 195.689 56.1254C195.811 57.9068 194.772 58.914 192.088 59.5948C192.088 60.3502 192.032 61.1336 192.107 61.9077C192.181 62.6911 191.901 63.1388 191.218 63.5398C184.549 67.4102 177.898 71.3179 171.248 75.2163C170.771 75.4961 170.322 75.8412 169.864 76.1583L169.892 76.1396C168.47 76.9323 167.039 77.7344 165.608 78.5178C165.168 78.7603 165.196 79.152 165.205 79.553C165.252 82.0618 165.29 84.5799 165.346 87.0886C165.383 88.8327 165.421 90.5767 165.458 92.4886C165.944 92.2741 166.3 92.1342 166.646 91.9663C176.084 87.1633 185.522 82.3509 194.959 77.5479C195.24 77.3987 195.521 77.2401 195.811 77.1095C196.419 76.8298 196.718 76.3634 196.699 75.6826C196.681 75.0111 196.699 74.3303 196.699 73.5282C194.595 73.4536 193.164 72.4744 192.733 70.1615C194.698 70.1615 195.923 71.0381 196.812 72.6236C196.896 70.1055 196.989 67.5874 197.073 64.9761C194.969 64.7149 193.369 63.9502 193.238 61.6C194.763 61.2549 195.801 61.9077 196.971 63.9595C197.261 62.9429 197.12 62.0196 197.186 61.1243C197.261 60.1264 197.289 59.1378 197.326 58.1399C197.363 57.2073 197.382 56.2653 197.401 55.3327C197.494 55.3327 197.597 55.314 197.691 55.3047C197.738 55.6684 197.803 56.0322 197.812 56.3959C197.999 62.4113 198.187 68.4268 198.374 74.4516C198.402 75.3282 198.402 76.2049 198.505 77.0816C198.589 77.8277 198.317 78.238 197.681 78.6017C193.416 81.0452 189.179 83.5353 184.923 86.0068C178.74 89.6067 172.567 93.216 166.365 96.7973C165.748 97.161 165.449 97.5341 165.477 98.2988C165.58 100.882 165.608 103.475 165.673 106.189C166.767 106.73 167.89 107.289 169.003 107.849C168.984 107.933 168.966 108.017 168.947 108.11C167.843 108.343 166.711 108.185 165.589 108.213C164.392 108.241 163.185 108.213 161.988 108.213C160.847 108.213 159.705 108.213 158.574 108.213C158.555 108.119 158.536 108.035 158.517 107.942C159.444 107.084 160.781 106.926 161.875 106.058C161.875 104.631 161.875 103.12 161.875 101.61C161.875 100.612 161.875 99.6138 161.96 98.6252C162.034 97.7672 161.735 97.2543 160.968 96.8159C156.497 94.2512 152.063 91.6212 147.611 89.0192C141.671 85.5498 135.741 82.0711 129.792 78.6297C129.081 78.2194 128.782 77.7437 128.82 76.9137C129.128 69.947 129.39 62.9709 129.68 56.0042C129.68 55.7897 129.746 55.5752 129.82 55.0995C130.213 55.799 130.12 56.312 130.138 56.7969C130.354 62.9709 130.587 69.1449 130.746 75.3282C130.774 76.3821 131.149 76.979 132.093 77.4546C141.793 82.3602 151.474 87.3032 161.165 92.2367C161.37 92.3393 161.595 92.4233 161.922 92.5538C161.988 92.2367 162.072 91.9943 162.072 91.7425C162.147 87.7601 162.194 83.7685 162.306 79.7862C162.324 79.0587 162.016 78.7137 161.455 78.3779C155.244 74.7407 149.052 71.0848 142.85 67.4289C140.643 66.1325 138.454 64.8082 136.228 63.5491C135.526 63.1574 135.283 62.7005 135.358 61.917C135.433 61.1709 135.376 60.4155 135.376 59.5575C133.3 59.4083 131.972 58.3824 131.626 56.1254C133.375 56.2187 134.563 56.9461 135.227 58.5316C135.592 57.7296 135.751 54.7731 135.535 52.796C133.581 52.4882 132.187 51.481 131.822 49.3825C133.15 49.1028 134.132 49.653 135.648 51.6302C135.694 50.7255 135.723 50.0074 135.76 49.252C134.684 48.9815 133.627 48.8416 132.935 47.9463C132.439 47.3028 132.075 46.6126 132.028 45.7826C133.365 45.4842 134.114 45.9505 135.807 48.1888C135.844 46.7525 135.882 45.4935 135.919 44.2344C136.031 44.2344 136.143 44.2344 136.256 44.2344C136.284 44.6821 136.331 45.1204 136.34 45.5681C136.499 50.6323 136.677 55.6871 136.789 60.7513C136.808 61.5813 137.079 62.0196 137.827 62.402C145.694 66.4216 153.541 70.4786 161.398 74.5262C161.642 74.6474 161.894 74.7407 162.24 74.8899C162.287 74.5728 162.343 74.349 162.353 74.1345C162.437 69.947 162.493 65.7595 162.605 61.5813C162.624 60.7979 162.39 60.3409 161.688 59.9772C160.491 59.343 159.35 58.6062 158.19 57.9161C157.666 58.7088 157.245 59.5109 156.656 60.173C156.057 60.8445 155.188 61.0777 154.29 61.115C153.99 59.5575 154.851 58.6062 157.339 57.6736C156.871 57.0767 154 55.2767 152.503 54.6612C151.942 56.5171 150.819 57.7669 148.762 57.972C148.584 56.2094 149.603 55.0902 152.129 54.3814C151.334 53.8778 150.66 53.4488 149.828 52.9172C149.229 54.8757 148.21 56.284 145.899 56.3772C146.049 54.2136 147.396 53.2903 149.426 52.712C148.546 52.1898 147.882 51.7887 147.087 51.3224C146.47 53.3182 145.413 54.7078 143.093 54.7358C143.355 52.6094 144.646 51.6115 146.676 51.0892C145.825 50.5856 145.142 50.1939 144.347 49.7276C143.748 51.7048 142.7 53.0664 140.484 53.0571C140.568 51.1918 141.325 50.4457 143.823 49.6623C143.477 49.168 141.98 48.0769 141.456 47.9743C139.754 47.6106 138.884 46.5007 138.557 44.8686C139.922 44.5702 140.876 45.1018 142.27 47.0137C142.382 46.1743 142.354 45.4842 142.326 44.6728C140.231 44.421 138.8 43.4231 138.585 41.1381C140.203 41.1101 140.783 41.4552 142.382 43.451C142.42 42.5464 142.457 41.8283 142.495 41.0169C140.399 40.8304 139.118 39.7951 138.706 37.5848C140.446 37.6594 141.606 38.4242 142.485 39.8045V37.6408C141.475 37.305 140.315 37.1372 139.67 36.1019C139.296 35.4957 138.94 34.8709 138.987 34.1154C140.353 33.9569 141.157 34.4232 142.495 36.1859C142.663 35.4304 142.616 34.7963 142.56 34.0968C140.652 33.6771 139.24 32.7445 138.94 30.5808C140.166 30.4595 141.129 30.9072 141.821 31.7559C142.551 32.6512 143.037 33.6958 143.065 34.9082C143.112 37.3796 143.196 39.8511 143.271 42.3226C143.271 42.5091 143.318 42.6863 143.421 42.9101C144.019 41.1381 145.273 40.3361 147.078 40.1029C146.816 42.4065 145.89 43.3018 143.402 43.7402V46.6033C144.87 44.1039 145.563 43.6003 147.246 43.6842C146.994 45.5774 146.33 46.2862 143.729 47.2748C144.59 47.7411 145.347 48.1421 146.245 48.6271C146.592 46.4821 147.826 45.3909 149.921 45.2137C149.875 47.0417 149.023 47.9463 146.554 48.7297C147.564 49.224 148.275 49.9141 149.323 49.9794L149.285 49.9421C149.978 50.7069 150.847 51.1266 151.858 51.3224L151.839 51.3038C152.774 51.8913 153.71 52.4789 154.795 53.169C155.337 51.0333 156.394 49.653 158.817 49.6344C158.424 51.6395 157.227 52.6747 155.103 53.169C156.086 53.7099 156.824 54.111 157.722 54.6053C157.994 53.3742 158.321 52.2644 159.415 51.6395C160.042 51.2758 160.697 51.0519 161.436 51.0426C161.37 52.9079 160.482 53.8592 157.947 54.7078C159.537 55.5472 160.968 56.312 162.54 57.086C162.596 56.6384 162.661 56.3679 162.661 56.1068C162.736 51.882 162.801 47.6572 162.867 43.4324C162.886 42.3412 162.586 42.0708 161.389 41.9402L161.417 41.9775L161.464 41.9961Z" fill="black"/>
<path d="M22.9269 155.264H21.608C21.4584 154.387 21.3461 153.566 21.1591 152.755C21.0094 152.102 20.813 151.44 20.5417 150.824C20.0179 149.64 19.1199 148.801 17.8666 148.409C16.3325 147.924 14.7518 147.784 13.1616 147.961C12.9184 148.875 12.8623 163.387 13.0962 164.972H18.3716V166.25C17.4456 166.53 1.16085 166.558 0.0196971 166.259V165.019H5.60385V130.223H0.122588C-0.120608 128.88 -0.0831936 128.814 1.06731 128.814C4.9491 128.814 8.83088 128.814 12.7127 128.814C18.4371 128.814 24.1522 128.814 29.8767 128.814H31.3359C31.551 132.601 31.682 136.313 31.7194 140.146H30.2976C30.1573 139.633 30.0357 139.092 29.8767 138.57C29.5119 137.395 29.2032 136.182 28.7168 135.054C27.6412 132.526 25.7891 130.866 22.9737 130.558C21.1497 130.363 19.307 130.316 17.4643 130.251C16.0332 130.204 14.6021 130.251 13.2084 130.251C12.8904 131.239 12.853 145.089 13.1429 146.385C15.0885 146.506 17.0341 146.413 18.8019 145.434C20.4482 144.52 21.0375 142.906 21.3555 141.172C21.4397 140.705 21.4958 140.23 21.58 139.633C22.0196 139.605 22.4218 139.586 22.9175 139.558V155.273L22.9269 155.264Z" fill="black"/>
<path d="M300.283 209.375C299.666 209.626 299.058 209.897 298.44 210.13C296.822 210.755 295.85 210.27 295.344 208.6C295.279 208.377 295.195 208.162 295.101 207.882C293.548 208.041 292.239 208.703 290.958 209.431C289.096 210.494 287.525 211.902 286.131 213.515C285.373 214.392 284.616 215.269 283.895 216.173C283.512 216.668 283.072 216.873 282.455 216.826C281.913 216.789 281.361 216.826 280.509 216.826C282.399 214.476 284.298 212.518 286.14 210.307C285.289 210.428 284.569 210.662 283.867 210.596C283.138 210.531 282.436 210.186 281.585 209.915C281.239 210.317 280.856 210.82 280.407 211.258C279.069 212.573 277.75 213.907 276.347 215.148C275.14 216.22 273.672 216.957 272.129 217.349C271.165 217.591 270.015 217.619 269.07 217.339C267.657 216.929 267.059 215.418 267.424 213.907C267.545 213.422 267.723 212.947 267.929 212.284C267.498 212.508 267.237 212.648 266.965 212.779C265.132 213.665 263.299 214.551 261.465 215.427C260.277 215.996 259.071 216.518 257.902 217.143C257.032 217.61 256.115 217.498 255.208 217.516C254.805 217.526 254.413 217.479 254.01 217.47C252.841 217.442 252.215 216.948 252.177 215.791C252.14 214.896 252.317 214 252.402 213.04C252.13 213.198 251.831 213.366 251.55 213.553C249.025 215.203 246.387 216.63 243.441 217.33C242.337 217.591 241.13 217.544 239.989 217.451C239.054 217.377 238.278 216.36 238.324 215.39C238.362 214.691 238.483 213.935 238.773 213.31C239.26 212.266 239.821 211.24 240.522 210.326C242.618 207.593 245.209 205.411 248.333 203.928C249.399 203.424 250.578 203.061 251.747 202.883C253.374 202.632 254.413 203.881 254.076 205.486C253.823 206.689 253.038 207.528 252.102 208.255C250.493 209.505 248.641 210.242 246.696 210.755C245.695 211.016 244.666 211.184 243.637 211.314C243.085 211.38 242.646 211.52 242.29 211.967C241.729 212.695 241.112 213.376 240.569 214.112C240.289 214.495 240.045 214.924 239.896 215.371C239.596 216.248 239.914 216.845 240.831 216.892C241.851 216.947 242.917 216.873 243.918 216.649C246.088 216.164 248.052 215.166 249.914 213.982C253.674 211.604 257.209 208.936 260.231 205.653C260.502 205.364 260.726 205.029 260.998 204.73C261.325 204.376 261.362 204.021 261.241 203.536C260.923 202.268 261.316 201.167 262.307 200.319C262.859 199.852 263.476 199.815 263.841 200.151C264.309 200.58 264.234 201.093 263.981 201.578C263.72 202.072 263.402 202.529 263.084 202.986C262.784 203.406 262.438 203.788 262.064 204.264C262.494 204.795 262.878 205.29 263.28 205.775C265.478 208.423 265.478 210.718 263.28 213.394C263.065 213.655 262.878 213.935 262.794 214.345C263.037 214.252 263.299 214.187 263.523 214.066C264.374 213.627 265.226 213.18 266.077 212.732C267.573 211.949 268.827 210.923 269.884 209.552C271.923 206.894 274.448 204.73 277.526 203.322C278.48 202.883 279.574 202.678 280.622 202.501C281.043 202.427 281.585 202.622 281.969 202.856C282.408 203.117 282.754 203.424 283.334 203.462C283.886 203.49 284.111 204.04 284.083 204.534C284.036 205.159 283.961 205.821 283.727 206.39C283.325 207.379 282.792 208.321 282.268 209.356C282.839 210.074 283.699 210.158 284.578 210.027C286.019 209.813 287.197 209.048 288.179 208.041C289.349 206.838 290.443 205.56 291.5 204.264C292.061 203.583 292.669 203.238 293.558 203.35C294.054 203.415 294.559 203.359 295.054 203.359C295.092 203.443 295.12 203.536 295.157 203.62C293.567 205.374 291.977 207.118 290.2 209.085C291.958 208.414 293.436 207.873 294.895 207.267C295.139 207.164 295.307 206.81 295.429 206.53C295.878 205.476 296.532 204.59 297.412 203.872C297.748 203.602 298.132 203.378 298.525 203.163C299.03 202.893 299.554 202.874 299.946 203.331C300.311 203.751 300.19 204.254 299.937 204.674C299.713 205.047 299.451 205.43 299.105 205.681C298.403 206.204 297.645 206.651 296.897 207.108C296.598 207.295 296.252 207.407 295.812 207.612C295.906 208.078 295.934 208.554 296.111 208.964C296.439 209.738 297.075 210.065 297.87 209.785C299.787 209.113 301.686 208.47 303.089 206.801C304.801 204.758 306.681 202.856 308.655 200.71C307.645 200.664 306.849 200.627 306.054 200.599C306.036 200.524 306.017 200.459 305.998 200.384C306.167 200.281 306.326 200.142 306.513 200.095C306.7 200.039 306.915 200.048 307.111 200.076C308.552 200.309 309.59 199.75 310.516 198.631C311.657 197.25 312.985 196.029 314.183 194.686C314.707 194.098 315.268 193.8 316.063 193.874C316.596 193.93 317.139 193.884 317.681 193.884C317.718 193.977 317.747 194.061 317.784 194.154C316.025 196.029 314.267 197.903 312.331 199.964C313.247 200.039 313.949 200.095 314.744 200.16C314.491 200.729 314.089 200.692 313.781 200.636C312.172 200.356 311.143 201.084 310.105 202.259C306.419 206.409 302.631 210.466 298.889 214.56C298.515 214.97 298.169 215.418 297.87 215.894C297.496 216.481 297.711 216.901 298.422 216.938C298.974 216.966 299.554 216.91 300.087 216.77C303.426 215.884 306.363 214.234 309.001 212.023C310.497 210.764 312.022 209.533 313.472 208.218C314.473 207.313 315.38 206.288 316.315 205.308C316.755 204.851 316.905 204.366 316.699 203.686C316.372 202.566 317.036 201.093 317.971 200.571C318.429 200.309 318.944 200.095 319.411 200.543C319.832 200.944 319.701 201.447 319.468 201.867C319.14 202.454 318.747 203.005 318.355 203.555C318.13 203.872 317.84 204.152 317.541 204.497C318.027 205.131 318.448 205.765 318.953 206.325C321.385 209.011 320.375 211.865 318.813 213.683C318.56 213.982 318.298 214.271 318.111 214.663C320.88 213.646 323.34 212.098 325.678 210.335C325.744 210.4 325.809 210.466 325.875 210.531C325.744 210.718 325.66 210.941 325.482 211.072C323.078 212.881 320.487 214.373 317.709 215.549C316.568 216.024 315.445 216.537 314.36 217.125C313.266 217.712 312.162 217.47 310.993 217.265C311.208 217.125 311.414 216.957 311.639 216.845C313.556 215.866 315.165 214.513 316.531 212.863C316.858 212.462 317.148 212.033 317.428 211.594C318.803 209.393 318.691 207.23 317.176 205.047C317.045 205.131 316.905 205.187 316.82 205.29C315.268 207.397 313.332 209.123 311.339 210.792C310.694 211.333 310.067 211.883 309.459 212.462C307.972 213.888 307.729 215.129 308.505 217.087C308.542 217.171 308.477 217.302 308.458 217.423C307.532 216.761 307.42 216.089 307.822 213.637C307.542 213.777 307.298 213.861 307.093 214C304.96 215.446 302.687 216.602 300.199 217.293C299.451 217.498 298.618 217.488 297.832 217.47C297.271 217.451 296.822 216.798 296.738 216.071C296.645 215.241 296.841 214.457 297.29 213.786C298.038 212.657 298.861 211.576 299.666 210.484C299.9 210.167 300.171 209.878 300.423 209.58C300.377 209.505 300.339 209.44 300.293 209.365L300.283 209.375ZM282.006 203.891C281.267 202.902 280.987 202.744 280.098 203.285C279.144 203.853 278.19 204.497 277.441 205.299C274.897 208.004 272.437 210.783 269.977 213.562C269.594 214 269.304 214.56 269.089 215.101C268.771 215.94 269.126 216.621 270.005 216.845C270.454 216.957 270.987 217.031 271.418 216.91C272.409 216.63 273.438 216.351 274.327 215.847C276.983 214.364 279.078 212.228 280.958 209.869C281.239 209.514 281.258 209.197 281.117 208.768C280.519 207.015 280.762 205.392 282.006 203.891ZM261.709 204.674C261.596 204.73 261.503 204.749 261.456 204.805C259.641 207.276 257.294 209.207 254.993 211.184C254.272 211.799 253.664 212.555 253.103 213.32C252.533 214.094 252.467 215.026 252.645 215.959C252.832 216.901 253.421 217.302 254.385 217.143C254.656 217.097 254.936 217.022 255.189 216.92C258.444 215.623 260.895 213.441 262.429 210.289C263.411 208.274 262.859 206.427 261.699 204.674H261.709ZM243.525 210.522C243.562 210.615 243.6 210.708 243.647 210.792C244.152 210.727 244.675 210.708 245.171 210.596C247.538 210.083 249.595 208.983 251.317 207.295C251.794 206.829 252.233 206.288 252.579 205.709C252.944 205.103 253.337 204.422 252.832 203.704C252.504 203.229 251.681 203.275 250.718 203.779C250.4 203.947 250.082 204.124 249.801 204.338C247.416 206.11 245.489 208.33 243.525 210.512V210.522Z" fill="black"/>
<path d="M82.7726 194.163C81.0142 196.038 79.2463 197.922 77.3007 199.992C78.3016 200.048 79.0592 200.095 79.8169 200.132C79.8356 200.198 79.8543 200.254 79.873 200.319C79.714 200.421 79.5643 200.561 79.3866 200.627C79.2463 200.683 79.0686 200.673 78.9096 200.645C77.2914 200.328 76.2718 201.158 75.2429 202.296C71.5014 206.446 67.6664 210.522 63.8782 214.625C63.3731 215.166 62.8119 215.698 62.6248 216.528C63.2608 217.125 63.9811 217.05 64.6452 216.77C65.5618 216.379 66.4785 215.95 67.3016 215.399C70.4912 213.254 73.4564 210.83 76.2157 208.153C78.0677 206.362 80.0788 204.795 82.4546 203.76C83.3993 203.35 84.4095 203.023 85.4291 202.874C87.2437 202.613 88.3662 203.956 87.8143 205.691C87.6179 206.316 87.2531 206.968 86.7854 207.407C86.009 208.134 85.1298 208.796 84.1944 209.309C82.1366 210.428 79.9104 211.1 77.572 211.286C76.8705 211.342 76.3654 211.585 75.9445 212.126C75.4019 212.816 74.8127 213.478 74.3076 214.187C74.0176 214.607 73.7744 215.082 73.6341 215.577C73.447 216.22 73.7276 216.686 74.3917 216.836C74.9249 216.957 75.5048 216.976 76.0567 216.938C77.5533 216.836 78.9563 216.341 80.2846 215.688C83.6893 214.028 86.6357 211.688 89.5915 209.384C89.7786 209.244 89.9002 209.02 90.0405 208.834C95.793 200.962 102.397 193.884 109.964 187.719C111.04 186.842 112.256 186.124 113.462 185.425C114.238 184.968 115.146 184.744 115.922 185.453C116.689 186.162 116.483 187.066 116.193 187.915C115.716 189.295 114.837 190.433 113.864 191.505C111.395 194.257 108.495 196.523 105.502 198.659C102.902 200.515 100.245 202.296 97.5796 204.068C96.6722 204.674 95.8585 205.327 95.1944 206.213C93.2301 208.824 91.219 211.417 89.2361 214.019C88.9274 214.429 88.6374 214.868 88.4036 215.325C87.9078 216.304 88.3287 217.013 89.4418 216.957C90.2743 216.92 91.1536 216.826 91.9019 216.5C93.4359 215.828 94.9979 215.148 96.3542 214.196C99.3942 212.07 102.415 209.897 105.072 207.276C105.614 206.745 106.119 206.185 106.643 205.625C107.279 204.935 107.756 204.227 107.56 203.182C107.42 202.436 107.682 201.662 108.168 201.046C108.43 200.711 108.795 200.403 109.178 200.254C109.449 200.151 109.908 200.235 110.151 200.421C110.338 200.561 110.422 201.028 110.338 201.27C110.132 201.82 109.842 202.352 109.506 202.846C109.169 203.341 108.748 203.77 108.29 204.32C108.813 204.963 109.337 205.597 109.852 206.232C111.236 207.929 111.61 209.776 110.628 211.799C110.441 212.191 110.142 212.527 109.889 212.891C109.58 213.329 109.262 213.767 109.01 214.28C111.778 213.422 114.126 211.837 116.483 210.261C116.586 210.391 116.689 210.512 116.792 210.643C116.558 210.764 116.306 210.867 116.1 211.016C113.546 212.825 110.89 214.439 107.887 215.399C107.476 215.53 107.083 215.744 106.718 215.978C104.875 217.143 102.911 217.806 100.704 217.516C100.545 217.498 100.386 217.479 100.227 217.479C99.0013 217.451 98.384 216.929 98.3653 215.716C98.3559 214.98 98.5336 214.243 98.6459 213.366C97.8695 213.898 97.1493 214.373 96.4478 214.868C94.9044 215.959 93.2301 216.836 91.4248 217.367C90.5736 217.619 89.5915 217.591 88.6935 217.47C87.964 217.367 87.4869 216.724 87.2531 216.006C86.9631 215.129 87.0566 214.271 87.4121 213.432C87.7395 212.667 88.1136 211.921 88.5158 211.063C87.992 211.137 87.7301 211.51 87.4027 211.743C85.7939 212.863 84.2225 214.019 82.5856 215.092C80.9019 216.201 79.0218 216.929 77.0763 217.405C76.0567 217.656 74.9249 217.572 73.8586 217.46C72.839 217.358 72.0627 216.369 72.1375 215.325C72.1843 214.588 72.4275 213.851 72.6426 213.133C72.7736 212.695 73.0167 212.294 73.0635 211.762C72.1001 212.518 71.146 213.273 70.1826 214.019C68.6018 215.25 66.9462 216.351 65.1316 217.227C64.43 217.563 63.7379 217.554 63.0363 217.488C62.4658 217.432 61.9233 216.817 61.97 216.09C62.0168 215.278 62.1477 214.401 62.5032 213.683C62.9896 212.695 63.7285 211.827 64.3552 210.904C64.4768 210.727 64.6078 210.55 64.9071 210.121C63.1954 210.802 61.7642 210.885 60.436 209.776C59.9403 210.345 59.5474 210.848 59.0984 211.286C57.8825 212.499 56.6758 213.721 55.4037 214.868C54.0474 216.099 52.4199 216.92 50.6708 217.367C49.7167 217.61 48.5475 217.6 47.6308 217.265C46.2371 216.761 45.7133 215.278 46.1716 213.749C46.4335 212.881 46.7983 212.014 47.2941 211.249C49.4735 207.854 52.3357 205.187 55.965 203.378C57.0032 202.856 58.0976 202.436 59.2855 202.482C59.6784 202.501 60.1086 202.557 60.4267 202.744C60.9224 203.042 61.3153 203.462 61.9794 203.499C62.1945 203.518 62.55 204.096 62.5312 204.404C62.4938 205.187 62.3816 205.998 62.1103 206.735C61.783 207.621 61.2591 208.442 60.7915 209.347C61.4088 210.027 62.2693 210.177 63.1486 210.009C64.5049 209.757 65.7676 209.141 66.7124 208.162C68.9198 205.905 71.0244 203.555 73.1664 201.233C73.2599 201.13 73.3348 200.99 73.5125 200.738C72.6052 200.673 71.8475 200.608 70.987 200.543C71.3892 199.908 71.8849 200.03 72.2591 200.086C73.7089 200.3 74.7378 199.769 75.6545 198.64C76.7582 197.278 78.0771 196.094 79.237 194.779C79.8169 194.126 80.4249 193.762 81.3135 193.874C81.7344 193.93 82.174 193.874 82.6043 193.874L82.7446 194.145L82.7726 194.163ZM60.5296 203.807C59.9029 202.939 59.6222 202.772 58.8552 203.173C58.0134 203.611 57.1435 204.105 56.5075 204.786C53.8043 207.649 51.1572 210.578 48.5381 213.525C48.1359 213.982 47.874 214.616 47.7056 215.213C47.4437 216.145 47.9021 216.77 48.8468 216.929C49.1929 216.985 49.5951 217.022 49.9131 216.91C50.9981 216.547 52.1486 216.248 53.1214 215.679C55.6376 214.215 57.6299 212.163 59.4352 209.906C59.7532 209.515 59.7532 209.169 59.5942 208.703C59.1452 207.36 59.2107 206.036 59.8842 204.777C60.0712 204.432 60.3144 204.115 60.5109 203.807H60.5296ZM97.5328 203.182L97.7386 203.368C97.935 203.238 98.1408 203.126 98.3372 202.986C101.106 201.018 103.884 199.069 106.625 197.064C109.206 195.18 111.741 193.212 113.808 190.759C114.491 189.948 115.034 188.997 115.529 188.055C115.754 187.626 115.81 187.057 115.801 186.553C115.791 185.788 115.324 185.434 114.603 185.677C114.014 185.872 113.415 186.189 112.929 186.581C111.694 187.588 110.413 188.577 109.337 189.733C106.372 192.914 103.482 196.159 100.591 199.414C99.5158 200.627 98.543 201.923 97.5234 203.182H97.5328ZM108.084 204.851C106.699 206.194 105.418 207.5 104.071 208.74C102.986 209.738 101.826 210.652 100.722 211.632C99.7403 212.499 99.0294 213.534 98.8984 214.886C98.6926 216.91 99.4877 217.61 101.415 216.938C104.361 215.922 106.587 213.982 108.205 211.342C109.515 209.197 109.375 207.043 108.084 204.842V204.851ZM77.1885 210.755C77.6375 210.755 77.8339 210.783 78.0303 210.755C81.2574 210.289 83.9232 208.824 85.9903 206.316C86.2896 205.952 86.4954 205.504 86.6825 205.066C86.8696 204.618 86.9818 204.124 86.617 203.714C86.2055 203.247 85.6349 203.322 85.1672 203.527C84.447 203.853 83.6893 204.208 83.1187 204.73C81.3135 206.418 79.583 208.19 77.8339 209.934C77.6468 210.121 77.5065 210.354 77.1885 210.755Z" fill="black"/>
<path d="M160.295 139.073H158.649C158.434 138.196 158.275 137.338 158.003 136.508C156.853 133.039 154.739 130.474 151.026 129.616C148.247 128.973 145.685 129.486 143.608 131.575C142.018 133.17 141.532 135.109 141.924 137.292C142.158 138.598 142.869 139.595 144.066 140.155C144.927 140.556 145.853 140.845 146.76 141.125C149.389 141.946 152.073 142.617 154.664 143.55C159.014 145.126 161.446 148.26 161.913 152.904C162.203 155.739 161.96 158.481 160.707 161.074C158.19 166.259 152.999 167.863 148.406 167.21C146.115 166.884 144.01 166.054 142.233 164.59C140.867 165.103 140.287 166.8 138.566 166.8V155.655H140.119C140.25 156.131 140.372 156.588 140.503 157.045C141.204 159.451 142.27 161.661 144.123 163.415C148.107 167.201 154.758 166.595 157.695 162.165C158.883 160.374 159.201 158.406 158.705 156.327C158.359 154.872 157.545 153.659 156.236 152.932C154.917 152.195 153.532 151.561 152.12 151.02C150.324 150.339 148.481 149.817 146.657 149.22C143.515 148.204 140.989 146.45 139.67 143.317C138.52 140.575 138.286 137.73 139.249 134.904C140.606 130.922 143.505 128.721 147.649 128.217C151.11 127.798 154.346 128.469 157.105 130.689C158.378 130.344 158.696 128.581 160.295 128.702V139.082V139.073Z" fill="black"/>
<path d="M121.598 165.625C121.767 166.184 121.682 166.483 121.224 166.595C119.082 167.136 116.95 167.248 114.864 166.371C112.563 165.401 111.842 163.452 111.683 161.176C111.59 159.861 111.534 158.556 111.44 157.241C111.412 156.886 111.328 156.532 111.262 156.187C110.842 153.855 109.719 152.755 106.819 152.195C105.903 152.018 104.93 152.167 103.892 152.167V165.308H107.923C107.951 165.718 107.979 166.007 108.007 166.371H94.5287C94.351 165.41 94.351 165.373 95.1086 165.354C96.1843 165.326 97.26 165.354 98.2982 165.354C98.5788 164.422 98.6724 141.358 98.4105 139.567H94.4632V138.513C94.7812 138.476 95.0525 138.42 95.3331 138.42C100.057 138.42 104.78 138.42 109.495 138.476C110.729 138.495 111.964 138.7 113.189 138.859C113.62 138.914 114.05 139.054 114.461 139.194C116.603 139.931 118.006 141.339 118.334 143.624C118.68 146.021 117.988 148.036 115.939 149.49C114.443 150.554 112.74 151.095 110.963 151.468C110.776 151.505 110.598 151.552 110.149 151.663C110.561 151.85 110.739 151.962 110.926 152.018C115.359 153.212 116.912 155.608 117.37 160.02C117.483 161.13 117.464 162.249 117.539 163.368C117.651 165.149 118.334 165.755 120.13 165.718C120.597 165.709 121.074 165.662 121.598 165.625ZM103.901 150.908C105.575 150.908 107.175 151.029 108.746 150.88C110.57 150.703 111.842 149.658 112.291 147.812C112.731 146.002 112.675 144.174 112.263 142.375C111.899 140.798 110.87 139.903 109.27 139.717C108.316 139.605 107.362 139.567 106.408 139.549C105.585 139.53 104.762 139.558 103.901 139.567V150.917V150.908Z" fill="black"/>
<path d="M155.486 203.518C154.195 204.879 153.026 206.11 151.857 207.341C151.894 207.388 151.941 207.435 151.979 207.491C152.184 207.351 152.39 207.211 152.587 207.062C154.177 205.933 155.748 204.767 157.376 203.686C157.862 203.359 158.47 203.173 159.05 203.061C160.687 202.734 162.146 203.872 162.155 205.523C162.155 206.176 162.025 206.903 161.707 207.463C161.099 208.526 160.378 209.552 159.583 210.484C158.498 211.762 157.292 212.937 156.169 214.178C155.683 214.709 155.224 215.269 154.832 215.856C154.691 216.08 154.635 216.537 154.775 216.714C154.916 216.901 155.374 216.994 155.627 216.919C156.235 216.742 156.871 216.528 157.376 216.164C159.031 214.98 160.64 213.73 162.249 212.48C163.512 211.492 164.606 210.344 165.644 209.123C167.777 206.623 170.377 204.702 173.502 203.602C174.53 203.238 175.69 203.042 176.785 203.051C178.59 203.079 179.16 203.788 179.198 205.784C179.535 205.485 179.787 205.28 180.002 205.047C184.511 200.3 189.029 195.553 193.509 190.778C194.117 190.134 194.725 189.827 195.595 189.92C196.137 189.976 196.689 189.929 197.503 189.929C197.082 190.414 196.848 190.713 196.586 190.983C189.16 198.696 181.733 206.399 174.315 214.103C173.932 214.504 173.53 214.914 173.258 215.39C173.062 215.735 172.865 216.313 173.015 216.565C173.174 216.836 173.801 217.003 174.166 216.938C175.138 216.761 176.13 216.556 177.028 216.155C179.011 215.259 180.666 213.851 182.341 212.48C183.267 211.725 184.146 210.913 185.053 210.13C185.371 209.859 185.699 209.598 186.017 209.337C186.073 209.393 186.129 209.458 186.194 209.514C186.101 209.654 186.026 209.832 185.905 209.934C183.772 211.734 181.677 213.599 179.46 215.297C178.328 216.155 177.009 216.817 175.672 217.311C174.858 217.619 173.848 217.554 172.959 217.432C172.267 217.339 171.808 216.733 171.743 215.978C171.706 215.586 171.743 215.185 171.743 214.644C171.444 214.821 171.229 214.942 171.013 215.073C169.788 215.819 168.628 216.724 167.328 217.255C166.505 217.591 165.429 217.554 164.531 217.358C163.764 217.19 163.156 216.462 163.119 215.595C163.072 214.541 163.184 213.487 163.231 212.406C163.11 212.499 162.894 212.629 162.707 212.779C160.818 214.317 159.003 215.959 156.815 217.087C156.375 217.311 155.851 217.47 155.355 217.498C154.233 217.563 153.578 217.041 153.559 215.931C153.55 215.203 153.728 214.411 154.055 213.767C154.532 212.863 155.168 212.014 155.842 211.23C157.02 209.878 158.292 208.6 159.49 207.267C160.023 206.679 160.547 206.054 160.939 205.374C161.407 204.562 160.968 203.686 160.023 203.63C159.377 203.592 158.638 203.723 158.068 204.031C156.833 204.683 155.627 205.411 154.523 206.25C150.875 209.001 147.601 212.172 144.599 215.604C143.785 216.537 142.952 217.031 141.718 216.836C141.409 216.789 141.091 216.836 140.539 216.836C141.287 215.651 142.279 214.905 142.915 213.823C142.662 213.972 142.41 214.103 142.176 214.271C140.539 215.427 138.855 216.472 136.994 217.255C136.208 217.582 135.432 217.563 134.646 217.479C133.907 217.404 133.29 216.574 133.29 215.735C133.29 215.241 133.402 214.746 133.477 214.112C132.953 214.523 132.542 214.914 132.074 215.194C130.849 215.94 129.679 216.892 128.351 217.321C125.751 218.151 123.702 217.031 124.002 214.019C124.142 212.583 124.844 211.352 125.713 210.251C128.398 206.884 131.821 204.534 135.9 203.173C136.704 202.902 137.639 202.855 138.491 202.958C139.819 203.117 140.277 203.797 140.324 205.159C140.324 205.262 140.371 205.364 140.427 205.635C140.876 205.196 141.287 204.889 141.587 204.497C142.307 203.536 143.242 203.201 144.402 203.359C144.739 203.406 145.085 203.406 145.599 203.443C145.347 203.751 145.225 203.928 145.066 204.087C142.045 207.276 139.024 210.456 136.012 213.665C135.469 214.243 134.964 214.877 134.553 215.558C134.076 216.341 134.515 217.059 135.423 216.947C136.274 216.836 137.153 216.574 137.92 216.192C140.558 214.896 142.849 213.096 145.094 211.221C147.498 209.225 149.696 207.024 151.698 204.637C152.718 203.424 153.831 203.135 155.505 203.527L155.486 203.518ZM127.07 216.985C127.435 216.873 128.173 216.78 128.8 216.453C129.82 215.922 130.83 215.325 131.747 214.625C133.917 212.974 135.844 211.063 137.527 208.927C138.21 208.05 138.827 207.108 139.398 206.157C139.8 205.495 140.006 204.749 139.435 204.04C138.883 203.359 138.145 203.331 137.359 203.452C136.33 203.611 135.488 204.142 134.702 204.767C131.578 207.276 128.791 210.121 126.144 213.114C125.704 213.609 125.358 214.243 125.152 214.868C124.722 216.173 125.349 216.957 127.07 216.985ZM166.15 216.975C166.505 216.854 167.178 216.696 167.768 216.388C168.572 215.959 169.358 215.474 170.087 214.914C172.884 212.76 175.335 210.261 177.411 207.407C177.739 206.959 178.038 206.483 178.3 205.989C178.637 205.374 178.842 204.711 178.272 204.105C177.72 203.518 177 203.406 176.289 203.704C175.522 204.021 174.746 204.385 174.053 204.842C170.985 206.894 168.217 209.291 165.888 212.163C165.261 212.928 164.7 213.777 164.279 214.663C163.661 215.95 164.41 216.985 166.14 216.966L166.15 216.975Z" fill="black"/>
<path d="M26.7442 190.778C26.688 191.235 26.6974 191.431 26.6319 191.599C25.2008 195.451 22.6098 198.081 18.5223 199.004C17.643 199.2 16.6796 199.2 15.7816 199.069C13.0316 198.668 11.4041 196.355 11.9747 193.576C12.1805 192.55 12.6014 191.487 13.2 190.629C15.4262 187.411 18.541 185.425 22.3386 184.474C23.7884 184.11 25.2195 184.231 26.5477 184.884C27.6234 185.416 28.6991 185.975 29.6625 186.675C32.6276 188.81 35.5179 188.671 38.4269 186.619C38.9788 186.227 39.54 185.835 40.1106 185.462C40.2883 185.35 40.5034 185.304 40.8869 185.145C40.4754 186.18 39.6055 186.423 39.0349 186.982C38.4363 187.57 37.7628 188.083 37.1548 188.652C36.5468 189.23 35.9575 189.827 35.3776 190.433C34.7977 191.039 34.2365 191.664 33.694 192.308C33.1234 192.979 32.5809 193.669 32.0383 194.36C31.5239 195.022 31.0281 195.693 30.5324 196.374C30.0367 197.055 29.5596 197.736 29.0732 198.426C28.5962 199.116 28.1285 199.806 27.6608 200.506C27.2025 201.186 26.7629 201.877 26.1549 202.809C27.3802 202.613 28.3343 202.529 29.2416 202.278C29.6064 202.175 29.9244 201.765 30.1957 201.438C31.3649 200.077 32.4967 198.687 33.6565 197.316C33.9278 196.999 34.2552 196.719 34.6293 196.495C33.1327 198.239 31.8045 200.077 30.5324 202.25C31.7671 202.054 32.7679 201.951 33.722 201.699C34.0868 201.606 34.3955 201.177 34.6667 200.841C37.9312 196.85 41.3733 193.017 45.2084 189.556C46.9014 188.027 48.6412 186.553 50.699 185.528C51.2976 185.229 51.9524 184.968 52.6071 184.865C53.8044 184.679 54.4217 185.313 54.3376 186.507C54.2534 187.738 53.7202 188.81 53.0935 189.836C51.5595 192.308 49.5017 194.313 47.2755 196.15C44.9932 198.043 42.5238 199.666 39.7926 200.86C39.5026 200.99 39.2126 201.168 38.904 201.205C37.3232 201.41 36.4065 202.427 35.6021 203.667C34.2926 205.663 32.8615 207.594 31.5987 209.627C30.9533 210.662 30.4389 211.818 30.0554 212.984C29.2322 215.493 30.4669 217.05 33.1327 216.985C34.4329 216.957 35.6769 216.649 36.8461 216.118C40.7279 214.346 43.6743 211.576 45.6667 207.827C45.9941 207.211 46.2466 206.493 46.3214 205.803C46.5272 203.938 45.358 202.856 43.5434 203.313C42.5613 203.565 41.5511 204.003 40.7373 204.6C39.3997 205.598 38.2024 206.782 36.9677 207.92C36.7152 208.153 36.5842 208.507 36.3972 208.806L36.0604 208.526C36.154 208.349 36.2194 208.144 36.341 207.995C37.6319 206.521 38.9881 205.103 40.625 204.003C41.5885 203.35 42.6174 202.809 43.8053 202.697C45.7228 202.529 46.7424 203.425 46.864 205.337C46.9481 206.698 46.5646 207.939 45.9286 209.114C45.0961 210.634 43.983 211.93 42.6922 213.087C40.5222 215.036 38.0808 216.565 35.256 217.33C33.8062 217.722 32.2628 217.824 30.8224 217.078C29.6625 216.481 29.0358 215.539 28.802 214.28C28.5214 212.788 28.7271 211.352 29.2509 209.934C30.0741 207.705 31.3088 205.71 32.6183 203.751C32.8802 203.369 33.1234 202.968 33.5349 202.333C32.3564 202.511 31.4584 202.595 30.5885 202.809C30.2892 202.884 30.0086 203.229 29.8309 203.518C29.0171 204.842 28.222 206.176 27.4644 207.528C26.9406 208.479 26.978 208.498 25.7059 208.302C26.5945 206.446 27.876 204.861 29.0171 203.033C27.8666 202.884 26.8751 203.154 25.921 203.425C25.5469 203.537 25.2663 204.087 25.0044 204.479C23.0307 207.407 20.7671 210.074 18.0826 212.378C15.211 214.849 11.956 216.64 8.24255 217.349C6.2315 217.731 4.10821 217.918 2.16264 216.808C0.750235 216.006 0.114184 214.681 0.525746 213.32C0.881187 212.163 1.91009 211.539 3.02318 211.818C3.87437 212.033 4.38882 212.686 4.37947 213.553C4.37947 214.439 3.89308 215.101 3.0606 215.325C2.76128 215.4 2.46196 215.456 2.10652 215.53C2.11587 216.332 2.66774 216.519 3.1822 216.668C4.75362 217.125 6.34374 217.069 7.93387 216.715C10.6745 216.09 12.8913 214.56 14.9024 212.676C17.2502 210.485 19.1396 207.901 21.0665 205.355C21.3938 204.917 21.7119 204.479 21.8989 203.835C20.9916 204.096 20.0656 204.32 19.177 204.628C18.2697 204.945 17.3811 205.309 16.5206 205.728C15.6974 206.129 14.9024 206.596 14.126 207.099C13.3497 207.603 12.6201 208.181 11.8718 208.731C11.8063 208.657 11.7408 208.582 11.6754 208.507C11.9653 208.218 12.2366 207.901 12.5546 207.649C15.2765 205.532 18.3071 204.04 21.6932 203.35C22.4228 203.201 22.8811 202.884 23.3114 202.296C26.7161 197.642 30.5324 193.352 34.9473 189.612C35.4805 189.155 36.0417 188.736 36.5001 188.139C36.0791 188.325 35.6489 188.503 35.2373 188.689C32.637 189.892 30.1395 189.911 27.7731 188.12C27.296 187.757 26.7722 187.458 26.2671 187.141C24.5273 186.068 22.6566 185.667 20.6362 186.087C17.4372 186.749 14.9772 188.475 13.3964 191.31C12.9194 192.159 12.6294 193.166 12.5172 194.136C12.1898 196.99 14.4721 199.069 17.3156 198.566C18.0172 198.444 18.7187 198.23 19.3734 197.931C22.4508 196.533 24.9202 194.471 26.3232 191.319C26.3794 191.198 26.501 191.105 26.7629 190.778H26.7442ZM37.6973 201.093C38.2492 200.916 38.6233 200.823 38.9788 200.683C42.5145 199.237 45.4983 196.98 48.2296 194.369C50.1658 192.522 51.9991 190.554 53.1964 188.13C53.477 187.57 53.6734 186.945 53.7857 186.33C53.9073 185.667 53.5612 185.313 52.9064 185.416C52.4107 185.5 51.8775 185.686 51.4847 185.985C50.4932 186.721 49.5111 187.486 48.6318 188.344C44.7594 192.112 41.3827 196.309 37.9967 200.496C37.9031 200.608 37.8657 200.757 37.716 201.093H37.6973Z" fill="black"/>
<path d="M171.445 139.521H167.404V138.495H190.657C190.732 140.994 190.797 143.41 190.872 145.825C189.89 146.189 189.862 146.161 189.572 145.322C189.301 144.529 189.039 143.736 188.683 142.981C187.851 141.199 186.429 140.136 184.484 139.754C183.249 139.511 178.572 139.418 177.113 139.661V151.43C178.712 151.561 180.274 151.542 181.687 150.628C182.575 150.05 182.978 149.136 183.193 148.129C183.268 147.775 183.277 147.411 183.352 147.066C183.483 146.45 183.492 146.459 184.418 146.59V157.884C183.483 158.099 183.455 158.08 183.305 157.39C183.146 156.653 183.043 155.898 182.819 155.18C182.407 153.902 181.49 153.081 180.172 152.848C179.208 152.68 178.207 152.652 177.263 152.568C176.982 153.575 176.898 163.191 177.122 165.215C177.403 165.252 177.702 165.327 178.001 165.327C179.76 165.336 181.528 165.355 183.286 165.327C186.71 165.28 188.711 163.788 189.768 160.514C190.012 159.759 190.171 158.975 190.395 158.211C190.592 157.511 190.61 157.52 191.602 157.716C191.489 160.551 191.368 163.396 191.246 166.352C190.76 166.38 190.376 166.427 189.993 166.427C182.865 166.427 175.747 166.427 168.62 166.427C168.423 166.427 168.217 166.427 168.021 166.427C167.301 166.399 167.273 166.007 167.525 165.317H171.463V139.502L171.445 139.521Z" fill="black"/>
<path d="M58.7802 151.272C58.6493 155.851 57.5923 159.349 55.2632 162.408C50.2684 168.955 40.6247 168.591 36.0788 162.473C32.9079 158.202 31.6732 153.436 33.0389 148.25C34.1052 144.212 36.6213 141.162 40.3815 139.223C43.646 137.535 47.0039 137.367 50.3151 138.999C55.7122 141.657 58.4622 146.068 58.7802 151.272ZM38.6137 152.466C38.6137 152.466 38.6698 152.466 38.6978 152.466C38.6978 153.744 38.6698 155.021 38.6978 156.29C38.7259 157.567 38.6978 158.854 38.8943 160.104C39.4461 163.732 41.373 165.719 44.4784 166.008C45.5354 166.11 46.6391 166.017 47.6867 165.83C49.4078 165.523 50.6425 164.506 51.3815 162.902C52.1859 161.167 52.4946 159.321 52.5226 157.437C52.5787 153.93 52.5226 150.423 52.5507 146.917C52.56 145.247 52.0923 143.69 51.4469 142.179C50.6986 140.426 49.3424 139.4 47.509 138.999C46.1715 138.71 44.8058 138.728 43.4589 139.045C41.3824 139.53 39.9887 140.799 39.362 142.841C39.1375 143.559 38.913 144.305 38.8756 145.052C38.7353 147.514 38.6885 149.985 38.6043 152.457L38.6137 152.466Z" fill="black"/>
<path d="M249.447 152.223C249.4 145.135 254.694 138.887 261.298 137.991C264.637 137.544 267.574 138.653 270.072 140.77C274.926 144.893 276.479 150.134 274.936 156.271C274.084 159.647 272.485 162.594 269.679 164.758C264.768 168.544 257.594 167.798 253.534 163.116C250.738 159.889 249.54 156.094 249.438 152.223H249.447ZM255.574 152.941C255.639 155.18 255.611 157.576 255.807 159.955C256.107 163.545 258.108 165.644 261.438 166.035C262.149 166.119 262.879 166.119 263.59 166.045C266.199 165.784 267.967 164.441 268.715 161.894C268.931 161.176 269.155 160.421 269.164 159.684C269.221 155.105 269.239 150.526 269.23 145.956C269.23 145.284 269.09 144.613 268.949 143.951C268.22 140.612 266.078 138.877 262.682 138.849C262.205 138.849 261.719 138.849 261.242 138.905C258.81 139.222 257.061 140.444 256.312 142.832C256.051 143.662 255.826 144.529 255.779 145.396C255.658 147.858 255.639 150.33 255.574 152.941Z" fill="black"/>
<path d="M302.078 156.243V139.539C300.993 139.539 299.974 139.539 298.954 139.521C298.197 139.502 298.197 139.483 298.318 138.495H307.541C307.56 138.821 307.569 139.082 307.597 139.493H303.472C303.388 142.645 303.444 145.657 303.435 148.67C303.425 151.701 303.435 154.732 303.435 157.754V166.781C302.237 167.052 302.228 167.061 301.592 166.11C298.159 160.971 294.726 155.823 291.303 150.675C289.292 147.653 287.272 144.632 285.251 141.619C285.083 141.367 284.886 141.143 284.55 140.714V165.317H288.385C288.403 165.746 288.413 166.007 288.431 166.268C288.272 166.334 288.169 166.418 288.067 166.427C285.307 166.446 282.548 166.464 279.789 166.446C279.031 166.446 279.022 166.38 279.19 165.373H282.819C283.09 164.403 283.147 141.162 282.894 139.567H279.209C279.022 138.504 279.04 138.439 279.779 138.43C282.903 138.411 286.018 138.43 289.142 138.411C289.797 138.411 290.04 138.849 290.33 139.269C292.257 142.113 294.175 144.949 296.101 147.793C297.822 150.339 299.534 152.885 301.255 155.431C301.452 155.72 301.667 156.01 301.882 156.289C301.957 156.271 302.032 156.252 302.106 156.243H302.078Z" fill="black"/>
<path d="M229.766 200.142C230.777 202.044 230.075 203.564 228.981 204.991C227.84 206.483 226.67 207.948 225.529 209.44C224.678 210.559 223.92 211.716 223.537 213.096C222.957 215.213 223.874 216.686 226.072 216.901C226.951 216.985 227.952 216.882 228.766 216.547C232.479 215.017 235.276 212.406 237.287 208.964C237.68 208.293 237.942 207.491 238.044 206.717C238.288 204.945 236.819 203.751 235.079 204.217C233.845 204.553 232.881 205.336 231.964 206.176C231.609 206.502 231.3 206.866 230.954 207.202C230.823 207.323 230.646 207.379 230.477 207.472C230.412 207.332 230.337 207.23 230.365 207.202C231.394 205.803 232.666 204.674 234.247 203.919C234.527 203.779 234.845 203.686 235.154 203.63C237.174 203.257 238.746 204.609 238.662 206.651C238.606 207.994 238.157 209.235 237.474 210.382C235.444 213.833 232.526 216.267 228.681 217.367C226.68 217.945 224.584 217.74 223.041 216.024C221.563 214.374 221.311 212.434 222.162 210.447C222.639 209.328 223.34 208.274 224.07 207.286C225.043 205.971 226.165 204.777 227.185 203.49C227.634 202.93 228.017 202.315 228.354 201.69C228.569 201.298 228.653 200.832 228.803 200.365C227.587 200.365 226.502 200.477 225.464 200.337C224.313 200.179 223.565 199.377 223.237 198.053C222.882 198.538 222.63 198.883 222.377 199.228C219.992 202.427 217.663 205.663 215.203 208.815C213.706 210.736 211.891 212.387 209.955 213.889C207.701 215.633 205.176 216.882 202.407 217.386C200.433 217.74 198.347 217.899 196.42 216.892C195.363 216.341 194.587 215.595 194.381 214.401C194.213 213.413 194.559 212.592 195.382 212.005C196.14 211.464 196.982 211.445 197.739 211.939C198.441 212.396 198.721 213.068 198.665 213.889C198.609 214.653 198.057 214.952 197.421 215.166C197.094 215.278 196.776 215.409 196.402 215.549C196.608 216.248 197.131 216.453 197.655 216.63C199.18 217.143 200.723 217.115 202.267 216.677C203.95 216.201 205.409 215.315 206.775 214.252C208.711 212.741 210.395 210.979 211.901 209.067C214.482 205.765 216.989 202.408 219.524 199.069C221.601 196.337 223.696 193.613 226.137 191.179C228.186 189.137 230.412 187.327 233.106 186.171C233.199 186.134 233.274 186.031 233.461 185.872C232.47 185.341 231.459 185.173 230.449 185.052C224.996 184.38 219.87 185.49 214.95 187.803C212.687 188.866 210.601 190.2 208.842 191.972C207.925 192.904 207.112 193.958 206.373 195.04C205.587 196.197 205.353 197.53 205.578 198.939C205.924 201.093 207.607 202.324 209.731 201.792C210.797 201.522 211.863 201.074 212.799 200.496C215.652 198.743 217.859 196.337 219.374 193.361C219.926 192.28 220.169 191.039 220.544 189.864C220.628 189.612 220.684 189.351 220.749 189.09C220.834 189.09 220.908 189.09 220.993 189.09C221.03 189.36 221.114 189.64 221.095 189.911C220.927 191.897 220.263 193.725 219.262 195.423C217.681 198.09 215.614 200.272 212.733 201.559C211.835 201.96 210.853 202.249 209.871 202.408C206.747 202.912 204.549 200.72 204.97 197.596C205.138 196.355 205.578 195.208 206.261 194.154C207.701 191.925 209.665 190.246 211.901 188.866C216.849 185.826 222.227 184.222 228.073 184.306C230.047 184.334 231.983 184.604 233.845 185.304C234.331 185.49 234.743 185.462 235.22 185.257C236.735 184.604 236.744 184.623 237.623 184.837C236.931 185.136 236.23 185.443 235.444 185.779C235.912 186.124 236.305 186.395 236.679 186.684C240.102 189.314 240.364 193.408 237.268 196.411C235.472 198.155 233.274 199.172 230.889 199.843C230.589 199.927 230.281 200.011 229.785 200.151L229.766 200.142ZM223.733 197.278C226.212 196.803 228.158 197.474 229.57 199.442C231.45 199.069 233.545 197.717 235.07 195.926C236.118 194.686 236.903 193.324 237.165 191.692C237.53 189.426 236.436 187.225 234.378 186.18C229.879 188.941 226.708 192.998 223.743 197.269L223.733 197.278ZM228.644 199.759C228.625 199.004 228.251 198.603 227.793 198.407C227.073 198.109 226.305 197.866 225.538 197.754C224.641 197.614 223.976 197.95 223.92 198.388C223.864 198.836 224.379 199.396 225.164 199.666C226.287 200.058 227.419 199.918 228.644 199.759Z" fill="black"/>
<path d="M71.6401 139.521C71.6027 140.015 71.5559 140.36 71.5559 140.715C71.5559 146.571 71.5559 152.438 71.5746 158.295C71.5746 159.209 71.6681 160.132 71.8365 161.027C72.2668 163.424 73.6231 164.982 76.0831 165.466C77.5423 165.756 79.0201 165.83 80.498 165.56C83.2667 165.047 85.072 163.023 85.4555 160.001C85.5677 159.134 85.6145 158.257 85.6145 157.381C85.6332 151.878 85.6145 146.376 85.6145 140.882C85.6145 140.491 85.5771 140.108 85.549 139.586H81.7234C81.6859 139.166 81.6672 138.877 81.6392 138.625C81.7888 138.542 81.8637 138.476 81.9291 138.476C84.7727 138.458 87.6068 138.439 90.4504 138.448C91.2174 138.448 91.2174 138.495 91.0771 139.549H87.0456C87.0456 140.164 87.0456 140.631 87.0456 141.097C87.0269 146.795 87.0176 152.494 86.9988 158.192C86.9988 159.638 86.7837 161.055 86.2412 162.398C85.6238 163.928 84.6791 165.233 83.1171 165.868C78.6834 167.695 74.2685 167.798 69.9096 165.569C68.1418 164.664 67.1035 163.21 66.7481 161.307C66.5049 159.983 66.3085 158.621 66.2898 157.278C66.2336 151.897 66.2523 146.516 66.243 141.134C66.243 140.668 66.243 140.202 66.243 139.577H62.1367V138.514H75.6341V139.539H71.6401V139.521Z" fill="black"/>
<path d="M213.539 165.355C213.464 164.982 213.445 164.749 213.37 164.534C212.734 162.688 212.07 160.85 211.462 158.994C211.238 158.304 210.873 158.08 210.162 158.09C207.758 158.127 205.363 158.127 202.96 158.09C202.258 158.08 201.884 158.295 201.659 158.994C201.079 160.813 200.406 162.604 199.779 164.413C199.695 164.665 199.648 164.935 199.555 165.336H203.408C203.633 166.306 203.614 166.427 203.025 166.427C200.312 166.455 197.6 166.437 194.906 166.437C194.719 165.402 194.719 165.392 195.486 165.355C196.047 165.327 196.608 165.355 197.17 165.355C198.17 165.346 198.18 165.346 198.526 164.394C199.761 161.027 200.986 157.661 202.221 154.285C204.11 149.118 206.009 143.96 207.898 138.794C208.067 138.346 208.16 137.908 208.815 137.87C209.535 137.833 209.778 138.187 209.984 138.784C211.022 141.843 212.079 144.893 213.136 147.943C215.016 153.408 216.906 158.873 218.786 164.338C218.889 164.637 219.02 164.926 219.188 165.346H222.527C222.546 165.747 222.565 165.998 222.574 166.315C222.294 166.371 222.069 166.455 221.845 166.455C217.963 166.455 214.081 166.465 210.199 166.455C209.32 166.455 209.32 166.427 209.451 165.364H213.539V165.355ZM210.527 156.924C209.32 153.063 208.104 149.323 206.86 145.602C206.766 145.602 206.682 145.602 206.589 145.602C205.204 149.332 203.829 153.063 202.398 156.924H210.527Z" fill="black"/>
<path d="M240.12 139.838C240.766 139.279 241.299 138.812 241.851 138.355C241.925 138.29 242.084 138.327 242.197 138.327C242.571 139.055 242.692 144.296 242.365 146.189C242.056 146.208 241.72 146.236 241.374 146.255C241.28 146.04 241.177 145.909 241.149 145.76C240.85 144.165 240.26 142.701 239.25 141.424C237.679 139.446 235.612 138.616 233.114 138.896C230.383 139.204 228.409 141.591 228.671 144.203C228.793 145.462 229.382 146.385 230.551 146.907C231.019 147.122 231.515 147.299 232.001 147.458C233.788 148.027 235.584 148.577 237.37 149.146C237.866 149.304 238.362 149.472 238.839 149.677C241.458 150.796 243.169 152.699 243.544 155.553C243.731 156.998 243.815 158.528 243.562 159.946C242.421 166.259 236.538 168.237 231.964 166.651C230.879 166.278 229.869 165.7 228.765 165.187C227.96 165.523 227.605 166.707 226.511 166.819C226.211 165.905 226.136 159.983 226.389 158.593C227.306 158.435 227.278 158.444 227.568 159.19C228.007 160.3 228.381 161.456 228.98 162.473C230.439 164.935 232.647 166.194 235.556 166.082C238.932 165.952 241.561 163.154 241.383 159.89C241.308 158.453 240.719 157.25 239.493 156.467C238.764 155.991 237.959 155.599 237.146 155.292C235.238 154.574 233.292 153.967 231.384 153.259C228.522 152.195 226.941 150.088 226.548 147.113C226.155 144.119 226.857 141.48 229.326 139.521C231.88 137.488 236.061 137.367 239.054 139.195C239.391 139.4 239.727 139.614 240.12 139.857V139.838Z" fill="black"/>
<path d="M194.493 98.1123C197.177 98.1123 199.394 100.351 199.413 103.102C199.441 105.937 197.262 108.222 194.521 108.241C191.743 108.25 189.386 105.9 189.404 103.139C189.423 100.425 191.752 98.1216 194.483 98.1216L194.493 98.1123ZM194.53 99.2035C192.201 99.1848 190.33 100.966 190.33 103.195C190.33 105.452 192.042 107.121 194.399 107.159C196.71 107.196 198.487 105.517 198.534 103.27C198.571 101.069 196.756 99.2221 194.54 99.2035H194.53Z" fill="black"/>
<path d="M180.414 90.6793C181.115 90.987 181.602 90.9217 181.836 90.1104C182.116 90.4181 182.322 90.6326 182.547 90.8658C182.799 90.7912 183.061 90.7259 183.435 90.6233C183.379 90.959 183.248 91.2482 183.323 91.4627C183.398 91.6865 183.669 91.8544 183.819 92.0129C183.632 92.4512 183.435 92.8989 183.192 93.4398C182.874 93.5797 182.369 93.7942 181.901 93.9994C181.508 93.8129 181.05 93.589 180.517 93.3372C180.517 93.2067 180.592 92.9082 180.498 92.6937C180.395 92.4699 180.124 92.33 179.834 92.0689C180.461 91.8077 180.816 91.4347 180.414 90.6699V90.6793Z" fill="black"/>
<path d="M173.663 59.772C173.766 59.0632 173.887 58.4663 173.232 58.3451C173.457 57.8601 173.672 57.4125 173.934 56.8529C174.355 56.9835 174.86 56.8902 175.113 55.9949C175.421 56.8529 175.889 57.0581 176.749 56.6477C176.254 57.4498 176.422 57.8974 177.114 58.1492C176.852 58.3917 176.572 58.5409 176.497 58.7554C176.413 58.9886 176.534 59.287 176.572 59.6414C176.263 59.5948 175.973 59.5575 175.636 59.5015C175.487 59.6881 175.328 59.9026 175.103 60.1917C174.823 59.5109 174.374 59.3244 173.653 59.7627L173.663 59.772Z" fill="black"/>
<path d="M179.191 76.4659C179.528 77.2959 179.93 77.5197 180.65 77.1187C180.454 77.8182 180.211 78.4337 181.23 78.527C180.753 79.0119 180.089 79.3104 180.847 80.271C179.893 79.8233 179.49 80.1218 179.257 80.8212C178.826 80.3176 178.546 79.6555 177.9 80.0845C177.704 79.5622 177.526 79.0959 177.367 78.6762C177.526 78.2379 177.704 77.7715 177.9 77.2399C178.377 77.5011 178.836 77.3519 179.182 76.4565L179.191 76.4659Z" fill="black"/>
<path d="M172.099 69.406C171.679 69.5739 171.248 69.7511 170.855 69.9097C170.444 69.7604 169.986 69.5926 169.406 69.3874C169.424 69.2848 169.565 69.005 169.508 68.7905C169.443 68.5574 169.19 68.3802 168.947 68.1004C169.527 67.8299 169.724 67.4009 169.275 66.7947C169.836 66.5522 170.678 67.317 170.762 66.002C171.127 66.9159 171.65 66.8973 172.324 66.6082C172.146 67.2983 172.015 67.8859 172.689 68.0071C172.483 68.4921 172.287 68.9491 172.081 69.406H172.099Z" fill="black"/>
<path d="M193.547 77.2865C192.893 77.0627 192.425 77.0627 192.238 77.6316C191.723 77.4451 191.265 77.2772 190.695 77.0627C190.657 76.7642 190.956 76.1114 190.189 76.0275C190.423 75.5332 190.638 75.0762 190.844 74.6285C191.228 74.4513 191.677 74.2368 192.163 74.0037C192.475 74.3332 192.936 74.4855 193.547 74.4606C193.342 75.0109 193.276 75.5518 194.174 75.8036C193.463 76.1674 193.192 76.587 193.547 77.2772V77.2865Z" fill="black"/>
<path d="M190.293 84.1321C192.529 84.2906 193.576 85.2792 193.857 87.4336C191.996 87.9185 190.097 86.2118 190.293 84.1321Z" fill="black"/>
<path d="M149.024 24.0898C148.894 23.5396 148.388 23.6981 148.042 23.6049C146.443 23.2132 145.414 22.1033 145.189 20.4712C145.189 20.4059 145.255 20.3313 145.283 20.2661C147.434 20.2008 149.034 21.8329 149.006 24.1085L149.015 24.0898H149.024Z" fill="black"/>
<path d="M203.706 72.6702C201.423 72.6888 200.105 71.5324 199.908 69.406C201.704 69.0889 203.266 70.4039 203.706 72.6702Z" fill="black"/>
<path d="M169.895 76.2049C172.121 75.9904 173.552 77.0723 173.926 79.2733C172.523 79.609 170.895 78.6951 170.334 77.2775C170.194 76.9137 170.072 76.5407 169.932 76.1863L169.895 76.2143V76.2049Z" fill="black"/>
<path d="M178.378 93.5518C178.874 95.6129 177.957 97.3569 176.17 97.8605C175.45 95.9579 176.283 94.2885 178.378 93.5518Z" fill="black"/>
<path d="M181.126 74.6102C180.387 72.8382 181.247 71.0849 183.23 70.3108C183.922 72.0921 182.996 73.9667 181.126 74.6102Z" fill="black"/>
<path d="M169.332 13.6631C171.437 13.8589 172.531 14.8475 173.027 16.9553C171.231 17.4122 169.5 15.92 169.332 13.6631Z" fill="black"/>
<path d="M182.163 20.2471C181.854 22.4481 180.75 23.5113 178.693 23.6512C178.431 21.8325 180.002 20.2471 182.163 20.2471Z" fill="black"/>
<path d="M178.21 61.3946C177.49 59.5107 178.369 57.7667 180.343 57.0486C180.923 58.9045 180.156 60.518 178.21 61.3946Z" fill="black"/>
<path d="M169.913 84.7571C172.083 84.9436 173.43 86.2866 173.318 88.0772C171.709 88.6368 169.679 86.4731 169.913 84.7571Z" fill="black"/>
<path d="M176.993 11.8254C176.834 13.9425 175.374 15.1922 173.363 15.015C173.447 13.1871 174.748 12.0213 176.993 11.8254Z" fill="black"/>
<path d="M150.521 11.8538C152.682 11.9377 153.954 13.0848 154.057 14.9594C152.252 15.2858 150.793 14.0454 150.521 11.8538Z" fill="black"/>
<path d="M153.244 36.8853C152.954 38.3868 152.271 39.5806 150.709 40.0376C150.307 40.1588 149.877 40.1681 149.428 40.2241C149.624 38.1257 151.055 36.9319 153.272 36.904L153.244 36.876V36.8853Z" fill="black"/>
<path d="M161.287 26.4679C161.081 26.8782 160.866 27.2886 160.66 27.6989C159.977 29.0886 158.874 29.7321 157.424 29.5735C157.517 27.5124 159.276 26.1042 161.296 26.4865L161.287 26.4679Z" fill="black"/>
<path d="M177.48 68.4549C175.179 68.231 174.01 67.2331 173.701 65.2373C175.609 64.8829 177.265 66.3098 177.443 68.4828L177.48 68.4455V68.4549Z" fill="black"/>
<path d="M176.215 33.8076C176.028 33.7517 175.841 33.677 175.654 33.6304C173.895 33.2294 173.072 32.3434 172.764 30.4875C174.85 30.217 176.599 31.9144 176.187 33.8356L176.215 33.8076Z" fill="black"/>
<path d="M151.906 51.3501C152.065 50.9957 152.215 50.6413 152.392 50.2963C153.084 48.8787 154.291 48.3098 155.806 48.1326C155.788 50.3056 153.945 51.7605 151.896 51.3315L151.915 51.3501H151.906Z" fill="black"/>
<path d="M149.372 50.0073C149.493 48.0114 150.756 46.8363 152.87 46.7617C152.926 48.6736 151.448 50.0259 149.344 49.9793L149.381 50.0073H149.372Z" fill="black"/>
<path d="M155.846 38.5362C155.733 40.5507 154.424 41.8004 152.432 41.7817C152.142 40.0657 153.582 38.7041 155.874 38.5548L155.846 38.5269V38.5362Z" fill="black"/>
<path d="M161.428 41.959C161.035 43.6284 160.184 44.8595 158.332 45.0926C158.182 45.1113 158.023 45.074 157.836 45.0647C157.621 44.4491 157.902 43.9642 158.173 43.4978C158.865 42.3227 160.24 41.7072 161.456 41.9963L161.428 41.9683V41.959Z" fill="black"/>
<path d="M195.765 103.717C196.149 104.398 196.523 105.042 196.897 105.713C196.186 106.012 195.728 105.9 195.438 105.256C195.26 104.855 195.017 104.491 194.811 104.1C194.521 103.522 194.1 103.41 193.474 103.717C193.436 104.361 193.399 105.023 193.352 105.732C192.884 105.872 192.37 106.058 192.351 105.368C192.295 103.792 192.333 102.207 192.333 100.509C193.567 100.509 194.671 100.453 195.775 100.528C196.532 100.574 196.963 101.069 197.065 101.731C197.187 102.561 196.925 103.102 196.205 103.494C196.065 103.568 195.934 103.633 195.756 103.727L195.765 103.717ZM193.474 102.775C194.194 102.775 194.774 102.794 195.363 102.775C195.747 102.757 196.074 102.58 196.093 102.141C196.121 101.712 195.831 101.488 195.447 101.442C194.793 101.358 194.128 101.227 193.474 101.554V102.785V102.775Z" fill="black"/>
</g>
<defs>
<clipPath id="clip0_1047_353">
<rect width="329.241" height="217.647" fill="white"/>
</clipPath>
</defs>
</svg>
