<?xml version="1.0" encoding="UTF-8" standalone="no"?>
<svg
   width="119.6799"
   height="45.602772"
   viewBox="0 0 119.6799 45.602772"
   fill="none"
   version="1.1"
   id="svg863"
   sodipodi:docname="four-seasons-white.svg"
   inkscape:version="1.1.2 (b8e25be8, 2022-02-05)"
   xmlns:inkscape="http://www.inkscape.org/namespaces/inkscape"
   xmlns:sodipodi="http://sodipodi.sourceforge.net/DTD/sodipodi-0.dtd"
   xmlns="http://www.w3.org/2000/svg"
   xmlns:svg="http://www.w3.org/2000/svg">
  <sodipodi:namedview
     id="namedview865"
     pagecolor="#ffffff"
     bordercolor="#666666"
     borderopacity="1.0"
     inkscape:pageshadow="2"
     inkscape:pageopacity="0.0"
     inkscape:pagecheckerboard="true"
     showgrid="false"
     inkscape:zoom="9.2179487"
     inkscape:cx="59.720445"
     inkscape:cy="16.760779"
     inkscape:window-width="1312"
     inkscape:window-height="969"
     inkscape:window-x="2152"
     inkscape:window-y="123"
     inkscape:window-maximized="0"
     inkscape:current-layer="svg863" />
  <g
     clip-path="url(#clip0_2006_13569)"
     id="g856"
     transform="translate(-0.0870972,-15.960064)">
    <path
       d="m 119.767,35.0155 c -0.077,0.1962 -0.137,0.3924 -0.227,0.5828 -0.645,1.3906 -2.104,1.9618 -3.55,1.6676 -0.55,-0.1097 -1.046,-0.3405 -1.476,-0.6463 -0.377,0.1385 -0.515,0.577 -0.945,0.5943 -0.113,-0.3231 -0.131,-2.458 -0.036,-2.8965 0.389,-0.0751 0.401,-0.0808 0.496,0.2423 0.168,0.5597 0.407,1.0848 0.801,1.5348 0.927,1.0675 2.546,1.1714 3.575,0.2308 0.352,-0.3173 0.585,-0.7039 0.645,-1.1655 0.09,-0.7444 -0.161,-1.356 -0.879,-1.6907 -0.627,-0.2942 -1.297,-0.5019 -1.948,-0.7443 -0.329,-0.1212 -0.664,-0.2135 -0.986,-0.3462 -1.327,-0.5482 -1.793,-1.7541 -1.668,-2.9658 0.126,-1.2521 1.01,-2.1407 2.307,-2.3542 0.801,-0.1327 1.566,0.0057 2.278,0.3923 0.137,0.075 0.274,0.1558 0.4,0.2251 0.341,-0.0866 0.43,-0.5251 0.819,-0.5136 0.107,0.2943 0.143,2.1119 0.042,2.7755 -0.138,0.0057 -0.287,0.0115 -0.467,0.023 -0.035,-0.1673 -0.059,-0.3 -0.095,-0.4327 -0.263,-1.0156 -0.789,-1.8118 -1.907,-2.1119 -0.98,-0.2596 -1.984,0.1443 -2.385,0.9521 -0.185,0.375 -0.203,0.7616 -0.101,1.154 0.077,0.3 0.281,0.5309 0.574,0.6578 0.239,0.1039 0.484,0.1846 0.735,0.2654 0.735,0.2308 1.476,0.4385 2.199,0.6982 0.694,0.2423 1.237,0.6809 1.56,1.3387 0.09,0.1904 0.15,0.3923 0.221,0.5885 v 1.9445 z"
       fill="#ffffff"
       id="path824" />
    <path
       d="M 8.12271,33.1404 H 7.63857 C 7.58478,32.8346 7.54294,32.5403 7.4772,32.2518 7.4234,32.021 7.35168,31.7902 7.25007,31.5709 7.05881,31.1497 6.73007,30.8554 6.27582,30.7169 5.71398,30.5438 5.14019,30.4977 4.56043,30.5611 4.47077,30.8843 4.44686,36.0023 4.53652,36.562 h 1.92459 v 0.4501 c -0.33471,0.0981 -6.269863,0.1096 -6.688252,0 V 36.5736 H 1.81101 V 24.2948 h -2.00229 c -0.089655,-0.4731 -0.077701,-0.4962 0.346666,-0.4962 1.416544,0 2.827114,0 4.243664,0 2.08597,0 4.17193,0 6.25795,0 h 0.5319 c 0.0777,1.3329 0.1255,2.6485 0.1375,3.9987 h -0.52 C 10.7586,27.6184 10.7107,27.428 10.651,27.2433 10.5135,26.8279 10.4059,26.4009 10.2326,26.0028 9.84408,25.1084 9.16868,24.5256 8.14064,24.416 7.4772,24.3467 6.8018,24.3294 6.13237,24.3064 c -0.51999,-0.0174 -1.04597,0 -1.55401,0 -0.11357,0.3462 -0.1315,5.2392 -0.02391,5.695 0.71126,0.0404 1.41654,0.0116 2.06206,-0.3346 0.60368,-0.3232 0.81287,-0.8886 0.93241,-1.5003 0.02988,-0.1673 0.04782,-0.3288 0.08368,-0.5423 0.16138,-0.0058 0.30482,-0.0174 0.49011,-0.0231 v 5.545 z"
       fill="#ffffff"
       id="path826" />
    <path
       d="m 109.206,52.239 c -0.222,0.0924 -0.449,0.1847 -0.676,0.2655 -0.592,0.2192 -0.944,0.0461 -1.129,-0.5424 -0.024,-0.0808 -0.054,-0.1558 -0.09,-0.2539 -0.568,0.0577 -1.046,0.2885 -1.512,0.5482 -0.676,0.375 -1.249,0.8712 -1.758,1.4425 -0.274,0.3116 -0.555,0.6174 -0.812,0.9405 -0.138,0.1731 -0.299,0.2481 -0.526,0.2308 -0.198,-0.0173 -0.401,0 -0.706,0 0.688,-0.8309 1.381,-1.5233 2.05,-2.2965 -0.31,0.0462 -0.573,0.1269 -0.824,0.1039 -0.263,-0.0231 -0.52,-0.1443 -0.831,-0.2424 -0.126,0.1385 -0.263,0.3174 -0.431,0.4732 -0.484,0.4616 -0.968,0.9347 -1.482,1.3733 -0.442,0.375 -0.9741,0.6404 -1.5359,0.7789 -0.3527,0.0866 -0.771,0.0923 -1.1117,0 -0.5141,-0.1442 -0.7352,-0.6751 -0.5977,-1.2117 0.0418,-0.1731 0.1076,-0.3404 0.1853,-0.5712 -0.1554,0.0807 -0.2511,0.1269 -0.3527,0.1731 -0.6694,0.3115 -1.3329,0.6231 -2.0023,0.9347 -0.4303,0.202 -0.8726,0.3866 -1.297,0.6059 -0.3168,0.1615 -0.6515,0.1269 -0.9802,0.1327 -0.1435,0 -0.2929,-0.0115 -0.4363,-0.0173 -0.4244,-0.0116 -0.6515,-0.1847 -0.6695,-0.5886 -0.0119,-0.3173 0.0479,-0.6289 0.0777,-0.9693 -0.1016,0.0577 -0.2091,0.1154 -0.3108,0.1788 -0.9204,0.5828 -1.8827,1.0848 -2.9586,1.3329 -0.4004,0.0923 -0.8427,0.075 -1.2551,0.0404 -0.3407,-0.0288 -0.6216,-0.3866 -0.6037,-0.727 0.0119,-0.2481 0.0598,-0.5136 0.1673,-0.7328 0.1794,-0.3693 0.3826,-0.7328 0.6336,-1.0502 0.7651,-0.9636 1.7094,-1.731 2.845,-2.2561 0.3886,-0.1789 0.8189,-0.3058 1.2433,-0.3693 0.5917,-0.0865 0.9742,0.352 0.8487,0.9175 -0.0897,0.427 -0.3766,0.7212 -0.7172,0.9751 -0.5858,0.4385 -1.2612,0.704 -1.9725,0.8828 -0.3645,0.0924 -0.7411,0.1501 -1.1176,0.1962 -0.1973,0.0231 -0.3646,0.0693 -0.4902,0.2308 -0.2032,0.2539 -0.4303,0.4963 -0.6275,0.7559 -0.1016,0.1327 -0.1913,0.2885 -0.2451,0.4443 -0.1076,0.3058 0,0.5193 0.3407,0.5366 0.3706,0.0173 0.7591,-0.0057 1.1237,-0.0865 0.7889,-0.1731 1.5062,-0.5251 2.1875,-0.9406 1.3688,-0.8366 2.6598,-1.7771 3.7596,-2.9369 0.0956,-0.1039 0.1793,-0.2193 0.2809,-0.3232 0.1195,-0.1269 0.1315,-0.2481 0.0896,-0.4212 -0.1135,-0.4443 0.0239,-0.8366 0.3885,-1.1367 0.2033,-0.1673 0.4244,-0.1789 0.5559,-0.0577 0.1674,0.15 0.1435,0.3347 0.0478,0.502 -0.0956,0.1731 -0.2092,0.3347 -0.3287,0.4962 -0.1076,0.1501 -0.2331,0.2828 -0.3706,0.4501 0.1554,0.1904 0.2989,0.3635 0.4423,0.5366 0.8009,0.9348 0.8009,1.7426 0,2.6889 -0.0777,0.0923 -0.1494,0.1904 -0.1793,0.3347 0.0897,-0.0347 0.1853,-0.0577 0.269,-0.0981 0.3108,-0.1558 0.6216,-0.3116 0.9324,-0.4732 0.5499,-0.2769 1.0041,-0.6347 1.3866,-1.1252 0.7412,-0.9347 1.6616,-1.7021 2.7858,-2.1984 0.346,-0.1557 0.747,-0.225 1.129,-0.2885 0.156,-0.023 0.353,0.0404 0.49,0.127 0.162,0.0923 0.287,0.2019 0.496,0.2135 0.204,0.0115 0.287,0.2019 0.269,0.375 -0.018,0.2193 -0.047,0.4559 -0.131,0.6578 -0.15,0.352 -0.341,0.6809 -0.532,1.0502 0.209,0.2539 0.52,0.2827 0.843,0.2366 0.526,-0.0751 0.956,-0.3463 1.309,-0.6982 0.424,-0.4212 0.824,-0.8771 1.213,-1.3329 0.203,-0.2424 0.424,-0.3635 0.753,-0.3231 0.179,0.023 0.365,0 0.544,0 0.012,0.0288 0.024,0.0634 0.036,0.0923 -0.58,0.6174 -1.16,1.2348 -1.805,1.9272 0.639,-0.2366 1.177,-0.427 1.709,-0.6405 0.09,-0.0346 0.15,-0.1616 0.191,-0.2596 0.162,-0.3693 0.401,-0.6867 0.724,-0.9406 0.125,-0.0981 0.263,-0.1731 0.406,-0.2481 0.185,-0.0923 0.377,-0.1038 0.52,0.0635 0.132,0.15 0.09,0.3231 0,0.4731 -0.084,0.1327 -0.179,0.2655 -0.305,0.3578 -0.257,0.1846 -0.532,0.3404 -0.807,0.502 -0.107,0.0634 -0.233,0.1038 -0.394,0.1789 0.036,0.1615 0.048,0.3346 0.107,0.4789 0.12,0.2712 0.353,0.3866 0.64,0.2885 0.699,-0.2366 1.393,-0.4616 1.901,-1.0502 0.621,-0.7212 1.309,-1.3906 2.032,-2.1465 -0.371,-0.0173 -0.658,-0.0288 -0.95,-0.0403 -0.006,-0.0231 -0.012,-0.052 -0.018,-0.0751 0.059,-0.0346 0.119,-0.0865 0.185,-0.1038 0.066,-0.0173 0.149,-0.0173 0.215,-0.0058 0.526,0.0808 0.903,-0.1154 1.237,-0.5078 0.419,-0.4904 0.903,-0.9174 1.339,-1.3906 0.191,-0.2077 0.395,-0.3115 0.682,-0.2885 0.197,0.0174 0.394,0 0.591,0 0.012,0.0347 0.024,0.0635 0.036,0.0981 -0.639,0.6636 -1.279,1.3214 -1.984,2.0484 0.334,0.0231 0.591,0.0462 0.878,0.0693 -0.089,0.2019 -0.239,0.1846 -0.352,0.1673 -0.586,-0.0981 -0.963,0.1616 -1.339,0.5712 -1.345,1.4656 -2.726,2.8966 -4.088,4.3391 -0.138,0.1443 -0.263,0.3059 -0.371,0.4674 -0.137,0.2077 -0.06,0.3578 0.203,0.3693 0.203,0.0116 0.413,-0.0115 0.604,-0.0577 1.219,-0.3116 2.289,-0.8944 3.251,-1.6733 0.544,-0.4443 1.1,-0.8771 1.632,-1.3445 0.365,-0.3231 0.693,-0.6808 1.04,-1.027 0.161,-0.1616 0.215,-0.3289 0.138,-0.5713 -0.12,-0.3923 0.119,-0.9116 0.466,-1.1021 0.167,-0.0923 0.352,-0.1673 0.526,-0.0115 0.149,0.1443 0.107,0.3174 0.024,0.4674 -0.12,0.2077 -0.263,0.4039 -0.407,0.5943 -0.083,0.1096 -0.185,0.2077 -0.299,0.3347 0.18,0.225 0.335,0.45 0.514,0.6462 0.885,0.9463 0.514,1.9561 -0.047,2.5966 -0.09,0.1038 -0.186,0.2077 -0.257,0.3462 1.01,-0.3578 1.906,-0.9059 2.755,-1.5291 0.024,0.0231 0.048,0.0461 0.072,0.0692 -0.048,0.0635 -0.078,0.1443 -0.144,0.1904 -0.878,0.6348 -1.817,1.1656 -2.833,1.581 -0.412,0.1674 -0.825,0.352 -1.219,0.554 -0.401,0.2077 -0.801,0.1212 -1.225,0.0519 0.077,-0.0519 0.155,-0.1096 0.239,-0.15 0.699,-0.3462 1.285,-0.8251 1.781,-1.4021 0.119,-0.1385 0.227,-0.2943 0.329,-0.4501 0.502,-0.779 0.46,-1.5406 -0.09,-2.3081 -0.048,0.0289 -0.102,0.052 -0.132,0.0866 -0.567,0.7443 -1.273,1.3502 -1.996,1.9387 -0.233,0.1905 -0.466,0.3866 -0.687,0.5886 -0.544,0.502 -0.634,0.9405 -0.347,1.6329 0.012,0.0289 -0.012,0.075 -0.018,0.1212 -0.335,-0.2366 -0.376,-0.4731 -0.233,-1.3387 -0.102,0.0462 -0.191,0.0808 -0.269,0.127 -0.777,0.5135 -1.608,0.9174 -2.51,1.1598 -0.275,0.075 -0.574,0.0692 -0.861,0.0635 -0.203,0 -0.365,-0.2366 -0.4,-0.4963 -0.036,-0.2943 0.035,-0.5654 0.203,-0.8078 0.275,-0.3981 0.574,-0.779 0.866,-1.1656 0.084,-0.1096 0.186,-0.2134 0.275,-0.3173 -0.018,-0.0231 -0.029,-0.0519 -0.047,-0.075 z m -6.659,-1.9387 c -0.269,-0.352 -0.37,-0.4039 -0.693,-0.2135 -0.347,0.2019 -0.693,0.427 -0.968,0.7097 -0.9268,0.9579 -1.8234,1.9388 -2.7199,2.9197 -0.1435,0.1558 -0.2451,0.352 -0.3228,0.5424 -0.1195,0.2943 0.0179,0.5366 0.3347,0.6116 0.1674,0.0404 0.3586,0.0635 0.514,0.0231 0.3646,-0.0981 0.7352,-0.1962 1.058,-0.3751 0.968,-0.525 1.733,-1.2752 2.421,-2.1118 0.101,-0.127 0.107,-0.2366 0.059,-0.3866 -0.215,-0.6174 -0.131,-1.1944 0.323,-1.7253 z m -7.3993,0.277 c -0.0418,0.0173 -0.0777,0.023 -0.0897,0.0461 -0.6634,0.8713 -1.5181,1.5522 -2.3549,2.2503 -0.263,0.2193 -0.4841,0.4847 -0.6873,0.7559 -0.2092,0.2712 -0.2331,0.6001 -0.1674,0.929 0.0657,0.3347 0.2809,0.4732 0.6336,0.4155 0.1016,-0.0173 0.2032,-0.0404 0.2928,-0.075 1.1835,-0.4559 2.08,-1.2291 2.6419,-2.3427 0.3586,-0.7097 0.1554,-1.3617 -0.263,-1.9849 z m -6.6285,2.0656 c 0.012,0.0347 0.0299,0.0635 0.0419,0.0981 0.1852,-0.023 0.3765,-0.0288 0.5558,-0.0692 0.8607,-0.1789 1.6138,-0.5712 2.2414,-1.1656 0.1733,-0.1673 0.3347,-0.3577 0.4602,-0.5597 0.1315,-0.2135 0.275,-0.4558 0.0897,-0.7097 -0.1196,-0.1673 -0.4184,-0.15 -0.7711,0.0231 -0.1135,0.0577 -0.2331,0.1212 -0.3347,0.1962 -0.8666,0.6232 -1.5719,1.4079 -2.2892,2.1753 z"
       fill="#ffffff"
       id="path828" />
    <path
       d="m 29.9324,46.8725 c -0.6395,0.6635 -1.285,1.3271 -1.9963,2.0599 0.3646,0.0173 0.6396,0.0346 0.9145,0.0519 0.006,0.0231 0.012,0.0404 0.0179,0.0635 -0.0597,0.0404 -0.1135,0.0865 -0.1793,0.1096 -0.0538,0.0173 -0.1195,0.0173 -0.1733,0 -0.5917,-0.1154 -0.9623,0.1789 -1.3389,0.5828 -1.3627,1.4656 -2.7613,2.9024 -4.142,4.3507 -0.1853,0.1904 -0.3885,0.375 -0.4543,0.6693 0.2331,0.2135 0.4961,0.1846 0.7352,0.0865 0.3347,-0.1384 0.6694,-0.2885 0.9683,-0.4847 1.1595,-0.7558 2.2414,-1.6156 3.2515,-2.5561 0.6754,-0.6347 1.4105,-1.1829 2.2712,-1.5522 0.3407,-0.1442 0.7113,-0.2596 1.0819,-0.3115 0.6634,-0.0924 1.0698,0.3808 0.8726,0.9924 -0.0717,0.2193 -0.2032,0.4501 -0.3766,0.6059 -0.2869,0.2539 -0.6036,0.4904 -0.9443,0.6693 -0.7471,0.3924 -1.56,0.6347 -2.4147,0.6982 -0.257,0.0173 -0.4423,0.1038 -0.5917,0.2943 -0.1973,0.2423 -0.4125,0.4789 -0.5977,0.727 -0.1076,0.1442 -0.1973,0.3174 -0.2451,0.4905 -0.0657,0.2308 0.0359,0.3923 0.2749,0.4443 0.1973,0.0403 0.4065,0.0461 0.6037,0.0346 0.5439,-0.0346 1.0579,-0.2135 1.5421,-0.4386 1.2432,-0.5827 2.3131,-1.4136 3.3949,-2.2272 0.0658,-0.0519 0.1136,-0.127 0.1674,-0.1962 2.0979,-2.7754 4.5066,-5.2739 7.262,-7.4492 0.3945,-0.3116 0.8368,-0.5597 1.2731,-0.8078 0.2869,-0.1616 0.6156,-0.2423 0.8966,0.0058 0.2809,0.2481 0.2032,0.5712 0.1016,0.8655 -0.1734,0.4904 -0.4961,0.8886 -0.8488,1.2694 -0.9025,0.9694 -1.9544,1.7714 -3.0482,2.5215 -0.9504,0.6521 -1.9186,1.2868 -2.8869,1.9099 -0.3288,0.2135 -0.6276,0.4443 -0.8667,0.7559 -0.7172,0.9232 -1.4464,1.8349 -2.1696,2.7524 -0.1136,0.1442 -0.2212,0.3 -0.3049,0.4616 -0.1793,0.3462 -0.0298,0.5943 0.3766,0.577 0.3048,-0.0116 0.6216,-0.0462 0.8965,-0.1616 0.5559,-0.2366 1.1297,-0.4789 1.6198,-0.8136 1.1057,-0.7501 2.2055,-1.5175 3.1738,-2.4407 0.1972,-0.1904 0.3825,-0.3866 0.5738,-0.5828 0.2331,-0.2423 0.4064,-0.4905 0.3347,-0.8655 -0.0538,-0.2654 0.0418,-0.5366 0.2211,-0.7501 0.0957,-0.1154 0.2272,-0.2308 0.3706,-0.2828 0.1016,-0.0346 0.269,-0.0057 0.3527,0.0577 0.0657,0.052 0.1016,0.2135 0.0657,0.3001 -0.0717,0.1962 -0.1793,0.3808 -0.3048,0.5539 -0.1196,0.1731 -0.275,0.3289 -0.4423,0.5193 0.1912,0.225 0.3825,0.4501 0.5678,0.6751 0.5021,0.6001 0.6395,1.2521 0.2869,1.9619 -0.0717,0.1384 -0.1733,0.2596 -0.269,0.3865 -0.1135,0.1558 -0.2271,0.3116 -0.3168,0.4905 1.0102,-0.3 1.8649,-0.8655 2.7196,-1.4194 0.0358,0.0461 0.0717,0.0865 0.1135,0.1327 -0.0836,0.0461 -0.1733,0.0808 -0.251,0.1327 -0.9324,0.6405 -1.9007,1.2059 -2.9945,1.5464 -0.1494,0.0461 -0.2928,0.1211 -0.4303,0.2077 -0.6694,0.4097 -1.3867,0.6462 -2.1936,0.5424 -0.0597,-0.0058 -0.1135,-0.0116 -0.1733,-0.0116 -0.4483,-0.0115 -0.6694,-0.1961 -0.6814,-0.6231 0,-0.2597 0.0598,-0.5193 0.1016,-0.8309 -0.2809,0.1846 -0.5439,0.352 -0.8009,0.5308 -0.5618,0.3866 -1.1715,0.6924 -1.8289,0.8828 -0.3108,0.0866 -0.6695,0.0808 -0.9922,0.0347 -0.269,-0.0346 -0.4363,-0.2597 -0.526,-0.5136 -0.1076,-0.3058 -0.0717,-0.6116 0.0598,-0.9059 0.1195,-0.2712 0.257,-0.5308 0.4004,-0.8366 -0.1912,0.0288 -0.2869,0.1558 -0.4064,0.2365 -0.5858,0.3924 -1.1595,0.8021 -1.7572,1.1829 -0.6157,0.3924 -1.297,0.652 -2.0083,0.8136 -0.3706,0.0865 -0.783,0.0577 -1.1715,0.0231 -0.3706,-0.0346 -0.6515,-0.3866 -0.6276,-0.7559 0.0179,-0.2597 0.1076,-0.5193 0.1853,-0.7732 0.0478,-0.1558 0.1375,-0.2943 0.1554,-0.4847 -0.3526,0.2654 -0.6993,0.5309 -1.0519,0.7963 -0.5738,0.4327 -1.1775,0.8251 -1.841,1.1309 -0.257,0.1212 -0.508,0.1154 -0.765,0.0923 -0.2092,-0.0173 -0.4064,-0.2365 -0.3885,-0.4962 0.0179,-0.2885 0.0657,-0.5943 0.1972,-0.8482 0.1793,-0.352 0.4483,-0.6578 0.6754,-0.9809 0.0478,-0.0635 0.0897,-0.1269 0.2032,-0.277 -0.6275,0.2424 -1.1475,0.2712 -1.6257,-0.1211 -0.1793,0.2019 -0.3228,0.375 -0.4841,0.5366 -0.4423,0.427 -0.8846,0.8597 -1.3449,1.2636 -0.496,0.4328 -1.0878,0.7271 -1.7213,0.8828 -0.3467,0.0866 -0.7711,0.0808 -1.1058,-0.0346 -0.508,-0.1788 -0.6993,-0.7039 -0.5319,-1.2405 0.0956,-0.3059 0.2271,-0.6117 0.4064,-0.8829 0.795,-1.1944 1.8409,-2.1407 3.1618,-2.7812 0.3766,-0.1846 0.777,-0.3346 1.2134,-0.3173 0.1434,0 0.2988,0.0231 0.4184,0.0923 0.1793,0.1039 0.3227,0.2539 0.5678,0.2654 0.0777,0 0.2092,0.2135 0.2032,0.3232 -0.012,0.2769 -0.0538,0.5654 -0.1554,0.8193 -0.1196,0.3116 -0.3108,0.6001 -0.4841,0.9232 0.2271,0.2366 0.5379,0.2943 0.8606,0.2366 0.4961,-0.0865 0.9504,-0.3058 1.297,-0.652 0.801,-0.7963 1.572,-1.6272 2.349,-2.4465 0.0359,-0.0347 0.0598,-0.0866 0.1255,-0.1731 -0.3287,-0.0231 -0.6037,-0.0462 -0.9204,-0.0693 0.1434,-0.225 0.3287,-0.1788 0.4662,-0.1615 0.5259,0.075 0.9025,-0.1154 1.2372,-0.5078 0.4064,-0.4789 0.8846,-0.9001 1.303,-1.3618 0.2092,-0.2308 0.4363,-0.3577 0.7591,-0.3173 0.1554,0.0173 0.3167,0 0.4721,0 l 0.0538,0.0923 z m -8.1048,3.3986 c -0.2271,-0.3059 -0.3287,-0.3636 -0.6096,-0.2251 -0.3048,0.1558 -0.6216,0.3289 -0.8547,0.5713 -0.9862,1.0097 -1.9485,2.0426 -2.9048,3.087 -0.1495,0.1615 -0.2391,0.3866 -0.3049,0.5943 -0.0956,0.3289 0.0718,0.5539 0.4184,0.6058 0.1255,0.0174 0.269,0.0347 0.3885,0 0.3945,-0.1269 0.8129,-0.2365 1.1715,-0.4327 0.9145,-0.5136 1.6437,-1.2406 2.3012,-2.0369 0.1135,-0.1384 0.1135,-0.2596 0.0597,-0.4212 -0.1673,-0.4731 -0.1374,-0.9405 0.1076,-1.3848 0.0658,-0.1212 0.1554,-0.2308 0.2271,-0.3404 z m 13.4841,-0.2193 0.0777,0.0635 c 0.0717,-0.0462 0.1494,-0.0866 0.2152,-0.1328 1.0101,-0.6924 2.0202,-1.3848 3.0184,-2.0887 0.9443,-0.6636 1.8648,-1.356 2.6179,-2.2273 0.251,-0.2885 0.4483,-0.6232 0.6276,-0.9578 0.0837,-0.15 0.1016,-0.352 0.1016,-0.5309 0,-0.2712 -0.1733,-0.3923 -0.4363,-0.3116 -0.2152,0.0693 -0.4304,0.1789 -0.6097,0.3174 -0.4483,0.3577 -0.9145,0.704 -1.3089,1.1136 -1.0819,1.1194 -2.1338,2.2677 -3.1858,3.4159 -0.3945,0.427 -0.7471,0.8886 -1.1177,1.3329 z m 3.8492,0.5885 c -0.5021,0.4732 -0.9742,0.9348 -1.4644,1.3733 -0.3944,0.352 -0.8188,0.6751 -1.2193,1.0213 -0.3586,0.3058 -0.6156,0.6694 -0.6634,1.1483 -0.0717,0.7155 0.2152,0.9578 0.9204,0.7212 1.0759,-0.3577 1.8888,-1.0443 2.4745,-1.9733 0.4782,-0.7559 0.4244,-1.5176 -0.0418,-2.2908 z m -11.2606,2.083 c 0.1613,0 0.239,0.0058 0.3048,0 1.1775,-0.1615 2.1457,-0.6808 2.8988,-1.5694 0.1076,-0.127 0.1853,-0.2885 0.2511,-0.4385 0.0717,-0.1558 0.1075,-0.3289 -0.0239,-0.479 -0.1495,-0.1673 -0.3587,-0.1384 -0.526,-0.0634 -0.263,0.1154 -0.538,0.2365 -0.7471,0.4269 -0.6575,0.5944 -1.2851,1.2175 -1.9246,1.8349 -0.0658,0.0635 -0.1196,0.1443 -0.2391,0.2885 z"
       fill="#ffffff"
       id="path830" />
    <path
       d="M 58.1917,27.4274 H 57.594 c -0.0777,-0.3116 -0.1375,-0.6117 -0.2331,-0.9059 -0.4184,-1.2233 -1.1895,-2.1292 -2.5462,-2.435 -1.0101,-0.2251 -1.9485,-0.0462 -2.7016,0.6924 -0.5798,0.5597 -0.7591,1.2463 -0.6157,2.0195 0.0897,0.4616 0.3407,0.8136 0.777,1.0098 0.3168,0.1442 0.6515,0.2423 0.9803,0.3462 0.9623,0.2885 1.9365,0.5251 2.8809,0.8597 1.5839,0.554 2.4745,1.6618 2.6418,3.3005 0.1016,0.9983 0.0179,1.9676 -0.4423,2.8793 -0.9145,1.8291 -2.8092,2.3946 -4.4827,2.1638 -0.8368,-0.1154 -1.6019,-0.4097 -2.2474,-0.9232 -0.4961,0.1789 -0.7053,0.7789 -1.3328,0.7789 V 33.2782 H 50.84 c 0.0478,0.1674 0.0896,0.3289 0.1374,0.4905 0.2571,0.8482 0.6456,1.6272 1.321,2.2503 1.4524,1.3387 3.873,1.1194 4.9489,-0.4443 0.4303,-0.6347 0.5499,-1.3271 0.3706,-2.0599 -0.1255,-0.5135 -0.4244,-0.9405 -0.9026,-1.2002 -0.4781,-0.2596 -0.9862,-0.4847 -1.5002,-0.6751 -0.6515,-0.2365 -1.3269,-0.427 -1.9903,-0.6347 -1.1476,-0.3577 -2.068,-0.9809 -2.5462,-2.083 -0.4184,-0.9694 -0.5021,-1.9676 -0.1554,-2.9658 0.4901,-1.4021 1.554,-2.1811 3.0602,-2.36 1.2612,-0.15 2.4386,0.0923 3.4428,0.8713 0.4662,-0.1212 0.5797,-0.7443 1.1655,-0.704 z"
       fill="#ffffff"
       id="path832" />
    <path
       d="m 44.0857,36.7978 c 0.0598,0.1962 0.0299,0.3001 -0.1375,0.3405 -0.7829,0.1904 -1.5599,0.2308 -2.319,-0.0808 C 40.7924,36.717 40.5294,36.0304 40.4696,35.2226 40.4338,34.761 40.4158,34.2994 40.38,33.832 40.368,33.705 40.3381,33.5839 40.3142,33.4569 40.1588,32.6318 39.7524,32.2452 38.6945,32.049 38.3598,31.9856 38.0071,32.0375 37.6306,32.0375 v 4.6392 h 1.4703 c 0.012,0.1442 0.0179,0.2481 0.0299,0.375 h -4.9131 c -0.0657,-0.3404 -0.0657,-0.352 0.2152,-0.3577 0.3885,-0.0116 0.783,0 1.1595,0 0.1016,-0.3289 0.1375,-8.4648 0.0419,-9.0995 h -1.4405 v -0.375 c 0.1195,-0.0116 0.2152,-0.0347 0.3168,-0.0289 1.7214,0 3.4427,0 5.1641,0.0173 0.4483,0 0.8965,0.0808 1.3448,0.1385 0.1554,0.0173 0.3108,0.0692 0.4662,0.1212 0.783,0.2596 1.2911,0.7559 1.4106,1.5637 0.1255,0.8482 -0.1255,1.5579 -0.8726,2.0714 -0.544,0.3751 -1.1656,0.5655 -1.8111,0.6982 -0.0657,0.0116 -0.1315,0.0289 -0.2988,0.0693 0.1494,0.0634 0.2151,0.1038 0.2809,0.1211 1.6138,0.4212 2.1816,1.2695 2.349,2.8274 0.0418,0.3923 0.0358,0.7847 0.0597,1.1771 0.0419,0.6289 0.2869,0.8424 0.9444,0.8309 0.1733,0 0.3407,-0.0231 0.5379,-0.0346 z m -6.4492,-5.1931 c 0.6097,0 1.1954,0.0404 1.7692,-0.0115 0.6695,-0.0635 1.1297,-0.4328 1.2911,-1.0848 0.1613,-0.6405 0.1434,-1.2809 -0.012,-1.9214 -0.1315,-0.554 -0.508,-0.8713 -1.0938,-0.9406 -0.3466,-0.0403 -0.6933,-0.0519 -1.046,-0.0634 -0.2988,-0.0058 -0.5977,0 -0.9144,0.0057 v 4.0045 z"
       fill="#ffffff"
       id="path834" />
    <path
       d="m 56.4345,50.1735 c -0.4722,0.479 -0.8965,0.9117 -1.3209,1.3502 0.0119,0.0173 0.0299,0.0347 0.0418,0.052 0.0718,-0.052 0.1495,-0.0981 0.2212,-0.1501 0.5797,-0.3981 1.1535,-0.8078 1.7453,-1.1886 0.1733,-0.1154 0.4004,-0.1789 0.6096,-0.2193 0.5977,-0.1154 1.1297,0.2885 1.1297,0.8713 0,0.2308 -0.0479,0.4905 -0.1614,0.6867 -0.2212,0.375 -0.4842,0.7385 -0.771,1.0674 -0.3945,0.4501 -0.8368,0.8655 -1.2433,1.3041 -0.1733,0.1846 -0.3407,0.3866 -0.4841,0.5943 -0.0538,0.075 -0.0717,0.2423 -0.0239,0.3 0.0538,0.0635 0.2152,0.0981 0.3108,0.0693 0.2211,-0.0635 0.4542,-0.1385 0.6336,-0.2654 0.6036,-0.4213 1.1894,-0.8598 1.7751,-1.2983 0.4603,-0.3462 0.8607,-0.7501 1.2373,-1.1829 0.777,-0.8828 1.7273,-1.5579 2.8629,-1.9503 0.3766,-0.1269 0.795,-0.1962 1.1954,-0.1904 0.6575,0.0115 0.8667,0.2597 0.8787,0.9636 0.1195,-0.1096 0.2151,-0.1789 0.2928,-0.2596 1.6437,-1.6791 3.2874,-3.3525 4.9191,-5.0373 0.2211,-0.2308 0.4423,-0.3347 0.7591,-0.3058 0.1972,0.0173 0.4004,0 0.6933,0 -0.1554,0.1731 -0.2391,0.2769 -0.3347,0.3692 -2.7076,2.7178 -5.4152,5.4412 -8.1168,8.159 -0.1434,0.1442 -0.2869,0.2885 -0.3885,0.4558 -0.0717,0.1212 -0.1434,0.3231 -0.0896,0.4154 0.0597,0.0924 0.2869,0.1558 0.4184,0.1328 0.3526,-0.0635 0.7172,-0.1385 1.04,-0.277 0.7232,-0.3174 1.3269,-0.8136 1.9365,-1.2925 0.3407,-0.2654 0.6575,-0.5539 0.9922,-0.8309 0.1135,-0.0981 0.2331,-0.1847 0.3526,-0.2827 0.0239,0.023 0.0419,0.0403 0.0658,0.0634 -0.0359,0.052 -0.0598,0.1097 -0.1076,0.1501 -0.777,0.6347 -1.5421,1.2925 -2.349,1.8925 -0.4124,0.3001 -0.8965,0.5367 -1.3807,0.7098 -0.2988,0.1096 -0.6634,0.0865 -0.9862,0.0404 -0.251,-0.0347 -0.4183,-0.2482 -0.4423,-0.5136 -0.0119,-0.1385 0,-0.2827 0,-0.4674 -0.1075,0.0635 -0.1852,0.1039 -0.2629,0.1501 -0.4483,0.2654 -0.8667,0.5827 -1.3449,0.7732 -0.2988,0.1211 -0.6933,0.1038 -1.022,0.0346 -0.2809,-0.0577 -0.5021,-0.3174 -0.514,-0.6232 -0.018,-0.3693 0.0239,-0.7443 0.0418,-1.1252 -0.0478,0.0347 -0.1195,0.0808 -0.1913,0.1327 -0.6873,0.5424 -1.3508,1.1194 -2.1457,1.5233 -0.1614,0.0808 -0.3527,0.1328 -0.532,0.1443 -0.4124,0.0231 -0.6455,-0.1616 -0.6515,-0.5539 0,-0.2539 0.0598,-0.5366 0.1794,-0.7617 0.1733,-0.3231 0.4064,-0.6174 0.6514,-0.8943 0.4304,-0.479 0.8906,-0.929 1.3329,-1.3964 0.1913,-0.2077 0.3825,-0.427 0.526,-0.6693 0.1733,-0.2885 0.0119,-0.5944 -0.3347,-0.6174 -0.2331,-0.0116 -0.5021,0.0346 -0.7113,0.1384 -0.4483,0.2309 -0.8906,0.4847 -1.291,0.7848 -1.3269,0.9751 -2.5223,2.0888 -3.6161,3.3005 -0.2988,0.3289 -0.6037,0.502 -1.046,0.4327 -0.1135,-0.0173 -0.2271,0 -0.4303,0 0.2749,-0.4212 0.6336,-0.6808 0.8667,-1.0617 -0.0897,0.052 -0.1853,0.0981 -0.269,0.1558 -0.5977,0.4039 -1.2133,0.779 -1.8887,1.0502 -0.2869,0.1154 -0.5679,0.1096 -0.8547,0.0808 -0.269,-0.0289 -0.4961,-0.3174 -0.4961,-0.6117 0,-0.1731 0.0418,-0.3519 0.0657,-0.5712 -0.1913,0.1442 -0.3407,0.2827 -0.508,0.3808 -0.4483,0.2654 -0.8727,0.6001 -1.3568,0.7501 -0.9503,0.2943 -1.6975,-0.0981 -1.5839,-1.1655 0.0538,-0.5078 0.3048,-0.9406 0.6276,-1.3271 0.9742,-1.1887 2.2234,-2.0196 3.7117,-2.4985 0.2929,-0.0923 0.6335,-0.1154 0.9443,-0.075 0.4842,0.0577 0.6515,0.2943 0.6695,0.7732 0,0.0346 0.0179,0.0692 0.0358,0.1673 0.1614,-0.1558 0.3108,-0.2654 0.4244,-0.4039 0.263,-0.3404 0.6037,-0.4558 1.028,-0.4039 0.1256,0.0173 0.2511,0.0173 0.4364,0.0289 -0.0897,0.1096 -0.1375,0.1731 -0.1913,0.2308 -1.0998,1.1251 -2.2055,2.2503 -3.2993,3.3812 -0.1972,0.202 -0.3825,0.427 -0.532,0.6694 -0.1733,0.2769 -0.0179,0.5308 0.3168,0.4904 0.3108,-0.0404 0.6276,-0.1327 0.9085,-0.2654 0.9623,-0.4558 1.7991,-1.0963 2.6179,-1.7541 0.8727,-0.704 1.6796,-1.4829 2.4088,-2.3254 0.3705,-0.4269 0.777,-0.5308 1.3866,-0.3923 z m -10.3581,4.7488 c 0.1375,-0.0404 0.4004,-0.075 0.6276,-0.1846 0.3705,-0.1847 0.7411,-0.3982 1.0758,-0.6463 0.789,-0.5828 1.4943,-1.2579 2.1099,-2.0137 0.251,-0.3116 0.4722,-0.6405 0.6814,-0.9752 0.1434,-0.2366 0.2211,-0.4962 0.0119,-0.7501 -0.1972,-0.2423 -0.4721,-0.2481 -0.759,-0.2077 -0.3766,0.0577 -0.6814,0.2423 -0.9683,0.4616 -1.1356,0.8828 -2.1577,1.8926 -3.12,2.9485 -0.1614,0.1731 -0.2869,0.3981 -0.3646,0.6174 -0.1554,0.4616 0.0717,0.7386 0.6993,0.7501 z m 14.2491,0 c 0.1315,-0.0461 0.3766,-0.0981 0.5917,-0.2077 0.2929,-0.15 0.5798,-0.3231 0.8428,-0.5193 1.0161,-0.7617 1.9126,-1.6445 2.6717,-2.6485 0.1196,-0.1558 0.2271,-0.3289 0.3228,-0.4962 0.1255,-0.2193 0.1972,-0.4501 -0.006,-0.6636 -0.2032,-0.2077 -0.4602,-0.2481 -0.7232,-0.1442 -0.2809,0.1154 -0.5619,0.2365 -0.8129,0.4039 -1.1177,0.727 -2.1278,1.5694 -2.9765,2.585 -0.2272,0.2712 -0.4304,0.5712 -0.5858,0.8828 -0.2271,0.4558 0.0478,0.8194 0.6814,0.8136 z"
       fill="#ffffff"
       id="path836" />
    <path
       d="m 9.51562,45.6731 c -0.0239,0.1616 -0.01793,0.2308 -0.04183,0.2885 -0.52,1.3618 -1.46437,2.285 -2.95861,2.6139 -0.31678,0.0692 -0.6754,0.0692 -0.99816,0.0231 -1.00413,-0.1385 -1.59586,-0.9579 -1.38666,-1.9388 0.0777,-0.3635 0.22712,-0.7386 0.44827,-1.0386 0.81287,-1.1367 1.9485,-1.8349 3.32919,-2.1696 0.53195,-0.1269 1.05195,-0.0865 1.53608,0.1443 0.38851,0.1846 0.783,0.3866 1.1356,0.6289 1.0819,0.7559 2.1338,0.704 3.1977,-0.0231 0.2032,-0.1384 0.4065,-0.2769 0.6097,-0.4096 0.0657,-0.0404 0.1434,-0.0577 0.2809,-0.1097 -0.1494,0.3635 -0.4662,0.4501 -0.6754,0.6463 -0.2152,0.2077 -0.4602,0.3866 -0.6874,0.5885 -0.2211,0.202 -0.4363,0.4155 -0.6455,0.629 -0.2092,0.2135 -0.4124,0.4327 -0.6156,0.6578 -0.2092,0.2365 -0.4064,0.4789 -0.6037,0.7212 -0.1853,0.2308 -0.3706,0.4732 -0.5499,0.7097 -0.1793,0.2366 -0.3586,0.479 -0.5319,0.7213 -0.1734,0.2424 -0.3467,0.4905 -0.51404,0.7328 -0.16736,0.2424 -0.32874,0.4847 -0.54988,0.8136 0.44827,-0.0692 0.79492,-0.0981 1.12362,-0.1846 0.1315,-0.0347 0.2451,-0.1789 0.3467,-0.2943 0.4244,-0.4847 0.8368,-0.9752 1.2612,-1.4541 0.1016,-0.1154 0.2151,-0.2077 0.3526,-0.2885 -0.5439,0.6116 -1.028,1.2637 -1.4942,2.0311 0.4542,-0.0693 0.8128,-0.1039 1.1595,-0.1904 0.1315,-0.0347 0.245,-0.1847 0.3407,-0.3001 1.1894,-1.4079 2.4446,-2.7581 3.8432,-3.9813 0.6156,-0.5367 1.2492,-1.0617 2.0023,-1.4253 0.2211,-0.1038 0.4602,-0.1961 0.6993,-0.2308 0.4363,-0.0634 0.6575,0.1558 0.6335,0.5828 -0.0298,0.4328 -0.2211,0.8136 -0.4542,1.1713 -0.5559,0.8713 -1.309,1.5811 -2.1218,2.2273 -0.8308,0.6693 -1.7334,1.2406 -2.7255,1.6618 -0.1076,0.0462 -0.2152,0.1096 -0.3228,0.1212 -0.5738,0.0692 -0.9085,0.4327 -1.2074,0.8655 -0.4781,0.7039 -0.9981,1.3848 -1.4583,2.1003 -0.2391,0.3635 -0.4244,0.7732 -0.5619,1.1829 -0.2988,0.8828 0.1494,1.4367 1.1177,1.4136 0.4722,-0.0115 0.9265,-0.1154 1.3568,-0.3058 1.4106,-0.6231 2.4864,-1.6041 3.2156,-2.9254 0.1196,-0.2193 0.2092,-0.4732 0.2391,-0.7155 0.0777,-0.6578 -0.3526,-1.0386 -1.0101,-0.8771 -0.3586,0.0866 -0.7292,0.2424 -1.0221,0.4559 -0.4901,0.352 -0.9264,0.7674 -1.3747,1.1713 -0.0896,0.0808 -0.1375,0.2077 -0.2092,0.3116 l -0.1195,-0.0981 c 0.0358,-0.0635 0.0538,-0.1327 0.1016,-0.1846 0.4722,-0.5193 0.9623,-1.0213 1.56,-1.4079 0.3526,-0.2309 0.7232,-0.4213 1.1595,-0.4617 0.6993,-0.0577 1.0699,0.2597 1.1117,0.929 0.0299,0.4789 -0.1076,0.9175 -0.3407,1.3329 -0.3048,0.5366 -0.7112,0.9925 -1.1774,1.4022 -0.789,0.6866 -1.6796,1.229 -2.7076,1.4944 -0.526,0.1385 -1.0878,0.1731 -1.6138,-0.0923 -0.4243,-0.2135 -0.6515,-0.5424 -0.7352,-0.9867 -0.1016,-0.5251 -0.0298,-1.0328 0.1614,-1.5348 0.2989,-0.7848 0.7531,-1.4887 1.2313,-2.1811 0.0956,-0.1385 0.1853,-0.277 0.3347,-0.4963 -0.4303,0.0635 -0.7591,0.0924 -1.0759,0.1674 -0.1075,0.023 -0.2092,0.15 -0.2749,0.2538 -0.2988,0.4674 -0.5857,0.9348 -0.86069,1.4195 C 9.58735,51.9164 9.5993,51.9221 9.13908,51.8529 9.46183,51.1951 9.93401,50.6412 10.3464,49.9949 9.92804,49.943 9.56344,50.0353 9.21678,50.1334 9.07931,50.1738 8.9777,50.37 8.88206,50.5027 8.16483,51.5355 7.33402,52.4761 6.35978,53.2896 5.3138,54.1609 4.12438,54.7899 2.77358,55.0438 2.04439,55.1822 1.26738,55.2457 0.55612,54.8533 0.0420993,54.5706 -0.191003,54.1032 -0.0415786,53.6185 0.0839381,53.2089 0.466465,52.9896 0.866924,53.0877 c 0.310806,0.075 0.496086,0.3058 0.496086,0.6116 0,0.3116 -0.17931,0.5482 -0.484132,0.6232 -0.107586,0.0288 -0.221149,0.0461 -0.346666,0.075 0,0.2827 0.203218,0.3462 0.394482,0.4039 C 1.50048,54.963 2.08025,54.9457 2.65404,54.8187 3.6522,54.5995 4.45909,54.0571 5.19426,53.3935 6.04897,52.6203 6.73633,51.7086 7.44161,50.8085 7.56115,50.6527 7.67471,50.4969 7.74644,50.2719 7.4177,50.3642 7.07701,50.445 6.75426,50.5546 6.42552,50.6642 6.09679,50.797 5.78598,50.9412 5.48713,51.0855 5.19426,51.247 4.91334,51.4259 4.63243,51.6048 4.36346,51.8067 4.08852,52.0029 4.06461,51.9741 4.0407,51.951 4.0168,51.9221 c 0.10758,-0.1038 0.20321,-0.2135 0.32275,-0.3 0.99218,-0.7501 2.09793,-1.2752 3.32919,-1.5176 0.26896,-0.0519 0.43034,-0.1673 0.58574,-0.375 1.24321,-1.6445 2.62992,-3.1563 4.23772,-4.4718 0.1972,-0.1616 0.4004,-0.3116 0.5678,-0.5193 -0.1554,0.0634 -0.3108,0.1269 -0.4602,0.1961 -0.9444,0.427 -1.8589,0.4328 -2.71958,-0.2019 C 9.70689,44.6056 9.51562,44.496 9.33034,44.3864 8.69678,44.0056 8.0154,43.8671 7.27425,44.0171 c -1.16551,0.2366 -2.06206,0.8424 -2.64182,1.8464 -0.17334,0.3001 -0.28092,0.6578 -0.32276,0.9983 -0.11954,1.0097 0.71126,1.7425 1.75126,1.5637 0.25701,-0.0462 0.51402,-0.1212 0.74712,-0.2251 1.12367,-0.4962 2.02022,-1.2175 2.53424,-2.3369 0.01793,-0.0461 0.06575,-0.075 0.16138,-0.1904 z m 3.99268,3.6409 c 0.1972,-0.0634 0.3347,-0.0923 0.4662,-0.1442 1.291,-0.5078 2.3728,-1.3098 3.371,-2.2273 0.7053,-0.652 1.3747,-1.3444 1.811,-2.2041 0.1016,-0.1962 0.1733,-0.4155 0.2152,-0.6348 0.0418,-0.2365 -0.0837,-0.3577 -0.3228,-0.3231 -0.1793,0.0289 -0.3706,0.0923 -0.52,0.202 -0.3586,0.2596 -0.7172,0.5308 -1.04,0.8309 -1.4105,1.3271 -2.6418,2.81 -3.8731,4.2872 -0.0298,0.0403 -0.0478,0.0923 -0.1016,0.2077 z"
       fill="#ffffff"
       id="path838" />
    <path
       d="m 62.2505,27.5891 h -1.4704 v -0.3635 h 8.4754 c 0.0239,0.8828 0.0538,1.7368 0.0777,2.585 -0.3586,0.1269 -0.3646,0.1212 -0.4722,-0.1789 -0.1016,-0.2769 -0.1972,-0.5597 -0.3227,-0.8251 -0.3049,-0.6289 -0.8249,-1.004 -1.5301,-1.1425 -0.4483,-0.0865 -2.1518,-0.1212 -2.6897,-0.0346 v 4.1545 c 0.5858,0.0461 1.1536,0.0404 1.6676,-0.2828 0.3228,-0.2019 0.4722,-0.525 0.5499,-0.8828 0.0299,-0.1212 0.0299,-0.2539 0.0597,-0.3751 0.0479,-0.2134 0.0538,-0.2134 0.3886,-0.1673 v 3.9872 C 66.6436,34.1382 66.6316,34.1324 66.5778,33.89 66.518,33.6304 66.4822,33.365 66.3985,33.1111 66.2491,32.661 65.9144,32.3725 65.4302,32.286 65.0776,32.2225 64.713,32.2167 64.3663,32.1879 c -0.1016,0.3577 -0.1315,3.7505 -0.0538,4.4603 0.1016,0.0115 0.2092,0.0403 0.3228,0.0403 0.6395,0 1.285,0.0058 1.9246,0 1.2492,-0.0173 1.9784,-0.5423 2.3609,-1.6964 0.0896,-0.2654 0.1494,-0.5424 0.2271,-0.8135 0.0717,-0.2482 0.0777,-0.2424 0.4423,-0.1732 -0.0418,0.9983 -0.0837,2.0023 -0.1315,3.0467 -0.1793,0.0115 -0.3168,0.0288 -0.4602,0.0288 -2.594,0 -5.194,0 -7.788,0 -0.0717,0 -0.1435,0 -0.2212,0 -0.263,-0.0115 -0.2749,-0.15 -0.1793,-0.3924 h 1.4345 v -9.1109 z"
       fill="#ffffff"
       id="path840" />
    <path
       d="m 21.1886,31.7323 c -0.0478,1.6156 -0.4303,2.8504 -1.285,3.9294 -1.823,2.3081 -5.3375,2.1811 -6.9931,0.0231 -1.1536,-1.506 -1.6078,-3.1908 -1.1058,-5.02 0.3885,-1.4252 1.309,-2.4984 2.6718,-3.1851 1.1894,-0.5943 2.4147,-0.652 3.622,-0.0807 1.9664,0.9347 2.9706,2.4984 3.0841,4.3275 z m -7.3457,0.4212 c 0,0 0.0179,0 0.0299,0 0,0.4501 -0.006,0.9002 0,1.3502 0.0119,0.4501 0,0.9059 0.0717,1.3445 0.2032,1.2809 0.9025,1.9791 2.0382,2.083 0.3885,0.0346 0.7889,0 1.1714,-0.0635 0.6276,-0.1096 1.0759,-0.4674 1.3449,-1.0328 0.2928,-0.6117 0.4064,-1.2637 0.4124,-1.9273 0.0179,-1.2348 0,-2.4753 0.0119,-3.7101 0,-0.5886 -0.1673,-1.1367 -0.4004,-1.6734 -0.275,-0.6174 -0.7651,-0.9809 -1.4345,-1.1194 -0.4901,-0.1038 -0.9862,-0.0923 -1.4763,0.0173 -0.7591,0.1732 -1.2612,0.6174 -1.4943,1.3387 -0.0836,0.2539 -0.1613,0.5193 -0.1793,0.779 -0.0478,0.8713 -0.0717,1.7425 -0.1016,2.6138 z"
       fill="#ffffff"
       id="path842" />
    <path
       d="m 90.6771,32.0666 c -0.018,-2.5042 1.9126,-4.7084 4.3213,-5.02 1.2193,-0.1615 2.2892,0.2366 3.1977,0.9809 1.7692,1.4541 2.3369,3.3005 1.7752,5.4701 -0.3108,1.1886 -0.8906,2.2273 -1.9186,2.9947 -1.7931,1.3386 -4.4051,1.0732 -5.8814,-0.5828 -1.0161,-1.1367 -1.4584,-2.4811 -1.4942,-3.8429 z m 2.2354,0.2539 c 0.0239,0.7905 0.0119,1.6387 0.0836,2.4754 0.1076,1.2694 0.8368,2.008 2.0561,2.1465 0.257,0.0288 0.526,0.0288 0.783,0 0.9503,-0.0924 1.5959,-0.5655 1.8708,-1.4657 0.0777,-0.2538 0.1614,-0.5193 0.1614,-0.7789 0.0239,-1.6156 0.0239,-3.2313 0.0239,-4.8469 0,-0.2366 -0.0538,-0.4731 -0.1016,-0.7097 -0.263,-1.1771 -1.046,-1.7887 -2.2832,-1.8003 -0.1734,0 -0.3527,0 -0.526,0.0231 -0.8906,0.1096 -1.5241,0.5424 -1.7991,1.3848 -0.0956,0.2943 -0.1793,0.6001 -0.1972,0.9059 -0.0478,0.8713 -0.0538,1.7426 -0.0777,2.6658 z"
       fill="#ffffff"
       id="path844" />
    <path
       d="m 109.863,33.4922 v -5.897 c -0.395,0 -0.765,0 -1.142,-0.0058 -0.275,-0.0058 -0.275,-0.0116 -0.233,-0.3635 h 3.365 c 0.006,0.1154 0.012,0.2077 0.018,0.3519 h -1.5 c -0.03,1.1137 -0.012,2.1754 -0.012,3.2371 0,1.0674 0,2.1349 0,3.2081 v 3.1851 c -0.436,0.0981 -0.442,0.0981 -0.67,-0.2365 -1.249,-1.8118 -2.498,-3.6294 -3.753,-5.447 -0.735,-1.0675 -1.47,-2.1292 -2.206,-3.1966 -0.059,-0.0866 -0.137,-0.1674 -0.257,-0.3174 v 8.684 h 1.399 c 0.006,0.15 0.012,0.2423 0.018,0.3347 -0.054,0.023 -0.096,0.0519 -0.132,0.0519 -1.004,0 -2.014,0.0115 -3.018,0.0058 -0.275,0 -0.281,-0.0231 -0.215,-0.3809 h 1.321 c 0.095,-0.3404 0.119,-8.5397 0.03,-9.1052 h -1.345 c -0.066,-0.375 -0.06,-0.3981 0.209,-0.3981 1.136,-0.0058 2.277,0 3.413,-0.0058 0.239,0 0.329,0.1558 0.43,0.3058 0.7,1.004 1.405,2.0023 2.104,3.0063 0.628,0.9001 1.249,1.8002 1.877,2.6946 0.072,0.1039 0.149,0.2019 0.227,0.3058 0.03,-0.0058 0.054,-0.0115 0.084,-0.0173 z"
       fill="#ffffff"
       id="path846" />
    <path
       d="m 83.5041,48.9789 c 0.3706,0.6694 0.1136,1.206 -0.2869,1.7137 -0.4184,0.5251 -0.8427,1.0444 -1.2551,1.5695 -0.3108,0.3924 -0.5858,0.8021 -0.7233,1.2925 -0.2091,0.7444 0.1256,1.2694 0.9265,1.3387 0.3227,0.0288 0.6814,-0.0058 0.9802,-0.1212 1.3508,-0.5366 2.3729,-1.4598 3.1021,-2.6773 0.1434,-0.2366 0.239,-0.5193 0.2749,-0.7905 0.0897,-0.6232 -0.4483,-1.0502 -1.0818,-0.8828 -0.4483,0.1154 -0.8009,0.3981 -1.1357,0.6924 -0.1314,0.1154 -0.239,0.2423 -0.3705,0.3635 -0.0478,0.0404 -0.1136,0.0634 -0.1734,0.0923 -0.0239,-0.0519 -0.0478,-0.0865 -0.0418,-0.0981 0.3766,-0.4962 0.8368,-0.8944 1.4165,-1.1598 0.1017,-0.0461 0.2212,-0.0808 0.3348,-0.1038 0.7351,-0.1328 1.3089,0.3462 1.279,1.0674 -0.0239,0.4732 -0.1853,0.9117 -0.4303,1.3156 -0.7412,1.2175 -1.8051,2.0772 -3.2037,2.4638 -0.7292,0.202 -1.4942,0.1328 -2.0561,-0.4731 -0.5379,-0.5828 -0.6275,-1.2637 -0.3167,-1.9676 0.1733,-0.3981 0.4303,-0.7674 0.6933,-1.1136 0.3526,-0.4617 0.765,-0.8886 1.1356,-1.3387 0.1614,-0.1962 0.3048,-0.4155 0.4304,-0.6347 0.0777,-0.1385 0.1075,-0.3058 0.1613,-0.4674 -0.4423,0 -0.8367,0.0404 -1.2193,-0.0115 -0.4184,-0.0577 -0.6933,-0.3405 -0.8128,-0.8078 -0.1315,0.1731 -0.2212,0.2942 -0.3168,0.4154 -0.8667,1.1309 -1.7214,2.2734 -2.612,3.3813 -0.5439,0.6808 -1.2073,1.2579 -1.9126,1.7887 -0.8188,0.6174 -1.7393,1.0559 -2.7494,1.2348 -0.7173,0.127 -1.4763,0.1789 -2.1816,-0.1731 -0.3825,-0.1904 -0.6694,-0.4558 -0.7471,-0.8771 -0.0598,-0.3462 0.0657,-0.6404 0.3646,-0.8482 0.2749,-0.1904 0.5797,-0.1961 0.8606,-0.023 0.2571,0.1615 0.3587,0.3981 0.3348,0.6866 -0.024,0.2712 -0.2212,0.3751 -0.4543,0.4501 -0.1195,0.0404 -0.2331,0.0865 -0.3706,0.1327 0.0777,0.2481 0.263,0.3231 0.4543,0.3808 0.5558,0.1789 1.1177,0.1731 1.6795,0.0173 0.6156,-0.1673 1.1476,-0.4789 1.6437,-0.8539 0.7053,-0.5309 1.3209,-1.1541 1.8708,-1.8292 0.9444,-1.1655 1.8529,-2.3484 2.7793,-3.5255 0.7591,-0.9636 1.5241,-1.9214 2.4087,-2.7812 0.7471,-0.7212 1.554,-1.3617 2.5402,-1.7656 0.0359,-0.0173 0.0598,-0.0462 0.1256,-0.1039 -0.3646,-0.1904 -0.7292,-0.2481 -1.0938,-0.2885 -1.9844,-0.2366 -3.8552,0.1558 -5.6483,0.9694 -0.8248,0.375 -1.5839,0.8482 -2.2294,1.4714 -0.3347,0.3288 -0.6336,0.6981 -0.8966,1.0847 -0.2869,0.4097 -0.3705,0.8771 -0.2928,1.3733 0.1255,0.7617 0.7411,1.1944 1.5121,1.0098 0.3885,-0.0923 0.7771,-0.2539 1.1177,-0.4559 1.04,-0.6174 1.8469,-1.4713 2.3968,-2.5157 0.2032,-0.3809 0.2869,-0.8194 0.4244,-1.2348 0.0299,-0.0866 0.0538,-0.1789 0.0777,-0.2712 0.0299,0 0.0598,0 0.0896,0 0.012,0.0981 0.0419,0.1962 0.0359,0.2885 -0.0598,0.6982 -0.3048,1.3444 -0.6694,1.9445 -0.5738,0.9405 -1.3269,1.7137 -2.3789,2.1638 -0.3287,0.1385 -0.6873,0.2423 -1.04,0.3 -1.1356,0.1789 -1.9425,-0.5943 -1.7871,-1.6964 0.0598,-0.4385 0.2212,-0.8424 0.4662,-1.2175 0.526,-0.7847 1.2432,-1.379 2.0561,-1.8637 1.8051,-1.0732 3.7655,-1.6387 5.8933,-1.6099 0.7173,0.0116 1.4285,0.1039 2.1039,0.352 0.1793,0.0635 0.3228,0.0577 0.5021,-0.0173 0.5558,-0.2308 0.5558,-0.225 0.8786,-0.15 -0.251,0.1038 -0.508,0.2135 -0.7949,0.3347 0.1733,0.1211 0.3108,0.2192 0.4482,0.3173 1.2492,0.929 1.3449,2.3715 0.2152,3.4332 -0.6515,0.6174 -1.4584,0.9752 -2.325,1.2117 -0.1076,0.0289 -0.2212,0.0577 -0.4005,0.1097 z m -2.1935,-1.0097 c 0.9025,-0.1674 1.6138,0.0692 2.1278,0.7616 0.6873,-0.1327 1.4464,-0.6058 2.0023,-1.2406 0.3825,-0.4385 0.6694,-0.9174 0.765,-1.4944 0.1315,-0.8021 -0.2689,-1.5752 -1.0161,-1.9445 -1.6377,0.9751 -2.7972,2.4061 -3.873,3.9121 z m 1.7871,0.877 c -0.006,-0.2654 -0.1435,-0.4097 -0.3108,-0.4789 -0.263,-0.1039 -0.5379,-0.1904 -0.8189,-0.2308 -0.3287,-0.0462 -0.5738,0.0692 -0.5917,0.225 -0.0179,0.1616 0.1674,0.352 0.4543,0.4501 0.4064,0.1385 0.8188,0.0865 1.2671,0.0346 z"
       fill="#ffffff"
       id="path848" />
    <path
       d="m 25.8803,27.5897 c -0.012,0.1731 -0.0299,0.3 -0.0299,0.4212 0,2.0657 0,4.1371 0,6.2028 0,0.3232 0.0359,0.6463 0.0956,0.9636 0.1554,0.8425 0.6515,1.3964 1.5481,1.5695 0.5319,0.1039 1.0698,0.1269 1.6078,0.0346 1.0101,-0.1789 1.6676,-0.8943 1.811,-1.9618 0.0418,-0.3058 0.0598,-0.6174 0.0598,-0.9232 0,-1.9388 0,-3.8833 0,-5.8221 0,-0.1384 -0.012,-0.2769 -0.0239,-0.4558 h -1.3927 c -0.0119,-0.15 -0.0239,-0.2481 -0.0299,-0.3404 0.0538,-0.0289 0.0777,-0.052 0.1076,-0.052 1.034,0 2.0681,-0.0115 3.1081,-0.0115 0.2809,0 0.2809,0.0173 0.2271,0.3866 h -1.4704 c 0,0.2135 0,0.3808 0,0.5424 0,2.0137 -0.0119,4.0217 -0.0179,6.0355 0,0.5078 -0.0777,1.0098 -0.2749,1.4829 -0.2272,0.5424 -0.5678,0.9983 -1.1357,1.2233 -1.6137,0.6462 -3.2216,0.6809 -4.8114,-0.1039 -0.6455,-0.3173 -1.0221,-0.8309 -1.1536,-1.506 -0.0896,-0.4674 -0.1614,-0.9463 -0.1673,-1.4194 -0.024,-1.8984 -0.012,-3.7967 -0.018,-5.6951 0,-0.1673 0,-0.3289 0,-0.5482 h -1.4942 v -0.375 h 4.919 v 0.3635 h -1.4583 z"
       fill="#ffffff"
       id="path850" />
    <path
       d="m 77.5927,36.7061 c -0.0299,-0.1328 -0.0359,-0.2135 -0.0598,-0.2885 -0.2331,-0.6521 -0.4782,-1.2983 -0.6933,-1.9561 -0.0837,-0.2424 -0.2152,-0.3231 -0.4782,-0.3174 -0.8726,0.0116 -1.7513,0.0116 -2.6239,0 -0.257,0 -0.3885,0.0693 -0.4722,0.3174 -0.2092,0.6405 -0.4542,1.2752 -0.6873,1.9099 -0.0299,0.0865 -0.0479,0.1846 -0.0837,0.3231 h 1.4046 c 0.0837,0.3405 0.0777,0.3866 -0.1435,0.3866 -0.9862,0.0116 -1.9784,0 -2.9586,0 -0.0657,-0.3635 -0.0657,-0.3693 0.2092,-0.3808 0.2032,-0.0115 0.4065,0 0.6097,0 0.3646,0 0.3705,0 0.4961,-0.3404 0.4482,-1.1887 0.8965,-2.3773 1.3448,-3.566 0.6873,-1.8233 1.3807,-3.6467 2.068,-5.47 0.0598,-0.1616 0.0956,-0.3116 0.3347,-0.3231 0.263,-0.0116 0.3527,0.1096 0.4244,0.3231 0.3765,1.079 0.7651,2.1522 1.1476,3.2312 0.6873,1.9272 1.3747,3.8545 2.062,5.7874 0.0359,0.1039 0.0837,0.2078 0.1495,0.3578 h 1.2193 c 0.0059,0.1385 0.0119,0.2308 0.0179,0.3404 -0.1016,0.0173 -0.1853,0.0462 -0.269,0.0462 -1.4165,0 -2.8271,0 -4.2436,0 -0.3228,0 -0.3228,-0.0116 -0.275,-0.3866 h 1.4883 z m -1.0998,-2.9774 c -0.4423,-1.3618 -0.8846,-2.6831 -1.3389,-3.9929 -0.0358,0 -0.0657,0 -0.1016,0 -0.502,1.3156 -1.0041,2.6369 -1.5241,3.9929 z"
       fill="#ffffff"
       id="path852" />
    <path
       d="m 87.282,27.6989 c 0.2331,-0.1962 0.4304,-0.3635 0.6336,-0.5251 0.0299,-0.0231 0.0837,-0.0058 0.1255,-0.0115 0.1375,0.2539 0.1793,2.1061 0.0598,2.7754 -0.1136,0.0058 -0.2391,0.0173 -0.3646,0.0231 -0.0359,-0.075 -0.0717,-0.1212 -0.0837,-0.1731 -0.1076,-0.5655 -0.3227,-1.079 -0.6933,-1.5291 -0.5738,-0.6982 -1.3269,-0.9925 -2.2354,-0.8944 -0.9982,0.1097 -1.7154,0.9521 -1.6198,1.8695 0.0478,0.4443 0.257,0.7732 0.6874,0.9521 0.1733,0.075 0.3526,0.1385 0.5319,0.1962 0.6515,0.2019 1.303,0.3981 1.9545,0.5943 0.1793,0.0577 0.3586,0.1154 0.532,0.1846 0.9563,0.3924 1.5779,1.0675 1.7153,2.0715 0.0718,0.5078 0.1017,1.0502 0.006,1.5522 -0.4184,2.2272 -2.5581,2.9254 -4.2257,2.3657 -0.3945,-0.1327 -0.7651,-0.3347 -1.1655,-0.5135 -0.2929,0.1211 -0.4184,0.5366 -0.8189,0.577 -0.1076,-0.3231 -0.1374,-2.4119 -0.0418,-2.9024 0.3347,-0.0577 0.3228,-0.0519 0.4303,0.2135 0.1614,0.3924 0.2989,0.7963 0.5141,1.1598 0.5319,0.8713 1.3328,1.3156 2.3967,1.2752 1.2313,-0.0462 2.1876,-1.0329 2.1278,-2.1869 -0.0298,-0.5077 -0.239,-0.929 -0.6873,-1.2117 -0.269,-0.1673 -0.5559,-0.3058 -0.8547,-0.4154 -0.6934,-0.2539 -1.4046,-0.4674 -2.0979,-0.7155 -1.04,-0.3751 -1.6198,-1.1194 -1.7633,-2.1696 -0.1434,-1.0559 0.1136,-1.9907 1.0102,-2.6831 0.9324,-0.7155 2.4565,-0.7616 3.5443,-0.1154 0.1195,0.075 0.2451,0.1443 0.3885,0.2308 z"
       fill="#ffffff"
       id="path854" />
  </g>
  <defs
     id="defs861">
    <clipPath
       id="clip0_2006_13569">
      <rect
         width="120"
         height="76.800003"
         fill="#ffffff"
         transform="translate(0.0870972,0.75415)"
         id="rect858"
         x="0"
         y="0" />
    </clipPath>
  </defs>
</svg>
