<svg width="189" height="43" viewBox="0 0 189 43" fill="none" xmlns="http://www.w3.org/2000/svg">
<g clip-path="url(#clip0_1047_416)">
<path d="M116.019 16.4193C118.961 12.853 122.81 11.7414 127.243 12.537C131.465 13.2932 133.628 15.8889 133.762 20.612C133.895 25.2561 133.851 29.9115 133.795 34.5612C133.762 37.2754 134.007 39.6962 137.316 40.2436C137.444 40.2662 137.516 40.6386 137.772 41.1916H123.355C123.316 40.5145 123.233 39.6567 123.233 38.8047C123.222 33.585 123.249 28.3597 123.205 23.14C123.194 21.7631 123.288 20.2226 122.732 19.0602C122.232 18.0219 121.002 16.9723 119.901 16.6902C118.316 16.2839 117.159 17.3955 116.853 19.0828C116.664 20.1154 116.553 21.1819 116.547 22.2371C116.514 26.3959 116.592 30.5604 116.508 34.7192C116.458 37.3657 116.686 39.6906 119.873 40.2605C120.012 40.2831 120.09 40.6499 120.374 41.1972H101.824C102.163 40.6724 102.291 40.2379 102.486 40.2097C105.606 39.7357 105.857 37.4729 105.829 34.928C105.779 30.6055 105.846 26.2774 105.795 21.955C105.784 20.8264 105.834 19.4834 105.273 18.637C104.655 17.7115 103.381 16.7635 102.364 16.724C101.49 16.6902 100.178 17.751 99.7717 18.6539C99.2377 19.8446 99.2933 21.3568 99.2822 22.7337C99.2321 28.2017 99.2099 33.6696 99.2822 39.1319C99.3044 40.8756 98.865 41.6317 96.985 41.5527C93.531 41.4117 90.0713 41.5189 86.6117 41.4963C86.0221 41.4963 85.4269 41.3383 84.7539 41.2424C84.8707 40.8022 84.893 40.4129 84.9931 40.3903C88.2859 39.7132 88.6752 37.3431 88.5473 34.4878C88.4194 31.5592 88.4472 28.6136 88.5473 25.6793C88.6196 23.7043 88.0022 22.2879 86.3614 21.1255C84.181 19.5906 84.3701 18.874 86.8453 17.7341C89.6986 16.4193 92.5075 15.0142 95.3386 13.6543C96.1062 13.2875 96.8849 12.9377 97.9139 12.458C98.0975 13.8123 98.2309 14.8224 98.4089 16.1315C104.288 11.5269 110.062 10.2517 116.013 16.4306L116.019 16.4193Z" fill="black"/>
<path d="M27.5308 41.2367H6.04431C5.97757 41.0167 5.91639 40.8022 5.84964 40.5822C6.38917 40.3226 6.90644 39.9219 7.47378 39.8204C9.48727 39.4705 10.4773 38.1106 10.4885 36.2484C10.5552 25.4987 10.5218 14.7434 10.5218 3.67768C5.27118 4.33225 2.88502 8.11863 0.454373 12.0686C-0.0462183 8.0227 1.53899 4.39997 1.85603 0.799805H31.7191C32.3754 4.30404 33.0763 8.05091 33.7715 11.7978C33.5268 11.9614 33.2821 12.1251 33.0373 12.2887C30.7012 8.3782 28.4931 4.30968 23.2202 3.70589C23.1256 4.45075 22.9643 5.13354 22.9643 5.82197C22.9476 15.2005 22.9476 24.5789 22.9532 33.9518C22.9532 34.6853 23.0644 35.4133 23.1034 36.1468C23.209 38.2065 24.1602 39.4874 26.2404 39.8711C26.7577 39.9671 27.2138 40.3677 27.6977 40.6273L27.5253 41.2311L27.5308 41.2367Z" fill="black"/>
<path d="M168.926 38.2065C166.273 43.7986 159.604 43.6519 155.06 38.483C152.974 39.7357 151.049 41.2819 148.858 42.134C143.752 44.1259 138.629 41.4737 137.956 36.7281C137.511 33.5963 138.64 30.9103 141.221 29.3472C144.925 27.1126 148.802 25.0981 152.779 23.4278C155.182 22.4177 154.67 20.7136 154.598 19.0376C154.514 17.1473 154.253 15.1892 152.034 14.5346C149.714 13.8518 147.662 15.3754 147.495 17.8583C147.423 18.9925 147.579 20.1493 147.462 21.2779C147.2 23.8623 145.526 25.1997 143.012 24.9457C140.843 24.7257 139.636 23.1344 139.869 20.5838C140.175 17.2206 142.205 15.0481 145.081 13.7898C149.937 11.6624 154.948 11.6342 159.876 13.5471C163.175 14.8224 165.071 17.3391 165.183 20.9957C165.311 25.3915 165.272 29.7986 165.422 34.1944C165.494 36.2879 165.767 38.4379 168.92 38.2009L168.926 38.2065ZM154.509 24.8667C150.56 26.3057 148.229 30.9046 149.497 34.8603C149.831 35.8929 151.255 36.5588 152.178 37.3996C152.957 36.5137 154.32 35.6841 154.403 34.7361C154.687 31.5423 154.509 28.3089 154.509 24.8724V24.8667Z" fill="black"/>
<path d="M41.1631 24.7313C41.4969 29.2343 43.1043 32.6821 46.653 35.0295C50.3518 37.4729 54.0562 37.2923 57.6827 34.5442C57.8551 34.7248 58.022 34.9054 58.1944 35.0859C57.6326 36.017 57.2155 37.0892 56.4924 37.8622C51.2083 43.5164 42.3757 44.3685 36.7635 39.8316C30.8343 35.0408 29.4604 25.8203 33.6654 19.015C37.2363 13.231 44.1723 10.7651 50.502 13.1238C54.6068 14.6531 56.6259 17.909 57.4212 22.113C57.755 23.8566 57.2766 24.6748 55.3521 24.624C51.6589 24.5168 47.9601 24.5845 44.2612 24.6015C43.3212 24.6015 42.3868 24.6805 41.1631 24.7369V24.7313ZM40.7404 22.7167C42.6872 22.7167 44.0221 22.7788 45.3459 22.7055C49.2282 22.4967 50.3184 21.227 49.295 17.4801C48.9557 16.2387 47.6708 14.8336 46.4917 14.3653C44.8564 13.7163 43.0042 14.4838 42.3145 16.2839C41.5859 18.1799 41.3189 20.2564 40.7404 22.7167Z" fill="black"/>
<path d="M77.1566 41.1577H58.8683C58.8405 40.9828 58.8071 40.8022 58.7793 40.6273C59.1464 40.4185 59.4912 40.1138 59.8862 40.0179C61.6382 39.5947 62.4892 38.4322 62.5059 36.6829C62.5504 32.6031 62.7062 28.512 62.4281 24.4491C62.3446 23.2585 61.1098 22.0001 60.1365 21.0521C58.5234 19.4891 58.5179 18.8853 60.5091 17.9316C63.5627 16.4701 66.5997 14.9747 69.6533 13.5189C70.4208 13.1521 71.2273 12.8756 72.2563 12.4637C72.3954 13.8857 72.5011 14.9747 72.6568 16.5717C73.8082 15.3641 74.5924 14.3484 75.5547 13.5753C77.3179 12.1589 79.476 11.5721 81.3838 12.8248C82.474 13.5415 83.4028 15.1722 83.5586 16.4927C83.6865 17.593 82.8633 19.3706 81.94 19.8784C80.8832 20.454 79.2313 20.0928 77.8852 19.8671C77.2567 19.7656 76.7283 19.032 76.161 18.5805C75.0096 17.6608 74.103 18.0388 73.7915 19.3254C73.4522 20.7305 73.3243 22.2202 73.302 23.6761C73.2408 27.5076 73.3187 31.3448 73.2686 35.1819C73.2353 37.7269 73.797 39.7414 76.7172 40.1307C77.0286 40.1702 77.329 40.3282 77.6349 40.4298C77.4792 40.6724 77.3179 40.9151 77.1621 41.1577H77.1566Z" fill="black"/>
<path d="M183.531 19.1843C184.221 19.8445 189.054 24.6241 188.27 31.2037C188.125 32.4056 187.697 35.9832 184.716 38.4153C180.288 42.0267 174.359 39.7414 174.053 39.6172C174.91 39.4366 177.763 38.72 179.977 36.0114C181.974 33.568 182.28 30.9328 182.346 30.0017C181.857 31.1416 180.828 33.1279 178.792 34.8095C177.913 35.5374 174.309 38.5169 171.684 37.2133C169.426 36.0961 168.953 32.3322 169.314 30.0017C170.104 24.9344 175.794 20.8151 183.531 19.1843Z" fill="black"/>
</g>
<defs>
<clipPath id="clip0_1047_416">
<rect width="188" height="42" fill="white" transform="translate(0.359375 0.799805)"/>
</clipPath>
</defs>
</svg>
