<svg width="91" height="32" viewBox="0 0 91 32" fill="none" xmlns="http://www.w3.org/2000/svg">
<g clip-path="url(#clip0_2006_13550)">
<path d="M51.5083 13.864C51.5083 12.5156 51.4903 11.1672 51.5196 9.81877C51.5263 9.44959 51.29 8.83728 51.828 8.77425C52.4808 8.69771 53.3497 8.33528 53.7955 9.06915C54.2547 9.82553 54.5946 9.53063 55.1259 9.23573C56.7512 8.32853 58.3968 7.85579 59.9343 9.42483C60.326 9.82553 60.6254 9.52838 60.909 9.31452C61.967 8.51537 63.1714 8.3803 64.432 8.49511C65.6904 8.60767 66.5976 9.39331 66.6336 10.6314C66.7079 13.2517 66.6696 15.8743 66.6876 18.4969C66.6899 18.9201 66.5256 19.0596 66.1001 19.1069C64.0471 19.341 63.9458 19.2667 63.9458 17.261C63.9458 15.6492 63.957 14.0396 63.9345 12.4278C63.9188 11.327 63.3245 10.7575 62.2687 10.7642C61.2354 10.771 60.7154 11.2595 60.6862 12.3761C60.6344 14.285 60.5984 16.1962 60.6321 18.1074C60.6456 18.8863 60.4318 19.2285 59.6304 19.1024C59.4098 19.0687 59.1779 19.0687 58.9573 19.1024C58.1401 19.2285 57.834 18.9493 57.8655 18.0714C57.9308 16.275 57.8835 14.4764 57.879 12.6777C57.8767 11.273 57.4265 10.78 56.1411 10.771C54.8175 10.762 54.2749 11.2955 54.2592 12.7002C54.2389 14.4989 54.2209 16.2975 54.2749 18.0939C54.2975 18.8683 54.0881 19.1542 53.2777 19.1114C51.2832 19.0056 51.4926 19.5009 51.4655 17.3488C51.452 16.1872 51.4633 15.0256 51.4633 13.864C51.479 13.864 51.4948 13.864 51.5128 13.864H51.5083Z" fill="white"/>
<path d="M14.5761 4.08967C14.5806 4.87756 13.4505 5.38181 13.8107 6.03014C14.1011 6.5524 14.9993 6.72799 15.6139 7.08141C15.9493 7.27501 16.1361 7.61493 16.2914 7.95485C17.0883 9.70848 17.2617 11.5567 17.0433 13.4476C17.0005 13.828 16.978 14.4043 16.5166 14.4629C16.0708 14.5191 16.0843 13.9383 15.92 13.6299C15.0916 12.0789 14.3645 10.4559 12.9193 9.34605C11.7914 8.47936 11.483 8.52664 10.6501 9.65445C9.27244 11.5161 8.16038 13.5421 7.07083 15.5794C6.85923 15.9756 6.63862 16.3673 6.409 16.7523C6.2987 16.9413 6.17714 17.1935 5.907 17.0877C5.53332 16.9413 5.72466 16.66 5.81921 16.4281C6.44277 14.9041 7.06858 13.3823 7.6989 11.8606C7.89024 11.4013 8.1086 10.9308 7.6989 10.5009C7.30945 10.0912 6.7962 10.1812 6.32796 10.332C4.54732 10.9061 2.77569 11.5094 0.995047 12.0857C0.706903 12.178 0.297198 12.4954 0.117108 12.0451C-0.0562289 11.6062 0.454777 11.5409 0.722661 11.3991C3.14037 10.1317 5.66838 9.06466 7.91276 7.47536C9.08559 6.64244 9.18914 6.12469 8.23467 5.02839C6.98304 3.58992 5.35548 2.6602 3.66263 1.83404C3.37449 1.69447 2.87924 1.68321 2.904 1.29152C2.93101 0.834539 3.44652 0.852548 3.7932 0.780512C5.27669 0.469857 6.76018 0.51713 8.25943 0.719732C9.91626 0.944844 10.6681 2.0569 11.1926 3.45485C11.492 4.25175 11.8275 4.82128 12.7684 4.03564C13.3222 3.57191 13.9773 3.86455 14.5738 4.08967H14.5761Z" fill="white"/>
<path d="M45.9632 15.0282C45.5129 15.0282 45.056 14.9764 44.617 15.0439C44.2163 15.1047 43.5387 14.6882 43.4982 15.5257C43.4599 16.2775 43.7683 16.8988 44.5742 16.9911C45.4994 17.0969 46.4427 17.0677 47.3769 17.0947C47.9667 17.1127 48.5812 16.9799 48.606 17.9434C48.6285 18.7943 48.3516 19.1972 47.5029 19.231C46.0082 19.2918 44.5089 19.4786 43.039 19.0442C41.4227 18.5669 40.7023 17.6282 40.664 15.9331C40.6303 14.4361 40.6235 12.9391 40.6325 11.4399C40.6415 10.0532 41.1097 9.34406 42.3951 8.88483C44.07 8.28603 45.7808 8.28378 47.4602 8.85557C48.7906 9.30805 49.2768 10.0599 49.2993 11.4759C49.3083 12.0004 49.3083 12.5249 49.3083 13.0494C49.3106 14.6252 48.9212 15.0124 47.3116 15.0282C46.8614 15.0327 46.4134 15.0282 45.9632 15.0282ZM44.9952 12.9526C45.63 12.777 46.643 13.4231 46.598 11.9576C46.562 10.8298 45.9789 10.661 45.1032 10.6542C43.7548 10.643 43.5365 10.8793 43.4689 12.0274C43.3834 13.4411 44.4302 12.7433 44.9974 12.9526H44.9952Z" fill="white"/>
<path d="M78.2664 13.9179C78.2664 15.3046 78.2799 16.6913 78.2574 18.078C78.2506 18.4449 78.4735 19.0257 77.8477 19.0617C77.2894 19.0932 76.533 19.4174 76.1954 18.7668C75.7834 17.9789 75.3714 18.1995 74.8739 18.5552C73.9037 19.2463 72.8119 19.3836 71.6616 19.3071C70.2096 19.2103 69.2799 18.4517 69.2304 17.0199C69.1426 14.4739 69.1898 11.9234 69.1786 9.37511C69.1763 8.91814 69.3632 8.7448 69.8449 8.69978C71.997 8.50393 72.0128 8.49492 71.9925 10.6763C71.979 12.1372 71.9362 13.6005 71.925 15.0615C71.9137 16.4752 72.3842 17.0042 73.6268 17.0199C74.8919 17.0357 75.3849 16.5247 75.4052 15.1312C75.43 13.3326 75.4682 11.5317 75.4367 9.73304C75.4232 8.97441 75.6168 8.65926 76.4362 8.69527C78.577 8.78532 78.2619 8.39813 78.2844 10.5457C78.2957 11.6713 78.2844 12.7946 78.2844 13.9201C78.2776 13.9201 78.2709 13.9201 78.2664 13.9201V13.9179Z" fill="white"/>
<path d="M81.0247 13.7787C81.0247 12.4302 81.0089 11.0818 81.036 9.73339C81.0427 9.37321 80.7973 8.77666 81.4232 8.74514C81.9724 8.71813 82.713 8.38046 83.0642 9.05355C83.4717 9.83694 83.8611 9.57356 84.3901 9.24939C84.8651 8.96125 85.3806 8.65285 85.9119 8.5628C88.3184 8.1621 90.2273 8.90272 90.0765 11.8404C89.9684 13.9317 90.0315 16.0343 90.0675 18.1301C90.081 18.8257 89.9369 19.1341 89.1535 19.1093C86.8439 19.0328 87.3369 19.3524 87.2963 17.3039C87.2648 15.6944 87.3076 14.0826 87.2851 12.473C87.2671 11.1809 86.8371 10.7644 85.608 10.7644C84.3766 10.7644 83.9219 11.1854 83.8859 12.4392C83.8319 14.3482 83.7801 16.2571 83.7913 18.1661C83.7958 18.9 83.564 19.1318 82.8301 19.1048C80.624 19.0238 81.0472 19.3862 81.0089 17.2566C80.9887 16.0951 81.0044 14.9357 81.0044 13.7742H81.0202L81.0247 13.7787Z" fill="white"/>
<path d="M25.3883 8.40524C26.5094 8.40524 27.6327 8.38048 28.7537 8.412C29.9378 8.44351 29.3458 9.37548 29.4606 9.927C29.5844 10.5236 29.3278 10.7757 28.6705 10.7959C26.6084 10.859 26.6084 10.886 26.6017 12.9188C26.5994 13.8912 26.6264 14.8637 26.5904 15.834C26.5589 16.6736 26.8853 17.1194 27.7542 17.0811C28.3936 17.0541 28.7087 17.3017 28.7177 17.9905C28.7267 18.6636 28.6367 19.1499 27.8218 19.2219C26.7728 19.3165 25.7192 19.4763 24.785 18.828C24.0804 18.3395 23.8485 17.5943 23.8463 16.7727C23.8395 15.1271 23.79 13.4793 23.8666 11.8382C23.9093 10.9243 23.5942 10.6136 22.7387 10.7599C21.6965 10.9378 21.2823 10.5753 21.3498 9.45652C21.3971 8.69114 21.5749 8.38949 22.3628 8.43001C23.3691 8.47953 24.3798 8.44126 25.3906 8.44126C25.3906 8.43001 25.3906 8.41875 25.3906 8.40749L25.3883 8.40524Z" fill="white"/>
<path d="M32.1464 13.8755C32.1464 12.5654 32.1261 11.2552 32.1599 9.94733C32.1711 9.54213 31.9077 8.86229 32.448 8.78575C33.1211 8.6912 34.0148 8.30851 34.5078 9.0964C34.949 9.7965 35.2619 9.59165 35.7144 9.1887C35.962 8.96809 36.2457 8.74973 36.5518 8.64393C37.2271 8.40756 38.0646 8.21621 38.5801 8.66419C39.019 9.04688 38.7039 9.86854 38.7331 10.4921C38.7489 10.8185 38.5328 10.9468 38.2266 10.9446C38.1141 10.9446 38.0015 10.9558 37.889 10.9491C34.3682 10.733 34.931 11.7325 34.913 14.0489C34.9017 15.4333 34.8815 16.8178 34.9242 18.2C34.9445 18.8663 34.7644 19.1094 34.0531 19.1117C32.1441 19.1162 32.1441 19.1522 32.1441 17.241C32.1441 16.1177 32.1441 14.9966 32.1441 13.8733L32.1464 13.8755Z" fill="white"/>
<path d="M58.3398 25.0588C58.5649 24.6558 58.8936 24.6401 59.1614 24.541C60.0034 24.2304 60.2532 24.5365 60.0259 25.3785C59.8435 26.056 59.7152 26.7516 59.5869 27.3392C59.722 27.5981 59.8345 27.5328 59.9268 27.4945C60.5729 27.2289 61.2707 26.7111 61.9101 27.2897C62.5111 27.8344 62.2095 28.6448 62.0609 29.3179C61.8605 30.2296 61.5949 31.1639 60.6089 31.5848C60.3455 31.6974 59.9583 31.8189 59.8165 31.461C59.6499 31.0423 60.0146 31.0535 60.3185 30.9612C61.0681 30.7361 61.6444 28.4715 61.1222 27.929C60.6877 27.4765 59.4631 27.9988 59.2582 28.7574C59.0624 29.48 58.9206 30.2161 58.772 30.9477C58.7022 31.2854 58.6887 31.6794 58.1912 31.56C57.6937 31.4407 57.9931 31.0761 58.0426 30.8307C58.3488 29.2887 58.6729 27.7511 58.9994 26.2136C59.1232 25.6306 59.3123 25.0363 58.3375 25.0565L58.3398 25.0588Z" fill="white"/>
<path d="M63.1643 29.9012C63.1576 28.3434 64.0017 27.2179 65.3119 27.049C65.9422 26.968 66.5163 27.0918 66.9215 27.6231C67.8872 28.895 66.8697 31.4072 65.2849 31.6796C63.9882 31.9025 63.1688 31.2159 63.1621 29.9035L63.1643 29.9012ZM66.3947 28.8454C66.3879 28.2489 66.4127 27.6726 65.7396 27.524C65.1431 27.3935 64.7559 27.7446 64.488 28.2466C64.1436 28.8905 64.0378 29.5906 64.067 30.3064C64.085 30.7319 64.2088 31.1393 64.7108 31.2361C65.1566 31.3217 65.5258 31.1641 65.7846 30.7927C66.2033 30.1894 66.3159 29.4893 66.3969 28.8454H66.3947Z" fill="white"/>
<path d="M74.6608 30.6867C74.6473 30.8262 74.6585 30.878 74.6405 30.8915C73.7986 31.4611 72.8621 32.1544 71.8986 31.4588C71.0455 30.842 71.4282 29.8155 71.7028 28.9668C72.0922 27.7625 73.076 26.9678 74.0327 27.0308C74.4514 27.0579 74.8589 27.1727 75.0007 27.6454C75.1335 28.0866 74.9737 28.4648 74.6495 28.753C74.1925 29.1582 73.6185 29.3427 73.04 29.4913C72.5605 29.6129 72.1868 29.802 72.3399 30.4008C72.4952 31.0108 72.9251 31.0851 73.4677 31.0018C73.8639 30.9433 74.1745 30.5831 74.6608 30.6912V30.6867ZM72.7563 29.0141C73.4069 28.9038 74.0169 28.7259 74.143 27.9516C74.1745 27.7602 74.0034 27.5981 73.7896 27.5981C73.0355 27.5981 72.8351 28.1992 72.5875 28.7417C72.5717 28.7755 72.574 28.816 72.5695 28.852C72.5042 28.9511 72.4659 29.0569 72.5942 29.1244C72.6212 29.1379 72.7 29.0524 72.7541 29.0118L72.7563 29.0141Z" fill="white"/>
<path d="M81.7256 30.8826C81.1223 31.3441 80.4604 31.6818 79.6568 31.7043C79.2156 31.7155 78.8554 31.567 78.6415 31.1415C77.991 29.8471 79.121 27.4677 80.5617 27.1097C81.147 26.9634 81.7278 26.9431 82.0182 27.5757C82.3109 28.2173 81.9012 28.6675 81.3947 28.9624C80.9804 29.2033 80.51 29.3744 80.044 29.4959C79.5105 29.6355 79.2763 29.8809 79.4137 30.4481C79.5577 31.0515 79.9832 31.0897 80.4559 30.9907C80.8454 30.9074 81.2191 30.7543 81.6018 30.6327C81.6445 30.7183 81.6851 30.8016 81.7278 30.8871L81.7256 30.8826ZM79.7356 29.0119C80.4289 28.9264 81.0705 28.7373 81.2191 27.9404C81.2618 27.7063 80.9804 27.5419 80.7441 27.596C80.0462 27.7558 79.6928 28.2285 79.6613 28.9421C79.6365 28.9872 79.6118 29.0322 79.587 29.0772C79.6365 29.057 79.6861 29.0344 79.7356 29.0142V29.0119Z" fill="white"/>
<path d="M76.1943 24.9327C76.2844 24.8607 76.3587 24.7594 76.4555 24.7301C76.9057 24.5951 77.4324 24.1876 77.8129 24.5433C78.1348 24.8427 77.8084 25.3829 77.7116 25.8107C77.3987 27.1929 77.07 28.5728 76.7774 29.9595C76.6716 30.4637 76.3069 31.1481 77.3874 31.0153C77.2411 31.4025 77.0002 31.4385 76.7999 31.5105C75.8612 31.8482 75.6225 31.6658 75.8184 30.6956C76.12 29.1964 76.4802 27.7084 76.7976 26.2136C76.9867 25.3244 76.9732 25.3199 76.1966 24.935L76.1943 24.9327Z" fill="white"/>
<path d="M83.6075 31.6976C83.4454 31.6638 83.146 31.6345 82.8669 31.5355C82.599 31.4409 82.4211 31.2338 82.5742 30.9232C82.7205 30.6305 82.9321 30.7769 83.1415 30.8624C83.3486 30.9457 83.5625 31.02 83.7808 31.0582C84.1613 31.1258 84.589 31.1415 84.7601 30.7341C84.9176 30.3581 84.5417 30.142 84.3053 29.9147C84.1703 29.7864 84.0172 29.6761 83.8686 29.5635C83.2518 29.0908 82.8083 28.5235 83.3013 27.7491C83.7651 27.022 84.5282 26.9792 85.3048 27.103C85.5344 27.1413 85.7776 27.2268 85.7258 27.5172C85.6605 27.8842 85.3994 27.8369 85.118 27.7581C84.8704 27.6906 84.5957 27.6095 84.3526 27.6478C83.8281 27.7311 83.6075 28.0215 84.0172 28.4897C84.213 28.7126 84.4719 28.8792 84.706 29.0637C85.2215 29.4735 85.701 29.8944 85.4286 30.662C85.145 31.4634 84.5102 31.6886 83.6052 31.6976H83.6075Z" fill="white"/>
<path d="M68.0742 27.6139C68.7405 27.247 69.3281 27.0984 69.4136 26.4231C69.4406 26.2047 69.6185 26.0066 69.8953 26.0629C70.233 26.1327 70.1362 26.3916 70.0642 26.5897C69.758 27.4226 70.6832 27.1029 70.9489 27.5689C69.5577 27.7445 69.6747 28.8498 69.5172 29.7998C69.3258 30.9366 69.3236 30.9366 70.5392 30.8623C70.3208 31.3125 69.9156 31.4161 69.5622 31.5399C68.6752 31.8505 68.3533 31.6052 68.4704 30.6912C68.5469 30.1014 68.6842 29.5161 68.8216 28.9353C68.9611 28.3455 69.1142 27.776 68.0742 27.6117V27.6139Z" fill="white"/>
<path d="M72.7567 29.0143C72.7027 29.0548 72.6239 29.1404 72.5969 29.1269C72.4685 29.0593 72.5046 28.9535 72.5698 28.8545C72.6306 28.9085 72.6937 28.9625 72.7567 29.0166V29.0143Z" fill="white"/>
<path d="M79.7355 29.0117C79.686 29.032 79.6364 29.0545 79.5869 29.0748C79.6117 29.0297 79.6364 28.9847 79.6612 28.9397L79.7355 29.0117Z" fill="white"/>
</g>
<defs>
<clipPath id="clip0_2006_13550">
<rect width="90" height="31.1893" fill="white" transform="translate(0.0870972 0.55957)"/>
</clipPath>
</defs>
</svg>
