<svg width="57" height="57" viewBox="0 0 57 57" fill="none" xmlns="http://www.w3.org/2000/svg">
<circle cx="28.1426" cy="28.9109" r="26.8829" stroke="#1E1E1E" stroke-width="2.23429"/>
<mask id="mask0_2049_594" style="mask-type:alpha" maskUnits="userSpaceOnUse" x="15" y="15" width="27" height="27">
<rect x="15.1089" y="15.8777" width="26.0667" height="26.0667" fill="#D9D9D9"/>
</mask>
<g mask="url(#mask0_2049_594)">
<path d="M36.8838 29.8312C37.393 29.3222 37.393 28.4958 36.8838 27.9868L30.3668 21.4727C29.8576 20.9638 29.0308 20.9638 28.5217 21.4727C28.0125 21.9816 28.0125 22.8081 28.5217 23.317L32.8188 27.6082H20.3224C19.6015 27.6082 19.019 28.1904 19.019 28.911C19.019 29.6317 19.6015 30.2139 20.3224 30.2139H32.8148L28.5257 34.505C28.0166 35.014 28.0166 35.8404 28.5257 36.3493C29.0349 36.8583 29.8617 36.8583 30.3709 36.3493L36.8879 29.8352L36.8838 29.8312Z" fill="#1E1E1E"/>
</g>
</svg>
