<svg width="20" height="20" viewBox="0 0 20 20" fill="none" xmlns="http://www.w3.org/2000/svg">
<mask id="mask0_2037_326" style="mask-type:alpha" maskUnits="userSpaceOnUse" x="0" y="0" width="20" height="20">
<rect width="20" height="20" fill="#D9D9D9"/>
</mask>
<g mask="url(#mask0_2037_326)">
<path d="M10 13.0091C9.87138 13.0091 9.7423 12.9819 9.61277 12.9275C9.48325 12.8732 9.37198 12.7995 9.27898 12.7065L5.33242 8.75997C5.12468 8.55223 5.02625 8.31038 5.03713 8.03441C5.048 7.75844 5.15338 7.52051 5.35325 7.32064C5.56099 7.1129 5.80088 7.00903 6.07292 7.00903C6.34496 7.00903 6.58485 7.1129 6.79259 7.32064L10 10.5607L13.2283 7.32064C13.436 7.1129 13.6778 7.01447 13.9538 7.02534C14.2298 7.03621 14.4677 7.14158 14.6676 7.34147C14.8753 7.54921 14.9792 7.7891 14.9792 8.06114C14.9792 8.33318 14.8753 8.57307 14.6676 8.7808L10.721 12.7065C10.628 12.7995 10.5168 12.8732 10.3872 12.9275C10.2577 12.9819 10.1286 13.0091 10 13.0091Z" fill="white"/>
</g>
</svg>
