<svg width="32" height="32" viewBox="0 0 32 32" fill="none" xmlns="http://www.w3.org/2000/svg">
<mask id="mask0_2006_11711" style="mask-type:alpha" maskUnits="userSpaceOnUse" x="0" y="0" width="33" height="33">
<rect width="32" height="32" transform="matrix(-1 0 0 1 32.0062 0.000793457)" fill="#D9D9D9"/>
</mask>
<g mask="url(#mask0_2006_11711)">
<path d="M5.27502 17.1303C4.64998 16.5056 4.64998 15.491 5.27502 14.8662L13.2755 6.86932C13.9005 6.24457 14.9156 6.24457 15.5406 6.86932C16.1656 7.49408 16.1656 8.50868 15.5406 9.13344L10.2653 14.4014H25.6061C26.4912 14.4014 27.2062 15.1161 27.2062 16.0008C27.2062 16.8854 26.4912 17.6001 25.6061 17.6001H10.2703L15.5356 22.8681C16.1606 23.4928 16.1606 24.5074 15.5356 25.1322C14.9106 25.7569 13.8955 25.7569 13.2705 25.1322L5.27002 17.1353L5.27502 17.1303Z" fill="#1E1E1E"/>
</g>
</svg>
