<svg width="24" height="24" viewBox="0 0 24 24" fill="none" xmlns="http://www.w3.org/2000/svg">
<mask id="mask0_2037_317" style="mask-type:alpha" maskUnits="userSpaceOnUse" x="0" y="0" width="24" height="24">
<rect width="24" height="24" fill="#D9D9D9"/>
</mask>
<g mask="url(#mask0_2037_317)">
<path d="M12 13.5913L7.19566 18.3957C6.98442 18.6069 6.71921 18.7125 6.40001 18.7125C6.08081 18.7125 5.81559 18.6069 5.60436 18.3957C5.39312 18.1844 5.28751 17.9192 5.28751 17.6C5.28751 17.2808 5.39312 17.0156 5.60436 16.8044L10.4087 12L5.60436 7.19566C5.39312 6.98442 5.28751 6.71921 5.28751 6.40001C5.28751 6.08081 5.39312 5.81559 5.60436 5.60436C5.81559 5.39312 6.08081 5.28751 6.40001 5.28751C6.71921 5.28751 6.98442 5.39312 7.19566 5.60436L12 10.4087L16.8044 5.60436C17.0156 5.39312 17.2808 5.28751 17.6 5.28751C17.9192 5.28751 18.1844 5.39312 18.3957 5.60436C18.6069 5.81559 18.7125 6.08081 18.7125 6.40001C18.7125 6.71921 18.6069 6.98442 18.3957 7.19566L13.5913 12L18.3957 16.8044C18.6069 17.0156 18.7125 17.2808 18.7125 17.6C18.7125 17.9192 18.6069 18.1844 18.3957 18.3957C18.1844 18.6069 17.9192 18.7125 17.6 18.7125C17.2808 18.7125 17.0156 18.6069 16.8044 18.3957L12 13.5913Z" fill="white"/>
</g>
</svg>
