<svg width="312" height="294" viewBox="0 0 312 294" fill="none" xmlns="http://www.w3.org/2000/svg">
<path fill-rule="evenodd" clip-rule="evenodd" d="M311.578 66.7153C311.578 34.9337 246.615 9.05387 164.614 7.35402L163.775 3.57232C163.145 1.89156 161.256 0.420898 159.558 0.420898H152.842C150.954 0.420898 149.065 1.89156 148.645 3.57232L147.596 7.35402C65.5953 9.05387 0.422302 34.9337 0.422302 66.7153C0.422302 94.295 49.6264 117.444 116.268 124.167L113.12 136.371C112.701 138.052 113.75 139.523 115.639 139.523H196.571C198.46 139.523 199.509 138.052 199.089 136.371L195.941 124.167C262.374 117.424 311.578 94.2759 311.578 66.7153ZM186.898 90.2841L167.972 19.9788C229.787 21.8696 277.923 37.0346 277.923 55.7522C277.923 72.3878 239.231 86.2732 186.898 90.265V90.2841ZM34.268 55.7713C34.268 37.0346 82.4037 21.6786 144.219 19.9979L125.293 90.3032C72.9406 86.3114 34.268 72.4069 34.268 55.7904V55.7713Z" fill="#1E1E1E"/>
<path fill-rule="evenodd" clip-rule="evenodd" d="M69.8496 181.102H56.1892L63.1339 163.836L69.8687 181.102H69.8496ZM48.8248 192.256H51.7629L55.1208 183.833H70.67L74.0278 192.256H77.3857L64.9845 160.895H61.4168L48.8057 192.256H48.8248ZM81.2015 179.211C81.2015 175.429 83.7198 171.208 87.9363 171.208C92.1527 171.208 93.8316 175.2 93.8316 179.211H81.2205H81.2015ZM95.0908 188.684C93.8316 189.525 90.8935 190.365 88.7757 190.365C83.9488 190.365 81.2015 186.373 81.2015 181.522H96.7506V180.051C96.7506 173.94 94.2322 168.897 87.7073 168.897C82.0218 168.897 78.2442 173.729 78.2442 180.682C78.2442 187.634 80.9725 192.676 88.5468 192.676C90.6454 192.676 93.1638 192.256 95.0717 191.416V188.684H95.0908ZM99.7078 174.589C99.7078 172.068 99.7078 171.017 99.498 169.337H102.436V173.749C103.485 171.227 105.374 168.916 108.331 168.916C108.961 168.916 109.8 168.916 110.22 169.126V172.068C109.591 171.858 108.961 171.858 108.122 171.858C103.714 171.858 102.646 176.9 102.646 180.911V192.275H99.7078V174.589ZM113.578 180.682C113.578 175.429 116.096 171.208 121.152 171.208C126.208 171.208 128.727 175.41 128.727 180.682C128.727 185.953 125.998 190.365 121.152 190.365C116.306 190.365 113.578 185.953 113.578 180.682ZM110.43 180.682C110.43 187.004 113.788 192.676 121.152 192.676C128.517 192.676 131.665 187.004 131.665 180.682C131.665 174.36 128.517 168.897 121.152 168.897C113.788 168.897 110.43 174.589 110.43 180.682ZM151.43 180.682C151.43 185.094 150.171 190.365 144.696 190.365C139.659 190.365 137.961 184.884 137.961 180.682C137.961 176.48 139.64 171.208 144.696 171.208C150.171 171.208 151.43 176.251 151.43 180.682ZM135.232 201.519H137.961V188.264H138.171C139.43 191.205 141.528 192.676 145.115 192.676C151.43 192.676 154.578 187.424 154.578 180.682C154.578 173.939 151.85 168.897 145.115 168.897C140.288 168.897 138.59 172.259 137.961 173.519H137.751L137.961 169.317H135.232V201.519ZM175.603 186.793C175.603 188.474 175.603 190.365 175.813 192.275H173.085V188.073H172.875C172.035 190.174 170.356 192.695 165.51 192.695C160.035 192.695 157.726 188.914 157.726 184.062V169.337H160.664V183.222C160.664 187.424 162.134 190.384 165.911 190.384C171.158 190.384 172.646 185.762 172.646 181.961V169.337H175.584V186.793H175.603ZM183.387 179.211C183.387 175.429 185.906 171.208 190.122 171.208C194.338 171.208 195.808 175.2 195.808 179.211H183.406H183.387ZM197.257 188.684C195.788 189.525 192.85 190.365 190.733 190.365C185.906 190.365 183.368 186.373 183.368 181.522H198.917V180.051C198.917 173.94 196.189 168.897 189.874 168.897C183.979 168.897 180.201 173.729 180.201 180.682C180.201 187.634 182.929 192.676 190.504 192.676C192.602 192.676 195.121 192.256 197.238 191.416V188.684H197.257ZM202.733 174.589C202.733 172.068 202.733 171.017 202.523 169.337H205.251V173.749H205.461C206.511 171.227 208.399 168.916 211.357 168.916C211.986 168.916 212.826 168.916 213.245 169.126V172.068C212.616 171.858 211.986 171.858 211.147 171.858C206.74 171.858 205.461 176.9 205.461 180.911V192.275H202.733V174.589ZM226.696 171.839H221.449V186.564C221.449 188.665 222.289 190.365 224.597 190.365C225.647 190.365 226.276 190.155 227.116 189.735L227.326 192.046C226.696 192.256 225.227 192.676 223.968 192.676C218.931 192.676 218.721 189.315 218.721 185.094V171.839H214.314V169.317H218.721V163.836L221.449 162.995V169.317H226.696V171.839ZM231.523 180.682C231.523 175.429 234.041 171.208 239.097 171.208C244.153 171.208 246.462 175.41 246.462 180.682C246.462 185.953 243.943 190.365 239.097 190.365C234.251 190.365 231.523 185.953 231.523 180.682ZM228.375 180.682C228.375 187.004 231.733 192.676 239.097 192.676C246.462 192.676 249.61 187.004 249.61 180.682C249.61 174.36 246.462 168.897 239.097 168.897C231.733 168.897 228.375 174.589 228.375 180.682ZM252.548 188.894C254.227 189.735 256.325 190.365 258.443 190.365C261.171 190.365 263.48 188.894 263.48 186.163C263.48 180.911 252.548 181.751 252.548 175.009C252.548 170.597 256.325 168.897 259.912 168.897C261.171 168.897 263.69 169.107 265.598 169.948L265.388 172.259C263.785 171.609 262.068 171.246 260.351 171.208C257.413 171.208 255.314 172.259 255.314 174.99C255.314 179.192 266.666 178.772 266.666 186.144C266.666 190.976 262.049 192.657 258.672 192.657C256.573 192.657 254.265 192.447 252.357 191.607L252.567 188.875L252.548 188.894ZM65.9575 227.724H58.1734L62.1609 215.519H62.3707L65.9385 227.724H65.9575ZM45.3525 240.348H53.7662L56.2846 233.606H68.0562L70.3647 240.348H79.4081L67.4266 208.987H57.1241L45.3525 240.348ZM96.4454 223.522C95.6059 223.102 94.5566 223.102 93.7171 223.102C89.9395 223.102 87.8218 225.833 87.8218 230.474V240.368H79.8278V217.009H87.1922V221.211C88.6612 218.269 90.55 216.379 94.1368 216.379C94.9763 216.379 96.0256 216.589 96.8651 216.799L96.4454 223.522ZM105.279 228.354C105.279 225.203 106.748 222.662 109.686 222.662C113.483 222.662 114.952 225.604 114.952 228.144C114.952 231.716 112.643 234.046 109.686 234.046C107.378 234.046 105.279 232.155 105.279 228.354ZM122.736 216.99H115.371V221.192C113.693 218.25 110.754 216.359 107.378 216.359C100.223 216.359 96.8651 221.612 96.8651 228.564C96.8651 235.516 100.853 240.348 107.168 240.348C110.525 240.348 113.273 239.088 115.162 236.357V237.617C115.162 242.029 112.643 244.359 108.007 244.359C104.649 244.359 102.551 243.519 100.223 242.469L99.8032 248.79C102.646 249.745 105.622 250.242 108.637 250.261C118.1 250.261 122.717 247.11 122.717 237.636V217.009L122.736 216.99ZM132.409 226.463C132.409 223.732 133.878 221.631 136.816 221.631C139.964 221.631 141.223 223.732 141.223 226.463H132.39H132.409ZM148.378 230.875V229.404C148.378 222.662 145.23 216.359 136.816 216.359C129.452 216.359 124.205 220.982 124.205 228.564C124.205 236.147 130.1 240.769 137.865 240.769C140.803 240.769 143.761 240.348 146.279 239.298V233.625C144.085 234.829 141.624 235.478 139.125 235.516C135.347 235.516 132.809 234.256 132.409 230.894H148.378V230.875ZM151.106 216.99H158.47V221.192C160.149 217.83 163.297 216.359 166.884 216.359C173.199 216.359 175.927 220.982 175.927 225.833V240.348H167.724V228.984C167.724 224.572 166.255 223.083 164.156 223.083C160.798 223.083 159.1 225.394 159.1 230.455V240.348H151.125V216.99H151.106ZM177.187 216.99H182.014V211.737L189.798 209.426V217.009H195.464V222.701H189.798V231.123C189.798 234.065 190.427 235.535 192.946 235.535C193.785 235.535 194.625 235.325 195.464 235.115L195.674 240.368C194.205 240.578 192.736 240.788 190.618 240.788C183.464 240.788 181.785 237.636 181.785 232.155V222.681H177.168V216.99H177.187ZM198.421 216.99H206.415V240.348H198.421V216.99ZM206.396 213.208H198.402V207.306H206.396V213.208ZM210.822 216.99H218.187V221.192C219.866 217.83 223.014 216.359 226.81 216.359C233.126 216.359 235.644 220.982 235.644 225.833V240.348H227.65V228.984C227.65 224.572 225.971 223.083 223.872 223.083C220.515 223.083 218.816 225.394 218.816 230.455V240.348H210.822V216.99ZM244.458 232.995C244.458 230.684 246.557 229.844 249.285 229.844C250.544 229.844 251.804 229.844 252.853 230.054C252.853 232.575 250.754 235.535 247.797 235.535C245.908 235.535 244.439 234.485 244.439 233.014L244.458 232.995ZM260.656 240.348C260.446 238.458 260.236 236.567 260.236 234.657V226.024C260.236 219.072 255.181 216.34 249.304 216.34C246.08 216.34 242.875 216.894 239.841 218.021L240.051 223.503C242.36 222.242 244.878 221.822 247.416 221.822C250.354 221.822 252.681 222.662 252.891 225.814C251.842 225.604 250.373 225.604 249.094 225.604C244.687 225.604 237.113 226.444 237.113 233.396C237.113 238.458 241.1 240.769 245.737 240.769C249.094 240.769 251.212 239.508 253.101 236.567C253.101 237.827 253.311 239.088 253.311 240.348H260.675H260.656ZM110.01 287.161C116.325 281.68 123.671 275.797 123.671 271.595C123.671 268.864 121.782 267.603 119.264 267.603C116.535 267.603 112.949 268.654 111.06 269.704L110.85 263.382C115.257 261.702 118.214 261.492 119.893 261.492C127.048 261.492 131.875 264.433 131.875 270.545C131.875 276.657 125.35 282.749 122.412 285.271L120.313 287.371H132.504V293.273H110.01V287.161ZM145.745 288.002C141.967 288.002 141.757 282.52 141.757 277.688C141.757 272.856 141.967 267.164 145.745 267.164C149.522 267.164 149.751 272.646 149.751 277.688C149.751 282.73 149.542 288.002 145.745 288.002ZM145.745 293.693C156.047 293.693 157.726 285.691 157.726 277.707C157.726 269.723 156.047 261.492 145.745 261.492C135.442 261.492 133.554 269.494 133.554 277.707C133.554 285.92 135.442 293.693 145.745 293.693ZM171.406 288.002C167.609 288.002 167.399 282.52 167.399 277.688C167.399 272.856 167.609 267.164 171.406 267.164C175.202 267.164 175.603 272.646 175.603 277.688C175.603 282.73 175.183 288.002 171.406 288.002ZM171.406 293.693C181.708 293.693 183.597 285.691 183.597 277.707C183.597 269.723 181.708 261.492 171.406 261.492C161.103 261.492 159.424 269.494 159.424 277.707C159.424 285.71 161.103 293.693 171.406 293.693ZM197.048 288.002C193.251 288.002 192.85 282.52 192.85 277.688C192.85 272.856 193.27 267.164 197.048 267.164C200.615 267.164 201.035 272.646 201.035 277.688C201.035 282.73 200.615 288.002 197.048 288.002ZM197.048 293.693C207.35 293.693 209.029 285.691 209.029 277.707C209.029 269.723 207.35 261.492 197.048 261.492C186.745 261.492 184.856 269.494 184.856 277.707C184.856 285.92 186.745 293.693 197.048 293.693Z" fill="#1E1E1E"/>
</svg>
