<?xml version="1.0" encoding="UTF-8" standalone="no"?>
<svg
   width="153.03394"
   height="153.03447"
   viewBox="0 0 153.03394 153.03447"
   fill="none"
   version="1.1"
   id="svg833"
   sodipodi:docname="arrowright1.svg"
   inkscape:version="1.1.2 (b8e25be8, 2022-02-05)"
   xmlns:inkscape="http://www.inkscape.org/namespaces/inkscape"
   xmlns:sodipodi="http://sodipodi.sourceforge.net/DTD/sodipodi-0.dtd"
   xmlns="http://www.w3.org/2000/svg"
   xmlns:svg="http://www.w3.org/2000/svg">
  <defs
     id="defs837" />
  <sodipodi:namedview
     id="namedview835"
     pagecolor="#ffffff"
     bordercolor="#666666"
     borderopacity="1.0"
     inkscape:pageshadow="2"
     inkscape:pageopacity="0"
     inkscape:pagecheckerboard="true"
     showgrid="false"
     inkscape:zoom="3.1535088"
     inkscape:cx="119.70793"
     inkscape:cy="79.11822"
     inkscape:window-width="1728"
     inkscape:window-height="1051"
     inkscape:window-x="3840"
     inkscape:window-y="38"
     inkscape:window-maximized="1"
     inkscape:current-layer="svg833" />
  <ellipse
     cx="76.517235"
     cy="-76.516968"
     stroke="#1e1e1e"
     stroke-width="2.23429"
     id="circle824"
     style="fill:none;stroke:#ffffff;stroke-width:6.1042;stroke-miterlimit:4;stroke-dasharray:none"
     rx="73.465134"
     ry="73.464867"
     transform="rotate(90)"
     inkscape:export-filename="/Users/rolandodaumas/Personal/Gobio/gobio_2/public/home/Hero-flecha.png"
     inkscape:export-xdpi="96"
     inkscape:export-ydpi="96" />
  <mask
     id="mask0_2059_147"
     maskUnits="userSpaceOnUse"
     x="15"
     y="15"
     width="27"
     height="27">
    <rect
       x="15.3277"
       y="15.8251"
       width="26.0667"
       height="26.0667"
       fill="#d9d9d9"
       id="rect826" />
  </mask>
  <g
     mask="url(#mask0_2059_147)"
     id="g831"
     transform="matrix(0,2.7327731,-2.7327731,0,155.38005,-0.98711065)"
     inkscape:export-filename="/Users/rolandodaumas/Personal/Gobio/gobio_2/public/home/Hero-flecha.png"
     inkscape:export-xdpi="96"
     inkscape:export-ydpi="96">
    <path
       d="m 37.1027,29.7786 c 0.5091,-0.5089 0.5091,-1.3354 0,-1.8443 l -6.5171,-6.5142 c -0.5091,-0.5089 -1.336,-0.5089 -1.8451,0 -0.5091,0.509 -0.5091,1.3354 0,1.8443 l 4.2972,4.2912 H 20.5413 c -0.721,0 -1.3034,0.5822 -1.3034,1.3029 0,0.7206 0.5824,1.3028 1.3034,1.3028 h 12.4923 l -4.289,4.2912 c -0.5092,0.5089 -0.5092,1.3354 0,1.8443 0.5091,0.5089 1.336,0.5089 1.8451,0 l 6.517,-6.5142 z"
       fill="#1E1E1E"
       id="path829"
       style="fill:#ffffff;stroke:#ffffff" />
  </g>
</svg>
