<svg width="71" height="65" viewBox="0 0 71 65" fill="none" xmlns="http://www.w3.org/2000/svg">
<g clip-path="url(#clip0_2006_13532)">
<path d="M26.8809 36.7911C26.6594 36.986 26.4336 37.1809 26.1634 37.42C25.9729 37.2872 25.778 37.1499 25.5344 36.9771C24.9542 37.9427 24.3785 38.8994 23.8027 39.856L23.4306 39.7453C23.5989 38.0933 23.7717 36.4412 23.9488 34.7227C23.9976 34.7227 23.8071 34.7139 23.6122 34.705C23.4838 32.2292 23.3199 29.7578 23.2313 27.2819C23.1782 25.8248 23.4971 25.5546 24.9055 25.7672C28.3646 26.2898 31.8193 26.3607 35.2651 25.6697C35.9605 25.5324 36.2262 25.8779 36.3015 26.4448C36.5628 28.429 36.9836 30.4177 36.9969 32.4063C37.019 36.7335 36.8241 41.0563 36.709 45.3835C36.7001 45.729 36.5894 46.0744 36.5584 46.4199C36.4875 47.288 35.987 47.6423 35.1632 47.6512C33.8257 47.6645 32.4881 47.6822 31.1505 47.7088C28.6702 47.7575 26.19 47.7885 23.7097 47.8815C22.9479 47.9081 22.6201 47.6335 22.7043 46.8982C22.908 45.0646 23.125 43.231 23.3509 41.3973C23.3686 41.2556 23.4395 41.0475 23.5458 40.9987C24.5999 40.5115 24.7416 39.4087 25.2643 38.5627C25.4149 38.3147 25.778 38.204 26.0172 38.0003C26.3893 37.6858 26.7392 37.3492 27.0935 37.0214C27.0182 36.9461 26.9473 36.8708 26.872 36.7955L26.8809 36.7911ZM31.6288 40.0243C32.3109 39.9358 33.0417 39.6612 33.6839 39.8029C34.5653 39.9978 34.6982 40.8969 34.645 41.6675C34.6096 42.2034 34.4723 42.8501 34.1357 43.2266C33.272 44.2009 32.2002 43.6562 31.0486 43.2177C31.2302 43.696 31.3321 43.9706 31.527 44.4933C30.7696 44.4933 30.1008 44.5996 29.4852 44.4711C28.3203 44.2231 28.5772 43.0494 28.2805 42.0927C27.8641 42.416 27.5098 42.5932 27.3016 42.8767C27.1068 43.138 27.058 43.5144 26.9473 43.8422C27.2042 43.6473 27.4611 43.4524 27.7224 43.262C27.7667 43.231 27.8287 43.2177 27.8819 43.2C28.4045 44.9937 29.6446 45.76 31.1948 45.2728C31.9965 45.0203 32.807 44.7989 33.6131 44.5597C34.6583 44.2497 35.305 43.5499 35.4688 42.478C35.646 41.3221 35.4688 40.2281 34.459 39.4796C33.4802 38.7532 31.9477 39.0809 31.6244 40.0332L31.6288 40.0243ZM32.3596 34.5544C32.5279 34.3153 32.6652 34.2045 32.6475 34.1248C32.4216 32.9821 32.2223 31.8306 31.9034 30.71C31.8193 30.4221 31.3631 30.0811 31.0531 30.0545C30.4551 30.0058 30.3754 29.6692 30.2293 29.2218C29.8262 28.0038 29.184 27.7115 28.183 28.4866C27.1201 29.3104 26.2077 30.338 25.3086 31.3478C25.1358 31.5382 25.3219 32.052 25.3396 32.4152C25.654 32.238 26.0527 32.1317 26.2741 31.8749C26.8322 31.2326 27.2618 30.4708 27.8464 29.8596C28.1963 29.4964 28.7455 29.3237 29.2061 29.0668C29.3745 29.554 29.5428 30.0368 29.7111 30.524C29.7332 30.5816 29.7731 30.6347 29.8218 30.7277C32.0407 30.958 31.806 32.9733 32.3596 34.5589V34.5544ZM27.532 40.1395C26.5664 39.5637 25.8622 39.918 25.2687 40.5337C24.3785 41.4549 24.2589 43.0538 24.9454 44.1567C25.4902 45.0248 26.5576 45.4499 27.749 45.1133C26.6063 44.5243 25.4104 44.1522 25.4414 42.6552C25.468 41.2468 26.1102 40.4407 27.5364 40.1351L27.532 40.1395ZM28.1476 36.2463C29.7952 35.4403 31.4251 34.9929 33.2853 35.0372C33.1657 35.582 33.0683 36.0027 32.9753 36.4235C33.0683 36.4501 33.1613 36.4811 33.2543 36.5077C33.4093 36.0559 33.6131 35.6086 33.6884 35.1435C33.7105 34.9929 33.396 34.6297 33.2366 34.6297C31.5403 34.6253 29.8794 34.829 28.4399 35.8477C28.3115 35.9407 28.245 36.1179 28.1476 36.2552V36.2463ZM29.7908 37.079C28.8518 37.1144 28.1255 38.1641 28.3425 39.0898C28.3956 39.3245 28.6215 39.5637 28.8341 39.6922C28.9138 39.7409 29.2859 39.5327 29.3346 39.3777C29.4099 39.1518 29.3567 38.8551 29.277 38.6159C29.2327 38.4786 29.029 38.39 28.8828 38.2704C29.0467 38.0268 29.1574 37.8364 29.2903 37.6636C29.432 37.4776 29.5959 37.3093 29.7952 37.079H29.7908ZM32.4748 36.9063C31.558 37.1986 30.9689 38.1287 31.2347 38.7753C31.31 38.9525 31.5093 39.1695 31.6776 39.1961C31.837 39.2227 32.1116 39.0588 32.1825 38.9038C32.2533 38.7576 32.1648 38.5007 32.0762 38.328C32.023 38.2173 31.8459 38.1641 31.6421 38.0357C31.9256 37.6548 32.1603 37.3315 32.4748 36.9063Z" fill="white"/>
<path d="M47.1746 48.2139C47.4713 47.6514 47.7061 47.3502 47.7902 47.0136C48.0294 46.0614 48.1623 45.0825 48.4191 44.1347C48.614 43.4216 48.5166 42.8414 48.0471 42.2745C47.7016 41.8582 47.4669 41.7209 46.9708 42.1372C46.3729 42.6377 45.651 42.9964 44.8803 43.4836C45.3808 41.557 45.8414 39.7942 46.333 37.8986C44.402 39.3292 42.5816 40.7598 41.2795 42.7396L41.4256 43.0585C42.0679 42.837 42.7101 42.62 43.4984 42.3454C42.5418 43.5456 41.5984 44.6618 40.7391 45.8355C40.4955 46.1721 40.2652 46.7789 40.407 47.08C40.686 47.6602 41.2839 47.5451 41.8021 47.2395C43.1663 46.4378 44.5393 45.645 46.0584 44.7592C46.1116 45.9196 46.1647 46.9915 46.2179 48.1209C45.868 48.1563 45.6244 48.1917 45.3808 48.2006C43.4409 48.2626 41.5009 48.3113 39.5654 48.3778C38.3607 48.422 38.1836 48.2405 38.3297 47.018C38.5645 44.9984 38.9587 42.9787 39.0029 40.9502C39.0871 37.0083 38.9764 33.0665 38.9409 29.1246C38.9321 28.3318 38.8745 27.5346 38.9011 26.7418C38.9188 26.2191 39.1757 25.8825 39.7825 25.8117C41.4256 25.6301 43.0644 25.4042 44.6987 25.1783C46.4305 24.9391 48.1268 25.0676 49.7877 25.6124C50.0889 25.7098 50.4034 25.7984 50.7134 25.825C52.113 25.9445 52.2104 25.9445 52.3433 27.3574C52.6356 30.5242 52.8482 33.6954 53.0697 36.871C53.2645 39.5993 53.4284 42.3277 53.6056 45.056C53.6233 45.3084 53.672 45.5609 53.6809 45.8133C53.7517 47.771 53.362 48.1917 51.4265 48.2139C50.1288 48.2272 48.8266 48.2139 47.179 48.2139H47.1746ZM47.5422 33.0886C47.1126 32.8273 46.7848 32.628 46.4703 32.4375C47.0107 31.5252 47.4757 30.7324 47.9364 29.944L47.6928 29.7801C47.3384 30.0016 46.9841 30.2186 46.6342 30.44C48.304 29.6339 47.5909 27.8579 48.1667 26.6488C48.211 26.5557 48.0825 26.3742 48.0161 26.1881C46.7715 27.4637 45.5535 28.6551 44.4108 29.9086C43.7332 30.6482 45.3675 30.6836 44.9733 31.4144C44.9689 31.4233 45.2745 31.689 45.4074 31.6625C45.6067 31.6226 45.7661 31.4189 45.9566 31.317C46.1337 31.224 46.3375 31.1797 46.5279 31.1133C44.5038 32.256 43.6446 34.28 42.3867 35.9631C42.431 36.0384 42.4709 36.1137 42.5152 36.1934C43.3346 35.8435 44.1584 35.4936 44.9778 35.1437C45.053 35.219 45.1328 35.2943 45.2081 35.3696C44.7032 36.0871 44.2248 36.8179 43.6889 37.5133C42.9891 38.4212 41.8154 39.0457 42.0501 40.8129C43.2327 39.7145 44.4684 38.904 45.2258 37.7746C46.2179 36.2953 46.838 34.5679 47.5466 33.0931L47.5422 33.0886Z" fill="white"/>
<path d="M41.5541 11.1558C42.2716 11.3861 42.8873 11.5899 43.7111 11.8556C43.2372 11.0938 42.8651 10.5225 42.5197 9.93339C42.3292 9.60564 42.1122 9.2646 42.0369 8.90584C41.9837 8.65339 42.152 8.35221 42.2185 8.07318C42.4887 8.17062 42.8873 8.18391 43.0024 8.37436C43.6136 9.37532 44.1584 10.4117 44.712 11.4481C44.8538 11.7139 44.9424 12.0062 45.1239 12.4491C45.5669 11.5013 45.8946 10.6863 46.3287 9.92896C46.5058 9.61892 46.9709 9.20259 47.21 9.25574C47.6529 9.35761 48.1711 9.68979 48.3793 10.0795C48.5166 10.332 48.2686 10.9521 48.0028 11.2222C47.5466 11.6873 46.9487 12.0106 46.2268 12.5244C47.5068 12.9009 48.6583 13.2419 49.7789 13.5697C49.3537 14.017 49.3537 14.0081 47.9231 13.5475C47.2632 13.3349 46.59 13.1577 45.7396 12.9141C46.2578 13.7335 46.652 14.4289 47.1126 15.0755C47.5024 15.6203 47.5378 16.0986 47.2676 16.732C46.4881 18.5435 45.7972 20.3904 45.0708 22.224C44.9689 22.4854 44.8848 22.7511 44.8006 22.9991C44.8848 23.0523 44.9113 23.0744 44.9379 23.0833C46.1456 23.3106 46.9945 22.8545 47.4846 21.7147C48.1003 20.2841 48.6672 18.827 49.3448 17.4274C49.739 16.6124 49.7833 15.9481 49.1145 15.2837C48.8931 15.0667 48.7513 14.7699 48.5122 14.4245H50.3502C50.2262 13.7512 50.1244 13.1799 50.0314 12.6573C49.2696 12.5908 48.5963 12.5377 47.6795 12.458C48.5343 11.7892 49.4511 11.4127 49.1588 10.3231C48.9772 9.63664 47.7282 8.49394 47.0727 8.51609C45.7839 8.55595 45.8326 9.88024 45.2435 10.5357C44.7475 9.70308 44.278 8.84384 43.7421 8.02446C43.3346 7.39996 42.812 6.96591 41.9837 7.37339C41.1068 7.80744 40.7037 8.51166 40.7879 9.00328C40.1457 10.2036 39.6629 11.1071 39.1801 12.0106C39.1226 12.0106 39.0694 12.0062 39.0118 12.0018C39.0118 11.1337 39.0296 10.2656 39.0118 9.39747C38.9587 7.23609 38.9144 5.07027 38.8125 2.90889C38.7638 1.88577 39.2067 1.34543 40.1811 1.20813C40.9341 1.10183 41.6958 0.946813 42.4532 0.964529C45.2834 1.02211 48.118 1.13283 50.9482 1.24356C52.2857 1.29671 52.6578 1.53588 52.7375 2.84245C52.9678 6.45657 53.2734 10.084 53.2026 13.6981C53.1494 16.4795 52.6046 19.2566 52.2193 22.0247C52.0377 23.3269 51.8074 23.4996 50.4521 23.504C47.8744 23.504 45.2967 23.4465 42.719 23.4332C41.7977 23.4288 40.872 23.4332 39.9508 23.5173C39.1181 23.5926 38.6841 23.2649 38.5512 22.4676C38.2456 20.5942 38.1836 18.7605 39.0295 16.9623C39.9109 15.0933 40.6772 13.1755 41.5497 11.1558H41.5541ZM42.1299 12.2808C41.1334 14.7212 39.9818 16.9889 39.3484 19.3894C39.1004 20.3284 40.0261 21.5774 40.4336 22.6758C40.4557 22.7422 40.6639 22.7511 40.7879 22.76C41.4212 22.822 42.059 22.9504 42.6835 22.9106C43.0024 22.8884 43.463 22.6315 43.5826 22.3569C44.4684 20.3904 45.2922 18.3929 46.1072 16.3954C46.2135 16.1341 46.2445 15.7576 46.1382 15.5096C45.8503 14.8497 45.4694 14.2296 45.2347 13.7911H43.6668C44.0521 13.3703 44.2337 13.1755 44.5039 12.8787C43.6712 12.6705 42.9493 12.489 42.1255 12.2852L42.1299 12.2808Z" fill="white"/>
<path d="M32.373 12.0151C33.2987 12.7813 34.0383 13.4279 34.8223 14.0214C35.0481 14.1942 35.4512 14.3713 35.6505 14.2783C35.8454 14.1897 35.9561 13.7645 35.9738 13.4767C36.0225 12.8079 36.0491 12.1922 35.1013 11.9841C34.6407 11.8822 34.2465 11.3463 33.8833 10.9565C31.7706 8.67998 29.8351 6.26614 28.2229 3.59541C28.0502 3.31195 27.3416 3.02849 27.1334 3.15694C26.7436 3.40054 26.5045 3.92316 26.2742 4.36164C26.1767 4.54766 26.3495 4.8887 26.2387 5.05701C25.4105 6.33701 24.5468 7.59043 23.6832 8.84829C23.661 8.88372 23.5724 8.87486 23.4706 8.90143C23.3067 6.94379 23.1472 4.995 22.9789 3.04621C22.9302 2.47486 22.8505 1.90794 22.8239 1.33659C22.7752 0.278043 22.9878 0.0565902 24.0242 0.189462C25.8534 0.419774 27.6693 0.871538 29.4985 0.9114C31.3499 0.946832 33.2234 0.658943 35.0659 0.384341C36.3547 0.193891 36.5363 0.220466 36.5142 1.55361C36.461 4.51223 36.2794 7.47085 36.306 10.425C36.337 14.3359 36.5452 18.2468 36.6293 22.1576C36.678 24.4829 36.5009 24.5848 34.2509 23.916C33.7061 23.7521 32.9532 23.7432 32.6742 23.3756C32.4217 23.039 32.7362 22.3171 32.7185 21.7634C32.6122 18.8757 32.4793 15.9879 32.3597 13.1046C32.3464 12.799 32.3597 12.4934 32.3597 12.0195L32.373 12.0151Z" fill="white"/>
<path d="M27.4657 6.00928C28.5863 7.54616 29.6537 8.96346 30.6591 10.4206C30.8274 10.6642 30.7831 11.085 30.7698 11.4216C30.6325 14.3359 30.4509 17.2458 30.3535 20.1601C30.3224 21.1345 30.504 22.1134 30.5882 23.1188C28.5065 23.4377 26.4514 23.7875 24.3875 24.0444C23.4707 24.1596 23.0189 23.7123 23.0233 22.7511C23.0278 21.418 23.1341 20.0848 23.1961 18.7473C23.2802 16.7763 23.3334 14.8054 23.4618 12.8389C23.4928 12.3738 23.7099 11.8778 23.9623 11.4747C24.9146 9.94229 25.92 8.43641 26.9032 6.92166C27.0715 6.66035 27.231 6.39461 27.4657 6.00928Z" fill="white"/>
<path d="M15.817 48.3644C14.1871 48.3644 12.5351 48.4042 10.8875 48.3467C10.0814 48.3157 9.74035 48.5548 9.55433 49.3786C8.50907 53.9982 7.4018 58.6044 6.30782 63.215C6.23696 63.5207 6.13952 63.8174 6.04208 64.154H0.899933V62.3337C1.87433 62.3337 2.87973 62.2894 3.88069 62.3469C4.5982 62.3912 4.85952 62.0989 5.01896 61.4301C6.14395 56.7619 7.32208 52.1114 8.43377 47.4431C8.61094 46.7035 8.92097 46.4776 9.65177 46.4998C11.2728 46.5485 12.8983 46.513 14.5193 46.5175C16.1403 46.5175 16.2112 46.6149 15.8126 48.3644H15.817Z" fill="white"/>
<path d="M54.8813 60.3406H53.2514C53.2514 58.8258 53.1983 57.3332 53.2691 55.8495C53.3134 54.9415 53.0477 54.6271 52.1087 54.6713C50.1156 54.7599 50.4213 54.472 50.3991 56.4253C50.3858 57.723 50.3991 59.0207 50.3991 60.3406H48.8224V52.8953C50.8464 53.0592 52.9325 52.2619 54.8592 53.8963C54.8237 52.9307 55.3021 52.7846 55.993 52.8687C56.4005 52.9174 56.8213 52.8643 57.2332 52.882C58.5973 52.9396 59.4211 53.7855 59.4211 55.1187C59.4211 56.8327 59.4211 58.5424 59.4211 60.3273H57.7868V56.5803C57.7868 54.6714 57.7868 54.7024 55.8469 54.6802C55.0983 54.6714 54.8459 54.8884 54.8725 55.6502C54.9256 57.2003 54.8902 58.7505 54.8902 60.3494L54.8813 60.3406Z" fill="white"/>
<path d="M26.7079 60.4161H21.6322V64.1409H20.0643V52.8867C22.1459 52.8867 24.2054 52.8778 26.2605 52.9088C26.4111 52.9088 26.6857 53.2189 26.6857 53.3872C26.7123 55.6726 26.7034 57.9579 26.7034 60.4161H26.7079ZM25.0115 58.485V54.8975C24.1124 54.831 23.2133 54.7602 22.3142 54.6937C22.2212 54.6849 22.0928 54.6627 22.0352 54.7114C21.8846 54.8355 21.6543 54.9949 21.6499 55.1455C21.6189 56.2439 21.6322 57.3467 21.6322 58.4806H25.0115V58.485Z" fill="white"/>
<path d="M27.9662 54.6891V52.9485H34.5301V60.3185H28.0016V55.6945C29.3481 55.6945 30.6768 55.7122 32.0055 55.6856C32.3599 55.6768 32.9135 55.9115 32.9312 55.2162C32.9489 54.5252 32.4174 54.698 32.041 54.6935C30.7122 54.6758 29.3791 54.6891 27.9662 54.6891ZM32.8426 58.4715C33.0508 57.847 32.9445 57.5149 32.2447 57.537C31.5759 57.5591 30.9115 57.5547 30.2428 57.537C29.4588 57.5193 29.4234 57.8958 29.6714 58.4715H32.8382H32.8426Z" fill="white"/>
<path d="M40.939 60.3273V55.7477H45.7711C46.0235 55.0213 45.9438 54.6758 45.182 54.6891C43.7913 54.7157 42.405 54.698 40.9744 54.698C40.939 54.3304 40.9257 54.0868 40.8947 53.8387C40.7928 53.1079 41.063 52.8333 41.8381 52.8555C43.4901 52.9086 45.1466 52.8466 46.7942 52.8953C47.0599 52.9042 47.5427 53.2319 47.5471 53.4224C47.6003 55.7034 47.5826 57.9799 47.5826 60.3273H40.939ZM46.152 58.5203C45.8464 58.0552 45.7002 57.599 45.5142 57.5813C44.6727 57.5016 43.8134 57.5149 42.9675 57.5724C42.8036 57.5813 42.6043 57.909 42.5467 58.1261C42.5246 58.2102 42.8479 58.4937 43.0251 58.5025C43.9596 58.5424 44.8985 58.5203 46.1564 58.5203H46.152Z" fill="white"/>
<path d="M65.2233 55.7257H70.0864V60.3142H63.5314V58.5249H68.3724C68.6514 57.7321 68.3857 57.5151 67.7036 57.5328C66.3439 57.5638 64.9797 57.5416 63.5447 57.5416V52.9531H70.0731V54.6937C68.6913 54.6937 67.2784 54.7159 65.8655 54.6849C65.1436 54.6716 64.9531 54.9506 65.2277 55.7257H65.2233Z" fill="white"/>
<path d="M15.857 60.3362H14.3555C14.3555 59.3042 14.3289 58.3298 14.3644 57.351C14.3821 56.7752 14.1872 56.5582 13.6026 56.5715C12.3979 56.6069 11.1976 56.5804 9.92203 56.5804V54.7511C11.0824 54.7511 12.2473 54.7069 13.4077 54.7644C14.1739 54.8043 14.3998 54.5253 14.3732 53.7856C14.3245 52.4613 14.36 51.1326 14.36 49.7507H15.8614V60.3273L15.857 60.3362Z" fill="white"/>
<path d="M39.5394 54.6446C39.2426 54.6624 38.9946 54.6801 38.7421 54.6934C37.812 54.7421 37.4223 55.123 37.4178 56.0398C37.409 57.4615 37.4178 58.8833 37.4178 60.3493H35.8101C35.8101 59.8488 35.8101 59.3572 35.8101 58.8655C35.8101 57.1515 35.8367 55.4374 35.7968 53.7234C35.7791 53.0369 36.0404 52.8199 36.6826 52.8642C37.1875 52.8996 37.6969 52.873 38.2062 52.873C39.8317 52.873 39.8494 52.8952 39.5438 54.6446H39.5394Z" fill="white"/>
<path d="M18.6914 60.3494H17.2431V49.7595H18.6914V60.3494Z" fill="white"/>
<path d="M62.1937 60.3584H60.7011V52.9353H62.1937V60.3584Z" fill="white"/>
</g>
<defs>
<clipPath id="clip0_2006_13532">
<rect width="69.1864" height="64" fill="white" transform="translate(0.900665 0.154053)"/>
</clipPath>
</defs>
</svg>
