<svg width="295" height="126" viewBox="0 0 295 126" fill="none" xmlns="http://www.w3.org/2000/svg">
<g clip-path="url(#clip0_1047_423)">
<path d="M148.224 126H137.51V57.0838C140.617 57.0838 143.916 57.0308 147.207 57.1519C147.625 57.1671 148.141 58.0263 148.394 58.5941C153.388 69.8663 158.351 81.1536 163.326 92.4333C163.567 92.9821 163.846 93.5196 164.441 94.0004V57.1709H175.502C175.283 79.9499 175.069 102.672 174.847 125.656C171.378 125.765 168.267 125.928 165.156 125.89C164.697 125.886 164.083 125.005 163.82 124.406C158.939 113.289 154.103 102.154 149.256 91.0214C149.011 90.4612 148.736 89.9162 148.224 89.409V125.996V126Z" fill="black"/>
<path d="M41.7478 58.0263C42.7006 78.2768 43.6497 98.3987 44.6063 118.744C41.3561 118.274 37.8085 117.76 34.001 117.207C33.1913 106.908 32.3891 96.684 31.5681 86.2635C31.2894 86.7291 31.0183 87.1 30.8375 87.505C29.2633 91.0025 27.7456 94.5265 26.1036 97.9937C25.8625 98.5009 25.0604 99.027 24.5068 99.0384C23.1397 99.0648 21.7349 98.9286 20.4093 98.5955C19.8105 98.4441 19.2154 97.7628 18.8727 97.1723C16.5754 93.1979 14.3459 89.1818 12.0976 85.1809C11.9017 85.2036 11.7021 85.2264 11.5063 85.2491C12.2934 94.7006 13.0805 104.156 13.8864 113.823C10.5384 113.195 7.1753 112.601 3.83856 111.881C3.42806 111.794 2.91211 111.045 2.87068 110.564C1.9141 99.5191 0.852069 88.474 0.181708 77.41C-0.187367 71.3273 0.113919 65.2067 0.113919 58.5865C2.9573 58.5865 5.95133 58.772 8.90769 58.5259C11.1523 58.3367 12.1691 59.1353 13.0504 61.1604C15.31 66.3498 17.8521 71.4143 20.2925 76.5243C20.5863 77.1375 20.9328 77.728 21.3922 78.5796C23.6443 73.4129 26.081 68.5944 27.8435 63.5412C29.2972 59.37 31.3648 57.1443 36.0272 57.9619C37.9667 58.3026 40.0192 58.0187 41.7478 58.0187V58.0263Z" fill="black"/>
<path d="M214.889 57.1444V72.2131C212.829 72.2131 210.904 72.1941 208.98 72.2131C204.276 72.2623 199.572 72.2585 194.872 72.4212C192.017 72.5197 190.729 73.5757 190.052 76.301C189.543 78.3488 189.336 80.4722 188.944 82.8947C197.734 82.6866 206.159 82.4859 214.433 82.2929C214.433 87.047 214.471 91.6876 214.365 96.3244C214.358 96.6916 213.375 97.3162 212.821 97.3464C205.684 97.7249 198.544 98.024 191.407 98.3306C190.613 98.3646 189.818 98.3344 188.59 98.3344C189.012 101.188 189.227 103.751 189.81 106.226C190.262 108.142 191.761 109.096 193.784 108.99C199.73 108.675 205.677 108.354 211.624 108.036C212.294 107.998 212.964 107.96 213.714 107.915C213.714 109.769 213.766 111.514 213.702 113.252C213.601 116.022 213.379 118.789 213.296 121.556C213.266 122.567 212.957 123.017 211.906 123.089C204.152 123.623 196.409 124.312 188.647 124.713C184.76 124.914 182.045 122.949 181.107 118.929C180.184 114.981 179.623 110.859 179.582 106.806C179.48 96.7257 179.635 86.6345 179.951 76.5584C180.079 72.4326 180.557 68.25 181.48 64.234C182.704 58.8893 185.83 56.7394 191.291 56.7659C198.751 56.8037 206.212 56.9173 213.672 57.0081C214.038 57.0119 214.399 57.0838 214.9 57.1406L214.889 57.1444Z" fill="black"/>
<path d="M133.086 125.618H124.134C124.134 124.437 124.153 123.392 124.134 122.347C123.995 115.292 123.795 108.24 123.739 101.185C123.724 99.5003 123.23 98.8606 121.524 98.8909C116.907 98.9704 112.286 98.9174 107.364 98.9174C107.65 107.442 107.936 116.034 108.234 124.842C105.492 124.683 102.878 124.592 100.287 124.32C99.8919 124.278 99.2931 123.434 99.2705 122.938C98.8148 113.562 98.3516 104.186 98.0653 94.8067C97.8318 87.1267 97.6812 79.4352 97.7942 71.7514C97.8356 68.9655 98.4909 66.1229 99.2968 63.4354C100.581 59.1544 103.522 57.1142 108 57.0196C112.388 56.925 116.779 56.8985 121.17 56.8909C126.827 56.8833 129.892 59.0598 131.15 64.6239C132.005 68.4015 132.551 72.3267 132.623 76.1989C132.928 92.3312 133.003 108.467 133.161 124.603C133.161 124.906 133.124 125.209 133.097 125.618H133.086ZM106.784 83.0538H123.629C123.174 80.6389 122.835 78.2997 122.27 76.0172C121.712 73.7726 120.029 72.7582 117.811 72.6787C115.935 72.6106 114.049 72.6106 112.173 72.6787C110.011 72.762 108.388 73.7916 107.902 75.968C107.401 78.2126 107.172 80.5178 106.788 83.05L106.784 83.0538Z" fill="black"/>
<path d="M217.596 122.957C217.897 117.707 218.176 112.82 218.458 107.873C224.672 107.335 230.72 106.764 236.78 106.302C243.246 105.81 245.755 102.922 245.37 96.0708C236.644 96.6613 227.918 97.2518 219.185 97.8461C219.185 94.9769 219.132 92.2895 219.196 89.6096C219.347 83.436 219.381 77.2511 219.81 71.0964C220.01 68.2538 220.774 65.3808 221.72 62.6782C222.857 59.423 225.478 57.5305 228.898 57.4661C236.102 57.3261 243.314 57.4585 250.526 57.4775C252.334 57.4812 254.142 57.4775 256.074 57.4775V71.7777C252.786 71.7777 249.555 71.7626 246.327 71.7815C242.813 71.8042 239.3 71.8497 235.79 71.8951C232.336 71.9405 230.743 73.1518 229.85 76.4903C229.557 77.5804 229.353 78.7046 229.218 79.825C229.12 80.6161 229.199 81.4337 229.199 81.9863C233.063 81.9863 236.863 82.0469 240.659 81.9674C243.917 81.8992 247.171 81.657 250.428 81.5207C253.336 81.3996 255.422 82.8114 255.422 85.7071C255.418 94.1972 255.614 102.748 252.997 110.984C251.253 116.469 247.457 119.402 241.71 120.023C233.745 120.882 225.798 121.95 217.603 122.957H217.596Z" fill="black"/>
<path d="M292.653 111.442C289.343 112.082 286.473 112.635 283.403 113.225C284.021 106.052 284.616 99.1065 285.249 91.7596C279.78 92.3084 274.474 92.8383 269.089 93.3758C268.456 101.037 267.834 108.554 267.206 116.151C264.144 116.643 261.248 117.109 258.141 117.608C258.303 115.432 258.491 113.377 258.604 111.317C259.278 99.1141 259.85 86.8994 260.645 74.7037C260.89 70.964 261.451 67.1902 262.374 63.564C263.349 59.7296 266.253 57.7273 270.196 57.6894C275.337 57.6402 280.488 57.6516 285.622 57.9128C290.909 58.1853 293.997 61.0809 294.6 66.8192C295.09 71.4901 295.078 76.2594 294.818 80.9605C294.261 91.0858 293.399 101.192 292.649 111.435L292.653 111.442ZM269.326 80.0029C275.148 79.666 280.428 79.3594 286.032 79.0339C285.704 77.0543 285.535 75.3093 285.098 73.6325C284.616 71.7815 283.208 70.7785 281.34 70.7596C278.963 70.7368 276.538 70.6952 274.222 71.1343C273.043 71.3576 271.578 72.3796 271.088 73.4357C270.196 75.3547 269.936 77.5728 269.326 80.0029Z" fill="black"/>
<path d="M164.321 26.6588C166.844 28.3016 167.936 31.0761 167.676 34.3805C167.394 37.9423 167.228 41.5458 166.497 45.0243C165.831 48.2001 163.884 49.54 160.649 49.6081C155.135 49.7255 149.622 49.6687 144.108 49.6763C143.871 49.6763 143.63 49.5741 143.494 49.54V0.215753C144.982 0.13248 146.213 0 147.445 0C151.459 0.0113554 155.47 0.0492069 159.485 0.121125C163.225 0.189257 165.115 1.48378 166.196 4.98883C167.699 9.87924 168.004 14.9438 167.205 19.9477C166.848 22.1885 165.394 24.2514 164.321 26.6588ZM149.738 38.4457C152.54 38.4457 155.158 38.5442 157.768 38.4155C159.824 38.3133 161.021 36.5835 161.131 33.9187C161.195 32.2835 160.585 30.883 158.867 30.7808C155.847 30.5991 152.808 30.7316 149.742 30.7316V38.4495L149.738 38.4457ZM149.829 19.2248C152.536 19.2248 155.033 19.2323 157.534 19.2248C159.974 19.2134 160.814 18.6646 161.018 16.9915C161.293 14.7204 159.982 11.9346 158.253 11.7983C155.485 11.5788 152.687 11.7377 149.832 11.7377V19.2286L149.829 19.2248Z" fill="black"/>
<path d="M62.8754 57.5039H73.6652C73.7104 58.1739 73.7707 58.7833 73.7857 59.3889C74.0945 72.2357 74.3619 85.0825 74.7348 97.9293C74.7913 99.8559 75.1377 101.824 75.665 103.683C76.5764 106.896 78.0301 107.915 81.3894 108.115C85.5095 108.361 89.6296 108.581 94.0246 108.831C94.2769 113.918 94.5217 118.907 94.7816 124.16C87.8181 123.475 81.0655 122.987 74.3732 122.086C70.2833 121.533 67.6244 118.706 66.4908 114.826C65.4702 111.348 64.4873 107.737 64.3254 104.148C63.6663 89.4241 63.3311 74.6885 62.8792 59.9529C62.8566 59.211 62.8792 58.4691 62.8792 57.5039H62.8754Z" fill="black"/>
<path d="M178.836 0.662354C184.832 1.06736 190.661 1.2112 196.423 1.93416C200.393 2.43002 201.937 5.83665 202.317 9.33034C202.988 15.5115 203.319 21.7418 203.56 27.9608C203.745 32.7339 203.639 37.5221 203.504 42.299C203.466 43.6427 202.961 45.0054 202.494 46.2961C201.711 48.4612 199.997 49.7557 197.794 49.8049C191.791 49.945 185.781 49.8541 179.638 49.8541C179.371 33.4493 179.107 17.2375 178.836 0.662354ZM185.803 12.3698V38.9075C188.067 38.9075 189.995 38.9037 191.923 38.9075C195.983 38.9226 197.022 38.0028 197.116 33.8354C197.192 30.372 197.101 26.901 196.958 23.4414C196.86 20.9962 196.68 18.5396 196.303 16.1285C196.039 14.4516 195.162 12.9717 193.215 12.8013C190.725 12.5856 188.225 12.5061 185.807 12.3698H185.803Z" fill="black"/>
<path d="M230.204 4.91694C230.457 8.50147 230.69 11.821 230.946 15.4851C228.615 15.292 226.348 15.1066 224.081 14.9135C221.832 14.7205 219.588 14.4669 217.336 14.3306C215.185 14.1981 214.357 14.834 213.871 16.9272C213.66 17.8394 213.6 18.7895 213.521 19.7282C213.483 20.1559 213.558 20.5912 213.592 21.1931C219.494 21.6397 225.346 22.0826 231.342 22.533C231.515 25.9699 231.681 29.2819 231.865 32.9232C225.862 32.6242 220.032 32.3328 213.856 32.0262C214.157 33.8393 214.312 35.3874 214.688 36.8787C215.159 38.7599 216.466 39.623 218.424 39.6684C222.435 39.7668 226.442 39.9901 230.453 40.0847C231.737 40.115 232.223 40.5655 232.189 41.8789C232.118 44.6951 232.167 47.515 232.167 50.4371C230.769 50.4371 229.417 50.4523 228.062 50.4371C224.051 50.3803 220.04 50.3463 216.029 50.2289C211.513 50.0965 209.227 48.4007 208.512 43.8926C207.841 39.6835 207.668 35.3836 207.484 31.1139C207.205 24.6981 207.036 18.2709 206.983 11.8475C206.968 10.1215 207.39 8.3425 207.894 6.67703C208.647 4.19776 210.316 2.95245 212.828 3.16063C218.563 3.63756 224.288 4.30374 230.204 4.91694Z" fill="black"/>
<path d="M115.98 0.749499H122.006C122.006 3.27798 122.051 5.82917 121.998 8.38036C121.832 16.0642 121.561 23.7481 121.463 31.4319C121.38 38.0256 122.416 38.9151 128.815 38.5858C130.818 38.4836 132.133 37.5828 132.328 35.641C132.66 32.3933 132.833 29.1192 132.905 25.8526C133.093 17.4155 133.191 8.97463 133.326 0.321777H139.578C139.578 2.8654 139.597 5.48093 139.578 8.09269C139.499 17.1657 139.503 26.2425 139.262 35.3155C139.175 38.5556 138.731 41.8411 137.989 44.9979C137.22 48.2834 135.33 49.5666 132.012 49.6801C128.63 49.7974 125.241 49.8353 121.855 49.7974C118.786 49.7672 116.549 48.3137 115.946 45.2628C115.245 41.7124 114.843 38.0294 114.895 34.4146C115.042 23.7708 115.479 13.1345 115.807 2.49445C115.822 1.9986 115.901 1.50653 115.976 0.749499H115.98Z" fill="black"/>
<path d="M80.8698 21.6928C80.7003 19.9554 80.576 18.3921 80.3877 16.8402C80.1957 15.2504 79.1864 14.5767 77.6724 14.5426C77.5481 14.5426 77.4238 14.5615 77.2958 14.5653C70.9048 14.7811 69.8578 15.7501 69.4021 22.1924C69.1159 26.2766 68.9389 30.3721 68.7958 34.4639C68.7581 35.5199 68.92 36.61 69.1648 37.6434C69.5377 39.2142 70.4905 40.0886 72.238 40.1189C78.8436 40.2286 79.273 39.8577 80.2597 32.4426C82.2934 32.3139 84.3798 32.1852 86.6206 32.0451C86.4398 36.8296 86.7072 41.4437 85.133 45.8647C84.0107 49.0253 82.1239 50.4523 78.821 50.5697C75.5634 50.687 72.302 50.7778 69.0443 50.7854C64.9657 50.793 62.5592 48.4008 62.3709 43.5255C62.1713 38.3777 62.2654 33.2034 62.5705 28.0632C62.8943 22.6693 63.2709 17.2376 64.2727 11.9422C65.3348 6.32506 67.8994 4.53847 73.5147 4.09182C76.1999 3.87986 78.8738 3.48999 81.5627 3.36886C84.4476 3.24017 85.9653 4.48927 86.7223 7.29027C87.8973 11.6432 87.3022 16.0567 87.0989 20.4512C87.0838 20.7995 86.3231 21.3483 85.8598 21.4013C84.2442 21.5943 82.6097 21.6095 80.8698 21.6965V21.6928Z" fill="black"/>
<path d="M8.9934 28.8428C14.8911 28.0858 20.5929 27.3515 26.5659 26.5831C26.3964 29.6529 26.2834 32.522 26.0198 35.3798C25.9897 35.7167 25.18 36.186 24.6904 36.239C19.7681 36.7841 14.8383 37.314 9.90102 37.7114C8.48875 37.825 8.08578 38.2451 8.24019 39.6684C8.63562 43.3627 9.46039 44.0667 13.2001 43.7374C17.2562 43.3816 21.3197 43.0864 25.485 42.757V52.1972C20.2427 52.4394 15.1961 52.7423 10.1458 52.8861C3.54013 53.0716 1.41984 51.1298 1.67216 44.4755C1.93955 37.367 2.36889 30.2358 3.29534 23.1916C4.08245 17.2035 6.78272 14.3079 12.5448 13.3767C17.6704 12.5478 22.7584 11.4652 28.1476 10.4395C27.8388 13.619 27.5827 16.6092 27.2023 19.5844C27.1647 19.891 26.4115 20.2619 25.9445 20.3376C22.2311 20.9432 18.499 21.424 14.7931 22.0674C10.432 22.8245 9.44533 23.9979 8.98964 28.8391L8.9934 28.8428Z" fill="black"/>
<path d="M46.8115 57.75H57.767C58.6746 78.7424 59.5785 99.6781 60.4937 120.818C57.285 120.402 53.888 120.004 50.506 119.474C50.1294 119.414 49.6135 118.642 49.5834 118.172C48.7511 105.594 47.8773 93.02 47.2258 80.4306C46.8793 73.7612 46.9358 67.069 46.8153 60.3882C46.8002 59.582 46.8153 58.7758 46.8153 57.75H46.8115Z" fill="black"/>
<path d="M268.887 51.6219C268.435 43.1243 267.998 34.9521 267.565 26.7762C267.414 23.9487 267.215 21.1174 267.166 18.2861C267.143 17.0408 267.328 15.7652 267.614 14.554C268.13 12.37 269.633 11.0262 271.825 11.3366C276.212 11.9612 280.641 12.6198 284.889 13.831C288.836 14.9552 290.399 18.5208 290.873 22.2719C291.593 27.9458 291.977 33.669 292.391 39.3808C292.647 42.8972 292.7 46.4249 292.828 49.9489C292.858 50.7476 292.832 51.55 292.832 52.326C290.911 52.326 289.167 52.4206 287.45 52.2541C287.066 52.2162 286.505 51.2661 286.475 50.7135C286.241 46.3152 286.117 41.913 285.951 37.2838C282.196 36.9166 278.551 36.557 274.871 36.1975V51.6219H268.883H268.887ZM285.13 28.2979C285.066 23.8692 283.586 22.1281 279.549 21.5489C279.116 21.4884 278.679 21.4505 278.246 21.3786C275.022 20.8487 274.031 21.689 273.967 25.0086C273.956 25.5688 273.967 26.1252 273.967 26.8292C277.711 27.3213 281.345 27.7982 285.134 28.2941L285.13 28.2979Z" fill="black"/>
<path d="M98.1283 1.92285C97.8496 7.47566 97.522 12.8127 97.3261 18.1536C97.1265 23.6269 96.9156 29.104 96.9759 34.5773C97.0173 38.4079 98.1283 39.1838 101.989 39.1081C104.915 39.0514 107.845 39.0968 110.835 39.0968V50.1721C105.969 50.1721 101.224 50.297 96.4825 50.1267C93.5073 50.0207 91.5264 48.3288 91.0029 45.0622C90.4116 41.3603 90.1292 37.5487 90.2534 33.8014C90.5736 23.8616 91.2138 13.9293 91.6507 3.99333C91.7109 2.66853 92.1628 2.22945 93.4207 2.22188C94.9121 2.21431 96.4034 2.04398 98.1321 1.92664L98.1283 1.92285Z" fill="black"/>
<path d="M241.864 6.62402C246.147 6.83599 248.42 8.99605 248.684 13.1042C249.185 20.7767 249.622 28.4492 250.224 36.1141C250.559 40.3762 251.629 41.2543 255.896 41.4928C258.705 41.648 261.515 41.807 264.588 41.9773V51.2055C261.455 51.2055 258.22 51.2206 254.981 51.1979C253.727 51.1903 252.473 51.0995 251.222 51.0465C248.206 50.9178 245.856 49.5211 245.155 46.5876C244.319 43.0636 243.841 39.4223 243.577 35.8037C242.895 26.4998 242.417 17.1846 241.864 7.87312C241.841 7.50596 241.864 7.1388 241.864 6.62781V6.62402Z" fill="black"/>
<path d="M38.316 8.91406C37.6608 17.4079 37.0205 25.5725 36.4104 33.7408C36.3125 35.0581 36.2974 36.3905 36.3502 37.7115C36.4895 41.0613 37.6495 42.0644 40.9523 41.8297C43.9501 41.6177 46.9516 41.4323 50.0888 41.2241V51.3758C45.046 51.5083 40.1727 51.743 35.2994 51.7241C32.7799 51.7127 31.0174 50.176 30.4261 47.7308C29.9403 45.7322 29.5147 43.6163 29.639 41.5875C30.2717 31.466 31.1003 21.3521 31.8535 11.2381C31.9213 10.307 32.2564 9.78843 33.3185 9.6938C34.9793 9.54618 36.6213 9.19038 38.316 8.91785V8.91406Z" fill="black"/>
</g>
<defs>
<clipPath id="clip0_1047_423">
<rect width="295" height="126" fill="white"/>
</clipPath>
</defs>
</svg>
