<svg width="313" height="200" viewBox="0 0 313 200" fill="none" xmlns="http://www.w3.org/2000/svg">
<g clip-path="url(#clip0_1047_602)">
<path d="M311.352 89.1331C311.149 89.6435 310.994 90.1538 310.761 90.6492C309.081 94.2669 305.287 95.753 301.524 94.9875C300.094 94.7023 298.803 94.1018 297.684 93.3062C296.704 93.6665 296.346 94.8073 295.227 94.8524C294.931 94.0117 294.885 88.4576 295.133 87.3167C296.144 87.1216 296.175 87.1066 296.424 87.9472C296.859 89.4033 297.481 90.7693 298.508 91.9402C300.918 94.7173 305.132 94.9875 307.806 92.5406C308.724 91.715 309.33 90.7093 309.486 89.5084C309.719 87.5719 309.066 85.9807 307.2 85.1101C305.567 84.3445 303.826 83.8041 302.131 83.1736C301.276 82.8584 300.405 82.6182 299.565 82.2729C296.113 80.8469 294.9 77.7095 295.227 74.5571C295.553 71.2997 297.855 68.988 301.229 68.4325C303.312 68.0873 305.303 68.4475 307.153 69.4533C307.511 69.6484 307.869 69.8586 308.195 70.0387C309.081 69.8136 309.315 68.6727 310.325 68.7027C310.605 69.4683 310.699 74.1969 310.434 75.9232C310.077 75.9382 309.688 75.9532 309.221 75.9832C309.128 75.5479 309.066 75.2026 308.973 74.8574C308.288 72.2154 306.92 70.1438 304.012 69.3632C301.462 68.6877 298.85 69.7385 297.808 71.8401C297.326 72.8158 297.279 73.8216 297.544 74.8424C297.746 75.6229 298.274 76.2234 299.036 76.5536C299.658 76.8238 300.296 77.034 300.949 77.2442C302.862 77.8446 304.79 78.385 306.671 79.0605C308.475 79.691 309.89 80.8318 310.73 82.5431C310.963 83.0385 311.118 83.5639 311.305 84.0743V89.1331H311.352Z" fill="black"/>
<path d="M20.9023 84.2547H19.6428C19.5029 83.4591 19.394 82.6935 19.223 81.9429C19.083 81.3425 18.8964 80.742 18.6321 80.1716C18.1345 79.0758 17.2793 78.3102 16.0975 77.9499C14.6359 77.4996 13.1431 77.3795 11.6348 77.5446C11.4016 78.3853 11.3394 91.7002 11.5726 93.1563H16.5796V94.3272C15.7088 94.5824 0.268138 94.6124 -0.820327 94.3272V93.1864H4.48206V61.2424H-0.72703C-0.960273 60.0115 -0.929174 59.9514 0.174841 59.9514C3.86007 59.9514 7.52976 59.9514 11.215 59.9514C16.6418 59.9514 22.0685 59.9514 27.4953 59.9514H28.8792C29.0814 63.419 29.2058 66.8416 29.2369 70.3542H27.8841C27.7597 69.8889 27.6353 69.3935 27.4798 68.9131C27.1221 67.8323 26.8422 66.7215 26.3913 65.6857C25.3806 63.359 23.6235 61.8428 20.949 61.5576C19.223 61.3775 17.4659 61.3324 15.7243 61.2724C14.3715 61.2274 13.0032 61.2724 11.6815 61.2724C11.386 62.1731 11.3394 74.9026 11.6193 76.0885C13.4697 76.1936 15.3045 76.1185 16.9839 75.2179C18.5544 74.3772 19.0986 72.9061 19.4096 71.3149C19.4873 70.8796 19.534 70.4593 19.6273 69.9039C20.0471 69.8889 20.4203 69.8588 20.9023 69.8438V84.2697V84.2547Z" fill="black"/>
<path d="M283.873 133.941C283.298 134.181 282.707 134.421 282.116 134.631C280.577 135.202 279.659 134.752 279.177 133.22C279.115 133.01 279.037 132.815 278.944 132.56C277.467 132.71 276.223 133.31 275.01 133.986C273.253 134.962 271.76 136.253 270.438 137.739C269.723 138.549 268.992 139.345 268.324 140.186C267.966 140.636 267.546 140.831 266.955 140.786C266.442 140.741 265.914 140.786 265.121 140.786C266.909 138.624 268.712 136.823 270.454 134.812C269.645 134.932 268.961 135.142 268.308 135.082C267.624 135.022 266.955 134.707 266.147 134.451C265.82 134.812 265.463 135.277 265.027 135.682C263.768 136.883 262.508 138.114 261.171 139.255C260.02 140.231 258.636 140.921 257.175 141.281C256.257 141.507 255.169 141.522 254.283 141.281C252.945 140.906 252.37 139.525 252.728 138.129C252.836 137.679 253.007 137.243 253.21 136.643C252.805 136.853 252.557 136.973 252.292 137.093C250.551 137.904 248.825 138.715 247.083 139.525C245.964 140.051 244.813 140.531 243.709 141.101C242.885 141.522 242.014 141.432 241.159 141.447C240.786 141.447 240.397 141.417 240.024 141.402C238.92 141.372 238.329 140.921 238.282 139.87C238.251 139.045 238.406 138.234 238.484 137.349C238.22 137.499 237.94 137.649 237.676 137.814C235.281 139.33 232.778 140.636 229.979 141.281C228.937 141.522 227.786 141.477 226.713 141.387C225.827 141.311 225.096 140.381 225.143 139.495C225.174 138.85 225.298 138.159 225.578 137.589C226.045 136.628 226.573 135.682 227.226 134.857C229.217 132.35 231.674 130.353 234.628 128.987C235.639 128.522 236.758 128.192 237.862 128.027C239.402 127.801 240.397 128.942 240.07 130.413C239.837 131.524 239.091 132.29 238.204 132.95C236.68 134.091 234.923 134.782 233.073 135.247C232.124 135.487 231.145 135.637 230.165 135.757C229.652 135.817 229.217 135.937 228.89 136.358C228.361 137.018 227.771 137.649 227.257 138.324C226.993 138.67 226.76 139.075 226.62 139.48C226.34 140.276 226.62 140.831 227.506 140.876C228.47 140.921 229.481 140.861 230.43 140.651C232.482 140.201 234.348 139.285 236.121 138.204C239.682 136.028 243.04 133.581 245.901 130.563C246.15 130.293 246.368 129.993 246.632 129.723C246.943 129.393 246.974 129.077 246.865 128.627C246.57 127.471 246.928 126.45 247.876 125.67C248.405 125.234 248.98 125.204 249.322 125.52C249.758 125.91 249.695 126.39 249.447 126.826C249.198 127.276 248.902 127.696 248.591 128.117C248.312 128.507 247.985 128.852 247.627 129.287C248.032 129.783 248.405 130.233 248.778 130.684C250.862 133.115 250.862 135.217 248.778 137.679C248.576 137.919 248.389 138.174 248.311 138.549C248.545 138.459 248.794 138.399 249.011 138.294C249.82 137.889 250.628 137.484 251.437 137.063C252.868 136.343 254.049 135.412 255.044 134.136C256.973 131.704 259.367 129.708 262.291 128.417C263.192 128.012 264.234 127.831 265.229 127.666C265.634 127.606 266.147 127.771 266.504 127.996C266.924 128.237 267.251 128.522 267.795 128.552C268.324 128.582 268.541 129.077 268.495 129.528C268.448 130.098 268.37 130.714 268.153 131.239C267.764 132.155 267.266 133.01 266.769 133.971C267.313 134.631 268.122 134.707 268.961 134.586C270.33 134.391 271.449 133.686 272.367 132.77C273.471 131.674 274.512 130.488 275.523 129.302C276.052 128.672 276.627 128.357 277.482 128.462C277.949 128.522 278.431 128.462 278.897 128.462C278.928 128.537 278.96 128.627 278.991 128.702C277.482 130.308 275.974 131.914 274.295 133.716C275.959 133.1 277.358 132.605 278.742 132.05C278.975 131.959 279.131 131.629 279.239 131.374C279.659 130.413 280.281 129.588 281.121 128.927C281.448 128.672 281.805 128.477 282.178 128.282C282.66 128.042 283.158 128.012 283.531 128.447C283.873 128.837 283.764 129.287 283.531 129.678C283.313 130.023 283.065 130.368 282.738 130.608C282.069 131.089 281.354 131.494 280.639 131.914C280.359 132.08 280.033 132.185 279.613 132.38C279.706 132.8 279.737 133.25 279.893 133.626C280.204 134.331 280.81 134.631 281.556 134.376C283.376 133.761 285.179 133.175 286.501 131.644C288.118 129.768 289.906 128.027 291.788 126.06C290.824 126.015 290.077 125.985 289.316 125.955C289.3 125.895 289.284 125.82 289.269 125.76C289.424 125.67 289.58 125.535 289.751 125.49C289.922 125.445 290.14 125.445 290.311 125.475C291.679 125.685 292.659 125.174 293.529 124.154C294.618 122.878 295.877 121.767 297.013 120.536C297.51 119.995 298.039 119.725 298.785 119.785C299.298 119.83 299.811 119.785 300.325 119.785C300.356 119.875 300.387 119.95 300.418 120.041C298.754 121.767 297.09 123.478 295.255 125.37C296.126 125.43 296.795 125.49 297.541 125.55C297.308 126.075 296.919 126.03 296.624 125.985C295.1 125.73 294.12 126.405 293.141 127.471C289.642 131.284 286.05 135.007 282.505 138.76C282.147 139.135 281.821 139.555 281.541 139.975C281.183 140.516 281.385 140.906 282.069 140.936C282.598 140.966 283.142 140.906 283.64 140.786C286.812 139.975 289.595 138.459 292.099 136.433C293.514 135.277 294.96 134.151 296.344 132.935C297.292 132.095 298.148 131.164 299.05 130.263C299.469 129.843 299.609 129.408 299.407 128.777C299.096 127.756 299.718 126.405 300.62 125.91C301.055 125.67 301.537 125.475 301.988 125.88C302.377 126.255 302.268 126.706 302.051 127.096C301.74 127.636 301.366 128.147 300.993 128.642C300.776 128.927 300.511 129.182 300.216 129.513C300.682 130.098 301.087 130.684 301.553 131.194C303.854 133.656 302.89 136.283 301.429 137.949C301.195 138.219 300.947 138.489 300.76 138.85C303.388 137.919 305.72 136.493 307.928 134.872C307.991 134.932 308.053 134.992 308.115 135.052C307.991 135.217 307.913 135.427 307.742 135.547C305.456 137.198 303.015 138.579 300.371 139.66C299.298 140.096 298.225 140.576 297.199 141.101C296.157 141.642 295.116 141.417 294.011 141.236C294.214 141.101 294.416 140.951 294.633 140.846C296.453 139.945 297.977 138.7 299.267 137.198C299.578 136.838 299.858 136.433 300.122 136.028C301.429 134.001 301.32 132.02 299.889 130.023C299.765 130.098 299.625 130.158 299.547 130.248C298.07 132.185 296.235 133.761 294.354 135.292C293.747 135.787 293.141 136.298 292.565 136.823C291.15 138.129 290.917 139.27 291.664 141.071C291.695 141.146 291.632 141.266 291.617 141.387C290.746 140.771 290.637 140.156 291.01 137.904C290.746 138.024 290.513 138.114 290.311 138.234C288.289 139.57 286.128 140.621 283.78 141.251C283.065 141.447 282.287 141.432 281.541 141.417C281.012 141.417 280.592 140.801 280.499 140.126C280.406 139.36 280.592 138.654 281.028 138.024C281.743 136.988 282.52 135.997 283.282 134.992C283.5 134.707 283.764 134.436 283.998 134.166C283.951 134.106 283.92 134.031 283.873 133.971V133.941ZM266.551 128.897C265.851 127.981 265.587 127.846 264.747 128.342C263.845 128.867 262.944 129.453 262.228 130.188C259.818 132.68 257.486 135.232 255.153 137.784C254.78 138.189 254.516 138.7 254.314 139.195C254.003 139.96 254.36 140.591 255.184 140.786C255.62 140.891 256.117 140.951 256.522 140.846C257.47 140.591 258.434 140.336 259.274 139.87C261.793 138.504 263.783 136.553 265.571 134.376C265.836 134.046 265.851 133.761 265.727 133.371C265.167 131.764 265.385 130.263 266.567 128.882L266.551 128.897ZM247.301 129.618C247.192 129.663 247.099 129.678 247.068 129.738C245.342 132.005 243.118 133.776 240.941 135.592C240.257 136.163 239.682 136.853 239.153 137.559C238.609 138.264 238.546 139.12 238.717 139.975C238.888 140.846 239.448 141.206 240.366 141.056C240.63 141.011 240.894 140.951 241.128 140.861C244.206 139.675 246.539 137.664 248.001 134.767C248.933 132.92 248.405 131.224 247.316 129.603L247.301 129.618ZM230.056 134.992C230.087 135.082 230.134 135.157 230.165 135.247C230.647 135.187 231.145 135.172 231.611 135.067C233.85 134.601 235.81 133.581 237.442 132.035C237.893 131.599 238.313 131.104 238.64 130.578C238.982 130.023 239.355 129.393 238.873 128.732C238.562 128.297 237.784 128.342 236.867 128.792C236.572 128.942 236.261 129.107 235.996 129.302C233.742 130.924 231.907 132.965 230.041 134.962L230.056 134.992Z" fill="black"/>
<path d="M77.6436 119.98C75.9798 121.706 74.3004 123.432 72.45 125.339C73.3986 125.384 74.1138 125.429 74.8291 125.474C74.8447 125.534 74.8602 125.579 74.8758 125.639C74.7203 125.744 74.5803 125.864 74.4093 125.924C74.2693 125.969 74.0983 125.969 73.9583 125.924C72.4189 125.624 71.4549 126.389 70.4753 127.44C66.93 131.253 63.2914 134.991 59.6994 138.759C59.2174 139.254 58.6887 139.734 58.5177 140.5C59.1241 141.055 59.8083 140.98 60.4303 140.725C61.301 140.365 62.1718 139.975 62.9493 139.464C65.9659 137.498 68.7804 135.261 71.4082 132.814C73.1653 131.163 75.0779 129.737 77.317 128.776C78.2034 128.401 79.1674 128.101 80.1315 127.966C81.8575 127.725 82.9149 128.956 82.4017 130.548C82.2151 131.118 81.873 131.718 81.4221 132.124C80.6757 132.784 79.8516 133.4 78.9653 133.865C77.0216 134.886 74.9069 135.516 72.6833 135.681C72.0147 135.726 71.5326 135.952 71.1439 136.447C70.6307 137.077 70.071 137.693 69.5889 138.338C69.309 138.714 69.0758 139.164 68.9514 139.614C68.7804 140.215 69.0447 140.635 69.6667 140.77C70.1798 140.875 70.724 140.89 71.2372 140.86C72.6522 140.77 73.9894 140.305 75.249 139.719C78.4832 138.203 81.2666 136.042 84.0811 133.925C84.2521 133.79 84.3765 133.595 84.5165 133.415C89.9743 126.194 96.2408 119.694 103.409 114.035C104.435 113.225 105.586 112.579 106.721 111.934C107.468 111.513 108.323 111.303 109.054 111.949C109.784 112.594 109.582 113.435 109.318 114.2C108.867 115.476 108.027 116.512 107.11 117.503C104.762 120.025 102.025 122.111 99.1796 124.063C96.7073 125.759 94.1883 127.41 91.6692 129.031C90.814 129.587 90.0365 130.187 89.4146 130.998C87.5486 133.4 85.6516 135.771 83.7701 138.158C83.4746 138.534 83.1948 138.939 82.9771 139.359C82.5106 140.26 82.8993 140.905 83.9567 140.86C84.7497 140.83 85.5738 140.74 86.2891 140.44C87.7352 139.824 89.228 139.194 90.503 138.323C93.3797 136.372 96.2408 134.375 98.7598 131.974C99.2729 131.478 99.755 130.968 100.253 130.457C100.859 129.827 101.31 129.181 101.123 128.206C100.983 127.515 101.232 126.81 101.699 126.254C101.947 125.954 102.29 125.654 102.663 125.519C102.927 125.429 103.362 125.504 103.58 125.669C103.751 125.804 103.844 126.224 103.751 126.449C103.565 126.96 103.285 127.44 102.958 127.891C102.647 128.341 102.243 128.746 101.808 129.242C102.305 129.827 102.803 130.412 103.285 130.998C104.591 132.559 104.949 134.255 104.031 136.102C103.844 136.462 103.58 136.777 103.331 137.107C103.036 137.513 102.74 137.918 102.507 138.383C105.135 137.603 107.359 136.132 109.582 134.691C109.676 134.811 109.769 134.916 109.878 135.036C109.66 135.156 109.427 135.246 109.225 135.381C106.799 137.047 104.28 138.519 101.434 139.404C101.046 139.524 100.672 139.719 100.315 139.945C98.5732 141.01 96.7073 141.626 94.6081 141.356C94.4526 141.341 94.3126 141.326 94.1572 141.326C92.9909 141.296 92.4156 140.815 92.3845 139.704C92.3845 139.029 92.54 138.353 92.6488 137.543C91.918 138.023 91.2338 138.458 90.5652 138.924C89.1036 139.93 87.5175 140.725 85.8071 141.221C84.9985 141.446 84.0655 141.431 83.2259 141.311C82.5261 141.221 82.0907 140.635 81.8575 139.975C81.5776 139.179 81.6709 138.383 82.013 137.618C82.324 136.912 82.6816 136.237 83.0548 135.441C82.5572 135.516 82.3084 135.847 81.9974 136.057C80.4736 137.077 78.9808 138.143 77.4259 139.134C75.8243 140.155 74.0516 140.83 72.2012 141.251C71.2372 141.476 70.1643 141.401 69.1535 141.311C68.1895 141.221 67.4586 140.305 67.5208 139.344C67.5675 138.669 67.8007 137.993 68.0029 137.333C68.1273 136.927 68.3605 136.567 68.4072 136.072C67.4897 136.762 66.5879 137.453 65.6705 138.143C64.1777 139.269 62.6072 140.29 60.8812 141.085C60.2126 141.401 59.5595 141.386 58.8909 141.326C58.3466 141.281 57.8335 140.71 57.8802 140.035C57.9268 139.284 58.0512 138.488 58.3933 137.828C58.8598 136.912 59.5595 136.117 60.1504 135.276C60.2748 135.111 60.3836 134.946 60.6791 134.556C59.0464 135.186 57.6936 135.261 56.4496 134.24C55.9831 134.766 55.6099 135.216 55.1901 135.636C54.0394 136.747 52.8888 137.873 51.6914 138.924C50.4008 140.05 48.8614 140.815 47.2132 141.221C46.3113 141.446 45.2073 141.431 44.3365 141.13C43.0148 140.665 42.5172 139.299 42.9526 137.903C43.2014 137.107 43.5435 136.312 44.01 135.606C46.0781 132.499 48.7992 130.037 52.2357 128.371C53.2153 127.891 54.2571 127.5 55.3922 127.545C55.7654 127.545 56.1697 127.605 56.4807 127.785C56.9472 128.056 57.3204 128.446 57.9579 128.476C58.16 128.476 58.5021 129.031 58.4866 129.317C58.4555 130.037 58.3466 130.788 58.0823 131.448C57.7713 132.259 57.2737 133.009 56.8228 133.85C57.4137 134.465 58.2222 134.616 59.0619 134.465C60.3525 134.24 61.5343 133.67 62.4362 132.769C64.5198 130.698 66.5257 128.536 68.5471 126.404C68.6404 126.314 68.7026 126.179 68.8737 125.954C68.0184 125.894 67.3032 125.834 66.479 125.774C66.8522 125.188 67.3343 125.309 67.6919 125.354C69.0602 125.549 70.0399 125.053 70.9106 124.033C71.968 122.787 73.212 121.691 74.3004 120.49C74.8447 119.89 75.4355 119.559 76.2752 119.664C76.6795 119.709 77.0993 119.664 77.5036 119.664L77.6436 119.905V119.98ZM56.5584 128.821C55.9676 128.026 55.7032 127.876 54.9724 128.236C54.1794 128.641 53.3552 129.091 52.7488 129.722C50.1831 132.349 47.6797 135.036 45.1918 137.753C44.803 138.173 44.5698 138.759 44.3987 139.299C44.1499 140.155 44.5853 140.74 45.4872 140.875C45.8137 140.92 46.1869 140.965 46.4979 140.875C47.5242 140.545 48.6126 140.26 49.5456 139.749C51.9247 138.413 53.8217 136.522 55.5322 134.45C55.8276 134.09 55.8276 133.775 55.6877 133.355C55.2523 132.124 55.33 130.908 55.9676 129.752C56.1386 129.437 56.3719 129.151 56.5584 128.866V128.821ZM91.6381 128.251L91.8403 128.416C92.0269 128.296 92.229 128.191 92.4001 128.071C95.0279 126.269 97.6558 124.468 100.253 122.637C102.709 120.91 105.104 119.109 107.063 116.842C107.716 116.092 108.229 115.221 108.696 114.35C108.914 113.96 108.96 113.435 108.96 112.969C108.96 112.264 108.509 111.949 107.825 112.159C107.265 112.339 106.706 112.624 106.239 112.984C105.073 113.915 103.86 114.816 102.834 115.882C100.019 118.794 97.2826 121.781 94.5459 124.768C93.5196 125.879 92.6022 127.08 91.6381 128.236V128.251ZM101.652 129.782C100.346 131.013 99.1174 132.214 97.8424 133.355C96.8161 134.27 95.7121 135.111 94.6703 136.012C93.7373 136.807 93.0687 137.753 92.9443 138.999C92.7577 140.86 93.5041 141.491 95.3389 140.875C98.1378 139.945 100.253 138.158 101.776 135.741C103.02 133.775 102.88 131.793 101.668 129.782H101.652ZM72.3567 135.201C72.7766 135.201 72.9787 135.216 73.1498 135.201C76.213 134.781 78.732 133.43 80.6913 131.118C80.9712 130.788 81.1733 130.367 81.3444 129.977C81.5309 129.572 81.6243 129.121 81.2822 128.731C80.8934 128.296 80.3492 128.371 79.9138 128.566C79.2296 128.866 78.5143 129.181 77.9701 129.677C76.2597 131.223 74.627 132.844 72.9632 134.45C72.7921 134.616 72.6522 134.826 72.3412 135.201H72.3567Z" fill="black"/>
<path d="M151.158 69.3919H149.603C149.401 68.5812 149.245 67.8007 148.996 67.0351C147.908 63.8527 145.902 61.4959 142.372 60.7003C139.744 60.1149 137.303 60.5802 135.344 62.5017C133.836 63.9578 133.369 65.7441 133.742 67.7556C133.976 68.9565 134.629 69.8722 135.764 70.3826C136.588 70.7579 137.459 71.0131 138.314 71.2833C140.817 72.0338 143.352 72.6493 145.809 73.52C149.929 74.961 152.246 77.8432 152.682 82.1064C152.946 84.7033 152.728 87.2252 151.531 89.597C149.152 94.3556 144.223 95.8267 139.869 95.2262C137.692 94.926 135.702 94.1604 134.022 92.8244C132.732 93.2898 132.187 94.851 130.555 94.851V84.6133H132.032C132.156 85.0486 132.265 85.4689 132.39 85.8892C133.058 88.0959 134.069 90.1224 135.826 91.7436C139.605 95.2262 145.902 94.6558 148.701 90.5878C149.821 88.9365 150.132 87.1352 149.665 85.2287C149.338 83.8927 148.561 82.7819 147.317 82.1064C146.073 81.4309 144.751 80.8454 143.414 80.3501C141.719 79.7346 139.962 79.2392 138.236 78.6988C135.251 77.7681 132.856 76.1469 131.612 73.2798C130.524 70.7579 130.306 68.1609 131.208 65.564C132.483 61.9162 135.251 59.8897 139.169 59.4244C142.45 59.0341 145.513 59.6645 148.126 61.6911C149.338 61.3758 149.634 59.7546 151.158 59.8597V69.3919Z" fill="black"/>
<path d="M114.463 93.7696C114.618 94.28 114.541 94.5502 114.105 94.6552C112.068 95.1506 110.047 95.2557 108.072 94.4451C105.895 93.5594 105.211 91.7731 105.055 89.6715C104.962 88.4706 104.915 87.2697 104.822 86.0538C104.791 85.7235 104.713 85.4083 104.651 85.078C104.247 82.9314 103.189 81.9257 100.437 81.4153C99.5664 81.2502 98.649 81.3853 97.6694 81.3853V93.4543H101.495C101.526 93.8296 101.541 94.0998 101.572 94.4301H88.7906C88.6196 93.5444 88.6196 93.5144 89.3504 93.4994C90.3611 93.4693 91.3874 93.4994 92.367 93.4994C92.6313 92.6437 92.7246 71.4778 92.4759 69.8266H88.7284V68.8509C89.0394 68.8208 89.2882 68.7608 89.5525 68.7758C94.0308 68.7758 98.5091 68.7758 102.987 68.8208C104.154 68.8208 105.32 69.031 106.486 69.1811C106.89 69.2262 107.295 69.3613 107.699 69.4964C109.736 70.1719 111.058 71.4628 111.369 73.5644C111.695 75.7711 111.042 77.6174 109.098 78.9534C107.683 79.9292 106.066 80.4245 104.387 80.7698C104.216 80.7998 104.045 80.8449 103.609 80.9499C103.998 81.1151 104.169 81.2201 104.34 81.2652C108.538 82.361 110.016 84.5677 110.451 88.6207C110.56 89.6415 110.544 90.6622 110.607 91.683C110.715 93.3192 111.353 93.8746 113.063 93.8446C113.514 93.8446 113.95 93.7846 114.463 93.7546V93.7696ZM97.6849 80.2594C99.271 80.2594 100.795 80.3645 102.288 80.2294C104.029 80.0643 105.226 79.1036 105.646 77.4073C106.066 75.741 106.019 74.0748 105.615 72.4085C105.273 70.9674 104.293 70.1418 102.77 69.9617C101.868 69.8566 100.966 69.8266 100.048 69.7966C99.271 69.7816 98.4935 69.7966 97.6694 69.8116V80.2294L97.6849 80.2594Z" fill="black"/>
<path d="M146.59 128.567C145.361 129.813 144.257 130.939 143.153 132.08C143.185 132.125 143.231 132.17 143.262 132.215C143.449 132.08 143.651 131.96 143.838 131.825C145.346 130.789 146.839 129.723 148.378 128.732C148.829 128.432 149.42 128.267 149.964 128.162C151.519 127.862 152.903 128.913 152.903 130.429C152.903 131.029 152.779 131.705 152.483 132.215C151.908 133.191 151.224 134.136 150.477 134.992C149.451 136.163 148.3 137.244 147.243 138.385C146.792 138.865 146.357 139.39 145.983 139.931C145.844 140.126 145.797 140.561 145.921 140.711C146.061 140.877 146.481 140.967 146.73 140.892C147.305 140.726 147.912 140.531 148.378 140.201C149.949 139.105 151.472 137.964 152.996 136.824C154.194 135.923 155.235 134.872 156.215 133.746C158.236 131.449 160.709 129.693 163.663 128.672C164.643 128.342 165.731 128.162 166.773 128.177C168.484 128.207 169.028 128.853 169.059 130.684C169.37 130.399 169.619 130.219 169.821 130.008C174.097 125.64 178.373 121.287 182.618 116.904C183.193 116.303 183.769 116.033 184.593 116.108C185.106 116.153 185.635 116.108 186.397 116.108C185.992 116.558 185.775 116.829 185.526 117.069C178.482 124.139 171.438 131.224 164.41 138.295C164.036 138.67 163.663 139.045 163.399 139.481C163.212 139.796 163.026 140.321 163.166 140.561C163.321 140.802 163.912 140.967 164.254 140.907C165.172 140.741 166.12 140.546 166.96 140.186C168.841 139.36 170.412 138.069 171.998 136.824C172.884 136.133 173.708 135.382 174.579 134.662C174.874 134.407 175.185 134.182 175.496 133.926C175.559 133.986 175.605 134.031 175.667 134.091C175.574 134.227 175.512 134.377 175.388 134.482C173.366 136.133 171.376 137.844 169.277 139.405C168.204 140.186 166.944 140.801 165.685 141.252C164.907 141.537 163.959 141.477 163.119 141.357C162.466 141.267 162.031 140.711 161.968 140.021C161.937 139.661 161.968 139.285 161.968 138.805C161.688 138.97 161.486 139.075 161.284 139.195C160.118 139.886 159.029 140.711 157.786 141.207C157.008 141.522 155.982 141.477 155.127 141.297C154.396 141.147 153.82 140.471 153.789 139.676C153.743 138.715 153.852 137.739 153.898 136.748C153.774 136.839 153.587 136.959 153.401 137.094C151.612 138.505 149.886 140.006 147.818 141.057C147.398 141.267 146.901 141.402 146.434 141.432C145.361 141.492 144.755 141.012 144.739 139.991C144.739 139.33 144.895 138.595 145.206 138.009C145.657 137.169 146.263 136.403 146.901 135.683C148.02 134.437 149.218 133.266 150.368 132.05C150.866 131.51 151.364 130.939 151.737 130.309C152.188 129.558 151.768 128.762 150.866 128.702C150.26 128.672 149.56 128.792 149.016 129.063C147.849 129.663 146.699 130.324 145.657 131.104C142.205 133.641 139.095 136.538 136.249 139.691C135.472 140.546 134.679 140.997 133.528 140.817C133.233 140.771 132.937 140.817 132.409 140.817C133.124 139.721 134.057 139.045 134.663 138.054C134.43 138.19 134.181 138.31 133.964 138.46C132.409 139.511 130.807 140.486 129.05 141.192C128.304 141.492 127.573 141.477 126.826 141.402C126.127 141.327 125.536 140.576 125.536 139.811C125.536 139.36 125.645 138.895 125.707 138.325C125.209 138.7 124.821 139.06 124.385 139.315C123.219 140.006 122.115 140.877 120.855 141.267C118.383 142.032 116.439 141.012 116.735 138.235C116.875 136.914 117.528 135.788 118.368 134.782C120.902 131.69 124.152 129.528 128.024 128.282C128.786 128.042 129.672 127.982 130.481 128.087C131.74 128.237 132.175 128.853 132.222 130.098C132.222 130.189 132.269 130.279 132.315 130.534C132.735 130.128 133.124 129.843 133.419 129.483C134.104 128.597 134.99 128.297 136.094 128.432C136.42 128.477 136.747 128.477 137.229 128.507C136.996 128.792 136.871 128.958 136.731 129.108C133.87 132.035 130.994 134.962 128.148 137.904C127.635 138.43 127.153 139.015 126.764 139.646C126.313 140.366 126.718 141.027 127.588 140.922C128.397 140.817 129.221 140.576 129.952 140.231C132.455 139.045 134.632 137.379 136.763 135.668C139.033 133.836 141.132 131.81 143.029 129.618C143.993 128.507 145.05 128.237 146.637 128.597L146.59 128.567ZM119.643 140.922C120 140.817 120.684 140.726 121.275 140.441C122.239 139.961 123.203 139.405 124.074 138.76C126.127 137.244 127.962 135.488 129.563 133.521C130.216 132.71 130.792 131.855 131.336 130.984C131.709 130.369 131.911 129.693 131.367 129.033C130.854 128.402 130.139 128.387 129.392 128.492C128.413 128.642 127.619 129.123 126.873 129.693C123.919 131.99 121.26 134.617 118.756 137.364C118.336 137.814 118.01 138.4 117.808 138.97C117.403 140.171 117.994 140.892 119.627 140.922H119.643ZM156.713 140.922C157.055 140.801 157.692 140.666 158.252 140.381C159.014 139.991 159.76 139.541 160.444 139.03C163.088 137.049 165.42 134.752 167.395 132.14C167.706 131.735 167.986 131.284 168.235 130.849C168.561 130.279 168.748 129.678 168.219 129.123C167.691 128.582 167.022 128.477 166.338 128.747C165.607 129.048 164.876 129.363 164.223 129.798C161.315 131.69 158.687 133.881 156.479 136.523C155.888 137.229 155.36 138.009 154.956 138.82C154.365 140.006 155.08 140.952 156.728 140.937L156.713 140.922Z" fill="black"/>
<path d="M24.5265 116.859C24.4643 117.28 24.4798 117.46 24.4176 117.61C23.0648 121.153 20.608 123.554 16.7206 124.41C15.8965 124.59 14.9635 124.59 14.1239 124.47C11.5115 124.11 9.97214 121.978 10.5164 119.426C10.7185 118.481 11.1073 117.505 11.6826 116.724C13.7973 113.767 16.7517 111.951 20.3437 111.08C21.7276 110.75 23.0804 110.855 24.3399 111.455C25.3506 111.936 26.3769 112.461 27.2943 113.092C30.1087 115.058 32.8455 114.923 35.6133 113.031C36.142 112.671 36.6706 112.311 37.1993 111.966C37.3704 111.861 37.5725 111.816 37.9302 111.68C37.5414 112.626 36.7173 112.851 36.1731 113.362C35.6133 113.902 34.9757 114.367 34.3849 114.893C33.8095 115.418 33.2497 115.974 32.7055 116.529C32.1613 117.085 31.6326 117.655 31.1039 118.24C30.5597 118.856 30.0466 119.486 29.5334 120.117C29.0514 120.717 28.5693 121.348 28.1029 121.963C27.6364 122.579 27.1699 123.209 26.719 123.84C26.268 124.47 25.8171 125.116 25.3817 125.746C24.9463 126.376 24.5265 127.007 23.9511 127.863C25.1174 127.682 26.0192 127.607 26.8744 127.382C27.2165 127.292 27.512 126.917 27.7763 126.617C28.8803 125.356 29.9533 124.08 31.0573 122.834C31.3216 122.534 31.6171 122.293 31.9747 122.083C30.5597 123.674 29.3002 125.371 28.0873 127.367C29.2691 127.187 30.202 127.097 31.1039 126.872C31.446 126.782 31.7414 126.392 31.9902 126.091C35.0846 122.429 38.35 118.916 41.9886 115.733C43.5902 114.337 45.2384 112.971 47.1977 112.026C47.773 111.756 48.395 111.515 49.017 111.425C50.1521 111.26 50.7274 111.831 50.6652 112.941C50.5875 114.067 50.0899 115.058 49.4834 115.989C48.0373 118.255 46.0781 120.102 43.9634 121.783C41.802 123.524 39.454 125.01 36.8728 126.106C36.5929 126.226 36.313 126.392 36.0331 126.422C34.5404 126.602 33.6696 127.547 32.8921 128.673C31.6481 130.505 30.2953 132.276 29.098 134.137C28.476 135.083 27.994 136.149 27.6364 137.215C26.8589 139.511 28.0251 140.952 30.5441 140.892C31.7725 140.862 32.9543 140.592 34.0739 140.097C37.7436 138.476 40.5425 135.924 42.4395 132.486C42.7505 131.916 42.9837 131.255 43.0615 130.625C43.2636 128.913 42.1441 127.923 40.4336 128.343C39.5007 128.568 38.5366 128.973 37.7747 129.529C36.4996 130.445 35.3645 131.525 34.1983 132.576C33.965 132.786 33.8406 133.117 33.654 133.387L33.343 133.132C33.4363 132.966 33.483 132.786 33.6074 132.651C34.8358 131.3 36.1109 129.994 37.6658 128.988C38.5832 128.388 39.5473 127.893 40.6824 127.788C42.5017 127.637 43.4658 128.463 43.5746 130.204C43.6524 131.45 43.2947 132.591 42.6883 133.672C41.8953 135.068 40.8379 136.254 39.625 137.32C37.5725 139.106 35.2556 140.517 32.5811 141.208C31.2128 141.568 29.7511 141.658 28.3828 140.967C27.2787 140.412 26.6879 139.556 26.4702 138.401C26.2058 137.034 26.3924 135.714 26.89 134.408C27.6675 132.366 28.8492 130.535 30.0932 128.733C30.342 128.373 30.5752 128.013 30.964 127.442C29.8444 127.607 28.9892 127.682 28.1651 127.878C27.8852 127.938 27.6208 128.268 27.4498 128.538C26.6723 129.754 25.9259 130.97 25.2107 132.231C24.7131 133.102 24.7442 133.117 23.5469 132.936C24.3865 131.225 25.6149 129.784 26.6879 128.103C25.5994 127.968 24.6509 128.208 23.749 128.463C23.3914 128.568 23.127 129.079 22.8782 129.424C21.0123 132.111 18.8509 134.558 16.3163 136.674C13.5952 138.941 10.5008 140.577 6.98663 141.238C5.08959 141.598 3.06816 141.763 1.21776 140.742C-0.119493 140.007 -0.725924 138.791 -0.337187 137.53C-0.010647 136.464 0.984522 135.894 2.02634 136.149C2.83491 136.344 3.31695 136.944 3.31695 137.74C3.31695 138.551 2.85046 139.166 2.05744 139.361C1.77755 139.436 1.48211 139.481 1.15557 139.556C1.15557 140.292 1.68425 140.457 2.18183 140.607C3.67459 141.027 5.18289 140.982 6.67564 140.652C9.27241 140.082 11.3716 138.671 13.2842 136.944C15.5078 134.933 17.296 132.561 19.1308 130.219C19.4418 129.814 19.7372 129.409 19.9238 128.823C19.0686 129.064 18.1823 129.274 17.3426 129.559C16.4874 129.844 15.6322 130.189 14.8236 130.565C14.0461 130.94 13.2842 131.36 12.5534 131.826C11.8225 132.291 11.1228 132.816 10.4075 133.327C10.3453 133.252 10.2831 133.192 10.2209 133.117C10.5008 132.846 10.7496 132.561 11.0606 132.336C13.6418 130.385 16.5185 129.018 19.7217 128.388C20.4214 128.253 20.8412 127.953 21.2455 127.412C24.4798 123.134 28.0873 119.201 32.2701 115.779C32.7833 115.358 33.3119 114.968 33.7473 114.428C33.343 114.593 32.9388 114.758 32.55 114.938C30.0932 116.049 27.7141 116.064 25.475 114.413C25.0241 114.082 24.5265 113.797 24.0444 113.512C22.3962 112.521 20.6235 112.161 18.6954 112.551C15.6633 113.167 13.3308 114.743 11.8225 117.355C11.3716 118.135 11.0917 119.066 10.9829 119.952C10.6719 122.579 12.8332 124.485 15.5389 124.02C16.2075 123.9 16.8761 123.704 17.4825 123.434C20.4059 122.143 22.7383 120.267 24.0755 117.355C24.1222 117.235 24.2466 117.16 24.4954 116.859H24.5265ZM34.9135 126.331C35.4267 126.166 35.7843 126.091 36.1264 125.956C39.4851 124.635 42.2996 122.549 44.8963 120.162C46.7312 118.466 48.4727 116.664 49.6078 114.428C49.8722 113.917 50.0588 113.347 50.1676 112.776C50.2765 112.161 49.9499 111.846 49.3279 111.936C48.8615 112.011 48.3639 112.176 47.9751 112.461C47.0422 113.137 46.1092 113.842 45.2695 114.623C41.5998 118.075 38.3966 121.933 35.1934 125.776C35.1157 125.881 35.069 126.016 34.9291 126.316L34.9135 126.331Z" fill="black"/>
<path d="M161.722 69.8127H157.897V68.8669H179.946C180.008 71.1637 180.086 73.3853 180.148 75.592C179.215 75.9222 179.2 75.9072 178.92 75.1267C178.655 74.4061 178.407 73.6706 178.08 72.98C177.287 71.3438 175.934 70.3681 174.099 70.0078C172.933 69.7826 168.502 69.6926 167.102 69.9177V80.7258C168.626 80.8459 170.103 80.8309 171.44 79.9903C172.28 79.4649 172.669 78.6243 172.871 77.6936C172.949 77.3783 172.949 77.0331 173.026 76.7178C173.151 76.1624 173.166 76.1624 174.037 76.2825V86.6553C173.151 86.8505 173.12 86.8354 172.98 86.205C172.824 85.5295 172.731 84.8389 172.513 84.1784C172.125 83.0076 171.254 82.257 169.994 82.0318C169.077 81.8667 168.128 81.8517 167.226 81.7766C166.962 82.7073 166.884 91.534 167.087 93.3803C167.351 93.4104 167.631 93.4854 167.926 93.4854C169.59 93.4854 171.269 93.5004 172.933 93.4854C176.183 93.4404 178.08 92.0744 179.075 89.0721C179.308 88.3816 179.464 87.6611 179.666 86.9555C179.853 86.31 179.868 86.325 180.817 86.5052C180.708 89.1021 180.599 91.7141 180.475 94.4311C180.008 94.4612 179.651 94.5062 179.277 94.5062C172.529 94.5062 165.765 94.5062 159.016 94.5062C158.83 94.5062 158.643 94.5062 158.441 94.5062C157.757 94.4762 157.726 94.1159 157.974 93.4854H161.706V69.7826L161.722 69.8127Z" fill="black"/>
<path d="M54.8929 80.5915C54.7685 84.7946 53.7734 88.007 51.5498 90.8142C46.8072 96.8187 37.6641 96.4884 33.3569 90.8742C30.3558 86.9563 29.174 82.573 30.4802 77.8144C31.4909 74.1066 33.8856 71.3145 37.4308 69.5282C40.5252 67.982 43.7128 67.8319 46.8538 69.318C51.9696 71.7498 54.5819 75.8179 54.8774 80.5765L54.8929 80.5915ZM35.7826 81.6873C35.7826 81.6873 35.8292 81.6873 35.8603 81.6873C35.8603 82.8582 35.8448 84.0291 35.8603 85.1999C35.8914 86.3708 35.8603 87.5567 36.0469 88.6976C36.5756 92.0301 38.3949 93.8464 41.3493 94.1166C42.36 94.2067 43.4019 94.1166 44.397 93.9515C46.0297 93.6663 47.1959 92.7356 47.8957 91.2645C48.6576 89.6733 48.953 87.977 48.9686 86.2507C49.0152 83.0383 48.9686 79.8109 48.9997 76.5985C48.9997 75.0673 48.5643 73.6413 47.9579 72.2452C47.2426 70.639 45.9675 69.6933 44.226 69.333C42.9509 69.0628 41.6603 69.0928 40.3852 69.3781C38.4105 69.8284 37.1043 70.9843 36.4979 72.8607C36.2802 73.5212 36.078 74.2117 36.0314 74.8872C35.907 77.1539 35.8448 79.4206 35.767 81.6873H35.7826Z" fill="black"/>
<path d="M235.676 81.4611C235.629 74.9462 240.652 69.2119 246.918 68.4013C250.09 67.981 252.874 69.0168 255.237 70.9532C259.84 74.7361 261.317 79.5397 259.856 85.1839C259.047 88.2763 257.539 90.9783 254.864 92.9748C250.199 96.4574 243.404 95.7669 239.563 91.4586C236.92 88.5014 235.769 85.0038 235.676 81.4611ZM241.492 82.1216C241.554 84.1782 241.523 86.3848 241.709 88.5615C241.989 91.8639 243.886 93.7854 247.058 94.1457C247.727 94.2207 248.427 94.2207 249.095 94.1457C251.568 93.9055 253.247 92.6746 253.962 90.3328C254.164 89.6723 254.382 88.9818 254.382 88.3063C254.444 84.1031 254.444 79.9 254.444 75.6968C254.444 75.0813 254.304 74.4659 254.18 73.8504C253.496 70.7881 251.459 69.1969 248.24 69.1669C247.789 69.1669 247.323 69.1669 246.872 69.227C244.555 69.5122 242.907 70.638 242.191 72.8297C241.943 73.5952 241.725 74.3908 241.678 75.1864C241.554 77.4531 241.538 79.7198 241.476 82.1216H241.492Z" fill="black"/>
<path d="M285.586 85.17V69.8285C284.56 69.8285 283.596 69.8285 282.616 69.8135C281.901 69.7985 281.901 69.7835 282.01 68.8678H290.764C290.78 69.168 290.795 69.4082 290.811 69.7835H286.908C286.83 72.6806 286.877 75.4427 286.877 78.2048C286.877 80.9819 286.877 83.759 286.877 86.5511V94.8373C285.742 95.0925 285.726 95.0925 285.135 94.2218C281.886 89.5083 278.636 84.7797 275.37 80.0512C273.458 77.2741 271.545 74.512 269.633 71.7349C269.477 71.5098 269.275 71.2996 268.964 70.9093V93.5013H272.602C272.618 93.8916 272.634 94.1317 272.649 94.3719C272.509 94.432 272.4 94.507 272.307 94.507C269.695 94.507 267.067 94.537 264.455 94.522C263.739 94.522 263.724 94.462 263.895 93.5313H267.331C267.58 92.6456 267.642 71.3146 267.409 69.8435H263.91C263.739 68.8678 263.755 68.8077 264.455 68.8077C267.409 68.7927 270.379 68.8077 273.333 68.7927C273.955 68.7927 274.189 69.198 274.453 69.5883C276.272 72.2003 278.107 74.7972 279.926 77.4092C281.559 79.7509 283.176 82.0927 284.809 84.4194C284.995 84.6897 285.198 84.9448 285.4 85.215C285.477 85.2 285.54 85.185 285.617 85.17H285.586Z" fill="black"/>
<path d="M217.014 125.46C217.978 127.201 217.309 128.597 216.267 129.918C215.179 131.284 214.075 132.635 213.002 134.001C212.193 135.022 211.478 136.088 211.12 137.363C210.576 139.3 211.447 140.666 213.53 140.846C214.37 140.921 215.303 140.831 216.081 140.531C219.595 139.135 222.254 136.733 224.151 133.566C224.524 132.95 224.773 132.215 224.866 131.509C225.099 129.888 223.7 128.777 222.052 129.212C220.885 129.513 219.968 130.248 219.097 131.014C218.755 131.314 218.475 131.644 218.133 131.959C218.009 132.065 217.838 132.125 217.682 132.2C217.62 132.065 217.558 131.974 217.573 131.944C218.553 130.653 219.75 129.618 221.259 128.927C221.523 128.807 221.834 128.717 222.129 128.657C224.042 128.312 225.535 129.558 225.457 131.434C225.395 132.665 224.975 133.806 224.337 134.857C222.409 138.024 219.641 140.261 216.003 141.266C214.106 141.792 212.115 141.612 210.654 140.035C209.254 138.519 209.021 136.748 209.83 134.917C210.281 133.881 210.949 132.92 211.633 132.019C212.551 130.819 213.624 129.708 214.588 128.537C215.008 128.026 215.381 127.456 215.707 126.886C215.91 126.525 215.987 126.09 216.127 125.67C214.977 125.67 213.95 125.775 212.955 125.64C211.867 125.49 211.151 124.754 210.84 123.538C210.498 123.988 210.265 124.304 210.016 124.619C207.762 127.561 205.538 130.533 203.221 133.416C201.806 135.187 200.08 136.688 198.245 138.069C196.115 139.675 193.72 140.816 191.093 141.281C189.227 141.612 187.252 141.747 185.417 140.831C184.422 140.336 183.675 139.645 183.473 138.549C183.318 137.649 183.644 136.883 184.422 136.343C185.137 135.847 185.93 135.832 186.661 136.283C187.33 136.703 187.594 137.318 187.532 138.069C187.47 138.775 186.956 139.045 186.35 139.24C186.039 139.345 185.744 139.465 185.386 139.585C185.588 140.231 186.07 140.426 186.568 140.576C188.014 141.041 189.475 141.026 190.937 140.621C192.539 140.186 193.923 139.375 195.213 138.399C197.048 137.018 198.65 135.397 200.08 133.641C202.537 130.608 204.901 127.531 207.311 124.469C209.285 121.962 211.276 119.47 213.577 117.233C215.521 115.357 217.62 113.691 220.186 112.64C220.279 112.595 220.341 112.52 220.512 112.37C219.564 111.874 218.615 111.724 217.667 111.619C212.504 111.004 207.637 112.024 202.972 114.141C200.827 115.117 198.852 116.348 197.172 117.969C196.302 118.825 195.524 119.785 194.84 120.791C194.094 121.857 193.876 123.073 194.078 124.364C194.405 126.345 196.006 127.471 198.012 126.991C199.023 126.751 200.034 126.33 200.92 125.805C203.625 124.199 205.725 121.977 207.155 119.26C207.684 118.269 207.902 117.128 208.259 116.047C208.337 115.822 208.399 115.582 208.461 115.342C208.539 115.342 208.617 115.342 208.695 115.342C208.726 115.597 208.803 115.852 208.788 116.093C208.632 117.909 207.995 119.59 207.046 121.151C205.554 123.598 203.594 125.61 200.858 126.781C200.002 127.141 199.069 127.411 198.152 127.561C195.198 128.026 193.098 126.015 193.503 123.148C193.658 122.007 194.078 120.956 194.716 119.98C196.084 117.939 197.95 116.393 200.065 115.132C204.761 112.34 209.861 110.869 215.396 110.944C217.262 110.974 219.113 111.214 220.87 111.859C221.336 112.024 221.71 112.009 222.176 111.814C223.622 111.214 223.622 111.229 224.462 111.424C223.809 111.694 223.14 111.979 222.394 112.295C222.845 112.61 223.202 112.865 223.56 113.12C226.81 115.537 227.059 119.29 224.12 122.052C222.425 123.658 220.326 124.589 218.071 125.204C217.791 125.279 217.496 125.354 217.029 125.49L217.014 125.46ZM211.307 122.833C213.655 122.397 215.505 123.013 216.843 124.814C218.631 124.469 220.606 123.238 222.052 121.587C223.047 120.446 223.793 119.2 224.042 117.699C224.384 115.612 223.342 113.601 221.399 112.64C217.138 115.177 214.121 118.9 211.322 122.818L211.307 122.833ZM215.956 125.114C215.941 124.424 215.583 124.048 215.148 123.868C214.463 123.598 213.748 123.373 213.017 123.268C212.162 123.148 211.525 123.448 211.478 123.853C211.431 124.274 211.913 124.769 212.66 125.024C213.717 125.384 214.79 125.249 215.956 125.114Z" fill="black"/>
<path d="M67.1009 69.8141C67.0698 70.2645 67.0231 70.5947 67.0231 70.9099C67.0231 76.284 67.0231 81.673 67.0231 87.047C67.0231 87.8877 67.1164 88.7283 67.2719 89.5539C67.6762 91.7456 68.9668 93.1866 71.2993 93.637C72.6832 93.9072 74.0826 93.9672 75.4821 93.7271C78.11 93.2617 79.8204 91.4003 80.1936 88.6232C80.3024 87.8276 80.3491 87.017 80.3491 86.2214C80.3491 81.1776 80.3491 76.1188 80.3491 71.0751C80.3491 70.7148 80.318 70.3545 80.2869 69.8892H76.6638C76.6327 69.4989 76.6016 69.2437 76.5861 69.0035C76.726 68.9284 76.7882 68.8684 76.866 68.8684C79.5561 68.8684 82.2461 68.8384 84.9517 68.8384C85.6826 68.8384 85.6826 68.8834 85.5426 69.8441H81.7174C81.7174 70.3995 81.7174 70.8349 81.7174 71.2552C81.7174 76.4941 81.6863 81.718 81.6708 86.957C81.6708 88.278 81.4686 89.5839 80.9555 90.8149C80.3646 92.2259 79.4783 93.4118 78.0011 93.9973C73.8027 95.6785 69.6199 95.7686 65.4838 93.7271C63.8044 92.9014 62.8248 91.5654 62.4827 89.8091C62.2495 88.5932 62.0629 87.3473 62.0473 86.1164C61.9851 81.1776 62.0162 76.2389 62.0007 71.3002C62.0007 70.8649 62.0007 70.4446 62.0007 69.8742H58.1133V68.8984H70.9105V69.8441H67.1164L67.1009 69.8141Z" fill="black"/>
<path d="M201.631 93.5309C201.553 93.1857 201.538 92.9755 201.476 92.7804C200.869 91.0841 200.232 89.4028 199.672 87.6916C199.454 87.0611 199.112 86.8509 198.428 86.866C196.158 86.896 193.872 86.896 191.602 86.866C190.933 86.866 190.591 87.0461 190.373 87.6916C189.829 89.3578 189.192 91.0091 188.585 92.6603C188.507 92.8855 188.461 93.1407 188.367 93.5009H192.022C192.239 94.3866 192.224 94.5067 191.648 94.5067C189.083 94.5367 186.501 94.5067 183.951 94.5067C183.78 93.561 183.78 93.546 184.496 93.5159C185.024 93.4859 185.553 93.5159 186.082 93.5159C187.03 93.5159 187.046 93.5159 187.372 92.6303C188.538 89.538 189.705 86.4456 190.871 83.3533C192.659 78.6097 194.463 73.8662 196.251 69.1226C196.406 68.7023 196.5 68.312 197.122 68.282C197.806 68.252 198.039 68.5672 198.226 69.1226C199.205 71.9297 200.216 74.7218 201.211 77.5289C202.999 82.5427 204.788 87.5565 206.576 92.5852C206.669 92.8554 206.794 93.1257 206.965 93.5159H210.137C210.152 93.8762 210.168 94.1164 210.183 94.4016C209.919 94.4466 209.701 94.5217 209.484 94.5217C205.798 94.5217 202.129 94.5217 198.443 94.5217C197.604 94.5217 197.604 94.4917 197.728 93.5159H201.6L201.631 93.5309ZM198.77 85.7851C197.619 82.2425 196.469 78.8049 195.287 75.3973C195.194 75.3973 195.116 75.3973 195.023 75.3973C193.716 78.8199 192.41 82.2575 191.057 85.7851H198.77Z" fill="black"/>
<path d="M226.839 70.0983C227.445 69.5879 227.958 69.1526 228.487 68.7323C228.565 68.6723 228.705 68.7173 228.813 68.7023C229.171 69.3628 229.28 74.1814 228.969 75.9227C228.674 75.9377 228.347 75.9677 228.02 75.9827C227.927 75.7876 227.834 75.6675 227.803 75.5324C227.523 74.0613 226.963 72.7253 225.999 71.5544C224.506 69.7381 222.547 68.9725 220.184 69.2277C217.587 69.5129 215.721 71.7045 215.97 74.0913C216.094 75.2472 216.638 76.1028 217.758 76.5682C218.209 76.7633 218.675 76.9284 219.142 77.0786C220.837 77.604 222.531 78.1143 224.226 78.6247C224.693 78.7748 225.159 78.9249 225.61 79.1051C228.098 80.1258 229.715 81.8822 230.073 84.4941C230.26 85.8151 230.337 87.2262 230.089 88.5322C229 94.3265 223.433 96.1429 219.095 94.6868C218.069 94.3415 217.105 93.8161 216.063 93.3508C215.301 93.666 214.974 94.7468 213.933 94.8519C213.653 94.0113 213.575 88.5772 213.824 87.3012C214.695 87.1511 214.663 87.1661 214.943 87.8567C215.363 88.8774 215.721 89.9282 216.281 90.8739C217.664 93.1406 219.748 94.2965 222.516 94.1914C225.719 94.0713 228.207 91.5044 228.052 88.5021C227.974 87.1811 227.43 86.0853 226.263 85.3498C225.564 84.9144 224.817 84.5542 224.04 84.269C222.236 83.6085 220.386 83.0531 218.582 82.4076C215.876 81.4318 214.368 79.4954 213.995 76.7633C213.622 74.0163 214.29 71.5844 216.623 69.7831C219.048 67.9217 223.014 67.8016 225.844 69.4829C226.155 69.678 226.481 69.8581 226.854 70.0833L226.839 70.0983Z" fill="black"/>
</g>
<defs>
<clipPath id="clip0_1047_602">
<rect width="312.188" height="199.8" fill="white"/>
</clipPath>
</defs>
</svg>
