<svg width="21" height="56" viewBox="0 0 21 56" fill="none" xmlns="http://www.w3.org/2000/svg">
<g clip-path="url(#clip0_2006_13458)">
<path d="M1.84784 5.74816C3.3328 5.59967 4.81777 5.45117 6.36807 5.29376V0.568604C6.69774 0.598303 6.95315 0.622062 7.20857 0.645822C7.53526 0.678491 7.64514 0.838867 7.61248 1.18338C7.51447 2.24364 7.44913 3.30688 7.37785 4.36715C7.363 4.58989 7.37785 4.81264 7.37785 5.13636C8.91034 4.79779 10.3805 4.47109 11.8506 4.14737C12.0793 4.97895 12.0169 5.10666 11.2447 5.27297C10.0953 5.51948 8.943 5.7541 7.7877 5.97091C7.43725 6.03625 7.26796 6.16395 7.2739 6.55896C7.29469 7.86275 7.28281 9.16656 7.28281 10.5505C7.53526 10.4644 7.7283 10.405 7.91541 10.3367C9.80429 9.65065 11.7347 9.20219 13.7602 9.30614C16.0649 9.42197 17.7934 10.8564 18.1349 12.9176C18.5478 15.4034 17.2261 17.5982 14.9452 18.0763C13.588 18.3615 12.2248 18.1447 10.9002 17.7675C10.5319 17.6635 10.4814 17.3131 10.6567 16.6894C11.5625 16.8527 12.4564 17.0725 13.3652 17.1646C16.6529 17.5032 17.6449 14.7975 17.0658 12.6384C16.6916 11.2514 15.2719 10.2595 13.5642 10.1912C11.4764 10.108 9.50432 10.6426 7.60654 11.4623C7.44913 11.5306 7.30063 11.8336 7.3036 12.0296C7.30657 13.3601 7.36894 14.6906 7.37191 16.0212C7.37191 16.529 7.33627 17.0547 7.19966 17.5388C6.98879 18.305 6.35619 18.6733 5.57213 18.5456C4.46138 18.3644 3.47239 17.9071 2.66457 17.0992C1.81814 16.2528 1.62806 15.2816 2.33491 14.3224C2.92295 13.5264 3.71593 12.8819 4.43465 12.1899C4.6366 11.9969 4.88905 11.8217 5.1504 11.7296C6.22849 11.3465 6.45123 10.5802 6.35026 9.51701C6.24928 8.46565 6.32947 7.39648 6.32947 6.2679C5.67905 6.35403 5.07021 6.44016 4.45841 6.51441C3.91194 6.58271 3.36547 6.64508 2.81604 6.69557C1.98743 6.77576 1.85972 6.64805 1.85081 5.75113L1.84784 5.74816ZM6.35026 12.0088C5.64935 12.4869 5.04942 12.8225 4.5386 13.2621C4.02777 13.7016 3.55852 14.2095 3.16649 14.756C2.80713 15.2549 2.8101 15.8341 3.24668 16.333C3.86442 17.0398 4.67224 17.3665 5.58698 17.4645C6.05623 17.515 6.33541 17.2745 6.34432 16.826C6.3651 15.2787 6.35322 13.7284 6.35322 12.0088H6.35026Z" fill="white"/>
<path d="M4.74655 35.6554C3.39821 36.7305 2.12411 37.7433 0.847035 38.759C0.603501 38.4442 0.431245 38.2185 0.235229 37.9631C3.55264 35.7772 6.41566 32.9825 8.39957 29.2136H0.460944V28.2544H4.75249V23.9688C5.22768 24.0044 5.62565 24.0341 5.87513 24.0519C5.82167 24.7409 5.75336 25.3349 5.73257 25.9289C5.70881 26.6654 5.72663 27.405 5.72663 28.1534C7.08389 28.4415 8.49758 27.898 9.93205 28.5811C8.61638 30.559 7.38385 32.4123 6.11272 34.3219C7.33633 35.2426 8.66389 36.2405 10.0182 37.2592C9.8192 37.5473 9.66179 37.776 9.47766 38.0433C8.25107 37.078 7.05419 36.1336 5.74445 35.103V44.4821H4.74358V35.6525L4.74655 35.6554Z" fill="white"/>
<path d="M11.3579 23.9805C11.7944 24.0102 12.1776 24.0339 12.6735 24.0666C12.038 24.7972 12.2696 25.5694 12.2696 26.294C12.2518 31.4469 12.2607 36.5997 12.2607 41.7496C12.2607 42.9613 12.4656 43.1662 13.6863 43.1692C15.2039 43.1692 16.7245 43.1692 18.2422 43.1692C19.0975 43.1692 19.4361 42.9583 19.5757 42.1C19.7449 41.0516 19.7954 39.9854 19.8964 38.9281C19.9083 38.8182 19.9172 38.7084 19.9291 38.5925C20.8349 38.8747 20.8646 38.8776 20.7904 39.7389C20.7102 40.7012 20.6181 41.6723 20.431 42.6168C20.2558 43.5048 19.6499 44.0899 18.7233 44.1047C16.772 44.1315 14.8149 44.1255 12.8636 44.0483C11.8895 44.0097 11.4588 43.484 11.3608 42.5099C11.3311 42.2277 11.3252 41.9396 11.3252 41.6545C11.3252 35.9879 11.3252 30.3242 11.3252 24.6576C11.3252 24.4527 11.343 24.2507 11.3549 23.9834L11.3579 23.9805Z" fill="white"/>
<path d="M2.37672 51.2622C3.6033 51.2622 4.57447 52.2274 4.58635 53.4629C4.59823 54.7103 3.61221 55.732 2.38266 55.7438C1.1442 55.7527 0.146301 54.7845 0.146301 53.5728C0.146301 52.275 1.11747 51.2652 2.37672 51.2622ZM3.75477 53.7035C3.75477 53.0739 3.59142 52.5007 3.12514 52.0522C2.39751 51.3543 1.37288 51.58 1.11153 52.5482C0.983822 53.0204 0.986792 53.5698 1.0848 54.051C1.263 54.9123 2.01439 55.4647 2.6945 55.3637C3.35383 55.2657 3.74586 54.6539 3.75477 53.7035Z" fill="white"/>
<path d="M16.5758 54.66C16.4629 54.8827 16.4302 55.0074 16.353 55.0936C15.6284 55.9103 14.1969 55.9608 13.4395 55.1649C12.7861 54.4758 12.7267 53.6383 12.9732 52.7651C13.199 51.9544 13.7692 51.4881 14.5681 51.3039C15.2839 51.1376 16.0739 51.4821 16.3263 52.0435C16.5283 52.4889 16.4065 52.6909 15.9254 52.685C15.3195 52.676 14.7107 52.6612 14.1048 52.6345C13.7662 52.6196 13.6237 52.7711 13.6088 53.1008C13.5791 53.8314 13.7603 54.4818 14.4077 54.8797C15.0314 55.2629 15.6729 55.2124 16.2669 54.758C16.3085 54.7283 16.3708 54.7223 16.5728 54.66H16.5758ZM15.5333 52.2662C15.5838 51.8474 15.3433 51.6752 15.0284 51.6336C14.5414 51.5683 14.182 51.794 13.8969 52.2662H15.5363H15.5333Z" fill="white"/>
<path d="M20.036 7.2359C18.2778 6.22909 16.5761 5.25495 14.8446 4.26597C15.0109 3.53536 15.1861 3.42548 15.9078 3.81157C17.2265 4.51544 18.5392 5.23713 19.8281 5.9915C20.6152 6.44887 20.6063 6.6033 20.0331 7.2359H20.036Z" fill="white"/>
<path d="M7.41064 51.6456C7.82643 51.4763 8.15907 51.3426 8.53328 51.1912C8.59565 51.4317 8.6402 51.607 8.68772 51.7941C9.04114 51.6277 9.37674 51.408 9.74204 51.3248C9.91133 51.2862 10.143 51.506 10.3449 51.6099C10.2469 51.7792 10.1757 51.9841 10.0361 52.1029C9.96182 52.1653 9.75689 52.097 9.62027 52.0554C9.10054 51.9099 8.69069 52.1504 8.66693 52.6939C8.63723 53.3949 8.64911 54.0987 8.70553 54.7967C8.72038 54.9719 8.96392 55.1441 9.13024 55.2837C9.22824 55.3669 9.38268 55.3847 9.51336 55.4322C9.50742 55.4827 9.50148 55.5362 9.49554 55.5867H7.14038C8.14719 55.1323 7.87098 54.3304 7.86504 53.6651C7.85613 53.0028 8.17986 52.2485 7.41361 51.6485L7.41064 51.6456Z" fill="white"/>
<path d="M19.1717 51.7019C19.6439 51.5148 19.9973 51.3753 20.4547 51.1941C20.4547 51.9692 20.4547 52.6434 20.4547 53.3176C20.4547 53.677 20.4547 54.0393 20.4547 54.3986C20.4517 54.8293 20.3805 55.2837 20.9002 55.5777H19.1479C20.0003 55.0788 19.6469 54.2888 19.6528 53.6502C19.6558 53.0147 19.9884 52.2781 19.1717 51.699V51.7019Z" fill="white"/>
<path d="M20.2142 49.136C20.3924 49.4805 20.5795 49.6765 20.5498 49.828C20.5171 49.9884 20.2766 50.1101 20.1281 50.2467C20.0004 50.0893 19.7806 49.9379 19.7747 49.7745C19.7687 49.6171 19.9826 49.4538 20.2172 49.136H20.2142Z" fill="white"/>
</g>
<defs>
<clipPath id="clip0_2006_13458">
<rect width="20.7539" height="55.1724" fill="white" transform="translate(0.14679 0.567871)"/>
</clipPath>
</defs>
</svg>
