<svg width="91" height="46" viewBox="0 0 91 46" fill="none" xmlns="http://www.w3.org/2000/svg">
<g clip-path="url(#clip0_2006_13470)">
<path d="M83.0027 25.1082C81.8937 25.9038 80.716 26.5789 79.4587 27.1093C79.0544 27.2799 78.5852 27.4449 78.2291 27.1297C77.836 26.7847 77.9528 26.2803 78.1067 25.8315C79.5477 21.6273 82.2608 18.7064 86.5967 17.4231C87.4721 17.6067 88.3715 17.616 89.2376 17.4824C90.0498 17.3582 89.907 17.6679 89.7142 18.1593C89.4861 18.7435 89.1448 19.2665 88.7294 19.7097C87.0715 21.4808 86.0867 23.6209 85.2448 25.8501C84.7626 27.126 85.1768 27.7002 86.4873 27.5729C86.7618 27.5469 87.0474 27.5822 87.2699 27.3689C87.639 27.3133 88.0062 27.2558 88.3752 27.2001C88.9316 27.3949 89.8217 26.9683 90.0294 27.6489C90.2427 28.3481 89.4286 28.7765 88.9854 29.2679C88.8203 29.4515 88.6348 29.6147 88.4568 29.7872C87.3997 30.8035 86.2852 31.7678 85.4154 32.964C84.6587 32.9362 85.1465 32.4429 85.2318 32.2834C85.8753 31.0742 86.8545 30.1396 87.8763 29.2512C88.0303 29.1177 88.2621 29.0639 88.3511 28.8488C88.429 28.6615 88.6664 28.4965 88.505 28.2683C88.3845 28.0996 88.1656 28.1497 87.9913 28.1738C87.0177 28.3073 86.0459 28.4557 85.0742 28.5966C84.49 28.5428 84.2508 28.7839 84.2915 29.3903C84.3305 29.9671 84.2749 30.5513 84.2619 31.1317C84.0115 31.2226 83.763 31.3135 83.3958 31.447C83.3958 30.7849 83.3699 30.1878 83.4032 29.5925C83.4311 29.0825 83.292 28.834 82.7337 28.9378C80.7809 29.3013 78.8263 29.6518 76.8735 30.0079C76.4024 29.93 76.1428 30.1136 75.9851 30.5828C74.3365 35.4862 71.818 39.8869 68.3297 43.7184C65.7333 46.0161 61.8759 46.2572 59.1516 43.9335C58.0371 42.984 57.1339 41.8601 56.4885 40.5379C55.5613 38.6425 55.7875 37.2517 57.3008 35.7755C58.3523 34.7499 59.6338 34.0693 60.9505 33.4499C61.225 33.3219 61.5421 33.2589 61.8314 32.8805C56.6072 32.4299 51.4702 31.9162 46.2961 32.0534C45.7156 31.8773 45.5691 32.3001 45.3744 32.6951C44.1745 35.1264 43.0599 37.5966 42.0288 40.1039C41.389 41.6617 40.6175 43.1787 40.2744 44.8496C39.9073 44.7996 39.9777 45.4116 39.503 45.2947C39.3676 44.4695 39.6124 43.6869 39.9369 42.9376C41.3538 39.657 42.7873 36.3819 44.2283 33.1124C44.7123 32.0126 44.7327 32.0201 43.5866 32.0404C37.2627 32.161 31.0705 33.1049 25.0525 35.0819C23.4706 35.6011 21.9573 36.2966 20.4385 36.9772C18.5005 37.847 16.5681 38.7853 14.0626 38.5554C19.0587 34.8834 24.5611 33.1661 30.3824 32.2537C31.4803 32.6524 32.5745 32.2352 33.626 32.0979C36.5932 31.7103 39.5623 31.5249 42.5481 31.4155C43.4104 31.3839 44.3544 31.5954 45.1518 31.0223C45.3373 30.5457 45.5227 30.0672 45.7193 29.5647C45.1685 29.4404 44.7531 29.7891 44.2765 29.8577C42.7799 30.0709 41.9157 29.3959 41.9843 27.9049C42.0845 25.7239 43.1063 23.8546 44.1115 21.9871C44.5491 21.1729 45.2427 20.5072 45.5283 19.5818C45.2372 19.8284 44.7754 19.7746 44.6066 20.1789C43.9798 20.331 43.7239 20.9059 43.34 21.3232C41.771 23.0238 40.4951 24.9896 38.6981 26.4843C38.4255 26.9312 37.9841 27.1797 37.5464 26.9238C37.1347 26.6827 37.3925 26.2117 37.4945 25.8297C37.871 24.4035 38.878 23.3131 39.5289 22.0334C39.6346 21.8239 39.7459 21.6885 39.5883 21.4826C39.7014 21.1915 40.2058 21.0116 39.7441 20.4311C39.6198 20.6166 39.5401 20.7891 39.4121 20.9152C37.578 22.7103 36.2427 25.0081 33.9431 26.3378C33.7781 26.4324 33.8893 26.6086 34.008 26.7217C33.7131 27.2613 33.1345 27.1872 32.6653 27.2892C32.4168 27.3429 32.2592 27.0295 32.3093 26.7532C32.3705 26.4212 32.4261 26.0744 32.5708 25.774C33.7354 23.3557 35.1467 21.0913 36.8566 19.0198C37.0865 18.7398 37.3146 18.4041 37.7727 18.5692C37.9081 19.0143 37.6373 19.3333 37.4185 19.6597C36.6859 20.752 35.9293 21.8276 35.2135 22.9292C34.8963 23.4169 34.492 23.888 34.492 24.5574C34.9946 24.5259 35.104 24.1309 35.3266 23.8639C36.226 23.5338 36.6767 22.7048 37.2553 22.0483C38.5386 20.5962 39.8201 19.1497 41.3612 17.9609C41.7302 17.6772 42.0974 17.2896 42.6519 17.5678C43.3678 18.0573 42.8096 18.5692 42.5815 18.9475C41.9992 19.9137 41.3093 20.8132 40.6528 21.733C40.2411 22.3098 39.8869 22.9106 39.6921 23.5968C39.6495 23.747 39.6087 23.9139 39.757 24.0104C39.9128 24.1105 40.0297 23.9492 40.1632 23.888C40.3987 23.7804 40.3115 23.4967 40.4766 23.3576C41.0274 23.2203 41.3 22.753 41.6412 22.3691C42.9821 20.8632 44.1523 19.1997 45.7156 17.8979C46.1996 17.4936 46.6781 17.0355 47.3828 17.0411C47.7556 17.6345 47.3328 18.1019 47.0954 18.5618C46.4463 19.8173 45.7138 21.0283 45.0758 22.2894C44.2264 23.9659 43.5681 25.7202 43.1972 27.5692C42.9876 28.6133 43.3826 28.9619 44.4267 28.7709C44.7809 28.706 45.1889 28.6634 45.5172 28.7765C46.0847 28.9731 46.0661 29.0269 46.2349 28.3926C47.2029 26.5436 48.3917 24.7707 49.0556 22.8179C49.4432 21.6755 49.8549 20.8503 50.7989 20.101C51.6519 19.4241 52.0544 18.2984 52.6163 17.3471C53.232 16.3085 53.9404 15.346 54.812 14.5096C55.0105 14.3186 55.1588 13.9644 55.5539 14.1239C55.4537 15.4239 54.5969 16.3456 53.92 17.3526C53.3729 18.1649 52.7962 18.9568 52.5069 19.9397C52.6868 19.834 52.8667 19.7264 53.0465 19.6207C53.9386 19.3648 54.8306 19.1107 55.7226 18.8548C57.401 18.9809 57.809 19.3258 57.8349 20.6444C57.8442 21.0802 57.7589 21.4975 57.6087 21.9092C57.3416 22.6343 57.0022 23.3223 56.4904 24.0141C57.2786 24.0326 57.3435 23.352 57.7348 23.0701C58.3356 23.224 58.7325 22.9718 59.1257 22.5119C60.4238 20.9968 61.7201 19.4723 63.545 18.534C64.335 18.1278 65.1492 17.8014 66.0189 17.6123C66.8961 17.6048 67.7733 17.7625 68.6524 17.6308C68.8916 17.5956 69.1957 17.4565 69.3552 17.6623C69.5537 17.9164 69.2829 18.1797 69.1753 18.4153C68.8285 19.1775 68.2944 19.8191 67.7733 20.4682C65.5627 23.2203 64.374 26.412 63.7546 29.8465C63.4059 30.3825 63.3725 31.0186 63.1964 31.6102C63.111 31.6046 63.0257 31.5972 62.9404 31.5917C62.9794 30.1859 62.8922 28.7672 63.2705 27.3893C63.5765 26.2766 63.9196 25.175 64.246 24.0679C64.5557 23.543 65.0249 23.1072 65.1306 22.4526C64.1996 23.5041 63.1352 24.4017 62.13 25.3623C61.1694 26.3953 59.8601 26.8533 58.6212 27.3893C57.9128 27.6953 57.4881 27.2762 57.5846 26.488C57.6513 25.9428 57.8034 25.4013 57.9722 24.8746C58.0871 24.5167 57.898 24.3386 57.6699 24.5C56.6109 25.2436 55.3313 25.4866 54.2205 26.1449C52.9835 26.8775 51.5945 27.3763 50.0849 27.2261C49.8419 27.202 49.5563 27.1612 49.5285 26.8496C49.5044 26.5807 49.7585 26.527 49.9532 26.4361C50.6245 26.1282 51.3051 25.8742 52.0414 25.7406C54.2464 25.3438 55.8061 24.1884 56.4125 21.9277C56.7482 20.6759 56.0249 19.8655 54.7286 20.0936C54.2075 20.1845 53.7105 20.331 53.2505 20.6055C52.7721 20.8911 52.2547 21.0672 51.7002 21.1284C50.8972 21.2471 50.9788 22.0297 50.6987 22.5175C49.1817 25.1676 47.7649 27.8715 46.3962 30.6013C46.157 31.078 46.1106 31.2875 46.7727 31.2986C49.2058 31.3431 51.639 31.332 54.074 31.4563C56.1937 31.5638 58.3153 31.6788 60.4368 31.7864C61.7925 31.855 63.1444 31.97 64.4982 32.0516C64.7375 32.0664 65.075 32.0627 64.6855 31.7048C65.8075 31.6918 66.8386 31.2523 67.8716 30.924C69.8819 30.2861 71.9367 29.8595 73.9878 29.4126C74.6165 29.2754 74.9911 29.0732 75.0913 28.324C75.2953 26.8051 75.6476 25.3048 75.9332 23.7971C75.9777 23.5653 76.1038 23.2852 75.8386 23.1239C75.5567 22.9514 75.4047 23.2723 75.2155 23.3854C74.8798 23.5857 74.5831 23.8546 74.2697 24.0938C73.9637 24.27 73.5038 24.2997 73.5705 24.8301C73.5705 24.8301 73.565 24.8338 73.5668 24.8338C72.8491 24.7299 72.443 25.0823 72.2483 25.7406C71.3359 26.6271 70.2565 27.2057 69.0047 27.4153C67.6287 27.6471 67.0093 26.9924 67.2707 25.6257C67.3227 25.3567 67.4098 25.0823 67.5434 24.843C68.7766 22.6195 69.9765 20.3718 71.6159 18.4097C72.0183 17.9275 72.4207 17.3712 73.17 17.3823C73.3684 18.0833 73.0327 18.6434 72.6748 19.1886C72.0313 20.1678 71.3544 21.1247 70.7294 22.1169C70.0748 23.1554 69.4609 24.2199 68.8415 25.2807C68.6709 25.5719 68.6412 25.9094 68.988 26.0819C69.2977 26.2358 69.5945 26.1616 69.689 25.7536C71.1819 25.1936 72.3503 24.1253 73.5984 23.1944C74.4088 22.5898 75.1654 21.9073 75.8553 21.1525C76.4784 20.4701 76.8401 19.6671 77.0552 18.7917C77.1943 18.228 77.4984 17.9331 78.0937 17.9757C78.2977 18.4876 78.2235 18.9994 78.0974 19.515C77.3742 22.4785 76.994 25.507 76.4469 28.5039C76.2967 29.3236 76.6435 29.1752 77.1016 28.8766C77.5337 28.9119 77.9639 28.9397 78.3441 28.6652C78.4591 28.7654 78.5666 28.8377 78.7484 28.8043C79.952 28.5855 81.1611 28.3926 82.3647 28.1701C82.8228 28.0848 83.3754 28.2813 83.7018 27.7621C83.7982 26.7161 84.1951 25.7592 84.5716 24.7948C84.7125 24.4351 84.961 24.0994 84.8535 23.6747L84.8423 23.697C84.9907 23.7136 85.0482 23.6376 85.0408 23.4985L85.0278 23.5171C85.2021 23.4948 85.178 23.3409 85.217 23.2296C85.2318 22.9496 85.727 22.8309 85.4543 22.3914C84.7237 23.2593 83.7908 23.8861 83.2067 24.8468L83.2196 24.8264C83.0249 24.8264 83.0101 24.9636 83.0064 25.1082H83.0027ZM59.2777 35.6067L59.3093 35.5807C59.1016 35.6327 58.8994 35.6902 58.9217 35.9702L58.9347 35.9609C57.2971 36.7417 56.6647 38.4144 57.3936 39.9908C57.757 40.7753 58.2466 41.4781 58.7566 42.1643C60.0659 43.9261 62.6363 44.8552 64.5891 44.297C65.8817 43.7963 67.1391 43.2436 68.1201 42.2088C69.7873 40.4489 71.0243 38.3885 72.2501 36.3207C73.1663 34.774 73.8098 33.1068 74.368 31.4062C74.5034 30.9926 74.6758 30.4344 73.8932 30.618C71.9868 31.0687 70.0321 31.3357 68.1943 32.059C67.9198 32.1424 67.5304 31.9143 67.3264 32.3854C68.326 32.4781 69.2477 32.6895 70.1471 32.9807C70.6182 33.1346 71.2023 33.2403 71.1689 33.9543C70.4995 34.5144 69.7261 34.3512 68.9676 34.2677C68.8193 34.251 68.58 34.2065 68.6746 34.0211C68.912 33.5556 68.5504 33.6038 68.3148 33.537C65.1102 32.6506 62.3006 33.6316 59.6524 35.3712C59.4725 35.3582 59.3352 35.4157 59.2815 35.6048L59.2777 35.6067ZM84.3138 19.8266C84.0876 19.7097 83.9707 19.7913 83.941 20.0324L83.9614 20.0176C83.7426 19.9582 83.6202 20.1214 83.4867 20.2364C82.0216 21.4919 80.7439 22.9014 79.9241 24.6743C79.811 24.9191 79.4624 25.2121 79.8222 25.468C80.1189 25.6794 80.397 25.4272 80.6307 25.2195C82.1143 24.3961 83.1621 23.0219 84.6402 22.128C85.4747 21.6236 86.0367 20.4163 86.8452 19.6244C87.0103 19.4631 87.1679 19.2072 87.0196 18.9549C86.8526 18.6712 86.5411 18.6749 86.274 18.738C85.9217 18.8196 85.5823 18.9661 85.2374 19.0848C84.9759 19.1033 84.7422 19.1645 84.6829 19.4723L84.6995 19.4575C84.4603 19.4668 84.2545 19.5113 84.3157 19.8303L84.3138 19.8266ZM62.9998 20.5888L63.0146 20.5758C61.0952 21.5272 60.1605 23.2834 59.3223 25.1138C59.2481 25.2751 59.198 25.5348 59.3927 25.6127C59.7006 25.7369 59.9936 25.6572 60.1141 25.2863C60.613 25.1602 60.9802 24.8152 61.3381 24.487C62.9293 23.0367 64.5075 21.5754 66.0727 20.0992C66.3453 19.8433 66.8238 19.5521 66.553 19.1163C66.2878 18.6934 65.7982 18.8492 65.3847 19.005C65.3012 19.0365 65.2104 19.0495 65.1232 19.0718C64.2998 19.4167 63.4504 19.7246 62.9979 20.5888H62.9998Z" fill="white"/>
<path d="M14.1125 3.49597C14.7152 2.76529 15.2938 2.0105 16.095 1.47454C16.4251 1.25385 16.7477 0.994217 17.191 1.14443C17.3152 1.98824 16.5567 2.41664 16.2748 3.07128C16.1135 3.44404 16.0912 3.64804 16.5901 3.62208C18.3797 3.53306 20.1174 4.01153 21.8903 4.10796C22.3428 4.13207 22.8065 4.03934 23.2534 4.09869C25.3527 4.3713 27.4446 4.70326 29.5588 4.83493C29.4568 5.38202 29.0265 5.13722 28.7465 5.13166C24.7259 5.0686 20.7109 4.75519 16.6884 4.8813C16.2897 4.89428 15.8947 4.95177 15.4978 4.98701C15.1603 4.90726 14.9136 4.99813 14.7133 5.30598C14.348 5.86976 13.9344 6.40386 13.5635 6.96393C8.9773 13.8794 5.07352 21.1418 2.36407 29.0086C2.08403 29.8228 1.80771 30.6425 1.74651 31.5122C1.2903 31.6068 1.50728 32.2707 0.962048 32.382C0.79514 31.5642 1.00099 30.7927 1.18459 30.0379C2.14338 26.1323 3.68263 22.4418 5.41661 18.8292C6.24373 17.1063 7.08383 15.3872 7.99625 13.707C9.38344 11.1533 10.7984 8.61445 12.4601 6.22397C12.6641 5.9291 12.7846 5.57674 12.9923 5.15206C11.2639 5.28373 9.66161 5.56376 8.05189 5.80485C7.19139 5.93281 6.253 6.39273 5.55756 5.34122C5.34614 5.02224 4.85469 5.24293 4.49677 5.17246C4.28906 5.13166 4.02016 5.15948 3.97194 4.89613C3.92743 4.64948 4.13143 4.44919 4.33913 4.43621C5.01418 4.39541 5.48894 3.90211 6.09537 3.71666C6.42176 3.98371 6.80565 3.85575 7.15615 3.84462C8.96617 3.78898 10.7762 3.7148 12.5862 3.62579C13.0962 3.59982 13.6229 3.74818 14.1143 3.49782L14.1125 3.49597Z" fill="white"/>
<path d="M14.5814 29.9967C14.3792 30.5809 14.1771 31.1632 13.9731 31.7474C13.8729 30.2656 13.8006 28.8376 14.2197 27.3781C14.5406 26.2617 15.0673 25.2213 15.3028 24.0845C15.6218 23.6561 15.9203 23.2147 16.1206 22.5174C15.0413 23.504 14.2754 24.5648 13.1534 25.2324C12.9791 25.3363 12.801 25.5014 12.942 25.761V25.7591C12.6211 25.659 12.495 25.8834 12.3652 26.1022C11.5659 26.7012 10.7518 27.2724 9.78372 27.5747C8.74704 27.8993 8.17956 27.4338 8.47072 26.3934C9.23664 23.6542 10.7481 21.427 13.0959 19.7653C14.1029 19.0513 15.1377 18.4375 16.2894 17.9831C17.1721 17.6345 18.0493 17.4768 18.984 17.5844C19.0545 17.6734 19.1138 17.8292 19.1954 17.8422C20.4398 18.0462 20.4584 18.074 19.7277 19.2182C19.4625 19.6318 19.201 20.0639 18.8598 20.4107C17.7415 21.5457 17.0164 22.9217 16.4007 24.3553C15.618 26.1745 14.841 28.0031 14.5832 29.993L14.5814 29.9967ZM13.8618 20.9374C13.5966 20.7538 13.5113 20.8836 13.4983 21.1451L13.515 21.1321C11.896 22.1428 10.9447 23.6821 10.188 25.3697C10.1157 25.531 10.0934 25.7832 10.3086 25.8463C10.5886 25.9279 10.8612 25.8537 10.9688 25.518C11.0874 25.4976 11.2395 25.5162 11.3211 25.4494C13.4019 23.7544 15.2694 21.8294 17.2296 20.0008C17.4244 19.8191 17.6395 19.5669 17.4336 19.2702C17.2408 18.9938 16.9329 19.0958 16.664 19.1274C15.8387 19.2238 15.3009 19.8914 14.5777 20.19C14.3347 20.3105 13.9583 20.305 14.0565 20.7445H14.0528C13.9879 20.7445 13.9212 20.7389 13.8563 20.7371C13.8581 20.8038 13.8618 20.8688 13.8637 20.9355L13.8618 20.9374Z" fill="white"/>
<path d="M26.5009 25.77C25.7535 26.5007 24.9004 27.0274 23.8841 27.3315C22.8493 27.6412 22.3393 27.3185 22.5359 26.2559C22.9105 24.2289 24.0677 22.6081 25.3956 21.0855C26.7865 19.4906 28.5186 18.4317 30.4881 17.7307C30.7848 17.6249 31.1094 17.5897 31.4191 17.5229C32.1275 17.7455 32.8489 17.8753 33.587 17.7232C33.7854 17.6824 33.995 17.458 34.1601 17.6843C34.3084 17.8883 34.2472 18.1591 34.1322 18.3872C33.7984 19.0511 33.383 19.6612 32.8953 20.2213C30.4881 22.9827 29.4718 26.356 28.6725 29.824C28.1903 30.2635 28.4407 30.9998 27.9585 31.5357C27.6841 29.1916 28.1254 27.0422 29.0212 24.9633C29.177 24.5998 29.418 24.2623 29.3995 23.8395L29.3902 23.8895C29.6016 23.7968 29.5775 23.6039 29.5924 23.424C29.7203 23.0439 30.3472 22.9975 30.2915 22.4727C29.9967 22.3707 29.8038 22.5061 29.661 22.6526C28.7615 23.5724 27.9734 24.6072 26.8273 25.2637C26.6789 25.349 26.4471 25.4993 26.499 25.77H26.5009ZM28.6929 20.0136L28.7003 20.0062C28.5316 19.9616 28.4185 19.9765 28.5075 20.1953C28.4574 20.1712 28.3832 20.1137 28.361 20.1304C26.5973 21.3729 25.2583 22.9771 24.3292 24.9206C24.2254 25.1358 24.1048 25.4232 24.37 25.5846C24.6408 25.7478 24.8837 25.5716 25.0747 25.3527C27.4393 23.7226 29.3402 21.5769 31.4228 19.6334C31.8271 19.2551 31.636 18.9046 31.0426 18.8823C30.2563 18.8508 29.6981 19.3923 29.036 19.6761C28.9767 19.7261 28.9173 19.7743 28.8598 19.8244L28.8858 19.8151C28.7393 19.8022 28.6373 19.83 28.6948 20.0136H28.6929Z" fill="white"/>
<path d="M17.9455 33.5337C17.7397 33.9324 17.5357 34.3311 17.2445 34.8986C17.0776 34.1809 17.1462 33.6394 17.2593 33.0942C18.6632 26.3289 21.2429 20.0439 24.8684 14.1613C26.0164 12.2975 27.2051 10.4671 28.6239 8.82216C30.0407 7.18091 31.2295 5.29301 33.1303 4.11353C33.8462 3.66844 34.5175 3.08983 35.4429 3.1195C35.4096 3.66103 34.9367 3.88542 34.6362 4.23593C34.1744 4.77559 33.453 5.06119 33.1545 5.75664L33.1674 5.74551C31.9787 6.32227 31.1757 7.34782 30.3263 8.28992C26.9325 12.0602 24.3733 16.3552 22.4001 21.0231C20.6717 25.1086 19.0805 29.2368 17.9474 33.5318L17.9455 33.5337Z" fill="white"/>
<path d="M17.9454 33.5331C19.0767 29.2381 20.6679 25.108 22.3981 21.0244C24.3732 16.3584 26.9306 12.0615 30.3244 8.29123C31.1719 7.34913 31.9768 6.32358 33.1655 5.74683C33.1803 6.26609 32.6574 6.37736 32.394 6.63329C28.3085 10.6224 25.5379 15.459 23.2605 20.6201C21.584 24.4182 20.1078 28.2886 19.0081 32.298C18.8004 33.0584 18.4146 33.7705 17.9454 34.4734V33.5331Z" fill="white"/>
<path d="M1.74624 31.5105C1.80929 30.6407 2.08376 29.8229 2.3638 29.0069C5.07325 21.14 8.97702 13.8795 13.5596 6.96403C13.9305 6.40396 14.344 5.86986 14.7094 5.30608C14.9096 4.99823 15.1563 4.90736 15.4938 4.98711C9.64651 13.377 5.02133 22.3788 2.00217 32.2338C1.62755 31.9426 1.78519 31.7108 1.74624 31.5105Z" fill="white"/>
<path d="M64.679 31.705C65.0685 32.0629 64.731 32.0648 64.4917 32.0518C63.1379 31.9702 61.7841 31.8552 60.4303 31.7866C58.3087 31.679 56.189 31.5641 54.0674 31.4565C51.6325 31.3322 49.1993 31.3434 46.7662 31.2989C46.1023 31.2877 46.1505 31.0763 46.3897 30.6016C47.7584 27.8717 49.1752 25.1678 50.6922 22.5177C50.9722 22.03 50.8906 21.2474 51.6937 21.1287C51.7549 21.6053 51.5898 22.0021 51.3635 22.4231C49.9281 25.0881 48.5335 27.7771 47.1037 30.4458C46.8218 30.9725 47.0611 30.9984 47.4765 30.9521L47.495 30.9984L47.5136 30.9502C48.9007 30.9706 50.2898 30.9651 51.677 31.0188C54.2344 31.1171 56.7899 31.2395 59.3436 31.438C60.5286 31.5307 61.7378 31.4954 62.9339 31.59C63.0192 31.5956 63.1045 31.603 63.1898 31.6086C63.6869 31.6401 64.182 31.6716 64.679 31.7032V31.705Z" fill="white"/>
<path d="M63.7491 29.8467C64.3685 26.4121 65.5572 23.2186 67.7678 20.4684C68.289 19.8193 68.8231 19.1795 69.1699 18.4154C69.2774 18.1799 69.5482 17.9166 69.3497 17.6625C69.1884 17.4566 68.8861 17.5957 68.6469 17.631C67.7678 17.7626 66.8906 17.6069 66.0135 17.6124C67.2708 16.9837 68.6413 17.5753 69.9376 17.2489C70.3122 17.1544 70.2566 17.5512 70.1361 17.7664C69.8078 18.3579 69.5352 19.0126 69.0864 19.5003C66.8406 21.9353 65.7408 24.9304 64.8247 28.02C64.5076 29.0919 64.2405 30.1787 63.7509 31.2358V29.8449L63.7491 29.8467Z" fill="white"/>
<path d="M28.6759 29.8244C29.4752 26.3565 30.4915 22.9831 32.8987 20.2217C33.3864 19.6616 33.8018 19.0515 34.1356 18.3876C34.2506 18.1613 34.3099 17.8887 34.1634 17.6847C33.9984 17.4566 33.7888 17.6829 33.5904 17.7237C32.8523 17.8776 32.1309 17.7459 31.4225 17.5234C32.5315 17.0097 33.7221 17.6179 34.8589 17.2674C35.2502 17.1469 35.1723 17.5271 35.0759 17.757C34.8144 18.3857 34.4954 19.0014 34.0373 19.4947C31.645 22.0651 30.5657 25.2697 29.6106 28.5374C29.3472 29.435 29.1303 30.3474 28.6759 31.2246V29.8244Z" fill="white"/>
<path d="M46.2327 28.3947C46.0639 29.0289 46.0825 28.9751 45.515 28.7786C45.1886 28.6654 44.7788 28.7081 44.4245 28.773C43.3804 28.964 42.9854 28.6154 43.195 27.5713C43.5659 25.7223 44.2243 23.9679 45.0736 22.2914C45.7116 21.0304 46.4441 19.8194 47.0932 18.5639C47.3306 18.1039 47.7534 17.6366 47.3807 17.0431C47.631 16.815 47.9277 16.5313 48.2449 16.7983C48.5212 17.0302 48.3153 17.3918 48.1781 17.6514C47.4789 18.9793 46.7204 20.2774 46.0454 21.6183C45.1626 23.3745 44.3837 25.1789 44.0351 27.1318C43.8088 28.4021 44.0499 28.6321 45.3147 28.4522C45.617 28.4095 45.9249 28.4114 46.229 28.3928L46.2327 28.3947Z" fill="white"/>
<path d="M40.2745 44.8534C40.6157 43.1825 41.3872 41.6674 42.0289 40.1077C43.0581 37.6023 44.1727 35.1302 45.3744 32.6989C45.5692 32.3039 45.7157 31.8811 46.2961 32.0572C44.4361 36.0259 42.6594 40.0298 41.0738 44.1154C40.9533 44.4251 40.7715 44.7218 40.5694 44.9851C40.4136 45.1873 40.3301 44.9981 40.2764 44.8516L40.2745 44.8534Z" fill="white"/>
<path d="M68.3312 43.7227C71.8214 39.8912 74.338 35.4905 75.9867 30.5871C76.1443 30.1179 76.4039 29.9343 76.875 30.0122C75.4804 34.426 73.2308 38.3798 70.3767 41.9943C69.8259 42.6916 69.3048 43.4946 68.3312 43.7227Z" fill="white"/>
<path d="M14.5817 29.9969C14.8394 28.0052 15.6183 26.1785 16.3991 24.3592C17.0148 22.9256 17.7399 21.5496 18.8582 20.4146C19.1994 20.0678 19.4628 19.6376 19.7261 19.2221C20.4568 18.0779 20.4383 18.0501 19.1939 17.8461C19.1123 17.8331 19.0529 17.6773 18.9825 17.5883C19.5332 17.5605 20.0915 17.5679 20.6367 17.4919C21.1856 17.4158 21.1356 17.668 20.9946 18.0148C20.6905 18.7622 20.2713 19.4465 19.7187 20.0326C18.0923 21.7536 17.1761 23.8677 16.3972 26.0468C15.8854 27.4785 15.4551 28.9417 15.0045 30.3938C14.9414 30.5959 15.1399 30.9687 14.7282 30.9131C14.437 30.8741 14.6113 30.5551 14.5742 30.3641C14.552 30.2454 14.578 30.1193 14.5817 29.9969Z" fill="white"/>
<path d="M77.0977 28.8748C76.6396 29.1734 76.2928 29.3199 76.443 28.5021C76.9901 25.5052 77.3703 22.4767 78.0936 19.5132C78.2197 18.9976 78.292 18.4876 78.0899 17.9739C78.2642 17.731 78.4571 17.5363 78.7686 17.7755C79.0357 17.9814 79.0895 18.2095 79.0171 18.5729C78.3514 21.9408 77.7208 25.316 77.0829 28.6894C77.0717 28.7469 77.0921 28.8118 77.0995 28.873L77.0977 28.8748Z" fill="white"/>
<path d="M87.2713 27.3709C87.0488 27.5842 86.7613 27.549 86.4887 27.5749C85.1769 27.701 84.7628 27.1268 85.2462 25.8521C86.0881 23.6248 87.0729 21.4828 88.7308 19.7118C89.1462 19.2685 89.4875 18.7437 89.7156 18.1614C89.9084 17.6699 90.0494 17.3602 89.239 17.4845C88.3729 17.618 87.4753 17.6087 86.5981 17.4251C87.0692 17.0672 87.7145 17.2193 88.1133 17.2935C88.8588 17.4307 89.4893 17.2026 90.1607 17.1099C90.6781 17.0375 90.7912 17.1803 90.6057 17.631C90.3331 18.2875 89.9919 18.9199 89.5097 19.4354C87.416 21.6757 86.3682 24.4408 85.4594 27.3023C86.0622 27.7047 86.6908 26.9982 87.2732 27.3728L87.2713 27.3709Z" fill="white"/>
<path d="M29.5569 4.83466C27.4409 4.70485 25.349 4.37289 23.2515 4.09842C22.8046 4.04093 22.3428 4.1318 21.8884 4.10769C20.1155 4.01126 18.3778 3.53279 16.5882 3.62181C16.0893 3.64591 16.1134 3.44377 16.2729 3.07101C16.5548 2.41637 17.3133 1.98797 17.1891 1.14416C17.4394 0.92533 17.7732 0.576679 18.0347 0.828894C18.3203 1.10151 17.9068 1.42791 17.751 1.70423C17.4839 2.1827 16.8274 2.70196 17.0147 3.10439C17.2206 3.54577 18.0143 3.2713 18.5484 3.31396C20.6681 3.48643 22.7804 3.71639 24.8909 3.99642C26.5822 4.21896 28.2865 4.39514 29.9834 4.59358C30.1188 4.61027 30.3042 4.56947 30.3376 4.83281C30.0928 5.2 29.8017 4.65292 29.5532 4.83652L29.5569 4.83466Z" fill="white"/>
<path d="M69.6848 25.7518C69.5902 26.1598 69.2916 26.234 68.9838 26.0801C68.637 25.9076 68.6667 25.5701 68.8373 25.2789C69.4567 24.2181 70.0705 23.1537 70.7252 22.1151C71.3502 21.1248 72.0271 20.166 72.6706 19.1868C73.0285 18.6416 73.3623 18.0815 73.1657 17.3805C73.4031 17.1895 73.6683 16.9076 73.965 17.1506C74.2506 17.3842 74.0559 17.7218 73.9354 17.9999C73.4588 19.1108 72.6446 20.0102 72.0141 21.0247C71.2686 22.2227 70.4822 23.3947 69.9129 24.6929C69.7683 25.0249 69.5643 25.355 69.6848 25.7481V25.7518Z" fill="white"/>
<path d="M57.7291 23.0723C57.3378 23.3542 57.2729 24.0348 56.4847 24.0163C56.9984 23.3246 57.3359 22.6347 57.603 21.9114C57.755 21.5016 57.8385 21.0843 57.8292 20.6466C57.8033 19.3299 57.3934 18.9831 55.7169 18.857C56.5626 18.5028 57.4694 18.3452 58.176 19.0035C58.9104 19.6878 58.7472 20.6262 58.4338 21.4886C58.2372 22.0301 57.9665 22.5457 57.7272 23.0723H57.7291Z" fill="white"/>
<path d="M45.1494 31.03C44.352 31.6031 43.408 31.3917 42.5457 31.4232C39.5599 31.5345 36.5908 31.7181 33.6236 32.1057C32.5721 32.2429 31.4779 32.6602 30.38 32.2614C34.3802 31.6216 38.4064 31.247 42.453 31.0912C42.6013 31.0875 42.7497 31.0838 42.898 31.082C43.1799 31.0745 43.46 31.0653 43.7418 31.0578C43.842 31.0541 43.9421 31.0486 44.0423 31.0449L45.1494 31.0319V31.03Z" fill="white"/>
<path d="M40.4764 23.3599C40.3113 23.499 40.3985 23.7827 40.163 23.8903C40.0295 23.9515 39.9126 24.1128 39.7568 24.0127C39.6085 23.9181 39.6493 23.7493 39.6919 23.5991C39.8867 22.913 40.2427 22.3121 40.6526 21.7353C41.3091 20.8155 41.999 19.9142 42.5813 18.9498C42.8094 18.5715 43.3676 18.0597 42.6518 17.5701C42.7723 17.1268 43.0876 16.9655 43.4733 17.1565C43.9184 17.3772 43.7515 17.813 43.605 18.1172C43.0227 19.33 42.1918 20.389 41.4204 21.4831C41.0105 22.0636 40.6248 22.6496 40.4783 23.3599H40.4764Z" fill="white"/>
<path d="M53.0428 19.6226C52.8629 19.7283 52.683 19.8359 52.5031 19.9416C52.7924 18.9587 53.3711 18.1668 53.9163 17.3546C54.595 16.3475 55.45 15.4259 55.5501 14.1258C55.8895 14.0943 55.9785 13.5769 56.4829 13.6863C55.8932 16.0156 54.1036 17.6123 53.041 19.6208L53.0428 19.6226Z" fill="white"/>
<path d="M85.4171 32.9657C86.2887 31.7696 87.4015 30.8071 88.4585 29.789C88.6366 29.6183 88.822 29.4533 88.9871 29.2697C89.4303 28.7782 90.2444 28.3498 90.0312 27.6507C89.8235 26.9701 88.9333 27.3948 88.3769 27.2019C88.4103 27.1537 88.4418 27.0628 88.4771 27.0628C89.2856 27.0461 90.4132 26.5676 90.8082 27.2761C91.2218 28.016 90.1387 28.565 89.6158 29.1121C88.3862 30.3991 87.0231 31.5563 85.8919 32.9398C85.7509 33.1123 85.6007 33.4238 85.4171 32.9657Z" fill="white"/>
<path d="M35.3249 23.8658C35.1023 24.1328 34.9929 24.5297 34.4904 24.5593C34.4904 23.8917 34.8946 23.4188 35.2118 22.9311C35.9276 21.8276 36.6843 20.7539 37.4168 19.6616C37.6356 19.3352 37.9082 19.0162 37.771 18.5711C38.0288 18.4376 38.2625 18.0055 38.5443 18.2354C38.8856 18.5136 38.5202 18.8493 38.357 19.1126C37.3741 20.7149 36.1464 22.1596 35.323 23.8658H35.3249Z" fill="white"/>
<path d="M38.6964 26.4902C40.4934 24.9936 41.7694 23.0297 43.3383 21.3291C43.724 20.9118 43.9781 20.3387 44.6049 20.1848C44.5901 20.2998 44.6198 20.4537 44.5567 20.5242C42.9321 22.299 41.5728 24.3056 39.8017 25.9487C39.4957 26.2324 39.212 26.6089 38.6983 26.4902H38.6964Z" fill="white"/>
<path d="M34.0058 26.7239C33.8871 26.6108 33.7759 26.4346 33.9409 26.34C36.2405 25.0103 37.5758 22.7126 39.4099 20.9174C39.5379 20.7931 39.6158 20.6188 39.7419 20.4333C40.2036 21.0138 39.6992 21.1956 39.5861 21.4849C38.6755 22.0579 38.1025 22.9685 37.3699 23.7196C36.3184 24.7989 35.4338 26.0637 34.0058 26.722V26.7239Z" fill="white"/>
<path d="M14.1128 3.4959C13.6214 3.74626 13.0947 3.59975 12.5847 3.62386C10.7747 3.71288 8.96467 3.78706 7.15466 3.8427C6.8023 3.85382 6.41841 3.98364 6.09387 3.71474C8.75882 3.3327 11.4312 3.24183 14.1128 3.49405V3.4959Z" fill="white"/>
<path d="M26.5012 25.7702C26.4511 25.4994 26.683 25.3492 26.8295 25.2639C27.9774 24.6074 28.7656 23.5725 29.6632 22.6527C29.806 22.5062 29.9988 22.3708 30.2937 22.4728C30.3494 22.9958 29.7225 23.0421 29.5946 23.4223C29.5241 23.5763 29.194 23.6152 29.3924 23.8878L29.4017 23.8377C28.6951 24.1141 28.289 24.7798 27.6751 25.1767C27.3042 25.4178 27.0112 25.8091 26.4975 25.7664L26.5012 25.7702Z" fill="white"/>
<path d="M33.1525 5.75836C33.451 5.06106 34.1725 4.77731 34.6342 4.23765C34.9347 3.88714 35.4076 3.66275 35.4409 3.12123C35.6227 2.76145 35.9361 2.75218 36.4535 2.77443C35.4335 4.00398 34.4284 5.02397 33.1525 5.75836Z" fill="white"/>
<path d="M12.9408 25.7626C12.7998 25.503 12.9779 25.3361 13.1522 25.2341C14.2742 24.5664 15.0401 23.5056 16.1194 22.519C15.921 23.2163 15.6224 23.6577 15.3016 24.0861C14.391 24.4719 13.907 25.4566 12.9389 25.7626H12.9408Z" fill="white"/>
<path d="M83.6977 27.7625C83.3694 28.2836 82.8186 28.087 82.3606 28.1704C81.157 28.393 79.9478 28.5859 78.7443 28.8047C78.5625 28.8381 78.4549 28.7658 78.34 28.6656C80.1259 28.3652 81.9118 28.0647 83.6977 27.7643V27.7625Z" fill="white"/>
<path d="M84.2638 31.1355C84.2768 30.555 84.3324 29.9708 84.2935 29.3941C84.2527 28.7876 84.4919 28.5465 85.0761 28.6003C84.7386 29.4256 84.8795 30.4011 84.2638 31.1355Z" fill="white"/>
<path d="M83.2004 24.8467C83.7846 23.8861 84.7192 23.2593 85.4481 22.3914C85.7207 22.8309 85.2255 22.9477 85.2107 23.2296C85.1476 23.326 85.0846 23.4206 85.0215 23.5171L85.0345 23.4985C84.9102 23.5059 84.8435 23.5727 84.8361 23.6969L84.8472 23.6747C84.2333 23.9751 83.9366 24.7188 83.2004 24.8467Z" fill="white"/>
<path d="M72.2423 25.7385C72.437 25.0802 72.8432 24.7278 73.5609 24.8317C73.1992 25.2471 72.8358 25.6607 72.2423 25.7385Z" fill="white"/>
<path d="M73.5652 24.8285C73.4984 24.2981 73.9583 24.2685 74.2643 24.0923C74.2346 24.53 73.9064 24.6857 73.5652 24.8285Z" fill="white"/>
<path d="M12.3634 26.1039C12.4932 25.8832 12.6212 25.6606 12.9402 25.7608C12.8307 26.0148 12.6583 26.1632 12.3634 26.1039Z" fill="white"/>
<path d="M42.9003 31.0798C42.7519 31.0835 42.6036 31.0854 42.4552 31.0891C42.6017 31.0149 42.7501 30.9982 42.9003 31.0798Z" fill="white"/>
<path d="M44.0429 31.043C43.9427 31.0467 43.8426 31.0523 43.7424 31.056C43.8389 30.941 43.9372 30.9428 44.0429 31.043Z" fill="white"/>
<path d="M83.0021 25.1088C83.0058 24.9641 83.0188 24.8269 83.2153 24.8269C83.3044 25.0402 83.1208 25.0494 83.0021 25.1088Z" fill="white"/>
<path d="M58.9353 35.9609C58.9946 36.0388 58.9983 36.1 58.9297 36.189C57.5221 38.0046 57.5277 38.7131 58.7369 40.6733C60.0944 42.8727 61.9582 44.1876 64.5897 44.297C62.6369 44.8552 60.0665 43.9261 58.7573 42.1643C58.2473 41.4781 57.7558 40.7771 57.3942 39.9908C56.6672 38.4163 57.2977 36.7417 58.9353 35.9609Z" fill="white"/>
<path d="M83.9606 20.0158C83.3468 21.0154 82.2953 21.6496 81.7167 22.6733C81.2623 23.4782 80.5094 24.1643 80.6299 25.2177C80.3962 25.4254 80.1181 25.6776 79.8213 25.4662C79.4616 25.2103 79.8083 24.9173 79.9233 24.6725C80.743 22.9014 82.0208 21.4901 83.4859 20.2346C83.6194 20.1196 83.7418 19.9564 83.9606 20.0158Z" fill="white"/>
<path d="M63.0151 20.5758C62.7221 21.3121 61.9969 21.6978 61.5871 22.3413C60.9918 23.2723 60.135 24.0679 60.1164 25.2845C59.9959 25.6572 59.7047 25.7351 59.395 25.6109C59.2003 25.533 59.2504 25.2733 59.3246 25.112C60.1628 23.2816 61.0956 21.5253 63.0169 20.574L63.0151 20.5758Z" fill="white"/>
<path d="M68.1922 32.0593C69.2103 32.2707 70.2655 32.3301 71.2336 32.7566C71.5674 32.9031 72.0329 33.02 72.0199 33.4298C72.0069 33.8823 71.5192 33.8823 71.1631 33.9565C71.1965 33.2425 70.6142 33.1368 70.1431 32.9829C69.2437 32.6917 68.3201 32.4784 67.3224 32.3876C67.5282 31.9165 67.9158 32.1446 68.1903 32.0612L68.1922 32.0593Z" fill="white"/>
<path d="M64.2413 24.0699C63.6905 24.1812 63.4253 24.6819 63.008 24.9749C62.7373 25.164 62.5221 25.4682 62.1234 25.3643C63.1304 24.4055 64.1949 23.508 65.1259 22.4546C65.0202 23.1092 64.551 23.545 64.2413 24.0699Z" fill="white"/>
<path d="M65.1256 19.0718C64.3931 19.5428 63.8534 20.2846 63.0003 20.5888C63.4528 19.7246 64.3022 19.4167 65.1256 19.0718Z" fill="white"/>
<path d="M85.2343 19.0833C85.1305 19.328 84.9951 19.5265 84.6798 19.4708C84.7392 19.163 84.9728 19.1037 85.2343 19.0833Z" fill="white"/>
<path d="M84.6977 19.4536C84.7348 19.7485 84.5141 19.7763 84.3138 19.8264C84.2526 19.5074 84.4585 19.4629 84.6977 19.4536Z" fill="white"/>
<path d="M59.3092 35.5808C59.4298 35.9591 59.2017 35.9907 58.9216 35.9703C58.8994 35.6902 59.1015 35.6327 59.3092 35.5808Z" fill="white"/>
<path d="M84.3133 19.8265C84.241 19.9897 84.1742 20.164 83.9406 20.0323C83.9702 19.7912 84.0871 19.7115 84.3133 19.8265Z" fill="white"/>
<path d="M59.6484 35.3736C59.6057 35.5795 59.5649 35.789 59.2775 35.6073C59.3312 35.42 59.4685 35.3625 59.6484 35.3736Z" fill="white"/>
<path d="M13.5147 21.1345C13.0622 22.1452 12.0718 22.7684 11.6101 23.7735C11.3486 24.3391 10.8627 24.8213 10.9684 25.5205C10.8608 25.8561 10.5882 25.9303 10.3082 25.8487C10.0931 25.7857 10.1153 25.5335 10.1876 25.3721C10.9424 23.6845 11.8957 22.1471 13.5147 21.1345Z" fill="white"/>
<path d="M14.5763 20.1941C14.5225 20.4927 14.3166 20.6466 14.0551 20.7486C13.9568 20.3072 14.3352 20.3146 14.5763 20.1941Z" fill="white"/>
<path d="M13.8607 20.94C13.7884 21.0939 13.729 21.272 13.4972 21.1459C13.5083 20.8844 13.5955 20.7545 13.8607 20.94Z" fill="white"/>
<path d="M14.0512 20.7501C14.0512 20.8744 13.9863 20.9374 13.862 20.9374C13.8602 20.8707 13.8565 20.8058 13.8546 20.739C13.9195 20.7427 13.9863 20.7464 14.0512 20.7501Z" fill="white"/>
<path d="M28.51 20.1961C27.3992 21.3848 26.1974 22.4994 25.4464 23.9774C25.2294 24.4058 24.8937 24.812 25.0755 25.3535C24.8863 25.5723 24.6415 25.7485 24.3707 25.5853C24.1055 25.4258 24.2279 25.1384 24.3299 24.9214C25.259 22.9779 26.598 21.3737 28.3617 20.1312C28.3839 20.1145 28.4581 20.172 28.5082 20.1961H28.51Z" fill="white"/>
<path d="M29.0357 19.6765C29.0134 19.7692 28.9912 19.862 28.8595 19.8249C28.9188 19.7748 28.9782 19.7266 29.0357 19.6765Z" fill="white"/>
<path d="M28.6998 20.0088C28.7183 20.1553 28.6256 20.1905 28.5069 20.1979C28.4179 19.9791 28.531 19.9643 28.6998 20.0088Z" fill="white"/>
<path d="M28.884 19.8154C28.9174 19.9749 28.8302 20.0194 28.693 20.0138C28.6355 19.8321 28.7394 19.8024 28.884 19.8154Z" fill="white"/>
<path d="M47.4767 30.9518L47.5156 30.95L47.4952 30.9982L47.4767 30.9518Z" fill="white"/>
</g>
<defs>
<clipPath id="clip0_2006_13470">
<rect width="90" height="44.8257" fill="white" transform="translate(0.900665 0.741211)"/>
</clipPath>
</defs>
</svg>
