<svg width="238" height="118" viewBox="0 0 238 118" fill="none" xmlns="http://www.w3.org/2000/svg">
<g clip-path="url(#clip0_1047_503)">
<path d="M216.669 64.1442C213.749 66.2385 210.649 68.0155 207.339 69.4117C206.275 69.8608 205.04 70.2953 204.103 69.4654C203.068 68.5574 203.375 67.2295 203.78 66.0481C207.574 54.9809 214.716 47.2919 226.13 43.9136C228.434 44.3969 230.802 44.4214 233.081 44.0699C235.22 43.7428 234.844 44.558 234.336 45.8517C233.736 47.3895 232.837 48.7662 231.744 49.933C227.379 54.5952 224.787 60.2289 222.571 66.0969C221.301 69.4557 222.392 70.9674 225.842 70.6322C226.564 70.5638 227.316 70.6566 227.902 70.0952C228.873 69.9487 229.84 69.7974 230.811 69.6509C232.276 70.1635 234.619 69.0407 235.166 70.8323C235.727 72.6728 233.584 73.8005 232.418 75.0942C231.983 75.5775 231.495 76.0071 231.026 76.4612C228.244 79.1364 225.31 81.675 223.02 84.8238C221.028 84.7506 222.312 83.452 222.537 83.0322C224.231 79.8492 226.808 77.3887 229.498 75.0503C229.903 74.6988 230.514 74.5572 230.748 73.9909C230.953 73.4979 231.578 73.0634 231.153 72.4629C230.836 72.0186 230.26 72.1505 229.801 72.2139C227.238 72.5654 224.68 72.956 222.122 73.327C220.584 73.1854 219.954 73.8201 220.061 75.4164C220.164 76.9347 220.018 78.4725 219.983 80.0005C219.324 80.2397 218.67 80.4789 217.704 80.8304C217.704 79.0876 217.635 77.5156 217.723 75.9486C217.796 74.606 217.43 73.9519 215.961 74.2252C210.82 75.1821 205.675 76.1048 200.534 77.0421C199.294 76.8371 198.61 77.3204 198.196 78.5555C193.856 91.4632 187.226 103.048 178.043 113.134C171.208 119.183 161.054 119.817 153.883 113.7C150.949 111.201 148.571 108.242 146.872 104.761C144.431 99.7721 145.027 96.1107 149.011 92.2248C151.779 89.5251 155.152 87.7334 158.618 86.1029C159.341 85.766 160.175 85.6 160.937 84.6041C147.185 83.4178 133.662 82.0656 120.041 82.4268C118.513 81.963 118.128 83.0761 117.615 84.1159C114.457 90.5161 111.523 97.0188 108.808 103.619C107.124 107.72 105.093 111.713 104.19 116.112C103.223 115.98 103.409 117.591 102.159 117.283C101.803 115.111 102.447 113.051 103.301 111.079C107.031 102.443 110.805 93.8211 114.598 85.2144C115.872 82.3194 115.926 82.3389 112.909 82.3926C96.2618 82.71 79.9612 85.1948 64.1195 90.3989C59.9552 91.7659 55.9716 93.5966 51.9734 95.3882C46.8718 97.6778 41.7849 100.148 35.1895 99.5427C48.3412 89.8766 62.8258 85.3559 78.15 82.9541C81.0401 84.0037 83.9204 82.9052 86.6884 82.544C94.4994 81.5237 102.315 81.0355 110.175 80.7474C112.445 80.6645 114.93 81.221 117.029 79.7125C117.518 78.4578 118.006 77.1983 118.523 75.8753C117.073 75.5482 115.98 76.466 114.725 76.6467C110.785 77.2081 108.51 75.4311 108.691 71.506C108.955 65.7649 111.645 60.844 114.291 55.928C115.443 53.7848 117.269 52.0322 118.02 49.5962C117.254 50.2454 116.038 50.1039 115.594 51.1681C113.944 51.5684 113.27 53.0818 112.26 54.1802C108.13 58.6569 104.771 63.8317 100.04 67.7665C99.3227 68.9431 98.1609 69.5972 97.0087 68.9235C95.925 68.2889 96.6035 67.0489 96.872 66.0432C97.8631 62.289 100.514 59.4185 102.227 56.05C102.506 55.4983 102.799 55.142 102.384 54.6001C102.681 53.8336 104.009 53.3601 102.794 51.8321C102.467 52.3202 102.257 52.7743 101.92 53.1062C97.0917 57.8319 93.5768 63.8805 87.5232 67.3809C87.0887 67.6298 87.3817 68.0936 87.6941 68.3914C86.9179 69.812 85.3947 69.6168 84.1596 69.8853C83.5054 70.0268 83.0905 69.2018 83.2223 68.4744C83.3834 67.6005 83.5299 66.6876 83.9106 65.8968C86.9765 59.5308 90.6916 53.57 95.1927 48.1169C95.798 47.3798 96.3985 46.4962 97.6043 46.9306C97.9607 48.1023 97.2479 48.942 96.6719 49.8012C94.7435 52.6766 92.7517 55.5081 90.8673 58.408C90.0325 59.6919 88.9683 60.9319 88.9683 62.6942C90.2913 62.6113 90.5793 61.5714 91.1651 60.8684C93.5328 59.9994 94.7191 57.8172 96.2423 56.0891C99.6205 52.2665 102.994 48.4587 107.051 45.3294C108.022 44.5825 108.989 43.5621 110.449 44.2944C112.333 45.5832 110.864 46.9306 110.263 47.9265C108.73 50.47 106.914 52.8377 105.186 55.2591C104.102 56.7774 103.17 58.3591 102.657 60.1654C102.545 60.5609 102.437 61.0002 102.828 61.2541C103.238 61.5177 103.546 61.093 103.897 60.9319C104.517 60.6487 104.288 59.9018 104.722 59.5357C106.172 59.1744 106.89 57.9442 107.788 56.9336C111.318 52.9695 114.398 48.5905 118.513 45.1634C119.788 44.0992 121.047 42.8933 122.902 42.908C123.883 44.4702 122.77 45.7004 122.146 46.9111C120.437 50.2162 118.509 53.404 116.829 56.7237C114.593 61.1369 112.86 65.7552 111.884 70.6224C111.332 73.3709 112.372 74.2887 115.121 73.7859C116.053 73.615 117.127 73.5027 117.991 73.8005C119.485 74.318 119.436 74.4596 119.88 72.79C122.429 67.9227 125.558 63.2557 127.306 58.115C128.326 55.1078 129.41 52.9354 131.895 50.9631C134.14 49.1812 135.2 46.2179 136.679 43.7135C138.3 40.9796 140.165 38.4459 142.459 36.2442C142.981 35.7414 143.372 34.8089 144.412 35.2288C144.148 38.651 141.893 41.0773 140.111 43.7281C138.671 45.8664 137.152 47.951 136.391 50.5384C136.864 50.2601 137.338 49.9769 137.812 49.6987C140.16 49.025 142.508 48.3562 144.856 47.6825C149.274 48.0144 150.348 48.9225 150.417 52.3935C150.441 53.5407 150.216 54.6391 149.821 55.7229C149.118 57.6317 148.225 59.4429 146.877 61.2639C148.952 61.3127 149.123 59.521 150.153 58.779C151.735 59.1842 152.779 58.5202 153.814 57.3095C157.232 53.321 160.644 49.3081 165.448 46.8379C167.528 45.7688 169.671 44.9095 171.96 44.4116C174.269 44.3921 176.579 44.807 178.893 44.4604C179.522 44.3677 180.323 44.0015 180.743 44.5434C181.265 45.2122 180.552 45.9055 180.269 46.5255C179.356 48.5319 177.95 50.221 176.579 51.9297C170.759 59.1744 167.63 67.5761 165.999 76.6174C165.082 78.0282 164.994 79.7027 164.53 81.26C164.305 81.2454 164.081 81.2259 163.856 81.2112C163.959 77.5108 163.729 73.7761 164.725 70.1489C165.531 67.2198 166.434 64.3199 167.293 61.4054C168.108 60.0239 169.344 58.8766 169.622 57.1533C167.171 59.9213 164.369 62.2842 161.723 64.813C159.194 67.5322 155.748 68.738 152.486 70.1489C150.622 70.9544 149.504 69.8511 149.757 67.7763C149.933 66.341 150.334 64.9155 150.778 63.5291C151.08 62.5868 150.583 62.1182 149.982 62.5429C147.194 64.5005 143.826 65.1401 140.902 66.8731C137.646 68.8015 133.989 70.1147 130.015 69.7193C129.376 69.6558 128.624 69.5484 128.551 68.7283C128.487 68.0204 129.156 67.8788 129.669 67.6396C131.436 66.8292 133.227 66.1604 135.166 65.8089C140.97 64.7642 145.076 61.7228 146.672 55.7717C147.556 52.4765 145.652 50.3431 142.239 50.9436C140.868 51.1828 139.559 51.5684 138.349 52.291C137.089 53.0428 135.727 53.5065 134.267 53.6676C132.153 53.9801 132.368 56.0402 131.631 57.3242C127.638 64.3004 123.908 71.4182 120.305 78.6043C119.675 79.8589 119.553 80.4106 121.296 80.4399C127.701 80.5571 134.106 80.5278 140.516 80.8548C146.096 81.138 151.681 81.4407 157.266 81.7238C160.834 81.9045 164.393 82.2071 167.957 82.4219C168.587 82.461 169.475 82.4512 168.45 81.509C171.404 81.4749 174.118 80.3178 176.837 79.4537C182.129 77.7744 187.538 76.6516 192.938 75.475C194.593 75.1138 195.579 74.5816 195.842 72.6093C196.379 68.6111 197.307 64.6616 198.059 60.6927C198.176 60.0824 198.508 59.3453 197.81 58.9206C197.068 58.4665 196.667 59.3111 196.17 59.6089C195.286 60.1361 194.505 60.844 193.68 61.4738C192.874 61.9376 191.664 62.0157 191.839 63.4119C191.839 63.4119 191.825 63.4216 191.83 63.4216C189.94 63.1483 188.871 64.0758 188.359 65.8089C185.957 68.1424 183.115 69.6656 179.82 70.2172C176.198 70.8275 174.567 69.1042 175.256 65.5062C175.392 64.7983 175.622 64.0758 175.973 63.4461C179.22 57.5927 182.378 51.6758 186.694 46.5108C187.753 45.2415 188.813 43.777 190.785 43.8062C191.307 45.6516 190.424 47.1259 189.481 48.5612C187.787 51.1388 186.005 53.6579 184.36 56.2697C182.637 59.0035 181.021 61.8057 179.39 64.5982C178.941 65.3646 178.863 66.2531 179.776 66.7072C180.591 67.1123 181.373 66.9171 181.622 65.8431C185.551 64.3687 188.627 61.5568 191.913 59.1061C194.046 57.5146 196.038 55.718 197.854 53.7311C199.494 51.9346 200.446 49.8207 201.012 47.5165C201.379 46.0324 202.179 45.2562 203.746 45.3684C204.283 46.7158 204.088 48.0632 203.756 49.4204C201.852 57.2217 200.851 65.1938 199.411 73.0829C199.016 75.2407 199.929 74.8501 201.134 74.0642C202.272 74.1569 203.404 74.2301 204.405 73.5076C204.708 73.7712 204.991 73.9616 205.47 73.8738C208.638 73.2977 211.821 72.79 214.989 72.2041C216.195 71.9796 217.65 72.4971 218.509 71.1301C218.763 68.3768 219.808 65.8577 220.799 63.3191C221.17 62.372 221.824 61.4884 221.541 60.3705L221.511 60.4291C221.902 60.473 222.053 60.2728 222.034 59.9067L222 59.9555C222.458 59.8969 222.395 59.4917 222.498 59.1988C222.537 58.4617 223.84 58.1492 223.122 56.9922C221.199 59.2769 218.743 60.927 217.206 63.4558L217.24 63.4021C216.727 63.4021 216.688 63.7634 216.678 64.1442H216.669ZM154.215 91.7805L154.298 91.7122C153.751 91.8488 153.219 92.0002 153.277 92.7374L153.311 92.7129C149.001 94.7682 147.336 99.1717 149.255 103.321C150.211 105.386 151.5 107.237 152.843 109.043C156.289 113.681 163.056 116.126 168.196 114.657C171.599 113.339 174.909 111.884 177.491 109.16C181.88 104.527 185.136 99.1033 188.363 93.66C190.775 89.5885 192.469 85.1997 193.939 80.723C194.295 79.6344 194.749 78.1649 192.689 78.6482C187.67 79.8345 182.525 80.5375 177.687 82.4415C176.964 82.6611 175.939 82.0607 175.402 83.3007C178.033 83.5448 180.46 84.1013 182.827 84.8678C184.067 85.273 185.605 85.5512 185.517 87.4307C183.755 88.9051 181.719 88.4755 179.722 88.2558C179.332 88.2118 178.702 88.0947 178.951 87.6065C179.576 86.3811 178.624 86.5081 178.004 86.3323C169.568 83.9988 162.172 86.5813 155.201 91.1605C154.727 91.1263 154.366 91.2777 154.224 91.7756L154.215 91.7805ZM220.12 50.2406C219.524 49.933 219.217 50.1478 219.139 50.7825L219.193 50.7434C218.616 50.5872 218.294 51.0168 217.943 51.3195C214.086 54.6245 210.722 58.3347 208.565 63.0018C208.267 63.6462 207.349 64.4176 208.296 65.0913C209.077 65.6478 209.81 64.9839 210.425 64.4371C214.33 62.2695 217.088 58.652 220.979 56.299C223.176 54.9711 224.655 51.793 226.784 49.7084C227.218 49.2837 227.633 48.61 227.243 47.9461C226.803 47.1991 225.983 47.2089 225.28 47.3749C224.353 47.5897 223.459 47.9754 222.551 48.2878C221.863 48.3366 221.248 48.4977 221.092 49.3081L221.135 49.2691C220.506 49.2935 219.964 49.4106 220.125 50.2503L220.12 50.2406ZM164.013 52.247L164.052 52.2128C158.999 54.7172 156.538 59.3404 154.332 64.1588C154.137 64.5835 154.005 65.267 154.517 65.472C155.328 65.7991 156.099 65.5892 156.416 64.6128C157.73 64.2809 158.696 63.3728 159.638 62.5087C163.827 58.6911 167.982 54.8442 172.102 50.9582C172.819 50.2845 174.079 49.518 173.366 48.3708C172.668 47.2577 171.379 47.6678 170.291 48.0779C170.071 48.1609 169.832 48.1951 169.602 48.2536C167.435 49.1617 165.199 49.9721 164.008 52.247H164.013Z" fill="black"/>
<path d="M35.3204 7.25167C36.907 5.32821 38.4302 3.34129 40.5392 1.93042C41.4081 1.34948 42.2576 0.666013 43.4244 1.06145C43.7514 3.2827 41.7548 4.41042 41.0127 6.13372C40.588 7.11498 40.5294 7.65199 41.8426 7.58364C46.5536 7.34931 51.128 8.60884 55.7951 8.86269C56.9862 8.92616 58.2067 8.68207 59.3832 8.83829C64.9095 9.55592 70.4163 10.4298 75.9816 10.7764C75.7131 12.2165 74.5805 11.5721 73.8434 11.5575C63.2595 11.3915 52.6902 10.5665 42.1014 10.8984C41.0518 10.9326 40.0119 11.084 38.9672 11.1767C38.0787 10.9668 37.4294 11.206 36.9022 12.0164C35.9404 13.5005 34.8518 14.9065 33.8754 16.3808C21.8025 34.5853 11.5261 53.7028 4.39371 74.4117C3.65654 76.5549 2.92914 78.7127 2.76804 81.0023C1.56709 81.2513 2.13827 82.999 0.703001 83.2919C0.263632 81.139 0.805521 79.1081 1.28883 77.1212C3.81276 66.8399 7.86472 57.125 12.4293 47.6151C14.6066 43.0798 16.8181 38.5543 19.22 34.1313C22.8716 27.409 26.5965 20.7257 30.9707 14.4329C31.5077 13.6567 31.825 12.7291 32.3718 11.6112C27.8219 11.9578 23.6039 12.695 19.3664 13.3296C17.1012 13.6665 14.631 14.8772 12.8003 12.1091C12.2438 11.2695 10.9501 11.8504 10.0079 11.6649C9.4611 11.5575 8.75323 11.6307 8.6263 10.9375C8.50913 10.2882 9.04614 9.76096 9.59291 9.72679C11.3699 9.61939 12.6197 8.32081 14.2161 7.83262C15.0753 8.53561 16.0858 8.19876 17.0085 8.16947C21.7732 8.02301 26.5379 7.82774 31.3026 7.59341C32.6452 7.52506 34.0316 7.91561 35.3253 7.25656L35.3204 7.25167Z" fill="black"/>
<path d="M36.5556 77.0128C36.0234 78.5506 35.4913 80.0835 34.9543 81.6213C34.6907 77.7206 34.5003 73.9616 35.6036 70.1196C36.4482 67.1807 37.8346 64.4419 38.4546 61.4493C39.2943 60.3216 40.0803 59.1597 40.6075 57.3241C37.7663 59.9213 35.7501 62.7137 32.7965 64.4712C32.3376 64.7446 31.869 65.1791 32.24 65.8626V65.8577C31.3954 65.594 31.0635 66.1848 30.7217 66.7608C28.6176 68.3377 26.4745 69.8413 23.9261 70.637C21.1972 71.4914 19.7033 70.266 20.4698 67.5273C22.486 60.3167 26.4647 54.4536 32.6452 50.0794C35.296 48.1999 38.0201 46.584 41.0518 45.3879C43.3756 44.4701 45.6847 44.0552 48.1452 44.3383C48.3307 44.5727 48.4869 44.9827 48.7017 45.0169C51.9774 45.5539 52.0263 45.6271 50.1028 48.6393C49.4047 49.7279 48.7163 50.8654 47.8181 51.7783C44.8743 54.766 42.9655 58.3884 41.3447 62.1621C39.2845 66.9512 37.239 71.7647 36.5605 77.003L36.5556 77.0128ZM34.6614 53.1648C33.9633 52.6815 33.7387 53.0232 33.7046 53.7115L33.7485 53.6774C29.4866 56.338 26.9822 60.39 24.9904 64.8325C24.8 65.2572 24.7414 65.9211 25.3077 66.0871C26.0449 66.3019 26.7625 66.1066 27.0457 65.223C27.3581 65.1693 27.7584 65.2181 27.9732 65.0424C33.4507 60.5803 38.3667 55.513 43.5269 50.6994C44.0395 50.221 44.6058 49.5571 44.0639 48.776C43.5562 48.0486 42.7458 48.3171 42.0379 48.4001C39.8655 48.6539 38.4497 50.4114 36.5458 51.1974C35.9063 51.5147 34.9153 51.5 35.174 52.6571H35.1642C34.9934 52.6571 34.8176 52.6424 34.6468 52.6375C34.6516 52.8133 34.6614 52.9841 34.6663 53.1599L34.6614 53.1648Z" fill="black"/>
<path d="M67.9315 65.8863C65.9641 67.8097 63.7185 69.1962 61.0432 69.9968C58.3191 70.8121 56.9766 69.9626 57.4941 67.1653C58.4802 61.8294 61.5265 57.5626 65.0219 53.5546C68.6833 49.3562 73.243 46.5686 78.4276 44.7233C79.2087 44.445 80.063 44.3523 80.8783 44.1765C82.7432 44.7623 84.6422 45.1041 86.5852 44.7038C87.1076 44.5964 87.6592 44.0056 88.0937 44.6012C88.4843 45.1382 88.3232 45.851 88.0205 46.4515C87.1417 48.1992 86.0482 49.8053 84.7643 51.2797C78.4276 58.5488 75.7523 67.4289 73.6482 76.558C72.3789 77.7151 73.038 79.6532 71.7687 81.064C71.0462 74.8933 72.2081 69.2352 74.566 63.7626C74.9761 62.8058 75.6107 61.9173 75.5619 60.8042L75.5375 60.936C76.094 60.6919 76.0306 60.1842 76.0696 59.7107C76.4065 58.7099 78.0566 58.5878 77.9101 57.2063C77.1339 56.9378 76.6262 57.2941 76.2503 57.6798C73.8825 60.1012 71.8077 62.8253 68.7907 64.5535C68.4002 64.7781 67.79 65.1735 67.9266 65.8863H67.9315ZM73.7019 50.7329L73.7214 50.7134C73.2772 50.5962 72.9794 50.6352 73.2137 51.2113C73.0819 51.1478 72.8866 50.9965 72.8281 51.0404C68.1854 54.3113 64.6607 58.5341 62.2148 63.6503C61.9415 64.2166 61.6241 64.9733 62.3222 65.3981C63.035 65.8277 63.6745 65.3639 64.1774 64.7878C70.4018 60.4967 75.4057 54.8483 80.8881 49.7321C81.9523 48.7362 81.4495 47.8135 79.8873 47.7549C77.8173 47.6719 76.3479 49.0975 74.6051 49.8444C74.4488 49.9762 74.2926 50.1031 74.1413 50.2349L74.2096 50.2105C73.824 50.1763 73.5555 50.2496 73.7068 50.7329H73.7019Z" fill="black"/>
<path d="M45.4109 86.3236C44.869 87.3732 44.332 88.4228 43.5656 89.9166C43.1262 88.0274 43.3068 86.6019 43.6046 85.1666C47.3002 67.3575 54.0909 50.8128 63.635 35.3274C66.6569 30.4211 69.7862 25.6027 73.5208 21.2725C77.2506 16.952 80.3799 11.9823 85.3838 8.87739C87.2682 7.70574 89.0354 6.18259 91.4715 6.2607C91.3836 7.68621 90.1388 8.27692 89.3479 9.19959C88.1323 10.6202 86.2332 11.372 85.4473 13.2027L85.4814 13.1734C82.3521 14.6917 80.2383 17.3914 78.0024 19.8714C69.0685 29.7963 62.3315 41.1027 57.1372 53.3904C52.5873 64.1452 48.3987 75.0123 45.4158 86.3187L45.4109 86.3236Z" fill="black"/>
<path d="M45.4102 86.3223C48.3881 75.0158 52.5768 64.1439 57.1316 53.394C62.3308 41.1111 69.0629 29.7998 77.9967 19.8749C80.2277 17.3949 82.3465 14.6953 85.4758 13.177C85.5148 14.5439 84.1381 14.8368 83.4449 15.5105C72.6901 26.0115 65.3966 38.7434 59.4016 52.3297C54.9884 62.3278 51.1024 72.5163 48.2075 83.0709C47.6607 85.0725 46.6453 86.9471 45.4102 88.7974V86.3223Z" fill="black"/>
<path d="M2.76436 80.9978C2.93034 78.7082 3.65286 76.5553 4.39002 74.4072C11.5225 53.6983 21.7988 34.5857 33.8619 16.3812C34.8383 14.9068 35.927 13.5009 36.8887 12.0168C37.416 11.2064 38.0652 10.9672 38.9538 11.1771C23.5612 33.2627 11.3858 56.9594 3.43806 82.9017C2.45191 82.1352 2.86688 81.525 2.76436 80.9978Z" fill="black"/>
<path d="M168.435 81.5096C169.46 82.4518 168.572 82.4567 167.942 82.4225C164.378 82.2077 160.814 81.905 157.251 81.7244C151.666 81.4412 146.086 81.1386 140.501 80.8554C134.091 80.5283 127.686 80.5576 121.281 80.4405C119.533 80.4112 119.66 79.8546 120.29 78.6049C123.893 71.4187 127.622 64.301 131.616 57.3247C132.353 56.0408 132.138 53.9807 134.252 53.6682C134.413 54.9229 133.979 55.9676 133.383 57.0758C129.605 64.091 125.933 71.1698 122.169 78.1948C121.427 79.5812 122.057 79.6496 123.151 79.5275L123.199 79.6496L123.248 79.5227C126.9 79.5764 130.556 79.5617 134.208 79.7033C140.94 79.962 147.667 80.2842 154.39 80.8066C157.509 81.0507 160.692 80.9579 163.841 81.2069C164.066 81.2216 164.29 81.2411 164.515 81.2557C165.823 81.3387 167.127 81.4217 168.435 81.5047V81.5096Z" fill="black"/>
<path d="M165.982 76.6178C167.613 67.5766 170.742 59.17 176.561 51.9301C177.933 50.2215 179.339 48.5372 180.252 46.5259C180.535 45.9059 181.248 45.2127 180.726 44.5438C180.301 44.0019 179.505 44.3681 178.875 44.4608C176.561 44.8075 174.252 44.3974 171.943 44.412C175.253 42.7571 178.861 44.3144 182.273 43.4552C183.259 43.2062 183.113 44.2509 182.796 44.8172C181.932 46.3745 181.214 48.0978 180.032 49.3818C174.121 55.7917 171.226 63.6759 168.814 71.8092C167.979 74.6309 167.276 77.4917 165.987 80.2743V76.6129L165.982 76.6178Z" fill="black"/>
<path d="M73.6582 76.5593C75.7623 67.4302 78.4376 58.55 84.7743 51.2809C86.0582 49.8066 87.1517 48.2004 88.0305 46.4527C88.3331 45.8571 88.4894 45.1395 88.1037 44.6025C87.6692 44.002 87.1176 44.5976 86.5952 44.705C84.6522 45.1102 82.7532 44.7636 80.8883 44.1778C83.8076 42.8255 86.9418 44.4267 89.9344 43.5041C90.9645 43.1867 90.7594 44.1875 90.5056 44.7929C89.8172 46.4478 88.9776 48.0686 87.7717 49.3672C81.4741 56.1335 78.6328 64.5694 76.1187 73.1713C75.4254 75.5341 74.8543 77.936 73.6582 80.2451V76.5593Z" fill="black"/>
<path d="M119.874 72.7955C119.429 74.4651 119.478 74.3235 117.984 73.8061C117.125 73.5083 116.046 73.6206 115.114 73.7914C112.365 74.2943 111.326 73.3765 111.877 70.628C112.854 65.7607 114.587 61.1425 116.823 56.7292C118.502 53.4096 120.43 50.2217 122.139 46.9167C122.764 45.706 123.877 44.4757 122.896 42.9135C123.555 42.313 124.336 41.5661 125.171 42.2691C125.898 42.8793 125.356 43.8313 124.995 44.5148C123.154 48.0102 121.158 51.4275 119.381 54.9571C117.057 59.5803 115.006 64.3303 114.089 69.471C113.493 72.8151 114.128 73.4204 117.457 72.9469C118.253 72.8346 119.063 72.8395 119.864 72.7906L119.874 72.7955Z" fill="black"/>
<path d="M104.188 116.122C105.086 111.723 107.117 107.735 108.806 103.629C111.515 97.0337 114.449 90.5262 117.613 84.126C118.125 83.0862 118.511 81.9731 120.039 82.4369C115.142 92.8841 110.466 103.424 106.292 114.179C105.974 114.994 105.496 115.775 104.964 116.468C104.554 117.001 104.334 116.503 104.192 116.117L104.188 116.122Z" fill="black"/>
<path d="M178.045 113.145C187.233 103.059 193.857 91.4745 198.197 78.5668C198.612 77.3317 199.296 76.8484 200.536 77.0534C196.865 88.6723 190.943 99.0805 183.43 108.595C181.98 110.431 180.608 112.545 178.045 113.145Z" fill="black"/>
<path d="M36.5584 77.0134C37.2369 71.7703 39.2873 66.9616 41.3426 62.1725C42.9634 58.3988 44.8722 54.7764 47.816 51.7887C48.7142 50.8758 49.4075 49.7432 50.1007 48.6497C52.0242 45.6376 51.9753 45.5643 48.6996 45.0273C48.4848 44.9931 48.3286 44.5831 48.1431 44.3487C49.593 44.2755 51.0624 44.295 52.4977 44.0949C53.9427 43.8947 53.8109 44.5587 53.4399 45.4716C52.6393 47.439 51.536 49.2404 50.0812 50.7831C45.7998 55.3134 43.3881 60.8788 41.3377 66.615C39.9903 70.3838 38.8577 74.2356 37.6714 78.0581C37.5054 78.5903 38.0278 79.5715 36.944 79.4251C36.1776 79.3225 36.6365 78.4829 36.5388 77.98C36.4803 77.6676 36.5486 77.3356 36.5584 77.0134Z" fill="black"/>
<path d="M201.125 74.0594C199.92 74.8454 199.007 75.2311 199.402 73.0782C200.842 65.1891 201.843 57.2169 203.747 49.4157C204.079 48.0585 204.269 46.716 203.737 45.3637C204.196 44.7242 204.704 44.2116 205.524 44.8414C206.227 45.3833 206.369 45.9837 206.178 46.9406C204.426 55.8061 202.766 64.6911 201.086 73.5712C201.057 73.7226 201.111 73.8935 201.13 74.0546L201.125 74.0594Z" fill="black"/>
<path d="M227.906 70.1006C227.32 70.662 226.563 70.5693 225.845 70.6376C222.392 70.9696 221.302 69.4578 222.575 66.1023C224.791 60.2392 227.383 54.6006 231.748 49.9384C232.841 48.7717 233.739 47.3901 234.34 45.8572C234.848 44.5635 235.219 43.7482 233.085 44.0753C230.805 44.4268 228.443 44.4024 226.133 43.9191C227.373 42.9769 229.072 43.3772 230.122 43.5724C232.084 43.9337 233.744 43.3332 235.512 43.0891C236.874 42.8988 237.171 43.2747 236.683 44.461C235.966 46.1891 235.067 47.8539 233.798 49.211C228.286 55.1083 225.528 62.3872 223.136 69.92C224.723 70.9793 226.378 69.1193 227.91 70.1055L227.906 70.1006Z" fill="black"/>
<path d="M75.9735 10.7756C70.4033 10.4339 64.8965 9.56001 59.3751 8.83749C58.1986 8.68615 56.983 8.92536 55.7869 8.8619C51.1198 8.60804 46.5455 7.34851 41.8345 7.58285C40.5213 7.64631 40.5847 7.11418 41.0046 6.13293C41.7466 4.40962 43.7433 3.28191 43.4162 1.06065C44.0753 0.484588 44.954 -0.433206 45.6424 0.23073C46.3942 0.948367 45.3055 1.80758 44.8954 2.53498C44.1925 3.7945 42.4643 5.16143 42.9573 6.2208C43.4992 7.38269 45.5887 6.66017 46.9946 6.77245C52.5746 7.22647 58.1351 7.83182 63.6907 8.56899C68.143 9.15481 72.6294 9.61859 77.0963 10.141C77.4527 10.1849 77.9409 10.0775 78.0288 10.7707C77.3844 11.7373 76.6179 10.2972 75.9637 10.7805L75.9735 10.7756Z" fill="black"/>
<path d="M181.608 65.8385C181.359 66.9126 180.573 67.1078 179.763 66.7026C178.85 66.2486 178.928 65.3601 179.377 64.5937C181.008 61.8012 182.624 58.999 184.347 56.2652C185.992 53.6582 187.774 51.1343 189.468 48.5567C190.41 47.1214 191.289 45.6471 190.772 43.8017C191.396 43.2989 192.095 42.5568 192.876 43.1964C193.628 43.8115 193.115 44.7 192.798 45.4323C191.543 48.3565 189.4 50.7242 187.74 53.3946C185.777 56.5483 183.708 59.6337 182.209 63.051C181.828 63.9248 181.291 64.7938 181.608 65.8288V65.8385Z" fill="black"/>
<path d="M150.139 58.7849C149.109 59.5269 148.938 61.3186 146.863 61.2698C148.215 59.4488 149.104 57.6327 149.807 55.7288C150.207 54.6499 150.427 53.5515 150.402 52.3994C150.334 48.9332 149.255 48.0203 144.842 47.6884C147.068 46.7559 149.455 46.341 151.315 48.074C153.248 49.8754 152.819 52.3457 151.994 54.6157C151.476 56.0413 150.764 57.3984 150.134 58.7849H150.139Z" fill="black"/>
<path d="M117.026 79.7329C114.927 81.2414 112.442 80.6849 110.172 80.7679C102.312 81.0608 94.4959 81.5441 86.6849 82.5644C83.9169 82.9257 81.0366 84.0241 78.1465 82.9745C88.6767 81.2902 99.2753 80.3041 109.928 79.894C110.318 79.8842 110.709 79.8745 111.099 79.8696C111.841 79.8501 112.578 79.8257 113.32 79.8061C113.584 79.7964 113.848 79.7817 114.111 79.772L117.026 79.7378V79.7329Z" fill="black"/>
<path d="M104.722 59.5419C104.287 59.908 104.517 60.6549 103.897 60.9381C103.545 61.0992 103.238 61.5239 102.827 61.2603C102.437 61.0113 102.544 60.5671 102.657 60.1716C103.169 58.3653 104.107 56.7836 105.185 55.2653C106.914 52.8439 108.73 50.4713 110.263 47.9327C110.863 46.9368 112.333 45.5894 110.448 44.3006C110.765 43.1338 111.595 42.7091 112.611 43.212C113.782 43.7929 113.343 44.9401 112.957 45.7408C111.424 48.9335 109.237 51.7211 107.207 54.6014C106.128 56.1294 105.112 57.6721 104.727 59.5419H104.722Z" fill="black"/>
<path d="M137.803 49.7039C137.33 49.9822 136.856 50.2654 136.383 50.5436C137.144 47.9562 138.668 45.8717 140.103 43.7334C141.89 41.0825 144.14 38.6562 144.404 35.234C145.297 35.151 145.531 33.789 146.859 34.077C145.307 40.2087 140.596 44.412 137.799 49.6991L137.803 49.7039Z" fill="black"/>
<path d="M223.021 84.8285C225.316 81.6797 228.245 79.146 231.028 76.4658C231.496 76.0167 231.985 75.5822 232.419 75.0989C233.586 73.8052 235.729 72.6775 235.168 70.837C234.621 69.0454 232.278 70.1633 230.813 69.6556C230.901 69.5287 230.984 69.2895 231.077 69.2895C233.205 69.2455 236.173 67.986 237.213 69.8509C238.302 71.7988 235.451 73.2438 234.074 74.6839C230.837 78.072 227.249 81.1183 224.271 84.7602C223.9 85.2142 223.505 86.0343 223.021 84.8285Z" fill="black"/>
<path d="M91.1597 60.8734C90.5739 61.5764 90.2859 62.6212 88.9629 62.6993C88.9629 60.9418 90.0271 59.6969 90.8619 58.413C92.7463 55.5082 94.7382 52.6816 96.6665 49.8062C97.2426 48.947 97.9602 48.1073 97.5989 46.9357C98.2775 46.5842 98.8926 45.4467 99.6347 46.052C100.533 46.7843 99.5712 47.6679 99.1416 48.3612C96.5542 52.5791 93.3224 56.3821 91.1549 60.8734H91.1597Z" fill="black"/>
<path d="M100.039 67.7822C104.77 63.8426 108.128 58.6726 112.258 54.196C113.274 53.0975 113.943 51.589 115.593 51.1838C115.554 51.4865 115.632 51.8917 115.466 52.0772C111.189 56.7492 107.611 62.0314 102.949 66.3567C102.143 67.1037 101.396 68.0947 100.044 67.7822H100.039Z" fill="black"/>
<path d="M87.6872 68.3972C87.3748 68.0994 87.0819 67.6357 87.5163 67.3867C93.5699 63.8864 97.0848 57.8377 101.913 53.1121C102.25 52.785 102.455 52.3261 102.787 51.8379C104.002 53.3659 102.675 53.8443 102.377 54.6059C99.9798 56.1144 98.4713 58.5114 96.5429 60.4886C93.7749 63.3298 91.4463 66.6593 87.6872 68.3924V68.3972Z" fill="black"/>
<path d="M35.3221 7.25157C34.0285 7.91062 32.642 7.52495 31.2995 7.58842C26.5348 7.82275 21.77 8.01802 17.0053 8.16448C16.0778 8.19377 15.0672 8.5355 14.2129 7.82763C21.2282 6.82196 28.2629 6.58275 35.3221 7.24669V7.25157Z" fill="black"/>
<path d="M67.9324 65.8866C67.8006 65.1739 68.4108 64.7784 68.7965 64.5539C71.8183 62.8257 73.8931 60.1016 76.256 57.6802C76.6319 57.2945 77.1396 56.9381 77.9158 57.2066C78.0623 58.5833 76.4122 58.7054 76.0753 59.7062C75.8898 60.1113 75.0209 60.2139 75.5432 60.9315L75.5676 60.7997C73.7076 61.5271 72.6385 63.2797 71.0226 64.3244C70.0462 64.9591 69.2749 65.9891 67.9226 65.8769L67.9324 65.8866Z" fill="black"/>
<path d="M85.4414 13.2071C86.2274 11.3715 88.1264 10.6246 89.342 9.20398C90.1329 8.2813 91.3778 7.6906 91.4656 6.26509C91.9441 5.318 92.7691 5.29359 94.1312 5.35217C91.4461 8.58886 88.8001 11.2739 85.4414 13.2071Z" fill="black"/>
<path d="M32.2376 65.8668C31.8666 65.1833 32.3353 64.744 32.7942 64.4755C35.7477 62.718 37.7639 59.9255 40.6052 57.3284C40.0828 59.164 39.2968 60.3258 38.4523 61.4536C36.0553 62.469 34.7811 65.0613 32.2328 65.8668H32.2376Z" fill="black"/>
<path d="M218.498 71.1313C217.634 72.5032 216.184 71.9857 214.978 72.2054C211.81 72.7912 208.627 73.2989 205.459 73.875C204.98 73.9628 204.697 73.7725 204.395 73.5088C209.096 72.718 213.797 71.9271 218.498 71.1362V71.1313Z" fill="black"/>
<path d="M219.988 80.0104C220.022 78.4824 220.169 76.9446 220.066 75.4263C219.959 73.8299 220.589 73.1953 222.127 73.3369C221.238 75.5093 221.609 78.0772 219.988 80.0104Z" fill="black"/>
<path d="M217.191 63.4558C218.729 60.927 221.19 59.2769 223.108 56.9922C223.826 58.1492 222.522 58.4568 222.483 59.1988C222.317 59.4527 222.151 59.7016 221.985 59.9555L222.02 59.9067C221.692 59.9262 221.517 60.1019 221.497 60.429L221.527 60.3705C219.911 61.1613 219.13 63.1189 217.191 63.4558Z" fill="black"/>
<path d="M188.342 65.8034C188.854 64.0703 189.924 63.1428 191.813 63.4162C190.861 64.5097 189.904 65.5984 188.342 65.8034Z" fill="black"/>
<path d="M191.826 63.4078C191.65 62.0116 192.861 61.9335 193.666 61.4697C193.588 62.6219 192.724 63.0319 191.826 63.4078Z" fill="black"/>
<path d="M30.7168 66.765C31.0585 66.1841 31.3954 65.5983 32.2351 65.8619C31.947 66.5307 31.493 66.9212 30.7168 66.765Z" fill="black"/>
<path d="M111.101 79.8641C110.711 79.8738 110.32 79.8787 109.93 79.8885C110.315 79.6932 110.706 79.6493 111.101 79.8641Z" fill="black"/>
<path d="M114.109 79.7669C113.846 79.7767 113.582 79.7914 113.318 79.8011C113.572 79.4984 113.831 79.5033 114.109 79.7669Z" fill="black"/>
<path d="M216.666 64.1456C216.676 63.7648 216.71 63.4036 217.227 63.4036C217.462 63.965 216.978 63.9894 216.666 64.1456Z" fill="black"/>
<path d="M153.315 92.7131C153.471 92.9182 153.481 93.0793 153.3 93.3136C149.595 98.093 149.61 99.9579 152.792 105.118C156.366 110.908 161.272 114.369 168.2 114.657C163.059 116.127 156.293 113.681 152.846 109.043C151.504 107.237 150.21 105.391 149.258 103.321C147.344 99.1767 149.004 94.7684 153.315 92.7131Z" fill="black"/>
<path d="M219.19 50.7387C217.574 53.3701 214.806 55.0397 213.283 57.7345C212.087 59.8532 210.105 61.6595 210.422 64.4324C209.807 64.9792 209.075 65.6431 208.294 65.0866C207.347 64.4129 208.26 63.6416 208.562 62.9972C210.72 58.335 214.084 54.6198 217.94 51.3148C218.292 51.0121 218.614 50.5825 219.19 50.7387Z" fill="black"/>
<path d="M164.05 52.2131C163.279 54.1512 161.37 55.1667 160.291 56.8607C158.724 59.3114 156.469 61.4057 156.42 64.6082C156.102 65.5895 155.336 65.7945 154.521 65.4674C154.008 65.2624 154.14 64.5789 154.335 64.1542C156.542 59.3358 158.997 54.7127 164.055 52.2083L164.05 52.2131Z" fill="black"/>
<path d="M177.68 82.4424C180.36 82.9989 183.138 83.1551 185.687 84.278C186.565 84.6636 187.791 84.9712 187.756 86.0501C187.722 87.2413 186.438 87.2413 185.501 87.4366C185.589 85.557 184.056 85.2788 182.816 84.8736C180.448 84.1071 178.017 83.5457 175.391 83.3065C175.933 82.0665 176.953 82.667 177.675 82.4473L177.68 82.4424Z" fill="black"/>
<path d="M167.28 61.4108C165.83 61.7037 165.132 63.0218 164.034 63.7932C163.321 64.2911 162.755 65.0918 161.705 64.8184C164.356 62.2944 167.158 59.9316 169.609 57.1587C169.331 58.882 168.095 60.0292 167.28 61.4108Z" fill="black"/>
<path d="M169.608 48.2537C167.68 49.4937 166.259 51.4464 164.014 52.247C165.205 49.9721 167.441 49.1617 169.608 48.2537Z" fill="black"/>
<path d="M222.544 48.2839C222.27 48.9283 221.914 49.4507 221.084 49.3042C221.24 48.4939 221.855 48.3376 222.544 48.2839Z" fill="black"/>
<path d="M221.131 49.2588C221.229 50.035 220.648 50.1082 220.12 50.24C219.959 49.4004 220.501 49.2832 221.131 49.2588Z" fill="black"/>
<path d="M154.298 91.7124C154.616 92.7083 154.015 92.7913 153.278 92.7376C153.219 92.0004 153.751 91.8491 154.298 91.7124Z" fill="black"/>
<path d="M220.116 50.2404C219.926 50.67 219.75 51.1289 219.135 50.7823C219.213 50.1476 219.52 49.9377 220.116 50.2404Z" fill="black"/>
<path d="M155.189 91.1671C155.077 91.7089 154.97 92.2606 154.213 91.7822C154.354 91.2891 154.716 91.1378 155.189 91.1671Z" fill="black"/>
<path d="M33.7473 53.6838C32.5561 56.3445 29.9492 57.9848 28.7336 60.6308C28.0453 62.1197 26.7662 63.389 27.0445 65.2295C26.7613 66.1131 26.0437 66.3084 25.3065 66.0936C24.7402 65.9276 24.7988 65.2637 24.9892 64.8389C26.9761 60.3964 29.4854 56.3493 33.7473 53.6838Z" fill="black"/>
<path d="M36.5408 51.2083C36.3992 51.9942 35.8573 52.3994 35.1689 52.6679C34.9102 51.506 35.9061 51.5256 36.5408 51.2083Z" fill="black"/>
<path d="M34.66 53.1717C34.4696 53.5769 34.3134 54.0456 33.7031 53.7136C33.7324 53.0253 33.9619 52.6835 34.66 53.1717Z" fill="black"/>
<path d="M35.1562 52.6719C35.1562 52.999 34.9853 53.1649 34.6582 53.1649C34.6533 52.9892 34.6436 52.8183 34.6387 52.6426C34.8095 52.6523 34.9853 52.6621 35.1562 52.6719Z" fill="black"/>
<path d="M73.2211 51.2134C70.2969 54.3427 67.1334 57.2767 65.1563 61.1676C64.5851 62.2953 63.7015 63.3644 64.1799 64.7899C63.6819 65.366 63.0375 65.8298 62.3248 65.4002C61.6267 64.9803 61.9489 64.2236 62.2174 63.6524C64.6632 58.5362 68.1879 54.3134 72.8306 51.0425C72.8892 50.9986 73.0845 51.1499 73.2163 51.2134H73.2211Z" fill="black"/>
<path d="M74.6044 49.8457C74.5458 50.0898 74.4872 50.3339 74.1406 50.2363C74.2968 50.1044 74.4531 49.9775 74.6044 49.8457Z" fill="black"/>
<path d="M73.7187 50.7203C73.7675 51.106 73.5234 51.1987 73.211 51.2183C72.9767 50.6422 73.2745 50.6031 73.7187 50.7203Z" fill="black"/>
<path d="M74.2074 50.2113C74.2953 50.6312 74.0658 50.7484 73.7046 50.7337C73.5532 50.2553 73.8266 50.1772 74.2074 50.2113Z" fill="black"/>
<path d="M123.148 79.5269L123.251 79.522L123.197 79.6489L123.148 79.5269Z" fill="black"/>
</g>
<defs>
<clipPath id="clip0_1047_503">
<rect width="236.918" height="118" fill="white" transform="translate(0.541016)"/>
</clipPath>
</defs>
</svg>
