<svg width="183" height="168" viewBox="0 0 183 168" fill="none" xmlns="http://www.w3.org/2000/svg">
<g clip-path="url(#clip0_1047_565)">
<path d="M68.9857 96.1723C68.4044 96.6838 67.8114 97.1954 67.1022 97.8232C66.6023 97.4744 66.0907 97.114 65.4513 96.6606C63.9282 99.1951 62.4168 101.706 60.9054 104.218L59.9288 103.927C60.3706 99.5904 60.824 95.2538 61.2891 90.7428C61.4169 90.7428 60.917 90.7195 60.4055 90.6963C60.0683 84.1972 59.6381 77.7097 59.4056 71.2106C59.2661 67.3856 60.1032 66.6763 63.8003 67.2344C72.8805 68.6063 81.949 68.7923 90.9942 66.9786C92.8196 66.6182 93.5172 67.5251 93.7148 69.0132C94.4008 74.2218 95.5053 79.442 95.5401 84.6622C95.5983 96.0211 95.0867 107.368 94.7844 118.727C94.7612 119.634 94.4705 120.541 94.3891 121.448C94.2031 123.727 92.8893 124.657 90.7268 124.68C87.2157 124.715 83.7046 124.761 80.1934 124.831C73.6827 124.959 67.172 125.04 60.6612 125.285C58.6615 125.354 57.8012 124.633 58.0221 122.703C58.5569 117.89 59.1266 113.077 59.7195 108.264C59.766 107.892 59.952 107.345 60.2311 107.217C62.9981 105.938 63.3702 103.043 64.7421 100.823C65.1374 100.172 66.0907 99.8811 66.7185 99.3462C67.6951 98.5208 68.6136 97.6372 69.5437 96.7768C69.3461 96.5792 69.1601 96.3815 68.9624 96.1839L68.9857 96.1723ZM81.4491 104.659C83.2395 104.427 85.1578 103.706 86.8437 104.078C89.1573 104.59 89.5061 106.95 89.3666 108.973C89.2736 110.38 88.9131 112.077 88.0295 113.065C85.7624 115.623 82.9488 114.193 79.926 113.042C80.4027 114.298 80.6701 115.018 81.1817 116.39C79.1936 116.39 77.438 116.669 75.8219 116.332C72.7642 115.681 73.4385 112.6 72.6596 110.089C71.5667 110.938 70.6366 111.403 70.0902 112.147C69.5786 112.833 69.4507 113.821 69.1601 114.681C69.8344 114.17 70.5087 113.658 71.1947 113.158C71.3109 113.077 71.4737 113.042 71.6132 112.996C72.9851 117.704 76.2405 119.716 80.3097 118.437C82.414 117.774 84.5417 117.193 86.6576 116.565C89.4014 115.751 91.0989 113.914 91.5291 111.1C91.9941 108.066 91.5291 105.194 88.8783 103.229C86.3088 101.323 82.2862 102.183 81.4374 104.683L81.4491 104.659ZM83.3674 90.301C83.8092 89.6732 84.1696 89.3825 84.1231 89.1732C83.5302 86.1736 83.007 83.1508 82.1699 80.2094C81.949 79.4536 80.7515 78.5584 79.9376 78.4887C78.3681 78.3608 78.1588 77.4772 77.7751 76.3029C76.7172 73.1057 75.0313 72.3384 72.4038 74.373C69.6135 76.5354 67.2185 79.2327 64.8583 81.8835C64.4049 82.3835 64.8932 83.7321 64.9397 84.6855C65.7652 84.2204 66.8115 83.9414 67.3929 83.2671C68.8578 81.5813 69.9855 79.5815 71.5202 77.9771C72.4387 77.0238 73.8803 76.5703 75.0895 75.896C75.5313 77.1749 75.9731 78.4422 76.4149 79.7211C76.473 79.8722 76.5776 80.0117 76.7055 80.2559C82.5303 80.8604 81.9141 86.1504 83.3674 90.3126V90.301ZM70.6947 104.962C68.1602 103.45 66.3116 104.38 64.7537 105.996C62.4168 108.415 62.1029 112.612 63.905 115.507C65.335 117.786 68.1369 118.902 71.2644 118.018C68.2648 116.472 65.1257 115.495 65.2071 111.565C65.2769 107.868 66.9627 105.752 70.7064 104.95L70.6947 104.962ZM72.3108 94.7422C76.6358 92.6262 80.9143 91.452 85.7973 91.5683C85.4834 92.9983 85.2276 94.1028 84.9834 95.2073C85.2276 95.277 85.4718 95.3584 85.7159 95.4282C86.1228 94.2423 86.6576 93.068 86.8553 91.8473C86.9134 91.452 86.088 90.4986 85.6694 90.4986C81.2165 90.487 76.8567 91.0218 73.0781 93.6959C72.741 93.94 72.5666 94.4051 72.3108 94.7655V94.7422ZM76.6241 96.928C74.1594 97.021 72.2527 99.7764 72.8223 102.206C72.9619 102.823 73.5548 103.45 74.1129 103.787C74.3221 103.915 75.2987 103.369 75.4266 102.962C75.6243 102.369 75.4848 101.59 75.2755 100.962C75.1592 100.602 74.6244 100.369 74.2408 100.055C74.6709 99.416 74.9616 98.9161 75.3104 98.4626C75.6824 97.9743 76.1126 97.5325 76.6358 96.928H76.6241ZM83.6697 96.4746C81.263 97.2419 79.7167 99.6834 80.4143 101.381C80.612 101.846 81.1351 102.416 81.5769 102.485C81.9955 102.555 82.7163 102.125 82.9023 101.718C83.0884 101.334 82.8558 100.66 82.6233 100.207C82.4838 99.9159 82.0187 99.7764 81.4839 99.4393C82.228 98.4394 82.8442 97.5907 83.6697 96.4746Z" fill="black"/>
<path d="M122.26 126.157C123.039 124.681 123.655 123.89 123.876 123.006C124.503 120.507 124.852 117.937 125.527 115.449C126.038 113.578 125.782 112.054 124.55 110.566C123.643 109.473 123.027 109.113 121.725 110.206C120.155 111.52 118.26 112.461 116.237 113.74C117.551 108.683 118.76 104.056 120.051 99.0795C114.982 102.835 110.203 106.59 106.785 111.787L107.169 112.624C108.854 112.043 110.54 111.473 112.61 110.752C110.098 113.903 107.622 116.833 105.367 119.914C104.727 120.797 104.123 122.39 104.495 123.181C105.227 124.704 106.797 124.402 108.157 123.599C111.738 121.495 115.342 119.414 119.33 117.089C119.469 120.135 119.609 122.948 119.748 125.913C118.83 126.006 118.19 126.099 117.551 126.122C112.459 126.285 107.366 126.413 102.286 126.587C99.1232 126.704 98.6582 126.227 99.0418 123.018C99.658 117.716 100.693 112.415 100.809 107.09C101.03 96.7426 100.739 86.3952 100.646 76.0478C100.623 73.9667 100.472 71.874 100.542 69.7929C100.588 68.421 101.262 67.5374 102.855 67.3514C107.169 66.8747 111.47 66.2817 115.76 65.6888C120.306 65.061 124.759 65.3981 129.119 66.8282C129.91 67.084 130.735 67.3165 131.549 67.3862C135.223 67.7001 135.479 67.7001 135.827 71.4089C136.595 79.7217 137.153 88.0462 137.734 96.3822C138.246 103.544 138.676 110.706 139.141 117.868C139.187 118.53 139.315 119.193 139.339 119.856C139.525 124.995 138.502 126.099 133.421 126.157C130.014 126.192 126.596 126.157 122.271 126.157H122.26ZM123.225 86.4534C122.097 85.7674 121.236 85.2442 120.411 84.7443C121.829 82.3493 123.05 80.2682 124.259 78.1987L123.62 77.7685C122.69 78.3498 121.76 78.9195 120.841 79.5008C125.224 77.3849 123.352 72.7227 124.864 69.5487C124.98 69.3046 124.643 68.8279 124.469 68.3396C121.202 71.688 118.004 74.8154 115.005 78.1057C113.226 80.0473 117.516 80.1403 116.481 82.0586C116.47 82.0819 117.272 82.7795 117.621 82.7097C118.144 82.6051 118.562 82.0703 119.062 81.8028C119.527 81.5587 120.062 81.4424 120.562 81.268C115.249 84.2676 112.993 89.5808 109.692 93.9988C109.808 94.1965 109.912 94.3941 110.029 94.6034C112.18 93.6849 114.342 92.7664 116.493 91.848C116.691 92.0456 116.9 92.2433 117.097 92.4409C115.772 94.3244 114.516 96.2427 113.11 98.068C111.273 100.451 108.192 102.091 108.808 106.73C111.912 103.846 115.156 101.719 117.144 98.754C119.748 94.8708 121.376 90.3366 123.236 86.465L123.225 86.4534Z" fill="black"/>
<path d="M107.503 28.8795C109.386 29.4841 111.003 30.0189 113.165 30.7165C111.921 28.7168 110.944 27.217 110.038 25.6707C109.538 24.8103 108.968 23.9151 108.77 22.9734C108.631 22.3107 109.073 21.5201 109.247 20.7876C109.956 21.0434 111.003 21.0783 111.305 21.5782C112.909 24.2058 114.339 26.9263 115.793 29.6469C116.165 30.3445 116.397 31.1118 116.874 32.2744C118.036 29.7864 118.897 27.6472 120.036 25.6591C120.501 24.8452 121.722 23.7524 122.35 23.8919C123.512 24.1593 124.873 25.0312 125.419 26.0544C125.78 26.7171 125.128 28.3447 124.431 29.0539C123.233 30.2747 121.664 31.1234 119.769 32.4721C123.129 33.4603 126.152 34.3555 129.093 35.2159C127.977 36.3901 127.977 36.3669 124.222 35.1577C122.489 34.5997 120.722 34.1346 118.49 33.4952C119.85 35.6461 120.885 37.4714 122.094 39.1688C123.117 40.5989 123.21 41.8545 122.501 43.5171C120.455 48.2722 118.641 53.1204 116.734 57.9337C116.467 58.6196 116.246 59.3172 116.025 59.9683C116.246 60.1078 116.316 60.1659 116.385 60.1892C119.556 60.786 121.784 59.5885 123.071 56.5966C124.687 52.8413 126.175 49.0163 127.954 45.3424C128.988 43.2031 129.105 41.4592 127.349 39.7153C126.768 39.1456 126.396 38.3666 125.768 37.4598H130.593C130.267 35.6926 130 34.1928 129.756 32.8209C127.756 32.6465 125.989 32.507 123.582 32.2977C125.826 30.5421 128.233 29.5539 127.465 26.6938C126.989 24.8917 123.71 21.8921 121.989 21.9503C118.606 22.0549 118.734 25.5312 117.188 27.2519C115.886 25.0661 114.653 22.8106 113.246 20.6598C112.177 19.0204 110.805 17.8811 108.631 18.9507C106.329 20.0901 105.271 21.9386 105.492 23.2292C103.806 26.3799 102.539 28.7517 101.271 31.1234C101.12 31.1234 100.981 31.1118 100.829 31.1002C100.829 28.8214 100.876 26.5427 100.829 24.2639C100.69 18.5903 100.574 12.905 100.306 7.23138C100.178 4.54571 101.341 3.1273 103.899 2.76689C105.875 2.48785 107.875 2.08093 109.863 2.12744C117.292 2.27858 124.733 2.56924 132.162 2.8599C135.674 2.99941 136.65 3.62723 136.859 7.05699C137.464 16.544 138.266 26.066 138.08 35.553C137.941 42.8544 136.511 50.144 135.499 57.4105C135.022 60.8286 134.418 61.282 130.86 61.2937C124.094 61.2937 117.327 61.1425 110.561 61.1076C108.142 61.096 105.713 61.1076 103.294 61.3285C101.109 61.5262 99.9691 60.6658 99.6204 58.5731C98.8181 53.6552 98.6554 48.8419 100.876 44.1216C103.19 39.2153 105.201 34.1811 107.491 28.8795H107.503ZM109.014 31.8326C106.398 38.2387 103.376 44.1914 101.713 50.4928C101.062 52.9576 103.492 56.2362 104.562 59.1195C104.62 59.2939 105.166 59.3172 105.492 59.3405C107.154 59.5032 108.828 59.8404 110.468 59.7357C111.305 59.6776 112.514 59.0033 112.828 58.2825C115.153 53.1204 117.316 47.8769 119.455 42.6335C119.734 41.9475 119.815 40.9593 119.536 40.3082C118.78 38.5759 117.781 36.9482 117.164 35.7972H113.049C114.06 34.6927 114.537 34.1811 115.246 33.4022C113.06 32.8557 111.165 32.3791 109.003 31.8443L109.014 31.8326Z" fill="black"/>
<path d="M83.4054 31.1352C85.8353 33.1465 87.7769 34.844 89.8347 36.4019C90.4277 36.8553 91.4857 37.3204 92.0089 37.0762C92.5204 36.8437 92.8111 35.7276 92.8576 34.9719C92.9855 33.2163 93.0552 31.6002 90.5672 31.0538C89.3581 30.7864 88.3233 29.3796 87.37 28.3565C81.8242 22.3806 76.7435 16.0443 72.5116 9.0336C72.0581 8.28952 70.1979 7.54544 69.6515 7.8826C68.6284 8.52205 68.0006 9.89395 67.396 11.045C67.1402 11.5333 67.5936 12.4285 67.303 12.8703C65.1289 16.2303 62.8617 19.5205 60.5946 22.8224C60.5365 22.9154 60.3039 22.8921 60.0365 22.9619C59.6064 17.8231 59.1878 12.7075 58.746 7.59194C58.6181 6.09215 58.4089 4.60398 58.3391 3.10419C58.2112 0.325506 58.7693 -0.255809 61.4898 0.0929803C66.2915 0.697548 71.0583 1.88343 75.8599 1.98807C80.7197 2.08108 85.6376 1.32537 90.4742 0.604537C93.8574 0.104607 94.3341 0.174364 94.276 3.67388C94.1365 11.4402 93.6598 19.2066 93.7296 26.9614C93.8109 37.2274 94.3574 47.4934 94.5783 57.7594C94.7062 63.8632 94.2411 64.1306 88.335 62.3751C86.9049 61.9449 84.9284 61.9216 84.196 60.9566C83.5333 60.073 84.3588 58.178 84.3122 56.7247C84.0332 49.1443 83.6844 41.564 83.3705 33.9953C83.3356 33.193 83.3705 32.3908 83.3705 31.1468L83.4054 31.1352Z" fill="black"/>
<path d="M70.5206 15.3701C73.4621 19.4044 76.264 23.1249 78.9032 26.9499C79.345 27.5894 79.2287 28.6939 79.1939 29.5775C78.8334 37.2276 78.3568 44.866 78.101 52.5161C78.0196 55.0739 78.4963 57.6433 78.7172 60.2825C73.2528 61.1196 67.8582 62.0381 62.4404 62.7124C60.0337 63.0147 58.8478 61.8404 58.8595 59.3175C58.8711 55.818 59.1501 52.3185 59.3129 48.8073C59.5338 43.6336 59.6733 38.4599 60.0105 33.2979C60.0918 32.0771 60.6615 30.775 61.3242 29.717C63.8239 25.6943 66.4631 21.7413 69.0441 17.7651C69.4859 17.0792 69.9044 16.3816 70.5206 15.3701Z" fill="black"/>
<path d="M39.9445 126.552C35.666 126.552 31.3294 126.657 27.0044 126.506C24.8884 126.424 23.9932 127.052 23.5049 129.214C20.7611 141.341 17.8545 153.432 14.9828 165.535C14.7968 166.337 14.541 167.116 14.2852 168H0.787109V163.221C3.3449 163.221 5.98406 163.105 8.61161 163.256C10.4951 163.373 11.181 162.605 11.5996 160.85C14.5526 148.596 17.6452 136.388 20.5634 124.134C21.0285 122.192 21.8423 121.599 23.7607 121.657C28.0159 121.785 32.2828 121.692 36.538 121.704C40.7932 121.704 40.9792 121.96 39.9329 126.552H39.9445Z" fill="black"/>
<path d="M142.487 157.99H138.208C138.208 154.013 138.069 150.095 138.255 146.201C138.371 143.817 137.674 142.992 135.209 143.108C129.977 143.34 130.779 142.585 130.721 147.712C130.686 151.118 130.721 154.525 130.721 157.99H126.582V138.446C131.895 138.876 137.371 136.783 142.429 141.073C142.336 138.539 143.591 138.155 145.405 138.376C146.475 138.504 147.579 138.364 148.66 138.411C152.241 138.562 154.404 140.783 154.404 144.282C154.404 148.782 154.404 153.269 154.404 157.955H150.114V148.119C150.114 143.108 150.114 143.189 145.021 143.131C143.056 143.108 142.394 143.678 142.464 145.677C142.603 149.747 142.51 153.816 142.51 158.013L142.487 157.99Z" fill="black"/>
<path d="M68.5332 158.188H55.2095V167.966H51.0938V138.423C56.5581 138.423 61.9643 138.4 67.3589 138.481C67.7542 138.481 68.4751 139.295 68.4751 139.737C68.5448 145.736 68.5216 151.735 68.5216 158.188H68.5332ZM64.0803 153.119V143.702C61.7202 143.527 59.36 143.341 56.9999 143.167C56.7558 143.144 56.4186 143.085 56.2675 143.213C55.8722 143.539 55.2676 143.957 55.256 144.353C55.1746 147.236 55.2095 150.131 55.2095 153.107H64.0803V153.119Z" fill="black"/>
<path d="M71.8359 143.155V138.585H89.0661V157.932H71.9289V145.794C75.4633 145.794 78.9512 145.84 82.4391 145.771C83.3692 145.747 84.8225 146.363 84.869 144.538C84.9155 142.724 83.5204 143.178 82.5321 143.166C79.0442 143.12 75.5447 143.155 71.8359 143.155ZM84.6365 153.083C85.1829 151.444 84.9039 150.572 83.0669 150.63C81.3114 150.688 79.5674 150.677 77.8119 150.63C75.754 150.584 75.661 151.572 76.3121 153.083H84.6249H84.6365Z" fill="black"/>
<path d="M105.891 157.955V145.933H118.575C119.238 144.027 119.029 143.12 117.029 143.155C113.378 143.224 109.739 143.178 105.984 143.178C105.891 142.213 105.856 141.573 105.775 140.922C105.507 139.004 106.217 138.283 108.251 138.341C112.588 138.481 116.936 138.318 121.261 138.446C121.959 138.469 123.226 139.33 123.237 139.83C123.377 145.817 123.33 151.793 123.33 157.955H105.891ZM119.575 153.211C118.773 151.991 118.389 150.793 117.901 150.747C115.692 150.537 113.436 150.572 111.216 150.723C110.786 150.747 110.262 151.607 110.111 152.177C110.053 152.398 110.902 153.142 111.367 153.165C113.82 153.27 116.285 153.211 119.587 153.211H119.575Z" fill="black"/>
<path d="M169.635 145.876H182.4V157.921H165.193V153.224H177.901C178.633 151.142 177.936 150.573 176.145 150.619C172.576 150.701 168.995 150.643 165.228 150.643V138.598H182.365V143.167C178.738 143.167 175.029 143.225 171.32 143.144C169.425 143.109 168.925 143.841 169.646 145.876H169.635Z" fill="black"/>
<path d="M40.048 157.978H36.1067C36.1067 155.269 36.0369 152.712 36.1299 150.142C36.1764 148.631 35.6649 148.061 34.1302 148.096C30.9679 148.189 27.8171 148.119 24.4688 148.119V143.317C27.5148 143.317 30.5726 143.201 33.6186 143.352C35.63 143.457 36.2229 142.725 36.1532 140.783C36.0253 137.307 36.1183 133.819 36.1183 130.191H40.0596V157.955L40.048 157.978Z" fill="black"/>
<path d="M102.217 143.038C101.438 143.084 100.787 143.131 100.124 143.166C97.6828 143.294 96.6597 144.293 96.6481 146.7C96.6248 150.432 96.6481 154.164 96.6481 158.013H92.4277C92.4277 156.699 92.4277 155.408 92.4277 154.118C92.4277 149.618 92.4975 145.119 92.3928 140.62C92.3463 138.817 93.0323 138.248 94.7181 138.364C96.0435 138.457 97.3805 138.387 98.7175 138.387C102.984 138.387 103.031 138.445 102.229 143.038H102.217Z" fill="black"/>
<path d="M47.4912 158.013H43.6895V130.214H47.4912V158.013Z" fill="black"/>
<path d="M161.682 158.036H157.764V138.551H161.682V158.036Z" fill="black"/>
</g>
<defs>
<clipPath id="clip0_1047_565">
<rect width="181.614" height="168" fill="white" transform="translate(0.785156)"/>
</clipPath>
</defs>
</svg>
