<svg width="121" height="78" viewBox="0 0 121 78" fill="none" xmlns="http://www.w3.org/2000/svg">
<g clip-path="url(#clip0_2006_13569)">
<path d="M119.767 35.0155C119.69 35.2117 119.63 35.4079 119.54 35.5983C118.895 36.9889 117.436 37.5601 115.99 37.2659C115.44 37.1562 114.944 36.9254 114.514 36.6196C114.137 36.7581 113.999 37.1966 113.569 37.2139C113.456 36.8908 113.438 34.7559 113.533 34.3174C113.922 34.2423 113.934 34.2366 114.029 34.5597C114.197 35.1194 114.436 35.6445 114.83 36.0945C115.757 37.162 117.376 37.2659 118.405 36.3253C118.757 36.008 118.99 35.6214 119.05 35.1598C119.14 34.4154 118.889 33.8038 118.171 33.4691C117.544 33.1749 116.874 32.9672 116.223 32.7248C115.894 32.6036 115.559 32.5113 115.237 32.3786C113.91 31.8304 113.444 30.6245 113.569 29.4128C113.695 28.1607 114.579 27.2721 115.876 27.0586C116.677 26.9259 117.442 27.0643 118.154 27.4509C118.291 27.5259 118.428 27.6067 118.554 27.676C118.895 27.5894 118.984 27.1509 119.373 27.1624C119.48 27.4567 119.516 29.2743 119.415 29.9379C119.277 29.9436 119.128 29.9494 118.948 29.9609C118.913 29.7936 118.889 29.6609 118.853 29.5282C118.59 28.5126 118.064 27.7164 116.946 27.4163C115.966 27.1567 114.962 27.5606 114.561 28.3684C114.376 28.7434 114.358 29.13 114.46 29.5224C114.537 29.8224 114.741 30.0533 115.034 30.1802C115.273 30.2841 115.518 30.3648 115.769 30.4456C116.504 30.6764 117.245 30.8841 117.968 31.1438C118.662 31.3861 119.205 31.8247 119.528 32.4825C119.618 32.6729 119.678 32.8748 119.749 33.071V35.0155H119.767Z" fill="white"/>
<path d="M8.12271 33.1404H7.63857C7.58478 32.8346 7.54294 32.5403 7.4772 32.2518C7.4234 32.021 7.35168 31.7902 7.25007 31.5709C7.05881 31.1497 6.73007 30.8554 6.27582 30.7169C5.71398 30.5438 5.14019 30.4977 4.56043 30.5611C4.47077 30.8843 4.44686 36.0023 4.53652 36.562H6.46111V37.0121C6.1264 37.1102 0.191247 37.1217 -0.227142 37.0121V36.5736H1.81101V24.2948H-0.19128C-0.280935 23.8217 -0.268981 23.7986 0.155386 23.7986C1.57193 23.7986 2.9825 23.7986 4.39905 23.7986C6.48502 23.7986 8.57098 23.7986 10.657 23.7986H11.1889C11.2666 25.1315 11.3144 26.4471 11.3264 27.7973H10.8064C10.7586 27.6184 10.7107 27.428 10.651 27.2433C10.5135 26.8279 10.4059 26.4009 10.2326 26.0028C9.84408 25.1084 9.16868 24.5256 8.14064 24.416C7.4772 24.3467 6.8018 24.3294 6.13237 24.3064C5.61238 24.289 5.0864 24.3064 4.57836 24.3064C4.46479 24.6526 4.44686 29.5456 4.55445 30.0014C5.26571 30.0418 5.97099 30.013 6.61651 29.6668C7.22019 29.3436 7.42938 28.7782 7.54892 28.1665C7.5788 27.9992 7.59674 27.8377 7.6326 27.6242C7.79398 27.6184 7.93742 27.6068 8.12271 27.6011V33.1461V33.1404Z" fill="white"/>
<path d="M109.206 52.239C108.984 52.3314 108.757 52.4237 108.53 52.5045C107.938 52.7237 107.586 52.5506 107.401 51.9621C107.377 51.8813 107.347 51.8063 107.311 51.7082C106.743 51.7659 106.265 51.9967 105.799 52.2564C105.123 52.6314 104.55 53.1276 104.041 53.6989C103.767 54.0105 103.486 54.3163 103.229 54.6394C103.091 54.8125 102.93 54.8875 102.703 54.8702C102.505 54.8529 102.302 54.8702 101.997 54.8702C102.685 54.0393 103.378 53.3469 104.047 52.5737C103.737 52.6199 103.474 52.7006 103.223 52.6776C102.96 52.6545 102.703 52.5333 102.392 52.4352C102.266 52.5737 102.129 52.7526 101.961 52.9084C101.477 53.37 100.993 53.8431 100.479 54.2817C100.037 54.6567 99.5049 54.9221 98.9431 55.0606C98.5904 55.1472 98.1721 55.1529 97.8314 55.0606C97.3173 54.9164 97.0962 54.3855 97.2337 53.8489C97.2755 53.6758 97.3413 53.5085 97.419 53.2777C97.2636 53.3584 97.1679 53.4046 97.0663 53.4508C96.3969 53.7623 95.7334 54.0739 95.064 54.3855C94.6337 54.5875 94.1914 54.7721 93.767 54.9914C93.4502 55.1529 93.1155 55.1183 92.7868 55.1241C92.6433 55.1241 92.4939 55.1126 92.3505 55.1068C91.9261 55.0952 91.699 54.9221 91.681 54.5182C91.6691 54.2009 91.7289 53.8893 91.7587 53.5489C91.6571 53.6066 91.5496 53.6643 91.4479 53.7277C90.5275 54.3105 89.5652 54.8125 88.4893 55.0606C88.0889 55.1529 87.6466 55.1356 87.2342 55.101C86.8935 55.0722 86.6126 54.7144 86.6305 54.374C86.6424 54.1259 86.6903 53.8604 86.7978 53.6412C86.9772 53.2719 87.1804 52.9084 87.4314 52.591C88.1965 51.6274 89.1408 50.86 90.2764 50.3349C90.665 50.156 91.0953 50.0291 91.5197 49.9656C92.1114 49.8791 92.4939 50.3176 92.3684 50.8831C92.2787 51.3101 91.9918 51.6043 91.6512 51.8582C91.0654 52.2967 90.39 52.5622 89.6787 52.741C89.3142 52.8334 88.9376 52.8911 88.5611 52.9372C88.3638 52.9603 88.1965 53.0065 88.0709 53.168C87.8677 53.4219 87.6406 53.6643 87.4434 53.9239C87.3418 54.0566 87.2521 54.2124 87.1983 54.3682C87.0907 54.674 87.1983 54.8875 87.539 54.9048C87.9096 54.9221 88.2981 54.8991 88.6627 54.8183C89.4516 54.6452 90.1689 54.2932 90.8502 53.8777C92.219 53.0411 93.51 52.1006 94.6098 50.9408C94.7054 50.8369 94.7891 50.7215 94.8907 50.6176C95.0102 50.4907 95.0222 50.3695 94.9803 50.1964C94.8668 49.7521 95.0042 49.3598 95.3688 49.0597C95.5721 48.8924 95.7932 48.8808 95.9247 49.002C96.0921 49.152 96.0682 49.3367 95.9725 49.504C95.8769 49.6771 95.7633 49.8387 95.6438 50.0002C95.5362 50.1503 95.4107 50.283 95.2732 50.4503C95.4286 50.6407 95.5721 50.8138 95.7155 50.9869C96.5164 51.9217 96.5164 52.7295 95.7155 53.6758C95.6378 53.7681 95.5661 53.8662 95.5362 54.0105C95.6259 53.9758 95.7215 53.9528 95.8052 53.9124C96.116 53.7566 96.4268 53.6008 96.7376 53.4392C97.2875 53.1623 97.7417 52.8045 98.1242 52.314C98.8654 51.3793 99.7858 50.6119 100.91 50.1156C101.256 49.9599 101.657 49.8906 102.039 49.8271C102.195 49.8041 102.392 49.8675 102.529 49.9541C102.691 50.0464 102.816 50.156 103.025 50.1676C103.229 50.1791 103.312 50.3695 103.294 50.5426C103.276 50.7619 103.247 50.9985 103.163 51.2004C103.013 51.5524 102.822 51.8813 102.631 52.2506C102.84 52.5045 103.151 52.5333 103.474 52.4872C104 52.4121 104.43 52.1409 104.783 51.789C105.207 51.3678 105.607 50.9119 105.996 50.4561C106.199 50.2137 106.42 50.0926 106.749 50.133C106.928 50.156 107.114 50.133 107.293 50.133C107.305 50.1618 107.317 50.1964 107.329 50.2253C106.749 50.8427 106.169 51.4601 105.524 52.1525C106.163 51.9159 106.701 51.7255 107.233 51.512C107.323 51.4774 107.383 51.3504 107.424 51.2524C107.586 50.8831 107.825 50.5657 108.148 50.3118C108.273 50.2137 108.411 50.1387 108.554 50.0637C108.739 49.9714 108.931 49.9599 109.074 50.1272C109.206 50.2772 109.164 50.4503 109.074 50.6003C108.99 50.733 108.895 50.8658 108.769 50.9581C108.512 51.1427 108.237 51.2985 107.962 51.4601C107.855 51.5235 107.729 51.5639 107.568 51.639C107.604 51.8005 107.616 51.9736 107.675 52.1179C107.795 52.3891 108.028 52.5045 108.315 52.4064C109.014 52.1698 109.708 51.9448 110.216 51.3562C110.837 50.635 111.525 49.9656 112.248 49.2097C111.877 49.1924 111.59 49.1809 111.298 49.1694C111.292 49.1463 111.286 49.1174 111.28 49.0943C111.339 49.0597 111.399 49.0078 111.465 48.9905C111.531 48.9732 111.614 48.9732 111.68 48.9847C112.206 49.0655 112.583 48.8693 112.917 48.4769C113.336 47.9865 113.82 47.5595 114.256 47.0863C114.447 46.8786 114.651 46.7748 114.938 46.7978C115.135 46.8152 115.332 46.7978 115.529 46.7978C115.541 46.8325 115.553 46.8613 115.565 46.8959C114.926 47.5595 114.286 48.2173 113.581 48.9443C113.915 48.9674 114.172 48.9905 114.459 49.0136C114.37 49.2155 114.22 49.1982 114.107 49.1809C113.521 49.0828 113.144 49.3425 112.768 49.7521C111.423 51.2177 110.042 52.6487 108.68 54.0912C108.542 54.2355 108.417 54.3971 108.309 54.5586C108.172 54.7663 108.249 54.9164 108.512 54.9279C108.715 54.9395 108.925 54.9164 109.116 54.8702C110.335 54.5586 111.405 53.9758 112.367 53.1969C112.911 52.7526 113.467 52.3198 113.999 51.8524C114.364 51.5293 114.692 51.1716 115.039 50.8254C115.2 50.6638 115.254 50.4965 115.177 50.2541C115.057 49.8618 115.296 49.3425 115.643 49.152C115.81 49.0597 115.995 48.9847 116.169 49.1405C116.318 49.2848 116.276 49.4579 116.193 49.6079C116.073 49.8156 115.93 50.0118 115.786 50.2022C115.703 50.3118 115.601 50.4099 115.487 50.5369C115.667 50.7619 115.822 50.9869 116.001 51.1831C116.886 52.1294 116.515 53.1392 115.954 53.7797C115.864 53.8835 115.768 53.9874 115.697 54.1259C116.707 53.7681 117.603 53.22 118.452 52.5968C118.476 52.6199 118.5 52.6429 118.524 52.666C118.476 52.7295 118.446 52.8103 118.38 52.8564C117.502 53.4912 116.563 54.022 115.547 54.4374C115.135 54.6048 114.722 54.7894 114.328 54.9914C113.927 55.1991 113.527 55.1126 113.103 55.0433C113.18 54.9914 113.258 54.9337 113.342 54.8933C114.041 54.5471 114.627 54.0682 115.123 53.4912C115.242 53.3527 115.35 53.1969 115.452 53.0411C115.954 52.2621 115.912 51.5005 115.362 50.733C115.314 50.7619 115.26 50.785 115.23 50.8196C114.663 51.5639 113.957 52.1698 113.234 52.7583C113.001 52.9488 112.768 53.1449 112.547 53.3469C112.003 53.8489 111.913 54.2874 112.2 54.9798C112.212 55.0087 112.188 55.0548 112.182 55.101C111.847 54.8644 111.806 54.6279 111.949 53.7623C111.847 53.8085 111.758 53.8431 111.68 53.8893C110.903 54.4028 110.072 54.8067 109.17 55.0491C108.895 55.1241 108.596 55.1183 108.309 55.1126C108.106 55.1126 107.944 54.876 107.909 54.6163C107.873 54.322 107.944 54.0509 108.112 53.8085C108.387 53.4104 108.686 53.0295 108.978 52.6429C109.062 52.5333 109.164 52.4295 109.253 52.3256C109.235 52.3025 109.224 52.2737 109.206 52.2506V52.239ZM102.547 50.3003C102.278 49.9483 102.177 49.8964 101.854 50.0868C101.507 50.2887 101.161 50.5138 100.886 50.7965C99.9592 51.7544 99.0626 52.7353 98.1661 53.7162C98.0226 53.872 97.921 54.0682 97.8433 54.2586C97.7238 54.5529 97.8612 54.7952 98.178 54.8702C98.3454 54.9106 98.5366 54.9337 98.692 54.8933C99.0566 54.7952 99.4272 54.6971 99.75 54.5182C100.718 53.9932 101.483 53.243 102.171 52.4064C102.272 52.2794 102.278 52.1698 102.23 52.0198C102.015 51.4024 102.099 50.8254 102.553 50.2945L102.547 50.3003ZM95.1477 50.5773C95.1059 50.5946 95.07 50.6003 95.058 50.6234C94.3946 51.4947 93.5399 52.1756 92.7031 52.8737C92.4401 53.093 92.219 53.3584 92.0158 53.6296C91.8066 53.9008 91.7827 54.2297 91.8484 54.5586C91.9141 54.8933 92.1293 55.0318 92.482 54.9741C92.5836 54.9568 92.6852 54.9337 92.7748 54.8991C93.9583 54.4432 94.8548 53.67 95.4167 52.5564C95.7753 51.8467 95.5721 51.1947 95.1537 50.5715L95.1477 50.5773ZM88.5192 52.6429C88.5312 52.6776 88.5491 52.7064 88.5611 52.741C88.7463 52.718 88.9376 52.7122 89.1169 52.6718C89.9776 52.4929 90.7307 52.1006 91.3583 51.5062C91.5316 51.3389 91.693 51.1485 91.8185 50.9465C91.95 50.733 92.0935 50.4907 91.9082 50.2368C91.7886 50.0695 91.4898 50.0868 91.1371 50.2599C91.0236 50.3176 90.904 50.3811 90.8024 50.4561C89.9358 51.0793 89.2305 51.864 88.5132 52.6314L88.5192 52.6429Z" fill="white"/>
<path d="M29.9324 46.8725C29.2929 47.536 28.6474 48.1996 27.9361 48.9324C28.3007 48.9497 28.5757 48.967 28.8506 48.9843C28.8566 49.0074 28.8626 49.0247 28.8685 49.0478C28.8088 49.0882 28.755 49.1343 28.6892 49.1574C28.6354 49.1747 28.5697 49.1747 28.5159 49.1574C27.9242 49.042 27.5536 49.3363 27.177 49.7402C25.8143 51.2058 24.4157 52.6426 23.035 54.0909C22.8497 54.2813 22.6465 54.4659 22.5807 54.7602C22.8138 54.9737 23.0768 54.9448 23.3159 54.8467C23.6506 54.7083 23.9853 54.5582 24.2842 54.362C25.4437 53.6062 26.5256 52.7464 27.5357 51.8059C28.2111 51.1712 28.9462 50.623 29.8069 50.2537C30.1476 50.1095 30.5182 49.9941 30.8888 49.9422C31.5522 49.8498 31.9586 50.323 31.7614 50.9346C31.6897 51.1539 31.5582 51.3847 31.3848 51.5405C31.0979 51.7944 30.7812 52.0309 30.4405 52.2098C29.6934 52.6022 28.8805 52.8445 28.0258 52.908C27.7688 52.9253 27.5835 53.0118 27.4341 53.2023C27.2368 53.4446 27.0216 53.6812 26.8364 53.9293C26.7288 54.0735 26.6391 54.2467 26.5913 54.4198C26.5256 54.6506 26.6272 54.8121 26.8662 54.8641C27.0635 54.9044 27.2727 54.9102 27.4699 54.8987C28.0138 54.8641 28.5278 54.6852 29.012 54.4601C30.2552 53.8774 31.3251 53.0465 32.4069 52.2329C32.4727 52.181 32.5205 52.1059 32.5743 52.0367C34.6722 49.2613 37.0809 46.7628 39.8363 44.5875C40.2308 44.2759 40.6731 44.0278 41.1094 43.7797C41.3963 43.6181 41.725 43.5374 42.006 43.7855C42.2869 44.0336 42.2092 44.3567 42.1076 44.651C41.9342 45.1414 41.6115 45.5396 41.2588 45.9204C40.3563 46.8898 39.3044 47.6918 38.2106 48.4419C37.2602 49.094 36.292 49.7287 35.3237 50.3518C34.9949 50.5653 34.6961 50.7961 34.457 51.1077C33.7398 52.0309 33.0106 52.9426 32.2874 53.8601C32.1738 54.0043 32.0662 54.1601 31.9825 54.3217C31.8032 54.6679 31.9527 54.916 32.3591 54.8987C32.6639 54.8871 32.9807 54.8525 33.2556 54.7371C33.8115 54.5005 34.3853 54.2582 34.8754 53.9235C35.9811 53.1734 37.0809 52.406 38.0492 51.4828C38.2464 51.2924 38.4317 51.0962 38.623 50.9C38.8561 50.6577 39.0294 50.4095 38.9577 50.0345C38.9039 49.7691 38.9995 49.4979 39.1788 49.2844C39.2745 49.169 39.406 49.0536 39.5494 49.0016C39.651 48.967 39.8184 48.9959 39.9021 49.0593C39.9678 49.1113 40.0037 49.2728 39.9678 49.3594C39.8961 49.5556 39.7885 49.7402 39.663 49.9133C39.5434 50.0864 39.388 50.2422 39.2207 50.4326C39.4119 50.6576 39.6032 50.8827 39.7885 51.1077C40.2906 51.7078 40.428 52.3598 40.0754 53.0696C40.0037 53.208 39.9021 53.3292 39.8064 53.4561C39.6929 53.6119 39.5793 53.7677 39.4896 53.9466C40.4998 53.6466 41.3545 53.0811 42.2092 52.5272C42.245 52.5733 42.2809 52.6137 42.3227 52.6599C42.2391 52.706 42.1494 52.7407 42.0717 52.7926C41.1393 53.4331 40.171 53.9985 39.0772 54.339C38.9278 54.3851 38.7844 54.4601 38.6469 54.5467C37.9775 54.9564 37.2602 55.1929 36.4533 55.0891C36.3936 55.0833 36.3398 55.0775 36.28 55.0775C35.8317 55.066 35.6106 54.8814 35.5986 54.4544C35.5986 54.1947 35.6584 53.9351 35.7002 53.6235C35.4193 53.8081 35.1563 53.9755 34.8993 54.1543C34.3375 54.5409 33.7278 54.8467 33.0704 55.0371C32.7596 55.1237 32.4009 55.1179 32.0782 55.0718C31.8092 55.0372 31.6419 54.8121 31.5522 54.5582C31.4446 54.2524 31.4805 53.9466 31.612 53.6523C31.7315 53.3811 31.869 53.1215 32.0124 52.8157C31.8212 52.8445 31.7255 52.9715 31.606 53.0522C31.0202 53.4446 30.4465 53.8543 29.8488 54.2351C29.2331 54.6275 28.5518 54.8871 27.8405 55.0487C27.4699 55.1352 27.0575 55.1064 26.669 55.0718C26.2984 55.0372 26.0175 54.6852 26.0414 54.3159C26.0593 54.0562 26.149 53.7966 26.2267 53.5427C26.2745 53.3869 26.3642 53.2484 26.3821 53.058C26.0295 53.3234 25.6828 53.5889 25.3302 53.8543C24.7564 54.287 24.1527 54.6794 23.4892 54.9852C23.2322 55.1064 22.9812 55.1006 22.7242 55.0775C22.515 55.0602 22.3178 54.841 22.3357 54.5813C22.3536 54.2928 22.4014 53.987 22.5329 53.7331C22.7122 53.3811 22.9812 53.0753 23.2083 52.7522C23.2561 52.6887 23.298 52.6253 23.4115 52.4752C22.784 52.7176 22.264 52.7464 21.7858 52.3541C21.6065 52.556 21.463 52.7291 21.3017 52.8907C20.8594 53.3177 20.4171 53.7504 19.9568 54.1543C19.4608 54.5871 18.869 54.8814 18.2355 55.0371C17.8888 55.1237 17.4644 55.1179 17.1297 55.0025C16.6217 54.8237 16.4304 54.2986 16.5978 53.762C16.6934 53.4561 16.8249 53.1503 17.0042 52.8791C17.7992 51.6847 18.8451 50.7384 20.166 50.0979C20.5426 49.9133 20.943 49.7633 21.3794 49.7806C21.5228 49.7806 21.6782 49.8037 21.7978 49.8729C21.9771 49.9768 22.1205 50.1268 22.3656 50.1383C22.4433 50.1383 22.5748 50.3518 22.5688 50.4615C22.5568 50.7384 22.515 51.0269 22.4134 51.2808C22.2938 51.5924 22.1026 51.8809 21.9293 52.204C22.1564 52.4406 22.4672 52.4983 22.7899 52.4406C23.286 52.3541 23.7403 52.1348 24.0869 51.7886C24.8879 50.9923 25.6589 50.1614 26.4359 49.3421C26.4718 49.3074 26.4957 49.2555 26.5614 49.169C26.2327 49.1459 25.9577 49.1228 25.641 49.0997C25.7844 48.8747 25.9697 48.9209 26.1072 48.9382C26.6331 49.0132 27.0097 48.8228 27.3444 48.4304C27.7508 47.9515 28.229 47.5303 28.6474 47.0686C28.8566 46.8378 29.0837 46.7109 29.4065 46.7513C29.5619 46.7686 29.7232 46.7513 29.8786 46.7513L29.9324 46.8436V46.8725ZM21.8276 50.2711C21.6005 49.9652 21.4989 49.9075 21.218 50.046C20.9132 50.2018 20.5964 50.3749 20.3633 50.6173C19.3771 51.627 18.4148 52.6599 17.4585 53.7043C17.309 53.8658 17.2194 54.0909 17.1536 54.2986C17.058 54.6275 17.2254 54.8525 17.572 54.9044C17.6975 54.9218 17.841 54.9391 17.9605 54.9044C18.355 54.7775 18.7734 54.6679 19.132 54.4717C20.0465 53.9581 20.7757 53.2311 21.4332 52.4348C21.5467 52.2964 21.5467 52.1752 21.4929 52.0136C21.3256 51.5405 21.3555 51.0731 21.6005 50.6288C21.6663 50.5076 21.7559 50.398 21.8276 50.2884V50.2711ZM35.3117 50.0518L35.3894 50.1153C35.4611 50.0691 35.5388 50.0287 35.6046 49.9825C36.6147 49.2901 37.6248 48.5977 38.623 47.8938C39.5673 47.2302 40.4878 46.5378 41.2409 45.6665C41.4919 45.378 41.6892 45.0433 41.8685 44.7087C41.9522 44.5587 41.9701 44.3567 41.9701 44.1778C41.9701 43.9066 41.7968 43.7855 41.5338 43.8662C41.3186 43.9355 41.1034 44.0451 40.9241 44.1836C40.4758 44.5413 40.0096 44.8876 39.6152 45.2972C38.5333 46.4166 37.4814 47.5649 36.4294 48.7131C36.0349 49.1401 35.6823 49.6017 35.3117 50.046V50.0518ZM39.1609 50.6403C38.6588 51.1135 38.1867 51.5751 37.6965 52.0136C37.3021 52.3656 36.8777 52.6887 36.4772 53.0349C36.1186 53.3407 35.8616 53.7043 35.8138 54.1832C35.7421 54.8987 36.029 55.141 36.7342 54.9044C37.8101 54.5467 38.623 53.8601 39.2087 52.9311C39.6869 52.1752 39.6331 51.4135 39.1669 50.6403H39.1609ZM27.9003 52.7233C28.0616 52.7233 28.1393 52.7291 28.2051 52.7233C29.3826 52.5618 30.3508 52.0425 31.1039 51.1539C31.2115 51.0269 31.2892 50.8654 31.355 50.7154C31.4267 50.5596 31.4625 50.3865 31.3311 50.2364C31.1816 50.0691 30.9724 50.098 30.8051 50.173C30.5421 50.2884 30.2671 50.4095 30.058 50.5999C29.4005 51.1943 28.7729 51.8174 28.1334 52.4348C28.0676 52.4983 28.0138 52.5791 27.8943 52.7233H27.9003Z" fill="white"/>
<path d="M58.1917 27.4274H57.594C57.5163 27.1158 57.4565 26.8157 57.3609 26.5215C56.9425 25.2982 56.1714 24.3923 54.8147 24.0865C53.8046 23.8614 52.8662 24.0403 52.1131 24.7789C51.5333 25.3386 51.354 26.0252 51.4974 26.7984C51.5871 27.26 51.8381 27.612 52.2744 27.8082C52.5912 27.9524 52.9259 28.0505 53.2547 28.1544C54.217 28.4429 55.1912 28.6795 56.1356 29.0141C57.7195 29.5681 58.6101 30.6759 58.7774 32.3146C58.879 33.3129 58.7953 34.2822 58.3351 35.1939C57.4206 37.023 55.5259 37.5885 53.8524 37.3577C53.0156 37.2423 52.2505 36.948 51.605 36.4345C51.1089 36.6134 50.8997 37.2134 50.2722 37.2134V33.2782H50.84C50.8878 33.4456 50.9296 33.6071 50.9774 33.7687C51.2345 34.6169 51.623 35.3959 52.2984 36.019C53.7508 37.3577 56.1714 37.1384 57.2473 35.5747C57.6776 34.94 57.7972 34.2476 57.6179 33.5148C57.4924 33.0013 57.1935 32.5743 56.7153 32.3146C56.2372 32.055 55.7291 31.8299 55.2151 31.6395C54.5636 31.403 53.8882 31.2125 53.2248 31.0048C52.0772 30.6471 51.1568 30.0239 50.6786 28.9218C50.2602 27.9524 50.1765 26.9542 50.5232 25.956C51.0133 24.5539 52.0772 23.7749 53.5834 23.596C54.8446 23.446 56.022 23.6883 57.0262 24.4673C57.4924 24.3461 57.6059 23.723 58.1917 23.7633V27.4274Z" fill="white"/>
<path d="M44.0857 36.7978C44.1455 36.994 44.1156 37.0979 43.9482 37.1383C43.1653 37.3287 42.3883 37.3691 41.6292 37.0575C40.7924 36.717 40.5294 36.0304 40.4696 35.2226C40.4338 34.761 40.4158 34.2994 40.38 33.832C40.368 33.705 40.3381 33.5839 40.3142 33.4569C40.1588 32.6318 39.7524 32.2452 38.6945 32.049C38.3598 31.9856 38.0071 32.0375 37.6306 32.0375V36.6767H39.1009C39.1129 36.8209 39.1188 36.9248 39.1308 37.0517H34.2177C34.152 36.7113 34.152 36.6997 34.4329 36.694C34.8214 36.6824 35.2159 36.694 35.5924 36.694C35.694 36.3651 35.7299 28.2292 35.6343 27.5945H34.1938V27.2195C34.3133 27.2079 34.409 27.1848 34.5106 27.1906C36.232 27.1906 37.9533 27.1906 39.6747 27.2079C40.123 27.2079 40.5712 27.2887 41.0195 27.3464C41.1749 27.3637 41.3303 27.4156 41.4857 27.4676C42.2687 27.7272 42.7768 28.2235 42.8963 29.0313C43.0218 29.8795 42.7708 30.5892 42.0237 31.1027C41.4797 31.4778 40.8581 31.6682 40.2126 31.8009C40.1469 31.8125 40.0811 31.8298 39.9138 31.8702C40.0632 31.9336 40.1289 31.974 40.1947 31.9913C41.8085 32.4125 42.3763 33.2608 42.5437 34.8187C42.5855 35.211 42.5795 35.6034 42.6034 35.9958C42.6453 36.6247 42.8903 36.8382 43.5478 36.8267C43.7211 36.8267 43.8885 36.8036 44.0857 36.7921V36.7978ZM37.6365 31.6047C38.2462 31.6047 38.8319 31.6451 39.4057 31.5932C40.0752 31.5297 40.5354 31.1604 40.6968 30.5084C40.8581 29.8679 40.8402 29.2275 40.6848 28.587C40.5533 28.033 40.1768 27.7157 39.591 27.6464C39.2444 27.6061 38.8977 27.5945 38.545 27.583C38.2462 27.5772 37.9473 27.583 37.6306 27.5887V31.5932L37.6365 31.6047Z" fill="white"/>
<path d="M56.4345 50.1735C55.9623 50.6525 55.538 51.0852 55.1136 51.5237C55.1255 51.541 55.1435 51.5584 55.1554 51.5757C55.2272 51.5237 55.3049 51.4776 55.3766 51.4256C55.9563 51.0275 56.5301 50.6178 57.1219 50.237C57.2952 50.1216 57.5223 50.0581 57.7315 50.0177C58.3292 49.9023 58.8612 50.3062 58.8612 50.889C58.8612 51.1198 58.8133 51.3795 58.6998 51.5757C58.4786 51.9507 58.2156 52.3142 57.9288 52.6431C57.5343 53.0932 57.092 53.5086 56.6855 53.9472C56.5122 54.1318 56.3448 54.3338 56.2014 54.5415C56.1476 54.6165 56.1297 54.7838 56.1775 54.8415C56.2313 54.905 56.3927 54.9396 56.4883 54.9108C56.7094 54.8473 56.9425 54.7723 57.1219 54.6454C57.7255 54.2241 58.3113 53.7856 58.897 53.3471C59.3573 53.0009 59.7577 52.597 60.1343 52.1642C60.9113 51.2814 61.8616 50.6063 62.9972 50.2139C63.3738 50.087 63.7922 50.0177 64.1926 50.0235C64.8501 50.035 65.0593 50.2832 65.0713 50.9871C65.1908 50.8775 65.2864 50.8082 65.3641 50.7275C67.0078 49.0484 68.6515 47.375 70.2832 45.6902C70.5043 45.4594 70.7255 45.3555 71.0423 45.3844C71.2395 45.4017 71.4427 45.3844 71.7356 45.3844C71.5802 45.5575 71.4965 45.6613 71.4009 45.7536C68.6933 48.4714 65.9857 51.1948 63.2841 53.9126C63.1407 54.0568 62.9972 54.2011 62.8956 54.3684C62.8239 54.4896 62.7522 54.6915 62.806 54.7838C62.8657 54.8762 63.0929 54.9396 63.2244 54.9166C63.577 54.8531 63.9416 54.7781 64.2644 54.6396C64.9876 54.3222 65.5913 53.826 66.2009 53.3471C66.5416 53.0817 66.8584 52.7932 67.1931 52.5162C67.3066 52.4181 67.4262 52.3315 67.5457 52.2335C67.5696 52.2565 67.5876 52.2738 67.6115 52.2969C67.5756 52.3489 67.5517 52.4066 67.5039 52.447C66.7269 53.0817 65.9618 53.7395 65.1549 54.3395C64.7425 54.6396 64.2584 54.8762 63.7742 55.0493C63.4754 55.1589 63.1108 55.1358 62.788 55.0897C62.537 55.055 62.3697 54.8415 62.3457 54.5761C62.3338 54.4376 62.3457 54.2934 62.3457 54.1087C62.2382 54.1722 62.1605 54.2126 62.0828 54.2588C61.6345 54.5242 61.2161 54.8415 60.7379 55.032C60.4391 55.1531 60.0446 55.1358 59.7159 55.0666C59.435 55.0089 59.2138 54.7492 59.2019 54.4434C59.1839 54.0741 59.2258 53.6991 59.2437 53.3182C59.1959 53.3529 59.1242 53.399 59.0524 53.4509C58.3651 53.9933 57.7016 54.5703 56.9067 54.9742C56.7453 55.055 56.554 55.107 56.3747 55.1185C55.9623 55.1416 55.7292 54.9569 55.7232 54.5646C55.7232 54.3107 55.783 54.028 55.9026 53.8029C56.0759 53.4798 56.309 53.1855 56.554 52.9086C56.9844 52.4296 57.4446 51.9796 57.8869 51.5122C58.0782 51.3045 58.2694 51.0852 58.4129 50.8429C58.5862 50.5544 58.4248 50.2485 58.0782 50.2255C57.8451 50.2139 57.5761 50.2601 57.3669 50.3639C56.9186 50.5948 56.4763 50.8486 56.0759 51.1487C54.749 52.1238 53.5536 53.2375 52.4598 54.4492C52.161 54.7781 51.8561 54.9512 51.4138 54.8819C51.3003 54.8646 51.1867 54.8819 50.9835 54.8819C51.2584 54.4607 51.6171 54.2011 51.8502 53.8202C51.7605 53.8722 51.6649 53.9183 51.5812 53.976C50.9835 54.3799 50.3679 54.755 49.6925 55.0262C49.4056 55.1416 49.1246 55.1358 48.8378 55.107C48.5688 55.0781 48.3417 54.7896 48.3417 54.4953C48.3417 54.3222 48.3835 54.1434 48.4074 53.9241C48.2161 54.0683 48.0667 54.2068 47.8994 54.3049C47.4511 54.5703 47.0267 54.905 46.5426 55.055C45.5923 55.3493 44.8451 54.9569 44.9587 53.8895C45.0125 53.3817 45.2635 52.9489 45.5863 52.5624C46.5605 51.3737 47.8097 50.5428 49.298 50.0639C49.5909 49.9716 49.9315 49.9485 50.2423 49.9889C50.7265 50.0466 50.8938 50.2832 50.9118 50.7621C50.9118 50.7967 50.9297 50.8313 50.9476 50.9294C51.109 50.7736 51.2584 50.664 51.372 50.5255C51.635 50.1851 51.9757 50.0697 52.4 50.1216C52.5256 50.1389 52.6511 50.1389 52.8364 50.1505C52.7467 50.2601 52.6989 50.3236 52.6451 50.3813C51.5453 51.5064 50.4396 52.6316 49.3458 53.7625C49.1486 53.9645 48.9633 54.1895 48.8138 54.4319C48.6405 54.7088 48.7959 54.9627 49.1306 54.9223C49.4414 54.8819 49.7582 54.7896 50.0391 54.6569C51.0014 54.2011 51.8382 53.5606 52.657 52.9028C53.5297 52.1988 54.3366 51.4199 55.0658 50.5774C55.4363 50.1505 55.8428 50.0466 56.4524 50.1851L56.4345 50.1735ZM46.0764 54.9223C46.2139 54.8819 46.4768 54.8473 46.704 54.7377C47.0745 54.553 47.4451 54.3395 47.7798 54.0914C48.5688 53.5086 49.2741 52.8335 49.8897 52.0777C50.1407 51.7661 50.3619 51.4372 50.5711 51.1025C50.7145 50.8659 50.7922 50.6063 50.583 50.3524C50.3858 50.1101 50.1109 50.1043 49.824 50.1447C49.4474 50.2024 49.1426 50.387 48.8557 50.6063C47.7201 51.4891 46.698 52.4989 45.7357 53.5548C45.5743 53.7279 45.4488 53.9529 45.3711 54.1722C45.2157 54.6338 45.4428 54.9108 46.0704 54.9223H46.0764ZM60.3255 54.9223C60.457 54.8762 60.7021 54.8242 60.9172 54.7146C61.2101 54.5646 61.497 54.3915 61.76 54.1953C62.7761 53.4336 63.6726 52.5508 64.4317 51.5468C64.5513 51.391 64.6588 51.2179 64.7545 51.0506C64.88 50.8313 64.9517 50.6005 64.7485 50.387C64.5453 50.1793 64.2883 50.1389 64.0253 50.2428C63.7444 50.3582 63.4634 50.4793 63.2124 50.6467C62.0947 51.3737 61.0846 52.2161 60.2359 53.2317C60.0087 53.5029 59.8055 53.8029 59.6501 54.1145C59.423 54.5703 59.6979 54.9339 60.3315 54.9281L60.3255 54.9223Z" fill="white"/>
<path d="M9.51562 45.6731C9.49172 45.8347 9.49769 45.9039 9.47379 45.9616C8.95379 47.3234 8.00942 48.2466 6.51518 48.5755C6.1984 48.6447 5.83978 48.6447 5.51702 48.5986C4.51289 48.4601 3.92116 47.6407 4.13036 46.6598C4.20806 46.2963 4.35748 45.9212 4.57863 45.6212C5.3915 44.4845 6.52713 43.7863 7.90782 43.4516C8.43977 43.3247 8.95977 43.3651 9.4439 43.5959C9.83241 43.7805 10.2269 43.9825 10.5795 44.2248C11.6614 44.9807 12.7133 44.9288 13.7772 44.2017C13.9804 44.0633 14.1837 43.9248 14.3869 43.7921C14.4526 43.7517 14.5303 43.7344 14.6678 43.6824C14.5184 44.0459 14.2016 44.1325 13.9924 44.3287C13.7772 44.5364 13.5322 44.7153 13.305 44.9172C13.0839 45.1192 12.8687 45.3327 12.6595 45.5462C12.4503 45.7597 12.2471 45.9789 12.0439 46.204C11.8347 46.4405 11.6375 46.6829 11.4402 46.9252C11.2549 47.156 11.0696 47.3984 10.8903 47.6349C10.711 47.8715 10.5317 48.1139 10.3584 48.3562C10.185 48.5986 10.0117 48.8467 9.84436 49.089C9.677 49.3314 9.51562 49.5737 9.29448 49.9026C9.74275 49.8334 10.0894 49.8045 10.4181 49.718C10.5496 49.6833 10.6632 49.5391 10.7648 49.4237C11.1892 48.939 11.6016 48.4485 12.026 47.9696C12.1276 47.8542 12.2411 47.7619 12.3786 47.6811C11.8347 48.2927 11.3506 48.9448 10.8844 49.7122C11.3386 49.6429 11.6972 49.6083 12.0439 49.5218C12.1754 49.4871 12.2889 49.3371 12.3846 49.2217C13.574 47.8138 14.8292 46.4636 16.2278 45.2404C16.8434 44.7037 17.477 44.1787 18.2301 43.8151C18.4512 43.7113 18.6903 43.619 18.9294 43.5843C19.3657 43.5209 19.5869 43.7401 19.5629 44.1671C19.5331 44.5999 19.3418 44.9807 19.1087 45.3384C18.5528 46.2097 17.7997 46.9195 16.9869 47.5657C16.1561 48.235 15.2535 48.8063 14.2614 49.2275C14.1538 49.2737 14.0462 49.3371 13.9386 49.3487C13.3648 49.4179 13.0301 49.7814 12.7312 50.2142C12.2531 50.9181 11.7331 51.599 11.2729 52.3145C11.0338 52.678 10.8485 53.0877 10.711 53.4974C10.4122 54.3802 10.8604 54.9341 11.8287 54.911C12.3009 54.8995 12.7552 54.7956 13.1855 54.6052C14.5961 53.9821 15.6719 53.0011 16.4011 51.6798C16.5207 51.4605 16.6103 51.2066 16.6402 50.9643C16.7179 50.3065 16.2876 49.9257 15.6301 50.0872C15.2715 50.1738 14.9009 50.3296 14.608 50.5431C14.1179 50.8951 13.6816 51.3105 13.2333 51.7144C13.1437 51.7952 13.0958 51.9221 13.0241 52.026L12.9046 51.9279C12.9404 51.8644 12.9584 51.7952 13.0062 51.7433C13.4784 51.224 13.9685 50.722 14.5662 50.3354C14.9188 50.1045 15.2894 49.9141 15.7257 49.8737C16.425 49.816 16.7956 50.1334 16.8374 50.8027C16.8673 51.2816 16.7298 51.7202 16.4967 52.1356C16.1919 52.6722 15.7855 53.1281 15.3193 53.5378C14.5303 54.2244 13.6397 54.7668 12.6117 55.0322C12.0857 55.1707 11.5239 55.2053 10.9979 54.9399C10.5736 54.7264 10.3464 54.3975 10.2627 53.9532C10.1611 53.4281 10.2329 52.9204 10.4241 52.4184C10.723 51.6336 11.1772 50.9297 11.6554 50.2373C11.751 50.0988 11.8407 49.9603 11.9901 49.741C11.5598 49.8045 11.231 49.8334 10.9142 49.9084C10.8067 49.9314 10.705 50.0584 10.6393 50.1622C10.3405 50.6296 10.0536 51.097 9.77861 51.5817C9.58735 51.9164 9.5993 51.9221 9.13908 51.8529C9.46183 51.1951 9.93401 50.6412 10.3464 49.9949C9.92804 49.943 9.56344 50.0353 9.21678 50.1334C9.07931 50.1738 8.9777 50.37 8.88206 50.5027C8.16483 51.5355 7.33402 52.4761 6.35978 53.2896C5.3138 54.1609 4.12438 54.7899 2.77358 55.0438C2.04439 55.1822 1.26738 55.2457 0.55612 54.8533C0.0420993 54.5706 -0.191003 54.1032 -0.0415786 53.6185C0.0839381 53.2089 0.466465 52.9896 0.866924 53.0877C1.17773 53.1627 1.36301 53.3935 1.36301 53.6993C1.36301 54.0109 1.1837 54.2475 0.878878 54.3225C0.771292 54.3513 0.657729 54.3686 0.532212 54.3975C0.532212 54.6802 0.73543 54.7437 0.926694 54.8014C1.50048 54.963 2.08025 54.9457 2.65404 54.8187C3.6522 54.5995 4.45909 54.0571 5.19426 53.3935C6.04897 52.6203 6.73633 51.7086 7.44161 50.8085C7.56115 50.6527 7.67471 50.4969 7.74644 50.2719C7.4177 50.3642 7.07701 50.445 6.75426 50.5546C6.42552 50.6642 6.09679 50.797 5.78598 50.9412C5.48713 51.0855 5.19426 51.247 4.91334 51.4259C4.63243 51.6048 4.36346 51.8067 4.08852 52.0029C4.06461 51.9741 4.0407 51.951 4.0168 51.9221C4.12438 51.8183 4.22001 51.7086 4.33955 51.6221C5.33173 50.872 6.43748 50.3469 7.66874 50.1045C7.9377 50.0526 8.09908 49.9372 8.25448 49.7295C9.49769 48.085 10.8844 46.5732 12.4922 45.2577C12.6894 45.0961 12.8926 44.9461 13.06 44.7384C12.9046 44.8018 12.7492 44.8653 12.5998 44.9345C11.6554 45.3615 10.7409 45.3673 9.88022 44.7326C9.70689 44.6056 9.51562 44.496 9.33034 44.3864C8.69678 44.0056 8.0154 43.8671 7.27425 44.0171C6.10874 44.2537 5.21219 44.8595 4.63243 45.8635C4.45909 46.1636 4.35151 46.5213 4.30967 46.8618C4.19013 47.8715 5.02093 48.6043 6.06093 48.4255C6.31794 48.3793 6.57495 48.3043 6.80805 48.2004C7.93172 47.7042 8.82827 46.9829 9.34229 45.8635C9.36022 45.8174 9.40804 45.7885 9.50367 45.6731H9.51562ZM13.5083 49.314C13.7055 49.2506 13.843 49.2217 13.9745 49.1698C15.2655 48.662 16.3473 47.86 17.3455 46.9425C18.0508 46.2905 18.7202 45.5981 19.1565 44.7384C19.2581 44.5422 19.3298 44.3229 19.3717 44.1036C19.4135 43.8671 19.288 43.7459 19.0489 43.7805C18.8696 43.8094 18.6783 43.8728 18.5289 43.9825C18.1703 44.2421 17.8117 44.5133 17.4889 44.8134C16.0784 46.1405 14.8471 47.6234 13.6158 49.1006C13.586 49.1409 13.568 49.1929 13.5142 49.3083L13.5083 49.314Z" fill="white"/>
<path d="M62.2505 27.5891H60.7801V27.2256H69.2555C69.2794 28.1084 69.3093 28.9624 69.3332 29.8106C68.9746 29.9375 68.9686 29.9318 68.861 29.6317C68.7594 29.3548 68.6638 29.072 68.5383 28.8066C68.2334 28.1777 67.7134 27.8026 67.0082 27.6641C66.5599 27.5776 64.8564 27.5429 64.3185 27.6295V31.784C64.9043 31.8301 65.4721 31.8244 65.9861 31.5012C66.3089 31.2993 66.4583 30.9762 66.536 30.6184C66.5659 30.4972 66.5659 30.3645 66.5957 30.2433C66.6436 30.0299 66.6495 30.0299 66.9843 30.076V34.0632C66.6436 34.1382 66.6316 34.1324 66.5778 33.89C66.518 33.6304 66.4822 33.365 66.3985 33.1111C66.2491 32.661 65.9144 32.3725 65.4302 32.286C65.0776 32.2225 64.713 32.2167 64.3663 32.1879C64.2647 32.5456 64.2348 35.9384 64.3125 36.6482C64.4141 36.6597 64.5217 36.6885 64.6353 36.6885C65.2748 36.6885 65.9203 36.6943 66.5599 36.6885C67.8091 36.6712 68.5383 36.1462 68.9208 34.9921C69.0104 34.7267 69.0702 34.4497 69.1479 34.1786C69.2196 33.9304 69.2256 33.9362 69.5902 34.0054C69.5484 35.0037 69.5065 36.0077 69.4587 37.0521C69.2794 37.0636 69.1419 37.0809 68.9985 37.0809C66.4045 37.0809 63.8045 37.0809 61.2105 37.0809C61.1388 37.0809 61.067 37.0809 60.9893 37.0809C60.7263 37.0694 60.7144 36.9309 60.81 36.6885H62.2445V27.5776L62.2505 27.5891Z" fill="white"/>
<path d="M21.1886 31.7323C21.1408 33.3479 20.7583 34.5827 19.9036 35.6617C18.0806 37.9698 14.5661 37.8428 12.9105 35.6848C11.7569 34.1788 11.3027 32.494 11.8047 30.6648C12.1932 29.2396 13.1137 28.1664 14.4765 27.4797C15.6659 26.8854 16.8912 26.8277 18.0985 27.399C20.0649 28.3337 21.0691 29.8974 21.1826 31.7265L21.1886 31.7323ZM13.8429 32.1535C13.8429 32.1535 13.8608 32.1535 13.8728 32.1535C13.8728 32.6036 13.8668 33.0537 13.8728 33.5037C13.8847 33.9538 13.8728 34.4096 13.9445 34.8482C14.1477 36.1291 14.847 36.8273 15.9827 36.9312C16.3712 36.9658 16.7716 36.9312 17.1541 36.8677C17.7817 36.7581 18.23 36.4003 18.499 35.8349C18.7918 35.2232 18.9054 34.5712 18.9114 33.9076C18.9293 32.6728 18.9114 31.4323 18.9233 30.1975C18.9233 29.6089 18.756 29.0608 18.5229 28.5241C18.2479 27.9067 17.7578 27.5432 17.0884 27.4047C16.5983 27.3009 16.1022 27.3124 15.6121 27.422C14.853 27.5952 14.3509 28.0394 14.1178 28.7607C14.0342 29.0146 13.9565 29.28 13.9385 29.5397C13.8907 30.411 13.8668 31.2822 13.8369 32.1535H13.8429Z" fill="white"/>
<path d="M90.6771 32.0666C90.6591 29.5624 92.5897 27.3582 94.9984 27.0466C96.2177 26.8851 97.2876 27.2832 98.1961 28.0275C99.9653 29.4816 100.533 31.328 99.9713 33.4976C99.6605 34.6862 99.0807 35.7249 98.0527 36.4923C96.2596 37.8309 93.6476 37.5655 92.1713 35.9095C91.1552 34.7728 90.7129 33.4284 90.6771 32.0666ZM92.9125 32.3205C92.9364 33.111 92.9244 33.9592 92.9961 34.7959C93.1037 36.0653 93.8329 36.8039 95.0522 36.9424C95.3092 36.9712 95.5782 36.9712 95.8352 36.9424C96.7855 36.85 97.4311 36.3769 97.706 35.4767C97.7837 35.2229 97.8674 34.9574 97.8674 34.6978C97.8913 33.0822 97.8913 31.4665 97.8913 29.8509C97.8913 29.6143 97.8375 29.3778 97.7897 29.1412C97.5267 27.9641 96.7437 27.3525 95.5065 27.3409C95.3331 27.3409 95.1538 27.3409 94.9805 27.364C94.0899 27.4736 93.4564 27.9064 93.1814 28.7488C93.0858 29.0431 93.0021 29.3489 92.9842 29.6547C92.9364 30.526 92.9304 31.3973 92.9065 32.3205H92.9125Z" fill="white"/>
<path d="M109.863 33.4922V27.5952C109.468 27.5952 109.098 27.5952 108.721 27.5894C108.446 27.5836 108.446 27.5778 108.488 27.2259H111.853C111.859 27.3413 111.865 27.4336 111.871 27.5778H110.371C110.341 28.6915 110.359 29.7532 110.359 30.8149C110.359 31.8823 110.359 32.9498 110.359 34.023V37.2081C109.923 37.3062 109.917 37.3062 109.689 36.9716C108.44 35.1598 107.191 33.3422 105.936 31.5246C105.201 30.4571 104.466 29.3954 103.73 28.328C103.671 28.2414 103.593 28.1606 103.473 28.0106V36.6946H104.872C104.878 36.8446 104.884 36.9369 104.89 37.0293C104.836 37.0523 104.794 37.0812 104.758 37.0812C103.754 37.0812 102.744 37.0927 101.74 37.087C101.465 37.087 101.459 37.0639 101.525 36.7061H102.846C102.941 36.3657 102.965 28.1664 102.876 27.6009H101.531C101.465 27.2259 101.471 27.2028 101.74 27.2028C102.876 27.197 104.017 27.2028 105.153 27.197C105.392 27.197 105.482 27.3528 105.583 27.5028C106.283 28.5068 106.988 29.5051 107.687 30.5091C108.315 31.4092 108.936 32.3093 109.564 33.2037C109.636 33.3076 109.713 33.4056 109.791 33.5095C109.821 33.5037 109.845 33.498 109.875 33.4922H109.863Z" fill="white"/>
<path d="M83.5041 48.9789C83.8747 49.6483 83.6177 50.1849 83.2172 50.6926C82.7988 51.2177 82.3745 51.737 81.9621 52.2621C81.6513 52.6545 81.3763 53.0642 81.2388 53.5546C81.0297 54.299 81.3644 54.824 82.1653 54.8933C82.488 54.9221 82.8467 54.8875 83.1455 54.7721C84.4963 54.2355 85.5184 53.3123 86.2476 52.0948C86.391 51.8582 86.4866 51.5755 86.5225 51.3043C86.6122 50.6811 86.0742 50.2541 85.4407 50.4215C84.9924 50.5369 84.6398 50.8196 84.305 51.1139C84.1736 51.2293 84.066 51.3562 83.9345 51.4774C83.8867 51.5178 83.8209 51.5408 83.7611 51.5697C83.7372 51.5178 83.7133 51.4832 83.7193 51.4716C84.0959 50.9754 84.5561 50.5772 85.1358 50.3118C85.2375 50.2657 85.357 50.231 85.4706 50.208C86.2057 50.0752 86.7795 50.5542 86.7496 51.2754C86.7257 51.7486 86.5643 52.1871 86.3193 52.591C85.5781 53.8085 84.5142 54.6682 83.1156 55.0548C82.3864 55.2568 81.6214 55.1876 81.0595 54.5817C80.5216 53.9989 80.432 53.318 80.7428 52.6141C80.9161 52.216 81.1731 51.8467 81.4361 51.5005C81.7887 51.0388 82.2011 50.6119 82.5717 50.1618C82.7331 49.9656 82.8765 49.7463 83.0021 49.5271C83.0798 49.3886 83.1096 49.2213 83.1634 49.0597C82.7211 49.0597 82.3267 49.1001 81.9441 49.0482C81.5257 48.9905 81.2508 48.7077 81.1313 48.2404C80.9998 48.4135 80.9101 48.5346 80.8145 48.6558C79.9478 49.7867 79.0931 50.9292 78.2025 52.0371C77.6586 52.7179 76.9952 53.295 76.2899 53.8258C75.4711 54.4432 74.5506 54.8817 73.5405 55.0606C72.8232 55.1876 72.0642 55.2395 71.3589 54.8875C70.9764 54.6971 70.6895 54.4317 70.6118 54.0104C70.552 53.6642 70.6775 53.37 70.9764 53.1622C71.2513 52.9718 71.5561 52.9661 71.837 53.1392C72.0941 53.3007 72.1957 53.5373 72.1718 53.8258C72.1478 54.097 71.9506 54.2009 71.7175 54.2759C71.598 54.3163 71.4844 54.3624 71.3469 54.4086C71.4246 54.6567 71.6099 54.7317 71.8012 54.7894C72.357 54.9683 72.9189 54.9625 73.4807 54.8067C74.0963 54.6394 74.6283 54.3278 75.1244 53.9528C75.8297 53.4219 76.4453 52.7987 76.9952 52.1236C77.9396 50.9581 78.8481 49.7752 79.7745 48.5981C80.5336 47.6345 81.2986 46.6767 82.1832 45.8169C82.9303 45.0957 83.7372 44.4552 84.7234 44.0513C84.7593 44.034 84.7832 44.0051 84.849 43.9474C84.4844 43.757 84.1198 43.6993 83.7552 43.6589C81.7708 43.4223 79.9 43.8147 78.1069 44.6283C77.2821 45.0033 76.523 45.4765 75.8775 46.0997C75.5428 46.4285 75.2439 46.7978 74.9809 47.1844C74.694 47.5941 74.6104 48.0615 74.6881 48.5577C74.8136 49.3194 75.4292 49.7521 76.2002 49.5675C76.5887 49.4752 76.9773 49.3136 77.3179 49.1116C78.3579 48.4942 79.1648 47.6403 79.7147 46.5959C79.9179 46.215 80.0016 45.7765 80.1391 45.3611C80.169 45.2745 80.1929 45.1822 80.2168 45.0899C80.2467 45.0899 80.2766 45.0899 80.3064 45.0899C80.3184 45.188 80.3483 45.2861 80.3423 45.3784C80.2825 46.0766 80.0375 46.7228 79.6729 47.3229C79.0991 48.2634 78.346 49.0366 77.294 49.4867C76.9653 49.6252 76.6067 49.729 76.254 49.7867C75.1184 49.9656 74.3115 49.1924 74.4669 48.0903C74.5267 47.6518 74.6881 47.2479 74.9331 46.8728C75.4591 46.0881 76.1763 45.4938 76.9892 45.0091C78.7943 43.9359 80.7547 43.3704 82.8825 43.3992C83.5998 43.4108 84.311 43.5031 84.9864 43.7512C85.1657 43.8147 85.3092 43.8089 85.4885 43.7339C86.0443 43.5031 86.0443 43.5089 86.3671 43.5839C86.1161 43.6877 85.8591 43.7974 85.5722 43.9186C85.7455 44.0397 85.883 44.1378 86.0204 44.2359C87.2696 45.1649 87.3653 46.6074 86.2356 47.6691C85.5841 48.2865 84.7772 48.6443 83.9106 48.8808C83.803 48.9097 83.6894 48.9385 83.5101 48.9905L83.5041 48.9789ZM81.3106 47.9692C82.2131 47.8018 82.9244 48.0384 83.4384 48.7308C84.1257 48.5981 84.8848 48.125 85.4407 47.4902C85.8232 47.0517 86.1101 46.5728 86.2057 45.9958C86.3372 45.1937 85.9368 44.4206 85.1896 44.0513C83.5519 45.0264 82.3924 46.4574 81.3166 47.9634L81.3106 47.9692ZM83.0977 48.8462C83.0917 48.5808 82.9542 48.4365 82.7869 48.3673C82.5239 48.2634 82.249 48.1769 81.968 48.1365C81.6393 48.0903 81.3942 48.2057 81.3763 48.3615C81.3584 48.5231 81.5437 48.7135 81.8306 48.8116C82.237 48.9501 82.6494 48.8981 83.0977 48.8462Z" fill="white"/>
<path d="M25.8803 27.5897C25.8683 27.7628 25.8504 27.8897 25.8504 28.0109C25.8504 30.0766 25.8504 32.148 25.8504 34.2137C25.8504 34.5369 25.8863 34.86 25.946 35.1773C26.1014 36.0198 26.5975 36.5737 27.4941 36.7468C28.026 36.8507 28.5639 36.8737 29.1019 36.7814C30.112 36.6025 30.7695 35.8871 30.9129 34.8196C30.9547 34.5138 30.9727 34.2022 30.9727 33.8964C30.9727 31.9576 30.9727 30.0131 30.9727 28.0743C30.9727 27.9359 30.9607 27.7974 30.9488 27.6185H29.5561C29.5442 27.4685 29.5322 27.3704 29.5262 27.2781C29.58 27.2492 29.6039 27.2261 29.6338 27.2261C30.6678 27.2261 31.7019 27.2146 32.7419 27.2146C33.0228 27.2146 33.0228 27.2319 32.969 27.6012H31.4986C31.4986 27.8147 31.4986 27.982 31.4986 28.1436C31.4986 30.1573 31.4867 32.1653 31.4807 34.1791C31.4807 34.6869 31.403 35.1889 31.2058 35.662C30.9786 36.2044 30.638 36.6603 30.0701 36.8853C28.4564 37.5315 26.8485 37.5662 25.2587 36.7814C24.6132 36.4641 24.2366 35.9505 24.1051 35.2754C24.0155 34.808 23.9437 34.3291 23.9378 33.856C23.9138 31.9576 23.9258 30.0593 23.9198 28.1609C23.9198 27.9936 23.9198 27.832 23.9198 27.6127H22.4256V27.2377H27.3446V27.6012H25.8863L25.8803 27.5897Z" fill="white"/>
<path d="M77.5927 36.7061C77.5628 36.5733 77.5568 36.4926 77.5329 36.4176C77.2998 35.7655 77.0547 35.1193 76.8396 34.4615C76.7559 34.2191 76.6244 34.1384 76.3614 34.1441C75.4888 34.1557 74.6101 34.1557 73.7375 34.1441C73.4805 34.1441 73.349 34.2134 73.2653 34.4615C73.0561 35.102 72.8111 35.7367 72.578 36.3714C72.5481 36.4579 72.5301 36.556 72.4943 36.6945H73.8989C73.9826 37.035 73.9766 37.0811 73.7554 37.0811C72.7692 37.0927 71.777 37.0811 70.7968 37.0811C70.7311 36.7176 70.7311 36.7118 71.006 36.7003C71.2092 36.6888 71.4125 36.7003 71.6157 36.7003C71.9803 36.7003 71.9862 36.7003 72.1118 36.3599C72.56 35.1712 73.0083 33.9826 73.4566 32.7939C74.1439 30.9706 74.8373 29.1472 75.5246 27.3239C75.5844 27.1623 75.6202 27.0123 75.8593 27.0008C76.1223 26.9892 76.212 27.1104 76.2837 27.3239C76.6602 28.4029 77.0488 29.4761 77.4313 30.5551C78.1186 32.4823 78.806 34.4096 79.4933 36.3425C79.5292 36.4464 79.577 36.5503 79.6428 36.7003H80.8621C80.868 36.8388 80.874 36.9311 80.88 37.0407C80.7784 37.058 80.6947 37.0869 80.611 37.0869C79.1945 37.0869 77.7839 37.0869 76.3674 37.0869C76.0446 37.0869 76.0446 37.0753 76.0924 36.7003H77.5807L77.5927 36.7061ZM76.4929 33.7287C76.0506 32.3669 75.6083 31.0456 75.154 29.7358C75.1182 29.7358 75.0883 29.7358 75.0524 29.7358C74.5504 31.0514 74.0483 32.3727 73.5283 33.7287H76.4929Z" fill="white"/>
<path d="M87.282 27.6989C87.5151 27.5027 87.7124 27.3354 87.9156 27.1738C87.9455 27.1507 87.9993 27.168 88.0411 27.1623C88.1786 27.4162 88.2204 29.2684 88.1009 29.9377C87.9873 29.9435 87.8618 29.955 87.7363 29.9608C87.7004 29.8858 87.6646 29.8396 87.6526 29.7877C87.545 29.2222 87.3299 28.7087 86.9593 28.2586C86.3855 27.5604 85.6324 27.2661 84.7239 27.3642C83.7257 27.4739 83.0085 28.3163 83.1041 29.2337C83.1519 29.678 83.3611 30.0069 83.7915 30.1858C83.9648 30.2608 84.1441 30.3243 84.3234 30.382C84.9749 30.5839 85.6264 30.7801 86.2779 30.9763C86.4572 31.034 86.6365 31.0917 86.8099 31.1609C87.7662 31.5533 88.3878 32.2284 88.5252 33.2324C88.597 33.7402 88.6269 34.2826 88.5312 34.7846C88.1128 37.0118 85.9731 37.71 84.3055 37.1503C83.911 37.0176 83.5404 36.8156 83.14 36.6368C82.8471 36.7579 82.7216 37.1734 82.3211 37.2138C82.2135 36.8907 82.1837 34.8019 82.2793 34.3114C82.614 34.2537 82.6021 34.2595 82.7096 34.5249C82.871 34.9173 83.0085 35.3212 83.2237 35.6847C83.7556 36.556 84.5565 37.0003 85.6204 36.9599C86.8517 36.9137 87.808 35.927 87.7482 34.773C87.7184 34.2653 87.5092 33.844 87.0609 33.5613C86.7919 33.394 86.505 33.2555 86.2062 33.1459C85.5128 32.892 84.8016 32.6785 84.1083 32.4304C83.0683 32.0553 82.4885 31.311 82.345 30.2608C82.2016 29.2049 82.4586 28.2701 83.3552 27.5777C84.2876 26.8622 85.8117 26.8161 86.8995 27.4623C87.019 27.5373 87.1446 27.6066 87.288 27.6931L87.282 27.6989Z" fill="white"/>
</g>
<defs>
<clipPath id="clip0_2006_13569">
<rect width="120" height="76.8" fill="white" transform="translate(0.0870972 0.75415)"/>
</clipPath>
</defs>
</svg>
