<svg width="174" height="59" viewBox="0 0 174 59" fill="none" xmlns="http://www.w3.org/2000/svg">
<g clip-path="url(#clip0_1047_402)">
<path d="M41.6832 43.4395C41.6832 47.8195 41.5862 52.2046 41.722 56.5847C41.785 58.6782 40.7667 59.0494 39.1859 58.7227C38.701 58.6238 37.9785 57.921 37.9737 57.4854C37.9009 49.5369 37.9203 41.5934 37.9203 33.2391C39.1811 33.2391 40.2382 33.3182 41.2759 33.2193C42.6385 33.0856 43.167 33.7439 43.4774 35.0059C44.3842 38.6634 45.3976 42.2912 46.7263 45.9042C46.7263 42.4397 46.7699 38.9752 46.7069 35.5157C46.6778 34.0408 46.8766 33.1698 48.6756 33.1995C50.3485 33.2242 50.5425 34.0309 50.5328 35.4019C50.4989 42.4942 50.5134 49.5864 50.5086 56.6787C50.5086 57.718 50.6152 58.8663 49.0587 58.7574C47.7785 58.6683 46.2802 59.3216 45.7807 57.1687C44.8594 53.1845 43.7101 49.2548 42.6579 45.3053C42.4833 44.657 42.299 44.0136 42.1196 43.3652C41.9742 43.39 41.8287 43.4098 41.6832 43.4345V43.4395Z" fill="black"/>
<path d="M170.252 45.8696V33.6796C173.627 32.7244 173.952 32.9471 173.956 36.1344C173.961 42.8357 173.976 49.532 173.942 56.2333C173.937 57.2925 174.461 58.7574 172.502 58.7772C170.926 58.7921 169.592 58.9703 169.102 56.7085C168.104 52.1304 166.751 47.6315 165.141 43.1574C165.141 47.6018 165.107 52.0512 165.16 56.4956C165.18 57.9507 165.015 58.8168 163.211 58.8317C161.315 58.8465 161.32 57.8171 161.325 56.4362C161.354 49.5024 161.325 42.5635 161.354 35.6296C161.354 34.6398 160.893 33.1154 162.692 33.2837C164.244 33.4272 166.329 32.2146 166.983 35.0406C167.827 38.7031 168.884 42.316 169.844 45.9488C169.98 45.924 170.116 45.8993 170.257 45.8746L170.252 45.8696Z" fill="black"/>
<path d="M61.4484 43.2019C61.4484 47.686 61.4144 52.17 61.4678 56.654C61.4823 58.0497 61.2399 58.8366 59.5912 58.8366C58.0007 58.8366 57.637 58.1586 57.6467 56.7084C57.6855 49.6261 57.6467 42.5387 57.6661 35.4564C57.6661 34.4962 57.3945 33.0906 58.9753 33.3034C60.4398 33.5014 62.52 32.1057 63.2037 34.7734C64.0232 37.9656 64.8864 41.1529 65.735 44.3353C65.8271 44.6768 65.9726 45.0084 66.5254 45.2856V33.6697C70.007 32.7689 70.2592 32.9471 70.2592 36.1839C70.264 42.9545 70.2737 49.725 70.2398 56.4907C70.2398 57.4063 70.6859 58.7723 69.0323 58.7426C67.7037 58.7178 66.1277 59.4305 65.5846 57.1242C64.4742 52.4174 63.1116 47.7701 61.8557 43.098C61.7199 43.1326 61.5793 43.1623 61.4435 43.197L61.4484 43.2019Z" fill="black"/>
<path d="M142.35 46.033C142.35 43.6722 142.272 41.3114 142.369 38.9507C142.519 35.1744 144.595 33.1105 148.178 33.0215C151.931 32.9324 154.225 34.8972 154.366 38.7626C154.535 43.5535 154.54 48.3641 154.385 53.155C154.259 57.0204 151.965 59.0347 148.241 58.9753C144.648 58.9209 142.563 56.8966 142.384 53.1055C142.272 50.7497 142.364 48.3839 142.364 46.0281H142.355L142.35 46.033ZM146.554 45.8697C146.554 45.8697 146.559 45.8697 146.564 45.8697C146.564 48.1464 146.559 50.428 146.564 52.7046C146.564 54.0211 146.976 55.298 148.464 54.9417C149.177 54.7734 150.103 53.5212 150.132 52.7343C150.293 48.2602 150.293 43.7762 150.132 39.307C150.103 38.5052 149.201 37.2432 148.493 37.065C147.019 36.6938 146.568 37.9559 146.554 39.2724C146.534 41.4698 146.554 43.6722 146.554 45.8697Z" fill="black"/>
<path d="M18.9456 45.9439C18.9456 43.5039 18.8631 41.0639 18.965 38.6289C19.1056 35.1496 21.1567 33.1748 24.5705 33.0363C28.2364 32.8878 30.5882 34.5953 30.7628 38.1637C31.015 43.3406 31.0247 48.5472 30.8161 53.7241C30.6707 57.2628 28.2558 59.099 24.6917 59C21.1761 58.901 19.1153 56.8966 18.9698 53.2589C18.8728 50.8239 18.9504 48.3839 18.9504 45.9439H18.9456ZM26.7865 46.0874C26.7865 43.8058 26.9417 41.5143 26.7041 39.2575C26.6168 38.4458 25.7246 37.2976 24.9778 37.0748C23.6298 36.6789 23.1158 37.8717 23.1061 39.0892C23.0721 43.6474 23.0673 48.2057 23.0964 52.764C23.1061 53.9221 23.3679 55.0208 24.8469 55.0406C26.4035 55.0604 26.772 53.9963 26.7817 52.6897C26.8011 50.4873 26.7865 48.2898 26.7865 46.0874Z" fill="black"/>
<path d="M50.377 25.1768C46.5801 26.0033 46.3619 25.9439 45.8528 22.5685C45.5861 20.8215 44.5338 20.965 43.3555 20.9699C42.1044 20.9699 41.0134 20.8017 40.7709 22.717C40.3636 25.9241 40.1163 25.9637 36.6152 25.1867C37.2456 21.0343 37.8711 16.8571 38.5209 12.6849C39.0689 9.18577 39.7526 5.70645 40.1599 2.19248C40.3587 0.460245 41.0134 -0.138614 42.6572 0.0296601C43.7919 0.148442 44.9508 0.0544064 46.4346 0.0544064C47.7633 8.52257 49.0726 16.8621 50.377 25.1817V25.1768ZM43.4719 7.10709C43.3458 7.10214 43.2148 7.09719 43.0888 7.09224C42.6233 10.3637 42.1529 13.6302 41.6777 16.9907H44.9314C44.4223 13.5411 43.9519 10.3241 43.4767 7.11204L43.4719 7.10709Z" fill="black"/>
<path d="M95.3534 46.0378C95.3534 43.4444 95.1886 40.8362 95.3922 38.2576C95.6686 34.7684 97.6616 33.051 101.027 33.0065C104.513 32.9619 106.511 34.6991 106.996 38.218C107.083 38.8416 107.054 39.4751 107.132 40.0987C107.336 41.6973 106.565 42.1131 105.12 42.123C103.66 42.1329 102.923 41.6924 103.107 40.1037C103.16 39.6434 103.248 39.0346 103.02 38.7228C102.535 38.0596 101.842 37.0846 101.26 37.0995C100.634 37.1193 99.5237 38.1141 99.5043 38.708C99.3636 43.583 99.3733 48.463 99.5188 53.338C99.5382 53.922 100.678 54.9069 101.298 54.9019C101.885 54.9019 102.603 53.922 103 53.2192C103.272 52.7391 103.136 51.9868 103.102 51.3632C103.034 49.9675 103.146 48.9777 105.003 48.9727C106.836 48.9727 107.156 49.7448 107.151 51.388C107.142 56.7925 105.1 59.2375 100.624 58.9801C97.6228 58.8069 95.6832 57.1588 95.4068 54.0507C95.174 51.3979 95.3583 48.7104 95.3583 46.0378C95.3534 46.0378 95.3486 46.0378 95.3437 46.0378H95.3534Z" fill="black"/>
<path d="M8.35905 42.4943C8.22327 40.7373 8.34935 39.5693 7.98082 38.5993C7.71897 37.9163 6.80734 37.1491 6.12846 37.0848C5.61931 37.0353 4.54281 38.04 4.52826 38.5993C4.40219 43.5535 4.40219 48.5126 4.52826 53.4668C4.54281 53.9964 5.67265 54.9615 6.18665 54.8922C6.86553 54.8031 7.8111 54.0063 7.99537 53.3332C8.3348 52.0909 8.20388 50.7101 8.27661 49.2154H12.0735C12.0735 50.7101 12.1656 52.0414 12.0541 53.353C11.7389 57.0897 9.74104 58.9902 6.23514 58.9902C2.53529 58.9902 0.445327 57.154 0.314402 53.2738C0.149533 48.4037 0.236816 43.5188 0.314402 38.6438C0.353195 36.2781 1.28422 34.2885 3.61663 33.457C5.90056 32.6453 8.23782 32.6404 10.1775 34.3528C12.2044 36.1395 12.4226 38.6933 11.9183 41.0887C11.7825 41.7321 9.79438 41.9648 8.35905 42.4993V42.4943Z" fill="black"/>
<path d="M81.8424 54.8524H88.2286V58.7475C84.9555 58.7475 81.7551 58.797 78.5595 58.6831C78.191 58.6683 77.5509 57.7477 77.5461 57.2429C77.483 49.7646 77.4733 42.2813 77.5703 34.803C77.5752 34.2784 78.4819 33.3479 79.0105 33.3182C81.6241 33.1599 84.2669 33.0807 86.8709 33.2885C89.567 33.5063 87.9037 35.5652 88.311 37.1588H81.8327V43.6919C83.5201 43.7958 85.1009 43.8948 86.8563 44.0086V47.6117C85.1397 47.7156 83.5589 47.8096 81.8472 47.9136V54.8475L81.8424 54.8524Z" fill="black"/>
<path d="M19.4688 0.0643743C22.7031 0.0643743 25.7823 -0.0197629 28.8469 0.153461C29.3124 0.178207 30.0543 1.40067 30.0446 2.05892C30.0349 2.69737 29.293 3.79611 28.7596 3.8753C27.1061 4.11286 25.404 3.96438 23.5517 3.96438V10.6261C24.6815 10.6261 25.6707 10.6657 26.6551 10.6162C28.0032 10.5469 28.7984 10.8438 28.8323 12.5266C28.8711 14.3281 28.0419 14.6399 26.5824 14.5607C25.6077 14.5063 24.6185 14.63 23.5177 14.6795V21.46C25.6513 21.559 27.7558 21.6579 29.807 21.752C30.5586 25.3402 30.4035 25.558 27.2418 25.5629C24.7106 25.5728 22.1794 25.5629 19.4784 25.5629V0.0643743H19.4688Z" fill="black"/>
<path d="M116.824 37.3471C115.956 37.2679 115.35 37.1243 114.759 37.1738C113.294 37.3025 112.703 36.7828 112.717 35.1892C112.727 33.5757 113.386 33.1847 114.812 33.2144C118.109 33.2837 121.411 33.2342 124.636 33.2342C125.582 36.7531 125.524 36.8125 121.154 37.3916C121.111 38.1785 121.033 39.01 121.033 39.8464C121.024 45.2758 121.014 50.7051 121.033 56.1344C121.038 57.6142 121.188 58.8416 118.987 58.8713C116.664 58.901 116.805 57.6093 116.81 56.0255C116.839 49.8934 116.824 43.7563 116.824 37.3471Z" fill="black"/>
<path d="M3.96602 25.365V4.3059C1.13739 3.74168 -0.110448 2.38394 0.222523 0.232666H12.0155V3.80107C10.8129 3.89016 9.68795 3.97925 8.23807 4.08813V25.365H3.96117H3.96602Z" fill="black"/>
<path d="M135.431 46.2754C135.431 49.8141 135.358 53.3528 135.46 56.8915C135.508 58.5891 134.699 58.8118 133.336 58.8069C132.007 58.8019 131.159 58.6584 131.178 56.9311C131.246 49.6211 131.251 42.3061 131.178 34.996C131.159 33.1648 132.201 33.2588 133.418 33.2291C134.645 33.1994 135.489 33.338 135.455 34.9564C135.377 38.7278 135.431 42.504 135.431 46.2803V46.2754Z" fill="black"/>
</g>
<defs>
<clipPath id="clip0_1047_402">
<rect width="174" height="59" fill="white"/>
</clipPath>
</defs>
</svg>
