<svg width="91" height="31" viewBox="0 0 91 31" fill="none" xmlns="http://www.w3.org/2000/svg">
<g clip-path="url(#clip0_2006_13592)">
<path d="M21.6224 22.2161C21.6224 24.4366 21.5744 26.6594 21.6439 28.8774C21.6775 29.9397 21.15 30.1267 20.3323 29.9613C20.0829 29.9109 19.7088 29.5536 19.7064 29.3354C19.6681 25.3094 19.6777 21.2809 19.6777 17.0463C20.3299 17.0463 20.8766 17.087 21.4113 17.0367C22.1163 16.9695 22.3897 17.3028 22.5503 17.9431C23.0203 19.7966 23.5431 21.6334 24.2313 23.4654C24.2313 21.7101 24.2528 19.9549 24.2217 18.1996C24.2073 17.4539 24.308 17.0103 25.2384 17.0271C26.104 17.0415 26.2047 17.4491 26.1999 18.1445C26.1807 21.7389 26.1903 25.3334 26.1879 28.9278C26.1879 29.4529 26.2431 30.0356 25.4374 29.9805C24.7756 29.9349 23.9987 30.2682 23.7421 29.1772C23.2649 27.1582 22.6726 25.1679 22.1259 23.1657C22.0372 22.8372 21.9413 22.511 21.8478 22.1825C21.7734 22.1945 21.6967 22.2065 21.6224 22.2185V22.2161Z" fill="white"/>
<path d="M88.1261 23.4512V17.2719C89.8718 16.7875 90.0396 16.9002 90.042 18.5164C90.0444 21.9118 90.0516 25.3072 90.0348 28.7026C90.0324 29.2397 90.301 29.9807 89.2891 29.9903C88.4738 29.9975 87.7856 30.0862 87.5314 28.9424C87.0159 26.6213 86.3157 24.3433 85.4836 22.0749C85.4836 24.3289 85.4669 26.5829 85.4932 28.8345C85.5028 29.5707 85.4189 30.0119 84.4861 30.0191C83.5054 30.0263 83.5078 29.5059 83.5102 28.8057C83.5246 25.2904 83.5102 21.7751 83.5246 18.2598C83.5246 17.7587 83.2848 16.9865 84.2176 17.0705C85.0185 17.1448 86.0999 16.5285 86.4356 17.9601C86.872 19.816 87.4187 21.6456 87.9175 23.4872C87.9894 23.4752 88.059 23.4632 88.1309 23.4488L88.1261 23.4512Z" fill="white"/>
<path d="M31.8449 22.0959C31.8449 24.3691 31.8281 26.6423 31.8545 28.9131C31.8617 29.6205 31.737 30.0186 30.8833 30.0186C30.0608 30.0186 29.8738 29.6733 29.8786 28.9419C29.8978 25.3523 29.8786 21.7626 29.8906 18.1706C29.8906 17.6838 29.7515 16.9716 30.5692 17.0795C31.3269 17.1802 32.4012 16.4729 32.7561 17.8253C33.1805 19.4439 33.6265 21.0576 34.0653 22.6714C34.1133 22.8465 34.1876 23.0119 34.473 23.1534V17.2666C36.2738 16.8086 36.4033 16.8997 36.4033 18.5399C36.4057 21.9712 36.4105 25.4002 36.3937 28.8316C36.3937 29.2944 36.6239 29.9898 35.7678 29.9706C35.0796 29.9562 34.2667 30.3183 33.9838 29.1505C33.4083 26.7646 32.7057 24.4099 32.0535 22.0432C31.9815 22.06 31.912 22.0767 31.8401 22.0911L31.8449 22.0959Z" fill="white"/>
<path d="M73.696 23.5325C73.696 22.336 73.6576 21.1394 73.7056 19.9453C73.7823 18.0317 74.8566 16.9863 76.7126 16.9407C78.6525 16.8951 79.8418 17.8927 79.9113 19.8493C80.0001 22.2784 80.0001 24.7147 79.9209 27.1437C79.8562 29.1028 78.6692 30.1243 76.7437 30.0931C74.8854 30.0644 73.8063 29.0381 73.7152 27.1197C73.6577 25.9256 73.7056 24.729 73.7056 23.5325H73.7008H73.696ZM75.8685 23.4486C75.8685 23.4486 75.8709 23.4486 75.8733 23.4486C75.8733 24.602 75.8709 25.7577 75.8733 26.9111C75.8733 27.5801 76.0867 28.2252 76.8564 28.0453C77.2233 27.959 77.7053 27.326 77.7197 26.9255C77.8036 24.6595 77.8036 22.3863 77.7197 20.1203C77.7053 19.7151 77.2377 19.0748 76.8708 18.9837C76.1083 18.7943 75.8733 19.4345 75.8685 20.1035C75.8589 21.2185 75.8661 22.3336 75.8661 23.4486H75.8685Z" fill="white"/>
<path d="M9.86353 23.487C9.86353 22.2521 9.82036 21.0124 9.87312 19.7799C9.94745 18.0174 11.0049 17.0151 12.7722 16.9456C14.6689 16.8712 15.8846 17.7369 15.9733 19.5449C16.1028 22.1682 16.11 24.8059 15.9997 27.4315C15.9254 29.2252 14.6761 30.1555 12.8297 30.1052C11.0097 30.0548 9.94505 29.0405 9.87072 27.1966C9.82036 25.9616 9.86113 24.7243 9.86113 23.4894L9.86353 23.487ZM13.9184 23.559C13.9184 22.4032 13.9975 21.2402 13.8752 20.0988C13.832 19.6864 13.3668 19.1037 12.9808 18.9934C12.283 18.7919 12.0168 19.3986 12.012 20.0149C11.9929 22.324 11.9929 24.6332 12.0072 26.9448C12.012 27.5299 12.1487 28.0886 12.9112 28.0982C13.7169 28.1101 13.9064 27.5682 13.9136 26.9064C13.9232 25.7914 13.916 24.6764 13.916 23.5613L13.9184 23.559Z" fill="white"/>
<path d="M26.1187 12.9628C24.1549 13.3824 24.0422 13.3512 23.7784 11.6415C23.6417 10.7543 23.095 10.8287 22.4859 10.8311C21.8385 10.8311 21.275 10.7471 21.1503 11.7159C20.9393 13.3392 20.8098 13.3608 19.0018 12.9676C19.3279 10.8622 19.6516 8.74489 19.9873 6.63235C20.2703 4.86031 20.6252 3.09546 20.8362 1.31383C20.9393 0.433805 21.2774 0.131671 22.1286 0.217995C22.7161 0.277942 23.3156 0.229984 24.0805 0.229984C24.7687 4.52221 25.4449 8.74729 26.1211 12.9628H26.1187ZM22.5483 3.80524C22.4811 3.80284 22.4164 3.80044 22.3493 3.79804C22.1071 5.45499 21.8673 7.11193 21.6179 8.81443H23.3012C23.0374 7.06637 22.7929 5.4358 22.5483 3.80764V3.80524Z" fill="white"/>
<path d="M49.383 23.5346C49.383 22.2206 49.2991 20.8993 49.4046 19.5925C49.5484 17.8252 50.5795 16.9524 52.3204 16.9308C54.1236 16.9092 55.1571 17.7869 55.4065 19.5709C55.4497 19.885 55.4377 20.2087 55.4784 20.5228C55.5815 21.3333 55.1835 21.5419 54.4377 21.5491C53.6824 21.5539 53.3011 21.3309 53.3971 20.5252C53.4234 20.2903 53.4714 19.9833 53.3539 19.8251C53.1045 19.4894 52.7448 18.9954 52.4427 19.0026C52.119 19.0122 51.5435 19.5157 51.5363 19.8179C51.4644 22.2877 51.4668 24.7623 51.5435 27.2297C51.5531 27.5247 52.143 28.0234 52.4643 28.0234C52.7664 28.0234 53.1381 27.5271 53.3443 27.1722C53.4858 26.9276 53.4138 26.5487 53.3971 26.2322C53.3611 25.5248 53.4186 25.0237 54.3802 25.0213C55.3298 25.0213 55.4928 25.4145 55.4904 26.2442C55.4856 28.9826 54.4306 30.2223 52.1142 30.0928C50.5604 30.0065 49.558 29.1696 49.4166 27.5942C49.2943 26.2514 49.3926 24.887 49.3926 23.5346C49.3902 23.5346 49.3878 23.5346 49.3854 23.5346H49.383Z" fill="white"/>
<path d="M4.38715 21.7384C4.31522 20.8464 4.38236 20.2565 4.19053 19.7649C4.05385 19.4172 3.58386 19.0288 3.23377 18.9976C2.97 18.9736 2.41369 19.482 2.4041 19.7649C2.33696 22.2755 2.33696 24.7885 2.4041 27.2991C2.41129 27.5677 2.99638 28.0544 3.26254 28.0233C3.61503 27.9777 4.1018 27.5749 4.19772 27.232C4.37277 26.6013 4.30563 25.9035 4.34399 25.1458H6.30786C6.30786 25.9035 6.35582 26.5773 6.29827 27.2439C6.13522 29.1383 5.10172 30.0998 3.28892 30.0998C1.37301 30.0998 0.293955 29.1695 0.226814 27.2032C0.14049 24.7334 0.188448 22.2587 0.226814 19.7889C0.245997 18.59 0.727973 17.5805 1.93651 17.1608C3.11627 16.7508 4.32481 16.746 5.32952 17.614C6.3774 18.5204 6.4925 19.8129 6.22873 21.0286C6.15919 21.3547 5.1305 21.4722 4.38955 21.7432L4.38715 21.7384Z" fill="white"/>
<path d="M42.3958 28.0022H45.6977V29.9757C44.0048 29.9757 42.3479 29.9997 40.6957 29.9421C40.5039 29.9349 40.1754 29.4697 40.173 29.2132C40.1394 25.4221 40.137 21.631 40.185 17.8424C40.1874 17.5762 40.6573 17.1062 40.9283 17.0894C42.2807 17.0103 43.6451 16.9671 44.9951 17.0751C46.3907 17.1854 45.5299 18.2284 45.7385 19.0365H42.3862V22.348C43.2591 22.4008 44.0767 22.4511 44.9855 22.5087V24.3359C44.0983 24.3886 43.2806 24.4366 42.3958 24.4893V28.0046V28.0022Z" fill="white"/>
<path d="M10.1345 0.234374C11.8083 0.234374 13.4005 0.191212 14.9855 0.279934C15.2252 0.294321 15.6089 0.910579 15.6041 1.24628C15.5993 1.57 15.2157 2.12631 14.9375 2.16707C14.0839 2.28937 13.2014 2.21024 12.2423 2.21024V5.58407C12.8274 5.58407 13.3381 5.60565 13.8489 5.57927C14.5466 5.5433 14.9567 5.69437 14.9735 6.54802C14.9927 7.46161 14.5658 7.61988 13.8105 7.57911C13.3045 7.55273 12.7962 7.61508 12.2231 7.63906V11.0752C13.3261 11.1256 14.4148 11.1759 15.4746 11.2239C15.8631 13.0415 15.784 13.1518 14.1462 13.1566C12.8369 13.1614 11.5277 13.1566 10.1297 13.1566V0.234374H10.1345Z" fill="white"/>
<path d="M60.4908 19.1299C60.04 19.0892 59.7283 19.0172 59.4238 19.0436C58.666 19.1083 58.3615 18.8446 58.3663 18.0365C58.3711 17.2188 58.7116 17.0198 59.4501 17.0342C61.155 17.0701 62.8623 17.0461 64.5313 17.0461C65.0204 18.8278 64.9917 18.8614 62.7305 19.1515C62.7089 19.5495 62.6681 19.9716 62.6657 20.396C62.6609 23.1488 62.6561 25.8992 62.6657 28.6519C62.6681 29.4025 62.7472 30.0235 61.6058 30.0379C60.4045 30.0523 60.4764 29.4001 60.4812 28.5968C60.498 25.4891 60.4884 22.3791 60.4884 19.1323L60.4908 19.1299Z" fill="white"/>
<path d="M2.11358 13.0557V2.38514C0.650863 2.09899 0.00583039 1.4108 0.178478 0.320557H6.27871V2.12857C5.65766 2.17413 5.07257 2.21729 4.32443 2.27484V13.0581H2.11358V13.0557Z" fill="white"/>
<path d="M70.1126 23.6545C70.1126 25.4481 70.0766 27.2417 70.127 29.033C70.151 29.8938 69.7313 30.0065 69.0288 30.0017C68.343 29.9993 67.9042 29.9274 67.9114 29.0521C67.9473 25.3474 67.9473 21.6403 67.9114 17.9355C67.9018 17.0075 68.4413 17.0531 69.0695 17.0411C69.7026 17.0267 70.139 17.0963 70.1222 17.9187C70.0814 19.8299 70.1102 21.7434 70.1078 23.6569L70.1126 23.6545Z" fill="white"/>
</g>
<defs>
<clipPath id="clip0_2006_13592">
<rect width="90" height="29.9017" fill="white" transform="translate(0.0633545 0.203369)"/>
</clipPath>
</defs>
</svg>
