<svg width="102" height="23" viewBox="0 0 102 23" fill="none" xmlns="http://www.w3.org/2000/svg">
<g clip-path="url(#clip0_2006_13449)">
<path d="M62.5843 8.32887C64.1503 6.45348 66.2025 5.87255 68.5641 6.28931C70.812 6.68712 71.9676 8.05103 72.037 10.5326C72.1065 12.9763 72.0876 15.42 72.056 17.8637C72.037 19.2907 72.1696 20.5599 73.9314 20.8504C74.0008 20.863 74.0387 21.0588 74.1776 21.3492H66.493C66.474 20.9956 66.4298 20.541 66.4298 20.0927C66.4235 17.3522 66.4425 14.6054 66.4172 11.865C66.4109 11.1388 66.4614 10.3305 66.1646 9.71805C65.8994 9.17501 65.2427 8.61933 64.6555 8.4741C63.8093 8.25941 63.1968 8.84665 63.0263 9.73068C62.9253 10.2737 62.8685 10.8357 62.8622 11.3851C62.8432 13.5699 62.8874 15.761 62.8432 17.9458C62.818 19.3349 62.9379 20.5599 64.6365 20.8567C64.7123 20.8693 64.7502 21.0588 64.9017 21.3492H55.0133C55.1964 21.0714 55.2659 20.8441 55.3669 20.8315C57.0276 20.5852 57.1665 19.3918 57.1476 18.0594C57.1223 15.7862 57.1539 13.513 57.1287 11.2461C57.1223 10.6526 57.1476 9.94537 56.8508 9.50336C56.5225 9.01714 55.8468 8.5183 55.3038 8.49936C54.8365 8.48042 54.1356 9.03609 53.9209 9.51599C53.6368 10.1411 53.6683 10.9367 53.6557 11.6566C53.6305 14.5296 53.6178 17.4027 53.6557 20.2695C53.6683 21.1851 53.4347 21.5829 52.4307 21.5387C50.5932 21.4629 48.7431 21.5197 46.8993 21.5071C46.5835 21.5071 46.2678 21.425 45.9079 21.3745C45.971 21.1409 45.9837 20.9388 46.0342 20.9262C47.7896 20.5726 47.998 19.3223 47.9285 17.8258C47.8591 16.2851 47.878 14.738 47.9285 13.1973C47.9664 12.1617 47.6381 11.4166 46.7603 10.8041C45.5985 9.99588 45.6995 9.62333 47.0192 9.02346C48.541 8.33519 50.0375 7.5964 51.5467 6.87655C51.9571 6.6808 52.3676 6.49768 52.9232 6.24511C53.018 6.95864 53.0937 7.48905 53.1884 8.17732C56.3204 5.75889 59.4019 5.08956 62.5717 8.33519L62.5843 8.32887Z" fill="white"/>
<path d="M15.4217 21.3616H3.96727C3.92938 21.248 3.89781 21.1343 3.85992 21.0207C4.15039 20.8817 4.42191 20.6734 4.725 20.6229C5.79846 20.4397 6.32255 19.7262 6.32887 18.7475C6.36676 13.096 6.34781 7.45094 6.34781 1.63534C3.55683 1.97632 2.28131 3.96537 0.986853 6.04282C0.721647 3.91485 1.56778 2.0142 1.73196 0.119873H17.6507C17.998 1.96369 18.3705 3.92748 18.7431 5.89758C18.6105 5.98599 18.4842 6.06808 18.3516 6.15648C17.1076 4.09797 15.9268 1.96369 13.1169 1.64797C13.0664 2.03946 12.9843 2.39939 12.978 2.75931C12.9653 7.68457 12.9717 12.6098 12.978 17.5414C12.978 17.9266 13.0348 18.3118 13.0537 18.697C13.1106 19.7767 13.6157 20.4524 14.7271 20.6544C14.9986 20.7049 15.2449 20.9133 15.5037 21.0522L15.409 21.368L15.4217 21.3616Z" fill="white"/>
<path d="M90.7911 19.777C89.3767 22.7132 85.8216 22.6375 83.3969 19.9222C82.2855 20.5789 81.2563 21.3935 80.0881 21.8418C77.3666 22.89 74.6388 21.4945 74.2788 19.0003C74.0452 17.3586 74.6451 15.9442 76.0216 15.1233C77.998 13.9488 80.0629 12.888 82.1845 12.0166C83.4663 11.4862 83.1948 10.5895 83.1569 9.7118C83.1127 8.72043 82.9738 7.69118 81.7867 7.34389C80.5491 6.98396 79.4567 7.7859 79.3683 9.09299C79.3304 9.68654 79.4125 10.2927 79.3493 10.8863C79.2104 12.2439 78.3201 12.9448 76.9751 12.8122C75.8195 12.6985 75.1755 11.8587 75.3018 10.52C75.4659 8.752 76.5457 7.60909 78.0801 6.95239C80.669 5.83473 83.34 5.82211 85.9669 6.8261C87.7223 7.49543 88.7389 8.82146 88.7957 10.7411C88.8652 13.0521 88.8399 15.3632 88.922 17.6743C88.9599 18.773 89.1051 19.9033 90.7848 19.777H90.7911ZM83.1001 12.7617C80.9974 13.5194 79.7534 15.9315 80.4291 18.009C80.6059 18.552 81.3636 18.9056 81.8561 19.3413C82.2729 18.8741 82.9991 18.4384 83.0433 17.9395C83.1948 16.2599 83.1001 14.5613 83.1001 12.7554V12.7617Z" fill="white"/>
<path d="M22.6831 12.6921C22.86 15.0601 23.7187 16.866 25.6131 18.1036C27.5832 19.3918 29.5596 19.2907 31.4918 17.8447C31.5802 17.9394 31.6749 18.0342 31.7633 18.1289C31.4665 18.6214 31.2392 19.1834 30.854 19.5875C28.0378 22.5616 23.3272 23.0036 20.3342 20.6231C17.1706 18.1036 16.4445 13.2604 18.6798 9.68647C20.5804 6.64922 24.2807 5.35476 27.6526 6.59239C29.8374 7.39433 30.9172 9.10554 31.3402 11.3156C31.5171 12.2312 31.2645 12.6606 30.2352 12.6353C28.2651 12.5785 26.295 12.6164 24.3249 12.6227C23.8261 12.6227 23.3272 12.6669 22.6705 12.6921H22.6831ZM22.4621 11.6376C23.504 11.6376 24.2112 11.6692 24.9185 11.6376C26.9896 11.524 27.5705 10.861 27.0212 8.89085C26.8381 8.24046 26.1561 7.50167 25.5246 7.25541C24.6533 6.91443 23.6682 7.31855 23.302 8.26572C22.9168 9.2634 22.7716 10.3558 22.4621 11.6439V11.6376Z" fill="white"/>
<path d="M41.8728 21.324H32.1233C32.1043 21.2293 32.0917 21.1346 32.0728 21.0462C32.2685 20.9389 32.4516 20.7747 32.6663 20.7242C33.6008 20.5032 34.0555 19.8907 34.0618 18.9751C34.0871 16.8345 34.1691 14.6813 34.0176 12.547C33.9734 11.9218 33.3167 11.2588 32.7989 10.76C31.9401 9.93911 31.9338 9.61707 32.9947 9.11823C34.6238 8.34787 36.2403 7.56488 37.8694 6.80083C38.2798 6.6114 38.7092 6.46617 39.2586 6.24516C39.3344 6.99027 39.3912 7.56488 39.4733 8.4047C40.0858 7.76694 40.5025 7.23653 41.0203 6.82609C41.9612 6.08099 43.1104 5.77158 44.127 6.43459C44.7079 6.81346 45.2005 7.66591 45.2826 8.3605C45.352 8.93511 44.91 9.87596 44.4175 10.1412C43.8555 10.4443 42.9778 10.2548 42.2579 10.1412C41.9233 10.0843 41.6391 9.70547 41.336 9.46553C40.7235 8.97931 40.2373 9.18138 40.0731 9.85702C39.89 10.5958 39.8269 11.3788 39.8143 12.1428C39.7827 14.1572 39.8269 16.1715 39.7953 18.1858C39.7764 19.5244 40.0795 20.5789 41.6328 20.7873C41.797 20.8126 41.9612 20.8883 42.1253 20.9452C42.0433 21.0715 41.9549 21.1978 41.8728 21.324Z" fill="white"/>
<path d="M98.5767 9.78125C98.9429 10.1285 101.519 12.6417 101.102 16.0957C101.027 16.7271 100.799 18.6088 99.2081 19.8844C96.8465 21.7787 93.6893 20.5789 93.5251 20.5158C93.9797 20.4211 95.5015 20.0485 96.6823 18.6215C97.7495 17.3396 97.9073 15.9568 97.9452 15.4642C97.6863 16.0641 97.137 17.106 96.0509 17.99C95.5836 18.3752 93.664 19.9349 92.2622 19.2529C91.0562 18.6657 90.8036 16.6892 90.9993 15.4642C91.4224 12.7996 94.4533 10.6337 98.5767 9.78125Z" fill="white"/>
</g>
<defs>
<clipPath id="clip0_2006_13449">
<rect width="100.21" height="22.069" fill="white" transform="translate(0.936646 0.119629)"/>
</clipPath>
</defs>
</svg>
