<svg width="202" height="70" viewBox="0 0 202 70" fill="none" xmlns="http://www.w3.org/2000/svg">
<g clip-path="url(#clip0_1047_583)">
<path d="M115.408 29.86C115.408 26.8336 115.367 23.8073 115.433 20.7809C115.448 19.9524 114.918 18.5781 116.125 18.4367C117.59 18.2649 119.541 17.4515 120.541 19.0985C121.572 20.7961 122.335 20.1342 123.527 19.4724C127.175 17.4363 130.868 16.3753 134.319 19.8968C135.198 20.7961 135.87 20.1292 136.506 19.6492C138.881 17.8556 141.584 17.5525 144.413 17.8102C147.237 18.0628 149.274 19.8261 149.354 22.6048C149.521 28.4857 149.435 34.3717 149.476 40.2577C149.481 41.2075 149.112 41.5207 148.157 41.6268C143.549 42.1523 143.322 41.9856 143.322 37.4839C143.322 33.8665 143.347 30.2541 143.297 26.6366C143.261 24.166 141.927 22.8878 139.558 22.9029C137.239 22.9181 136.072 24.0144 136.006 26.5204C135.89 30.8048 135.809 35.0942 135.885 39.3836C135.915 41.1317 135.435 41.8997 133.637 41.6167C133.141 41.541 132.621 41.541 132.126 41.6167C130.292 41.8997 129.605 41.2732 129.676 39.3028C129.822 35.271 129.716 31.2342 129.706 27.1974C129.701 24.0447 128.69 22.9383 125.805 22.9181C122.835 22.8979 121.617 24.0953 121.582 27.2479C121.536 31.2847 121.496 35.3215 121.617 39.3533C121.668 41.0913 121.198 41.7329 119.379 41.637C114.903 41.3995 115.372 42.511 115.312 37.681C115.281 35.074 115.307 32.467 115.307 29.86C115.342 29.86 115.377 29.86 115.418 29.86H115.408Z" fill="black"/>
<path d="M32.5182 7.92278C32.5283 9.6911 29.992 10.8228 30.8004 12.2779C31.4521 13.45 33.468 13.8441 34.8473 14.6373C35.6001 15.0718 36.0194 15.8347 36.368 16.5976C38.1566 20.5334 38.5456 24.6814 38.0555 28.9253C37.9595 29.7792 37.909 31.0725 36.8733 31.2039C35.8729 31.3302 35.9032 30.0267 35.5344 29.3345C33.6752 25.8535 32.0433 22.2108 28.7997 19.72C26.2684 17.7748 25.5763 17.8809 23.7069 20.4121C20.6149 24.5904 18.119 29.1375 15.6737 33.7099C15.1988 34.5991 14.7037 35.4782 14.1883 36.3421C13.9408 36.7665 13.6679 37.3324 13.0617 37.0949C12.223 36.7665 12.6524 36.135 12.8646 35.6146C14.2641 32.1942 15.6687 28.7788 17.0833 25.3634C17.5128 24.3327 18.0028 23.2768 17.0833 22.3118C16.2093 21.3923 15.0573 21.5944 14.0064 21.9329C10.0101 23.2212 6.03387 24.5753 2.03748 25.8687C1.39078 26.0758 0.47126 26.7882 0.067074 25.7777C-0.321955 24.7925 0.824923 24.646 1.42615 24.3277C6.85235 21.4832 12.5261 19.0884 17.5633 15.5215C20.1955 13.6521 20.428 12.4901 18.2858 10.0296C15.4767 6.80117 11.8238 4.71455 8.02449 2.86035C7.37779 2.54711 6.26628 2.52184 6.32185 1.64274C6.38248 0.617117 7.53947 0.657535 8.31752 0.495861C11.647 -0.20136 14.9765 -0.0952615 18.3413 0.359448C22.0599 0.864681 23.7473 3.36053 24.9245 6.49803C25.5965 8.28655 26.3493 9.56479 28.4612 7.80153C29.704 6.76075 31.1743 7.41755 32.5131 7.92278H32.5182Z" fill="black"/>
<path d="M102.962 32.4725C101.952 32.4725 100.926 32.3563 99.941 32.5079C99.0417 32.6443 97.5209 31.7096 97.43 33.5891C97.3441 35.2766 98.0363 36.671 99.845 36.8782C101.922 37.1156 104.038 37.0499 106.135 37.1106C107.459 37.151 108.838 36.8529 108.894 39.0153C108.944 40.9251 108.323 41.8294 106.418 41.9052C103.063 42.0416 99.6985 42.461 96.3993 41.4859C92.7717 40.4148 91.155 38.308 91.0691 34.5036C90.9933 31.1438 90.9782 27.784 90.9984 24.4191C91.0186 21.3069 92.0695 19.7154 94.9544 18.6847C98.7133 17.3408 102.553 17.3358 106.322 18.619C109.308 19.6346 110.399 21.322 110.45 24.5C110.47 25.6771 110.47 26.8543 110.47 28.0315C110.475 31.5682 109.601 32.4372 105.989 32.4725C104.978 32.4826 103.973 32.4725 102.962 32.4725ZM100.79 27.8143C102.215 27.4202 104.488 28.8702 104.387 25.5812C104.306 23.0499 102.998 22.671 101.032 22.6559C98.006 22.6306 97.5159 23.1611 97.3643 25.7378C97.1723 28.9106 99.5217 27.3444 100.795 27.8143H100.79Z" fill="black"/>
<path d="M175.461 29.9808C175.461 33.093 175.492 36.2052 175.441 39.3175C175.426 40.141 175.926 41.4445 174.521 41.5253C173.269 41.5961 171.571 42.3236 170.813 40.8635C169.888 39.0952 168.964 39.5903 167.847 40.3886C165.67 41.9396 163.219 42.2478 160.638 42.076C157.379 41.8588 155.292 40.1562 155.181 36.9429C154.984 31.2287 155.09 25.5044 155.065 19.7852C155.06 18.7595 155.479 18.3705 156.56 18.2695C161.39 17.8299 161.426 17.8097 161.38 22.7054C161.35 25.9844 161.254 29.2684 161.229 32.5474C161.204 35.7202 162.259 36.9075 165.048 36.9429C167.888 36.9782 168.994 35.8314 169.04 32.704C169.095 28.6672 169.181 24.6253 169.11 20.5885C169.08 18.8859 169.515 18.1785 171.354 18.2594C176.158 18.4615 175.451 17.5925 175.502 22.4124C175.527 24.9385 175.502 27.4597 175.502 29.9858C175.486 29.9858 175.471 29.9858 175.461 29.9858V29.9808Z" fill="black"/>
<path d="M181.653 29.6684C181.653 26.642 181.617 23.6157 181.678 20.5894C181.693 19.781 181.142 18.4421 182.547 18.3714C183.78 18.3108 185.442 17.5529 186.23 19.0636C187.145 20.8218 188.019 20.2306 189.206 19.5031C190.272 18.8564 191.429 18.1642 192.621 17.9621C198.022 17.0628 202.307 18.725 201.968 25.3183C201.726 30.0119 201.867 34.7308 201.948 39.4345C201.978 40.9957 201.655 41.6879 199.897 41.6323C194.713 41.4605 195.819 42.1779 195.728 37.5803C195.658 33.9679 195.754 30.3505 195.703 26.738C195.663 23.838 194.698 22.9033 191.939 22.9033C189.176 22.9033 188.155 23.8481 188.074 26.6623C187.953 30.9466 187.837 35.231 187.862 39.5154C187.872 41.1624 187.352 41.6828 185.705 41.6222C180.753 41.4403 181.703 42.2537 181.617 37.4742C181.572 34.8672 181.607 32.2653 181.607 29.6583H181.643L181.653 29.6684Z" fill="black"/>
<path d="M56.7828 17.6084C59.2989 17.6084 61.82 17.5528 64.3361 17.6236C66.9936 17.6943 65.6648 19.786 65.9225 21.0238C66.2004 22.3626 65.6244 22.9285 64.1491 22.974C59.5212 23.1154 59.5212 23.1761 59.506 27.7383C59.501 29.9209 59.5616 32.1035 59.4808 34.2811C59.41 36.1656 60.1426 37.166 62.0928 37.0801C63.5277 37.0194 64.235 37.5752 64.2552 39.1212C64.2754 40.6319 64.0733 41.7232 62.2444 41.8848C59.89 42.097 57.5255 42.4557 55.4288 41.0007C53.8474 39.9043 53.327 38.232 53.322 36.3879C53.3068 32.6946 53.1957 28.9963 53.3675 25.3132C53.4634 23.262 52.7561 22.5647 50.8362 22.8931C48.497 23.2923 47.5674 22.4788 47.7189 19.9678C47.825 18.25 48.2242 17.573 49.9925 17.664C52.2509 17.7751 54.5194 17.6892 56.7879 17.6892C56.7879 17.664 56.7879 17.6387 56.7879 17.6135L56.7828 17.6084Z" fill="black"/>
<path d="M71.9512 29.8858C71.9512 26.9454 71.9057 24.0049 71.9815 21.0695C72.0068 20.1601 71.4156 18.6343 72.6282 18.4625C74.1389 18.2503 76.1446 17.3914 77.2511 19.1597C78.2413 20.731 78.9436 20.2712 79.9591 19.3669C80.5149 18.8717 81.1515 18.3817 81.8386 18.1442C83.3543 17.6137 85.2338 17.1843 86.3908 18.1897C87.376 19.0486 86.6686 20.8927 86.7343 22.2922C86.7697 23.0248 86.2846 23.3127 85.5975 23.3077C85.3449 23.3077 85.0923 23.3329 84.8397 23.3178C76.9378 22.8328 78.2009 25.076 78.1605 30.2748C78.1353 33.382 78.0898 36.4892 78.1858 39.5913C78.2312 41.0868 77.8271 41.6325 76.2305 41.6375C71.9461 41.6476 71.9461 41.7285 71.9461 37.439C71.9461 34.9179 71.9461 32.4019 71.9461 29.8808L71.9512 29.8858Z" fill="black"/>
<path d="M130.74 54.985C131.245 54.0807 131.983 54.0453 132.584 53.823C134.474 53.1258 135.035 53.8129 134.524 55.7025C134.115 57.2232 133.827 58.7844 133.539 60.103C133.842 60.684 134.095 60.5375 134.302 60.4516C135.752 59.8555 137.318 58.6934 138.753 59.9919C140.102 61.2145 139.425 63.0334 139.092 64.544C138.642 66.5902 138.046 68.6869 135.833 69.6317C135.242 69.8843 134.373 70.1572 134.054 69.3538C133.681 68.4141 134.499 68.4394 135.181 68.2322C136.864 67.727 138.157 62.6444 136.985 61.4267C136.01 60.4112 133.261 61.5834 132.802 63.286C132.362 64.9078 132.044 66.5599 131.71 68.2019C131.554 68.9598 131.523 69.8439 130.407 69.5761C129.29 69.3084 129.962 68.4899 130.073 67.9392C130.76 64.4783 131.488 61.0276 132.22 57.5769C132.498 56.2683 132.923 54.9345 130.735 54.98L130.74 54.985Z" fill="black"/>
<path d="M141.568 65.8531C141.552 62.3568 143.447 59.8307 146.387 59.4518C147.802 59.2699 149.09 59.5478 150 60.7401C152.167 63.5947 149.884 69.2331 146.327 69.8444C143.417 70.3446 141.578 68.8036 141.562 65.8581L141.568 65.8531ZM148.818 63.4835C148.802 62.1447 148.858 60.8513 147.347 60.5178C146.009 60.2248 145.14 61.0129 144.538 62.1396C143.765 63.5846 143.528 65.1558 143.594 66.7625C143.634 67.7174 143.912 68.6318 145.038 68.8491C146.039 69.0411 146.867 68.6874 147.448 67.8538C148.388 66.4998 148.641 64.9285 148.823 63.4835H148.818Z" fill="black"/>
<path d="M167.369 67.6159C167.338 67.9292 167.364 68.0454 167.323 68.0757C165.434 69.3539 163.332 70.91 161.169 69.3489C159.255 67.9645 160.114 65.6607 160.73 63.7559C161.604 61.0529 163.812 59.2695 165.959 59.4109C166.899 59.4716 167.813 59.7292 168.132 60.7902C168.43 61.7805 168.071 62.6293 167.343 63.276C166.318 64.1854 165.029 64.5997 163.731 64.9331C162.655 65.2059 161.816 65.6303 162.16 66.9743C162.508 68.3434 163.473 68.5102 164.691 68.3232C165.58 68.1919 166.277 67.3835 167.369 67.626V67.6159ZM163.094 63.862C164.554 63.6145 165.924 63.2153 166.207 61.4773C166.277 61.0479 165.893 60.6841 165.413 60.6841C163.721 60.6841 163.271 62.0331 162.715 63.2507C162.68 63.3265 162.685 63.4174 162.675 63.4983C162.529 63.7206 162.443 63.958 162.731 64.1096C162.791 64.1399 162.968 63.9479 163.089 63.857L163.094 63.862Z" fill="black"/>
<path d="M183.225 68.0558C181.871 69.0915 180.386 69.8494 178.582 69.8999C177.592 69.9252 176.784 69.5917 176.304 68.6368C174.844 65.7317 177.38 60.3914 180.613 59.5881C181.927 59.2597 183.231 59.2142 183.882 60.6339C184.539 62.0738 183.62 63.0843 182.483 63.7462C181.553 64.2868 180.497 64.6707 179.451 64.9436C178.254 65.2568 177.729 65.8075 178.037 67.0807C178.36 68.4347 179.315 68.5206 180.376 68.2983C181.25 68.1114 182.089 67.7678 182.948 67.495C183.044 67.687 183.135 67.8739 183.231 68.0659L183.225 68.0558ZM178.759 63.8573C180.315 63.6653 181.755 63.2409 182.089 61.4524C182.185 60.927 181.553 60.5581 181.023 60.6794C179.456 61.0381 178.663 62.0991 178.592 63.7007C178.537 63.8017 178.481 63.9028 178.426 64.0038C178.537 63.9583 178.648 63.9078 178.759 63.8624V63.8573Z" fill="black"/>
<path d="M170.814 54.7021C171.016 54.5405 171.183 54.3131 171.4 54.2474C172.411 53.9443 173.593 53.0298 174.447 53.8281C175.169 54.5 174.437 55.7126 174.22 56.6725C173.517 59.7747 172.78 62.8718 172.123 65.984C171.885 67.1157 171.067 68.6516 173.492 68.3535C173.164 69.2225 172.623 69.3034 172.173 69.465C170.067 70.2229 169.531 69.8136 169.971 67.6361C170.648 64.2712 171.456 60.9317 172.168 57.5769C172.593 55.5812 172.562 55.5711 170.819 54.7072L170.814 54.7021Z" fill="black"/>
<path d="M187.45 69.8847C187.086 69.8089 186.414 69.7433 185.788 69.521C185.186 69.3088 184.787 68.8439 185.131 68.1467C185.459 67.4899 185.934 67.8183 186.404 68.0103C186.869 68.1972 187.349 68.364 187.839 68.4499C188.693 68.6014 189.653 68.6368 190.037 67.7223C190.39 66.8786 189.547 66.3936 189.016 65.8833C188.713 65.5953 188.369 65.3477 188.036 65.0951C186.652 64.0341 185.656 62.7609 186.763 61.0229C187.803 59.391 189.516 59.295 191.259 59.5729C191.775 59.6588 192.32 59.8508 192.204 60.5025C192.058 61.3261 191.471 61.22 190.84 61.0431C190.284 60.8916 189.668 60.7097 189.122 60.7956C187.945 60.9825 187.45 61.6343 188.369 62.6852C188.809 63.1853 189.39 63.5592 189.915 63.9735C191.072 64.893 192.148 65.8378 191.537 67.5606C190.901 69.3593 189.476 69.8645 187.445 69.8847H187.45Z" fill="black"/>
<path d="M152.588 60.7196C154.083 59.8961 155.402 59.5626 155.594 58.0469C155.655 57.5568 156.054 57.1122 156.675 57.2385C157.433 57.3951 157.216 57.9762 157.054 58.4208C156.367 60.2901 158.444 59.5727 159.04 60.6185C155.917 61.0126 156.18 63.4933 155.826 65.6254C155.397 68.1768 155.392 68.1768 158.12 68.0101C157.63 69.0206 156.721 69.253 155.927 69.5308C153.937 70.2281 153.214 69.6774 153.477 67.6261C153.649 66.3024 153.957 64.9888 154.265 63.6853C154.579 62.3616 154.922 61.0833 152.588 60.7145V60.7196Z" fill="black"/>
<path d="M163.093 63.8626C162.972 63.9536 162.795 64.1456 162.734 64.1152C162.446 63.9637 162.527 63.7262 162.674 63.5039C162.81 63.6252 162.952 63.7464 163.093 63.8677V63.8626Z" fill="black"/>
<path d="M178.761 63.8567C178.65 63.9022 178.539 63.9527 178.428 63.9982C178.483 63.8972 178.539 63.7961 178.594 63.6951L178.761 63.8567Z" fill="black"/>
</g>
<defs>
<clipPath id="clip0_1047_583">
<rect width="201.992" height="70" fill="white"/>
</clipPath>
</defs>
</svg>
