<svg width="179" height="65" viewBox="0 0 179 65" fill="none" xmlns="http://www.w3.org/2000/svg">
<g clip-path="url(#clip0_2006_13885)">
<path d="M61.5082 21.9261C61.5082 21.9261 58.6061 22.5594 55.3708 20.9026C52.1413 19.2401 50.9612 16.5089 50.9612 16.5089C50.9612 16.5089 53.7617 15.8982 56.9235 17.4476C51.8251 9.09555 42.7179 3.80274 32.9219 3.55959C23.0243 3.31643 13.7929 8.05508 8.22019 16.2657C7.74591 16.9612 6.79737 17.1422 6.1029 16.6672C5.40842 16.1922 5.22775 15.2479 5.70202 14.5523C11.8619 5.48219 22.0588 0.217654 32.9953 0.511699C43.6834 0.783125 53.6149 6.47742 59.2892 15.491C59.3062 12.2056 60.8814 10.0738 60.8814 10.0738C60.8814 10.0738 62.8858 12.2678 63.0778 15.8982C63.2754 19.5341 61.5082 21.9261 61.5082 21.9261Z" fill="#1E1E1E"/>
<path d="M10.6524 32.0876C10.6524 19.8339 20.1492 10.8712 32.0794 10.8712C39.3233 10.8712 44.9807 13.4327 48.8766 19.4663L42.1803 24.2219C39.9896 20.6877 36.7657 18.5503 32.0737 18.5503C24.5249 18.5503 19.4152 24.3407 19.4152 32.082C19.4152 39.8233 24.5305 45.8003 32.1358 45.8003C38.4651 45.8003 42.6037 42.2661 43.5805 38.059H33.2312V30.6231H52.586C53.2579 44.3414 46.0704 53.3606 32.198 53.3606C19.7201 53.3606 10.6524 44.3357 10.6524 32.0876Z" fill="#1E1E1E"/>
<path d="M57.0352 39.8908C57.0352 31.9686 63.3023 26.2969 71.3368 26.2969C79.3712 26.2969 85.5819 31.9686 85.5819 39.8908C85.5819 47.8131 79.3712 53.366 71.3368 53.366C63.3023 53.366 57.0352 47.7565 57.0352 39.8908ZM77.1805 39.8908C77.1805 35.9891 74.9898 33.3709 71.3368 33.3709C67.6837 33.3709 65.4309 35.9947 65.4309 39.8908C65.4309 43.7869 67.6837 46.4163 71.3368 46.4163C74.9898 46.4163 77.1805 43.736 77.1805 39.8908Z" fill="#1E1E1E"/>
<path d="M91.6094 11.3625H107.616C115.346 11.3625 119.671 16.2369 119.671 22.0895C119.671 25.9291 117.418 28.5529 113.827 29.7121C119.49 31.0522 122.228 34.8352 122.228 40.015C122.228 47.3887 116.994 52.8172 108.35 52.8172H91.6094V11.3625ZM106.707 26.6642C109.445 26.6642 111.275 25.1374 111.275 22.7624C111.275 20.3875 109.75 18.8607 107.136 18.8607H100.135V26.6642H106.707ZM107.983 45.3191C111.45 45.3191 113.646 43.0006 113.646 39.5909C113.646 36.1811 111.393 33.9192 107.498 33.9192H100.135V45.3191H107.989H107.983Z" fill="#1E1E1E"/>
<path d="M126.85 17.3341C126.85 14.3484 129.283 12.2109 132.084 12.2109C134.884 12.2109 137.255 14.3428 137.255 17.3341C137.255 20.3254 134.884 22.5138 132.084 22.5138C129.283 22.5138 126.85 20.382 126.85 17.3341ZM127.951 26.8453H136.166V52.8118H127.951V26.8453Z" fill="#1E1E1E"/>
<path d="M142.012 39.8908C142.012 31.9686 148.279 26.2969 156.313 26.2969C164.348 26.2969 170.558 31.9686 170.558 39.8908C170.558 47.8131 164.348 53.366 156.313 53.366C148.279 53.366 142.012 47.7565 142.012 39.8908ZM162.157 39.8908C162.157 35.9891 159.966 33.3709 156.313 33.3709C152.66 33.3709 150.407 35.9947 150.407 39.8908C150.407 43.7869 152.66 46.4163 156.313 46.4163C159.966 46.4163 162.157 43.736 162.157 39.8908Z" fill="#1E1E1E"/>
<path d="M55.8394 54.0336C50.47 59.9427 43.1301 63.607 35.1747 64.3591C34.1584 64.4495 33.1421 64.5004 32.1314 64.5004C21.178 64.5004 11.0093 58.9362 5.08093 49.5098C5.01317 49.4024 4.95671 49.2836 4.92283 49.1649C4.54455 48.5542 4.18884 47.9265 3.86137 47.2875C3.21771 50.5672 1.23028 52.3767 1.23028 52.3767C1.23028 52.3767 -0.311107 49.8321 0.208335 46.2301C0.733423 42.628 2.92976 40.6263 2.92976 40.6263C2.92976 40.6263 5.89961 40.5754 8.74525 42.8372C11.5909 45.0991 12.212 48.0113 12.212 48.0113C12.212 48.0113 9.37761 48.0622 6.58844 45.9473C11.2013 54.6952 19.902 60.4912 29.8899 61.2886C37.1 61.8653 44.2141 59.7505 49.9223 55.3228C50.0127 55.2493 50.1143 55.1928 50.2159 55.1475C51.4129 54.1919 52.5421 53.1345 53.5866 51.9809C54.1569 51.3589 55.1167 51.3137 55.7378 51.8848C56.3589 52.4503 56.4041 53.4116 55.8394 54.0336Z" fill="#1E1E1E"/>
<path d="M178.568 21.9998C178.568 22.5822 178.461 23.1477 178.229 23.6736C178.009 24.1881 177.704 24.6462 177.309 25.042C176.914 25.4378 176.457 25.7432 175.943 25.9637C175.418 26.1899 174.853 26.303 174.272 26.303C173.69 26.303 173.131 26.1956 172.6 25.9637C172.098 25.7432 171.629 25.4378 171.234 25.042C170.85 24.6462 170.534 24.1881 170.314 23.6736C170.093 23.1477 169.98 22.5822 169.98 21.9998C169.98 21.4173 170.099 20.8575 170.314 20.326C170.534 19.8227 170.85 19.3534 171.234 18.9575C171.629 18.573 172.098 18.2563 172.6 18.0358C173.137 17.8153 173.696 17.6965 174.272 17.6965C174.847 17.6965 175.418 17.8153 175.943 18.0358C176.457 18.2563 176.914 18.573 177.309 18.9575C177.704 19.3534 178.009 19.8171 178.229 20.326C178.455 20.8632 178.568 21.423 178.568 21.9998ZM177.479 21.9998C177.479 20.2242 176.044 18.7879 174.272 18.7879C172.499 18.7879 171.065 20.2242 171.065 21.9998C171.065 23.7753 172.499 25.2116 174.272 25.2116C176.044 25.2116 177.479 23.7753 177.479 21.9998ZM175.113 22.5935L176.05 24.092H175.051L174.181 22.7575H173.696V24.092H172.685V19.8906H174.379C175.406 19.8906 175.875 20.6822 175.875 21.3269C175.875 21.7623 175.666 22.3277 175.113 22.5935ZM173.701 21.9771H174.373C174.52 21.9771 174.65 21.9489 174.757 21.898C174.836 21.8697 174.898 21.8188 174.943 21.7566C175.062 21.6152 175.101 21.44 175.101 21.3212C175.101 21.1629 175.045 20.9932 174.932 20.8745C174.87 20.8066 174.814 20.7557 174.734 20.7275C174.633 20.6879 174.514 20.6596 174.379 20.6596H173.696V21.9771H173.701Z" fill="#1E1E1E"/>
</g>
<defs>
<clipPath id="clip0_2006_13885">
<rect width="178.468" height="64" fill="white" transform="translate(0.101562 0.5)"/>
</clipPath>
</defs>
</svg>
