<svg width="350" height="174" viewBox="0 0 350 174" fill="none" xmlns="http://www.w3.org/2000/svg">
<g clip-path="url(#clip0_2006_13296)">
<path d="M318.735 94.6221C314.445 97.7021 309.875 100.322 305.005 102.382C303.445 103.042 301.625 103.682 300.235 102.462C298.715 101.122 299.165 99.1721 299.765 97.4321C305.345 81.1421 315.865 69.8321 332.655 64.8621C336.045 65.5721 339.535 65.6121 342.885 65.0921C346.025 64.6121 345.485 65.8121 344.735 67.7121C343.845 69.9721 342.525 72.0021 340.915 73.7221C334.495 80.5821 330.675 88.8721 327.415 97.5121C325.548 102.452 327.152 104.679 332.225 104.192C333.285 104.092 334.395 104.222 335.265 103.402C336.695 103.182 338.125 102.962 339.545 102.752C341.705 103.502 345.155 101.852 345.955 104.492C346.785 107.202 343.625 108.862 341.915 110.762C341.275 111.472 340.555 112.112 339.875 112.772C335.775 116.712 331.465 120.442 328.095 125.082C325.165 124.972 327.055 123.062 327.385 122.442C329.885 117.762 333.675 114.132 337.625 110.692C338.225 110.172 339.115 109.962 339.465 109.132C339.765 108.402 340.685 107.762 340.065 106.882C339.605 106.232 338.755 106.422 338.075 106.512C334.305 107.032 330.545 107.602 326.775 108.152C324.515 107.942 323.585 108.882 323.745 111.232C323.895 113.472 323.685 115.732 323.635 117.982C322.665 118.332 321.695 118.682 320.285 119.202C320.285 116.632 320.185 114.322 320.315 112.022C320.425 110.052 319.885 109.082 317.725 109.482C310.165 110.892 302.595 112.252 295.025 113.632C293.205 113.332 292.195 114.042 291.585 115.862C285.195 134.852 275.445 151.902 261.925 166.752C251.865 175.652 236.925 176.582 226.365 167.582C222.045 163.902 218.555 159.552 216.045 154.432C212.455 147.092 213.325 141.702 219.185 135.982C223.265 132.012 228.225 129.372 233.325 126.972C234.385 126.472 235.615 126.232 236.735 124.772C216.495 123.022 196.595 121.032 176.545 121.572C174.295 120.882 173.725 122.532 172.975 124.052C168.325 133.472 164.005 143.042 160.015 152.752C157.535 158.792 154.545 164.662 153.225 171.132C151.805 170.942 152.075 173.302 150.235 172.862C149.715 169.672 150.665 166.632 151.915 163.732C157.405 151.022 162.955 138.342 168.535 125.672C170.415 121.412 170.485 121.442 166.045 121.522C141.545 121.992 117.565 125.642 94.245 133.302C88.115 135.312 82.255 138.002 76.365 140.642C68.855 144.012 61.375 147.642 51.665 146.752C71.015 132.532 92.335 125.882 114.885 122.342C119.135 123.882 123.375 122.272 127.445 121.742C138.935 120.242 150.445 119.522 162.005 119.092C165.345 118.972 169.005 119.792 172.095 117.572C172.815 115.722 173.535 113.872 174.295 111.922C172.165 111.442 170.545 112.792 168.705 113.052C162.905 113.882 159.565 111.262 159.825 105.492C160.205 97.0421 164.175 89.8021 168.065 82.5621C169.765 79.4121 172.445 76.8321 173.555 73.2421C172.425 74.2021 170.635 73.9921 169.985 75.5521C167.555 76.1421 166.565 78.3621 165.075 79.9821C158.995 86.5721 154.055 94.1821 147.095 99.9821C146.035 101.712 144.325 102.672 142.635 101.682C141.035 100.752 142.045 98.9221 142.435 97.4421C143.895 91.9121 147.795 87.6921 150.315 82.7321C150.725 81.9221 151.155 81.3921 150.545 80.5921C150.985 79.4621 152.935 78.7621 151.145 76.5121C150.665 77.2321 150.355 77.9021 149.865 78.3821C142.755 85.3321 137.585 94.2321 128.675 99.3821C128.035 99.7521 128.465 100.432 128.925 100.872C127.785 102.962 125.535 102.672 123.725 103.072C122.755 103.282 122.155 102.062 122.345 101.002C122.585 99.7121 122.795 98.3721 123.355 97.2121C127.865 87.8421 133.335 79.0721 139.955 71.0521C140.845 69.9721 141.725 68.6721 143.505 69.3021C144.035 71.0321 142.975 72.2621 142.135 73.5221C139.295 77.7521 136.365 81.9221 133.595 86.1921C132.365 88.0821 130.805 89.9121 130.805 92.4921C132.755 92.3721 133.175 90.8421 134.035 89.8021C137.515 88.5221 139.265 85.3121 141.505 82.7721C146.475 77.1521 151.445 71.5421 157.405 66.9421C158.835 65.8421 160.255 64.3421 162.405 65.4221C165.185 67.3221 163.015 69.3021 162.135 70.7621C159.885 74.5021 157.215 77.9921 154.665 81.5521C153.075 83.7821 151.695 86.1121 150.945 88.7721C150.775 89.3521 150.625 90.0021 151.195 90.3721C151.805 90.7621 152.255 90.1321 152.765 89.9021C153.675 89.4921 153.335 88.3921 153.975 87.8521C156.105 87.3221 157.165 85.5121 158.485 84.0221C163.685 78.1821 168.215 71.7421 174.275 66.7021C176.155 65.1421 178.005 63.3621 180.735 63.3821C182.175 65.6821 180.545 67.4921 179.615 69.2721C177.105 74.1321 174.255 78.8221 171.785 83.7121C168.495 90.2121 165.945 97.0021 164.505 104.162C163.695 108.202 165.225 109.562 169.265 108.812C170.635 108.562 172.225 108.402 173.485 108.832C175.685 109.592 175.615 109.802 176.265 107.342C180.015 100.182 184.625 93.3121 187.195 85.7521C188.695 81.3221 190.285 78.1321 193.945 75.2321C197.245 72.6121 198.805 68.2521 200.985 64.5621C203.365 60.5321 206.115 56.8121 209.485 53.5721C210.255 52.8321 210.825 51.4621 212.355 52.0821C211.965 57.1221 208.655 60.6821 206.025 64.5921C203.905 67.7421 201.665 70.8021 200.545 74.6121C201.245 74.2021 201.935 73.7921 202.635 73.3721C206.085 72.3821 209.545 71.3921 212.995 70.4021C219.495 70.8921 221.075 72.2321 221.185 77.3321C221.215 79.0221 220.895 80.6421 220.305 82.2321C219.265 85.0421 217.955 87.7121 215.975 90.3921C219.025 90.4621 219.275 87.8321 220.795 86.7321C223.125 87.3221 224.665 86.3521 226.185 84.5721C231.215 78.7021 236.235 72.7921 243.305 69.1621C246.365 67.5921 249.525 66.3221 252.885 65.5921C256.285 65.5621 259.675 66.1721 263.085 65.6621C264.015 65.5221 265.185 64.9821 265.805 65.7821C266.575 66.7721 265.525 67.7921 265.115 68.7021C263.765 71.6621 261.705 74.1421 259.685 76.6521C251.125 87.3121 246.515 99.6821 244.115 112.982C242.765 115.062 242.635 117.522 241.955 119.812C241.625 119.792 241.295 119.762 240.965 119.742C241.115 114.292 240.785 108.802 242.245 103.462C243.425 99.1521 244.755 94.8821 246.025 90.6021C247.225 88.5721 249.035 86.8821 249.455 84.3421C245.855 88.4221 241.725 91.8921 237.825 95.6121C234.105 99.6121 229.025 101.392 224.235 103.462C221.495 104.652 219.845 103.022 220.215 99.9721C220.475 97.8521 221.065 95.7621 221.715 93.7221C222.155 92.3421 221.425 91.6521 220.545 92.2721C216.445 95.1521 211.485 96.1021 207.185 98.6421C202.395 101.482 197.005 103.412 191.165 102.832C190.225 102.742 189.115 102.582 189.005 101.372C188.905 100.332 189.895 100.122 190.655 99.7721C193.255 98.5821 195.895 97.5921 198.745 97.0821C207.285 95.5421 213.325 91.0721 215.675 82.3121C216.975 77.4621 214.175 74.3221 209.155 75.2121C207.135 75.5621 205.205 76.1321 203.435 77.1921C201.585 78.2921 199.575 78.9821 197.425 79.2121C194.315 79.6721 194.625 82.7021 193.545 84.5921C187.665 94.8521 182.175 105.332 176.875 115.902C175.955 117.742 175.765 118.562 178.335 118.602C187.765 118.772 197.185 118.732 206.615 119.212C214.825 119.632 223.045 120.082 231.265 120.492C236.515 120.762 241.755 121.202 247.005 121.522C247.925 121.582 249.235 121.572 247.725 120.182C252.065 120.132 256.065 118.432 260.065 117.162C267.855 114.692 275.805 113.032 283.755 111.302C286.185 110.772 287.645 109.982 288.035 107.082C288.825 101.192 290.185 95.3821 291.295 89.5421C291.465 88.6421 291.955 87.5621 290.925 86.9321C289.835 86.2621 289.245 87.5121 288.505 87.9421C287.205 88.7221 286.055 89.7621 284.845 90.6821C283.665 91.3621 281.875 91.4821 282.135 93.5321L282.115 93.5421C279.335 93.1421 277.765 94.5021 277.005 97.0521C273.475 100.482 269.285 102.722 264.445 103.542C259.115 104.442 256.715 101.902 257.725 96.6121C257.925 95.5721 258.265 94.5021 258.775 93.5821C263.555 84.9721 268.205 76.2621 274.555 68.6621C276.115 66.7921 277.675 64.6421 280.575 64.6821C281.345 67.4021 280.045 69.5721 278.655 71.6821C276.165 75.4721 273.535 79.1821 271.115 83.0221C268.585 87.0421 266.205 91.1621 263.805 95.2721C263.145 96.4021 263.035 97.7121 264.375 98.3721C265.575 98.9621 266.725 98.6821 267.095 97.1021C272.875 94.9321 277.405 90.7921 282.235 87.1921C285.375 84.8521 288.305 82.2021 290.975 79.2821C293.395 76.6421 294.785 73.5321 295.625 70.1321C296.165 67.9521 297.345 66.8021 299.645 66.9721C300.435 68.9521 300.145 70.9421 299.665 72.9321C296.865 84.4121 295.385 96.1421 293.275 107.752C292.695 110.922 294.035 110.352 295.815 109.202C297.485 109.342 299.155 109.442 300.625 108.382C301.075 108.772 301.485 109.052 302.195 108.922C306.855 108.072 311.545 107.332 316.205 106.472C317.985 106.142 320.115 106.902 321.385 104.892C321.755 100.842 323.295 97.1321 324.755 93.4021C325.295 92.0121 326.265 90.7021 325.845 89.0621L325.805 89.1521C326.385 89.2221 326.605 88.9221 326.575 88.3821L326.525 88.4521C327.195 88.3621 327.105 87.7721 327.255 87.3421C327.315 86.2521 329.225 85.7921 328.175 84.0921C325.345 87.4521 321.725 89.8821 319.465 93.6021L319.515 93.5221C318.755 93.5221 318.705 94.0521 318.695 94.6121L318.735 94.6221ZM226.825 135.292L226.945 135.192C226.135 135.392 225.365 135.612 225.445 136.702L225.495 136.662C219.145 139.682 216.705 146.172 219.525 152.272C220.935 155.312 222.835 158.032 224.805 160.692C229.875 167.512 239.835 171.112 247.395 168.952C252.395 167.012 257.275 164.872 261.075 160.862C267.535 154.042 272.325 146.062 277.075 138.052C280.625 132.062 283.115 125.602 285.275 119.012C285.805 117.412 286.465 115.252 283.435 115.962C276.045 117.702 268.475 118.742 261.355 121.542C260.285 121.862 258.785 120.982 257.985 122.812C261.855 123.172 265.435 123.992 268.915 125.122C270.745 125.712 273.005 126.132 272.875 128.892C270.285 131.062 267.285 130.432 264.345 130.112C263.775 130.052 262.845 129.872 263.205 129.162C264.125 127.362 262.725 127.542 261.805 127.292C249.395 123.862 238.505 127.662 228.245 134.392C227.545 134.342 227.015 134.562 226.805 135.292H226.825ZM323.815 74.1621C322.935 73.7121 322.485 74.0221 322.375 74.9621L322.455 74.9021C321.605 74.6721 321.135 75.3021 320.615 75.7521C314.935 80.6121 309.985 86.0721 306.815 92.9421C306.375 93.8921 305.025 95.0221 306.425 96.0221C307.575 96.8421 308.645 95.8621 309.555 95.0621C315.305 91.8721 319.365 86.5521 325.085 83.0821C328.315 81.1321 330.495 76.4521 333.625 73.3821C334.265 72.7621 334.875 71.7721 334.295 70.7821C333.655 69.6821 332.445 69.7021 331.405 69.9421C330.035 70.2621 328.725 70.8221 327.395 71.2821C326.385 71.3521 325.475 71.5921 325.245 72.7821L325.305 72.7221C324.375 72.7621 323.575 72.9321 323.815 74.1621ZM241.245 77.1221L241.305 77.0721C233.865 80.7621 230.245 87.5621 227.005 94.6521C226.715 95.2721 226.525 96.2821 227.285 96.5821C228.475 97.0621 229.605 96.7521 230.075 95.3121C232.015 94.8221 233.425 93.4821 234.815 92.2121C240.975 86.5921 247.095 80.9321 253.155 75.2121C254.205 74.2221 256.065 73.0921 255.015 71.4121C253.995 69.7721 252.095 70.3721 250.495 70.9821C250.175 71.1021 249.815 71.1521 249.485 71.2421C246.295 72.5821 243.005 73.7721 241.255 77.1221H241.245Z" fill="#363636"/>
<path d="M51.865 10.9021C54.205 8.07211 56.445 5.14211 59.545 3.07211C60.825 2.22211 62.075 1.21211 63.795 1.79211C64.275 5.06211 61.335 6.72211 60.245 9.25211C59.625 10.6921 59.535 11.4821 61.465 11.3921C68.395 11.0421 75.125 12.9021 81.995 13.2721C83.745 13.3621 85.545 13.0121 87.275 13.2321C95.405 14.2921 103.505 15.5721 111.705 16.0821C111.305 18.2021 109.635 17.2521 108.555 17.2321C92.985 16.9821 77.425 15.7721 61.845 16.2621C60.305 16.3121 58.765 16.5321 57.235 16.6721C55.925 16.3621 54.975 16.7121 54.195 17.9121C52.775 20.0921 51.175 22.1621 49.735 24.3321C31.965 51.1321 16.845 79.2521 6.355 109.732C5.265 112.892 4.205 116.062 3.965 119.432C2.195 119.802 3.035 122.362 0.925003 122.802C0.275003 119.632 1.075 116.642 1.795 113.722C5.505 98.5921 11.475 84.2921 18.195 70.3021C21.405 63.6321 24.655 56.9621 28.185 50.4621C33.555 40.5721 39.035 30.7321 45.475 21.4721C46.265 20.3321 46.735 18.9621 47.535 17.3221C40.845 17.8321 34.625 18.9221 28.395 19.8521C25.055 20.3521 21.425 22.1321 18.735 18.0521C17.915 16.8121 16.015 17.6721 14.625 17.4021C13.815 17.2421 12.775 17.3521 12.585 16.3321C12.405 15.3821 13.205 14.6021 14.005 14.5521C16.625 14.3921 18.455 12.4821 20.805 11.7621C22.065 12.8021 23.555 12.3021 24.915 12.2521C31.925 12.0321 38.945 11.7521 45.945 11.4021C47.915 11.3021 49.965 11.8821 51.865 10.9021Z" fill="#363636"/>
<path d="M53.675 113.562C52.895 115.822 52.105 118.082 51.325 120.342C50.935 114.602 50.655 109.072 52.285 103.422C53.525 99.1021 55.565 95.0721 56.475 90.6621C57.715 89.0021 58.865 87.2921 59.635 84.5921C55.455 88.4121 52.485 92.5221 48.135 95.1121C47.465 95.5121 46.765 96.1521 47.315 97.1621C46.075 96.7721 45.585 97.6421 45.075 98.4921C41.975 100.812 38.825 103.022 35.075 104.202C31.055 105.462 28.865 103.652 29.985 99.6221C32.945 89.0121 38.815 80.3821 47.905 73.9521C51.805 71.1921 55.815 68.8121 60.275 67.0421C63.695 65.6921 67.095 65.0821 70.715 65.5021C70.985 65.8521 71.215 66.4521 71.535 66.5021C76.355 67.2921 76.425 67.4021 73.595 71.8321C72.575 73.4321 71.555 75.1121 70.235 76.4521C65.905 80.8421 63.095 86.1821 60.705 91.7321C57.675 98.7821 54.665 105.862 53.665 113.572L53.675 113.562ZM50.895 78.4721C49.865 77.7621 49.535 78.2621 49.485 79.2721L49.555 79.2221C43.285 83.1421 39.595 89.1021 36.665 95.6321C36.385 96.2621 36.305 97.2321 37.135 97.4821C38.225 97.8021 39.275 97.5121 39.695 96.2121C40.155 96.1321 40.745 96.2121 41.055 95.9421C49.115 89.3721 56.355 81.9121 63.945 74.8421C64.705 74.1321 65.535 73.1621 64.735 72.0121C63.985 70.9421 62.795 71.3321 61.755 71.4621C58.565 71.8421 56.475 74.4221 53.675 75.5821C52.735 76.0521 51.275 76.0221 51.655 77.7321H51.645C51.395 77.7321 51.135 77.7121 50.885 77.7021C50.895 77.9621 50.905 78.2121 50.915 78.4721H50.895Z" fill="#363636"/>
<path d="M99.855 97.1921C96.965 100.022 93.655 102.062 89.725 103.242C85.715 104.442 83.745 103.192 84.505 99.0721C85.955 91.2221 90.435 84.9421 95.585 79.0421C100.975 72.8621 107.685 68.7621 115.315 66.0421C116.465 65.6321 117.715 65.5021 118.925 65.2421C121.675 66.1021 124.465 66.6121 127.325 66.0121C128.095 65.8521 128.905 64.9821 129.545 65.8621C130.115 66.6521 129.885 67.7021 129.435 68.5821C128.135 71.1521 126.535 73.5221 124.635 75.6921C115.305 86.3921 111.375 99.4621 108.275 112.892C106.405 114.592 107.375 117.452 105.515 119.522C104.455 110.442 106.165 102.112 109.635 94.0621C110.245 92.6521 111.175 91.3421 111.105 89.7121L111.065 89.9021C111.885 89.5421 111.795 88.7921 111.845 88.1021C112.345 86.6221 114.765 86.4521 114.555 84.4221C113.415 84.0221 112.665 84.5521 112.115 85.1221C108.635 88.6821 105.575 92.6921 101.135 95.2321C100.565 95.5621 99.665 96.1421 99.865 97.1921H99.855ZM108.345 74.8921L108.375 74.8621C107.725 74.6921 107.285 74.7421 107.625 75.5921C107.435 75.5021 107.145 75.2821 107.055 75.3421C100.215 80.1521 95.035 86.3621 91.435 93.9021C91.035 94.7321 90.565 95.8521 91.595 96.4721C92.645 97.1021 93.585 96.4221 94.325 95.5721C103.485 89.2621 110.845 80.9421 118.915 73.4221C120.485 71.9621 119.735 70.6021 117.445 70.5121C114.395 70.3921 112.235 72.4821 109.675 73.5921C109.445 73.7821 109.215 73.9721 108.985 74.1621L109.085 74.1221C108.515 74.0721 108.125 74.1821 108.345 74.8921Z" fill="#363636"/>
<path d="M66.715 127.262C65.925 128.812 65.125 130.352 63.995 132.552C63.355 129.772 63.615 127.672 64.055 125.562C69.495 99.3521 79.485 75.0121 93.525 52.2221C97.975 45.0021 102.575 37.9121 108.075 31.5321C113.565 25.1721 118.165 17.8621 125.525 13.2921C128.295 11.5721 130.895 9.32211 134.485 9.44211C134.355 11.5421 132.525 12.4121 131.355 13.7721C129.565 15.8621 126.775 16.9621 125.615 19.6621L125.665 19.6221C121.065 21.8621 117.945 25.8321 114.665 29.4821C101.515 44.0921 91.605 60.7321 83.955 78.8121C77.255 94.6421 71.095 110.632 66.705 127.272L66.715 127.262Z" fill="#363636"/>
<path d="M66.715 127.262C71.105 110.622 77.265 94.6321 83.965 78.8021C91.615 60.7221 101.525 44.0821 114.675 29.4721C117.965 25.8221 121.075 21.8521 125.675 19.6121C125.735 21.6221 123.705 22.0521 122.685 23.0521C106.855 38.5021 96.125 57.2421 87.305 77.2321C80.815 91.9421 75.095 106.942 70.835 122.472C70.025 125.422 68.535 128.172 66.725 130.902V127.252L66.715 127.262Z" fill="#363636"/>
<path d="M3.955 119.422C4.195 116.052 5.265 112.882 6.345 109.722C16.835 79.2521 31.965 51.1221 49.715 24.3321C51.155 22.1621 52.755 20.0921 54.175 17.9121C54.945 16.7221 55.905 16.3721 57.215 16.6721C34.565 49.1721 16.645 84.0521 4.945 122.232C3.495 121.102 4.105 120.202 3.955 119.432V119.422Z" fill="#363636"/>
<path d="M247.755 120.182C249.265 121.572 247.955 121.582 247.035 121.522C241.785 121.212 236.545 120.762 231.295 120.492C223.075 120.072 214.865 119.632 206.645 119.212C197.215 118.732 187.785 118.772 178.365 118.602C175.795 118.552 175.975 117.742 176.905 115.902C182.205 105.332 187.695 94.8521 193.575 84.5921C194.655 82.7021 194.345 79.6721 197.455 79.2121C197.695 81.0521 197.055 82.5921 196.175 84.2221C190.615 94.5521 185.215 104.962 179.675 115.302C178.585 117.342 179.515 117.442 181.115 117.262L181.185 117.442L181.255 117.262C186.635 117.342 192.015 117.322 197.385 117.532C207.295 117.912 217.195 118.382 227.085 119.162C231.675 119.522 236.355 119.382 240.995 119.752C241.325 119.772 241.655 119.802 241.985 119.822C243.905 119.942 245.825 120.072 247.755 120.192V120.182Z" fill="#363636"/>
<path d="M244.145 112.982C246.545 99.6721 251.155 87.3121 259.715 76.6521C261.735 74.1421 263.805 71.6521 265.145 68.7021C265.555 67.7921 266.605 66.7721 265.835 65.7821C265.215 64.9821 264.035 65.5221 263.115 65.6621C259.715 66.1721 256.315 65.5721 252.915 65.5921C257.785 63.1621 263.095 65.4421 268.115 64.1821C269.565 63.8221 269.345 65.3521 268.885 66.1921C267.615 68.4821 266.555 71.0221 264.815 72.9121C256.115 82.3521 251.855 93.9521 248.305 105.912C247.075 110.062 246.045 114.272 244.145 118.372V112.982Z" fill="#363636"/>
<path d="M108.285 112.892C111.385 99.4521 115.315 86.3921 124.645 75.6921C126.535 73.5221 128.145 71.1521 129.445 68.5821C129.885 67.7021 130.125 66.6521 129.555 65.8621C128.915 64.9821 128.105 65.8521 127.335 66.0121C124.475 66.6021 121.685 66.1021 118.935 65.2421C123.235 63.2521 127.845 65.6121 132.245 64.2521C133.765 63.7821 133.455 65.2621 133.085 66.1521C132.075 68.5921 130.835 70.9721 129.055 72.8821C119.785 82.8421 115.605 95.2521 111.905 107.912C110.885 111.392 110.045 114.922 108.285 118.322V112.902V112.892Z" fill="#363636"/>
<path d="M176.295 107.362C175.645 109.822 175.715 109.612 173.515 108.852C172.245 108.412 170.665 108.582 169.295 108.832C165.255 109.572 163.725 108.222 164.535 104.182C165.965 97.0221 168.525 90.2221 171.815 83.7321C174.285 78.8521 177.125 74.1521 179.645 69.2921C180.565 67.5121 182.205 65.7021 180.765 63.4021C181.735 62.5121 182.885 61.4221 184.115 62.4521C185.185 63.3521 184.385 64.7521 183.855 65.7621C181.145 70.9021 178.205 75.9421 175.595 81.1321C172.175 87.9321 169.155 94.9221 167.805 102.492C166.925 107.412 167.865 108.302 172.765 107.602C173.935 107.432 175.125 107.442 176.305 107.372L176.295 107.362Z" fill="#363636"/>
<path d="M153.215 171.122C154.535 164.652 157.525 158.772 160.005 152.742C163.995 143.032 168.315 133.462 172.965 124.042C173.715 122.512 174.285 120.872 176.535 121.562C169.325 136.932 162.445 152.442 156.305 168.272C155.835 169.472 155.135 170.622 154.345 171.642C153.745 172.422 153.425 171.692 153.215 171.122Z" fill="#363636"/>
<path d="M261.895 166.732C275.415 151.882 285.165 134.842 291.555 115.842C292.165 114.032 293.165 113.312 294.995 113.612C289.595 130.712 280.875 146.022 269.815 160.032C267.675 162.732 265.665 165.842 261.895 166.722V166.732Z" fill="#363636"/>
<path d="M53.675 113.562C54.675 105.852 57.685 98.7621 60.715 91.7221C63.105 86.1721 65.905 80.8321 70.245 76.4421C71.565 75.1021 72.585 73.4321 73.605 71.8221C76.435 67.3921 76.365 67.2821 71.545 66.4921C71.225 66.4421 70.995 65.8421 70.725 65.4921C72.865 65.3821 75.015 65.4121 77.135 65.1221C79.255 64.8221 79.065 65.8021 78.515 67.1421C77.335 70.0421 75.715 72.6921 73.575 74.9621C67.275 81.6321 63.725 89.8121 60.715 98.2621C58.735 103.812 57.065 109.472 55.315 115.102C55.075 115.892 55.835 117.322 54.245 117.112C53.115 116.962 53.785 115.722 53.645 114.982C53.555 114.522 53.655 114.032 53.675 113.552V113.562Z" fill="#363636"/>
<path d="M295.855 109.212C294.075 110.362 292.735 110.942 293.315 107.762C295.435 96.1521 296.905 84.4221 299.705 72.9421C300.195 70.9521 300.475 68.9621 299.685 66.9821C300.365 66.0421 301.105 65.2821 302.315 66.2121C303.355 67.0121 303.555 67.8921 303.275 69.3021C300.695 82.3521 298.255 95.4221 295.785 108.492C295.745 108.712 295.825 108.962 295.845 109.202L295.855 109.212Z" fill="#363636"/>
<path d="M335.265 103.392C334.395 104.222 333.285 104.082 332.225 104.182C327.145 104.669 325.542 102.442 327.415 97.5021C330.675 88.8721 334.495 80.5722 340.915 73.7122C342.525 71.9922 343.845 69.9621 344.735 67.7021C345.485 65.8021 346.035 64.5921 342.885 65.0821C339.535 65.6021 336.045 65.5622 332.655 64.8522C334.475 63.4622 336.975 64.0621 338.525 64.3421C341.415 64.8721 343.855 63.9921 346.455 63.6321C348.455 63.3521 348.895 63.9021 348.175 65.6521C347.125 68.2021 345.795 70.6522 343.935 72.6422C335.825 81.3222 331.765 92.0321 328.245 103.112C330.575 104.672 333.015 101.932 335.265 103.382V103.392Z" fill="#363636"/>
<path d="M111.695 16.0921C103.495 15.5921 95.395 14.3021 87.265 13.2421C85.535 13.0121 83.745 13.3721 81.985 13.2821C75.115 12.9121 68.385 11.0521 61.455 11.4021C59.525 11.5021 59.615 10.7121 60.235 9.26215C61.325 6.73215 64.265 5.06215 63.785 1.80215C64.755 0.962146 66.045 -0.397854 67.055 0.582146C68.155 1.64215 66.555 2.90215 65.955 3.97215C64.925 5.82215 62.375 7.84215 63.105 9.40215C63.905 11.1121 66.975 10.0421 69.045 10.2121C77.255 10.8821 85.435 11.7721 93.615 12.8521C100.165 13.7221 106.765 14.4021 113.345 15.1621C113.875 15.2221 114.595 15.0721 114.725 16.0921C113.775 17.5121 112.655 15.3921 111.685 16.1021L111.695 16.0921Z" fill="#363636"/>
<path d="M267.145 97.1121C266.775 98.6921 265.625 98.9821 264.425 98.3821C263.085 97.7121 263.195 96.4021 263.855 95.2821C266.255 91.1721 268.635 87.0521 271.165 83.0321C273.585 79.1921 276.205 75.4821 278.705 71.6921C280.095 69.5821 281.385 67.4121 280.625 64.6921C281.545 63.9521 282.575 62.8621 283.725 63.8021C284.835 64.7121 284.075 66.0121 283.615 67.0921C281.765 71.4021 278.615 74.8821 276.175 78.8121C273.295 83.4521 270.235 87.9921 268.035 93.0221C267.475 94.3121 266.685 95.5821 267.155 97.1121H267.145Z" fill="#363636"/>
<path d="M220.825 86.7321C219.305 87.8221 219.055 90.4621 216.005 90.3921C217.995 87.7121 219.305 85.0421 220.335 82.2321C220.925 80.6421 221.245 79.0221 221.215 77.3321C221.115 72.2321 219.525 70.8921 213.025 70.4021C216.305 69.0321 219.815 68.4221 222.555 70.9721C225.405 73.6221 224.775 77.2621 223.555 80.6021C222.795 82.7021 221.745 84.6921 220.825 86.7321Z" fill="#363636"/>
<path d="M172.095 117.562C169.005 119.782 165.345 118.962 162.005 119.082C150.445 119.512 138.935 120.222 127.445 121.732C123.365 122.262 119.135 123.882 114.885 122.332C130.385 119.852 145.985 118.402 161.655 117.802C162.225 117.792 162.805 117.772 163.375 117.762C164.465 117.732 165.555 117.702 166.645 117.662C167.025 117.642 167.415 117.632 167.805 117.612C169.235 117.592 170.665 117.572 172.095 117.562Z" fill="#363636"/>
<path d="M153.995 87.8521C153.355 88.3921 153.695 89.4921 152.785 89.9021C152.265 90.1321 151.815 90.7621 151.215 90.3721C150.635 90.0021 150.795 89.3521 150.965 88.7721C151.725 86.1121 153.095 83.7821 154.685 81.5521C157.225 77.9921 159.905 74.5021 162.155 70.7621C163.035 69.2921 165.205 67.3121 162.425 65.4221C162.895 63.7121 164.115 63.0821 165.605 63.8221C167.325 64.6721 166.685 66.3621 166.115 67.5421C163.865 72.2421 160.645 76.3421 157.655 80.5821C156.065 82.8321 154.565 85.1021 154.005 87.8521H153.995Z" fill="#363636"/>
<path d="M202.665 73.3721C201.965 73.7821 201.275 74.1921 200.575 74.6121C201.695 70.8021 203.935 67.7421 206.055 64.5921C208.685 60.6921 211.995 57.1221 212.385 52.0821C213.705 51.9621 214.045 49.9621 216.005 50.3821C213.725 59.4021 206.785 65.5921 202.675 73.3721H202.665Z" fill="#363636"/>
<path d="M328.085 125.062C331.455 120.432 335.775 116.692 339.865 112.752C340.555 112.092 341.275 111.452 341.905 110.742C343.625 108.832 346.775 107.172 345.945 104.472C345.145 101.832 341.695 103.482 339.535 102.732C339.665 102.542 339.785 102.192 339.925 102.192C343.055 102.122 347.425 100.272 348.955 103.022C350.555 105.892 346.365 108.012 344.335 110.132C339.575 115.112 334.295 119.602 329.915 124.962C329.365 125.632 328.785 126.842 328.075 125.062H328.085Z" fill="#363636"/>
<path d="M134.035 89.8121C133.175 90.8521 132.755 92.3821 130.805 92.5021C130.805 89.9121 132.365 88.0921 133.595 86.2021C136.365 81.9321 139.305 77.7621 142.135 73.5321C142.985 72.2721 144.035 71.0321 143.505 69.3121C144.505 68.8021 145.405 67.1221 146.495 68.0121C147.815 69.0921 146.395 70.3821 145.775 71.4121C141.965 77.6221 137.205 83.2221 134.025 89.8221L134.035 89.8121Z" fill="#363636"/>
<path d="M147.095 99.9721C154.055 94.1721 158.995 86.5621 165.075 79.9721C166.565 78.3521 167.555 76.1321 169.985 75.5421C169.935 75.9921 170.045 76.5821 169.795 76.8521C163.505 83.7321 158.235 91.5021 151.375 97.8721C150.195 98.9721 149.085 100.432 147.095 99.9721Z" fill="#363636"/>
<path d="M128.925 100.882C128.465 100.442 128.035 99.7621 128.675 99.3921C137.585 94.2421 142.755 85.3421 149.865 78.3921C150.355 77.9121 150.665 77.2321 151.145 76.5221C152.935 78.7721 150.975 79.4721 150.545 80.6021C147.015 82.8221 144.795 86.3421 141.965 89.2521C137.885 93.4321 134.465 98.3321 128.935 100.882H128.925Z" fill="#363636"/>
<path d="M51.865 10.9021C49.965 11.8721 47.925 11.3021 45.945 11.4021C38.935 11.7521 31.925 12.0321 24.915 12.2521C23.555 12.2921 22.065 12.7921 20.805 11.7621C31.125 10.2821 41.475 9.92212 51.865 10.9121V10.9021Z" fill="#363636"/>
<path d="M99.855 97.1921C99.655 96.1421 100.555 95.5621 101.125 95.2321C105.565 92.6921 108.625 88.6821 112.105 85.1221C112.655 84.5521 113.405 84.0321 114.545 84.4221C114.765 86.4521 112.335 86.6321 111.845 88.1021C111.575 88.6921 110.285 88.8521 111.065 89.9021L111.105 89.7121C108.365 90.7821 106.795 93.3621 104.415 94.9021C102.975 95.8321 101.835 97.3521 99.855 97.1921Z" fill="#363636"/>
<path d="M125.625 19.6621C126.785 16.9621 129.575 15.8621 131.365 13.7721C132.525 12.4121 134.355 11.5521 134.495 9.44212C135.195 8.04212 136.415 8.01212 138.415 8.10212C134.465 12.8721 130.565 16.8121 125.625 19.6621Z" fill="#363636"/>
<path d="M47.325 97.1621C46.775 96.1521 47.465 95.5121 48.145 95.1121C52.495 92.5221 55.455 88.4221 59.645 84.5921C58.875 87.2921 57.715 89.0021 56.485 90.6621C52.955 92.1521 51.085 95.9721 47.335 97.1621H47.325Z" fill="#363636"/>
<path d="M321.425 104.902C320.155 106.922 318.015 106.152 316.245 106.482C311.585 107.342 306.905 108.092 302.235 108.932C301.535 109.062 301.115 108.782 300.665 108.392C307.585 107.232 314.505 106.062 321.425 104.902Z" fill="#363636"/>
<path d="M323.615 117.972C323.665 115.722 323.875 113.462 323.725 111.222C323.565 108.872 324.495 107.942 326.755 108.142C325.445 111.332 325.995 115.122 323.605 117.962L323.615 117.972Z" fill="#363636"/>
<path d="M319.505 93.6121C321.765 89.8921 325.385 87.4621 328.215 84.1021C329.265 85.8021 327.355 86.2621 327.295 87.3521C327.055 87.7221 326.805 88.0921 326.555 88.4621L326.605 88.3921C326.125 88.4221 325.865 88.6821 325.835 89.1621L325.875 89.0721C323.495 90.2321 322.345 93.1221 319.495 93.6121H319.505Z" fill="#363636"/>
<path d="M277.045 97.0721C277.795 94.5221 279.365 93.1621 282.155 93.5621C280.755 95.1721 279.345 96.7721 277.045 97.0721Z" fill="#363636"/>
<path d="M282.175 93.5421C281.915 91.4921 283.695 91.3721 284.885 90.6921C284.765 92.3921 283.495 92.9921 282.175 93.5421Z" fill="#363636"/>
<path d="M45.085 98.4821C45.585 97.6321 46.085 96.7621 47.325 97.1521C46.905 98.1321 46.235 98.7121 45.085 98.4821Z" fill="#363636"/>
<path d="M163.385 117.762C162.805 117.772 162.235 117.792 161.665 117.802C162.235 117.512 162.805 117.452 163.385 117.762Z" fill="#363636"/>
<path d="M167.805 117.612C167.415 117.632 167.025 117.642 166.645 117.662C167.015 117.222 167.405 117.222 167.805 117.612Z" fill="#363636"/>
<path d="M318.735 94.6221C318.745 94.0621 318.805 93.5321 319.555 93.5321C319.895 94.3621 319.185 94.3921 318.735 94.6221Z" fill="#363636"/>
<path d="M225.495 136.662C225.725 136.962 225.745 137.202 225.475 137.542C220.025 144.582 220.045 147.312 224.725 154.912C229.985 163.432 237.205 168.522 247.395 168.952C239.835 171.112 229.875 167.512 224.805 160.692C222.825 158.032 220.925 155.312 219.525 152.272C216.705 146.172 219.155 139.682 225.495 136.662Z" fill="#363636"/>
<path d="M322.445 74.8921C320.065 78.7621 315.995 81.2221 313.755 85.1921C311.995 88.3121 309.075 90.9621 309.545 95.0521C308.635 95.8521 307.565 96.8321 306.415 96.0121C305.025 95.0221 306.365 93.8821 306.805 92.9321C309.985 86.0721 314.925 80.6121 320.605 75.7421C321.125 75.2921 321.595 74.6621 322.445 74.8921Z" fill="#363636"/>
<path d="M241.305 77.0721C240.175 79.9221 237.365 81.4221 235.775 83.9121C233.475 87.5221 230.155 90.6021 230.075 95.3121C229.605 96.7521 228.475 97.0621 227.285 96.5821C226.525 96.2821 226.725 95.2721 227.005 94.6521C230.255 87.5621 233.865 80.7621 241.305 77.0721Z" fill="#363636"/>
<path d="M261.365 121.552C265.315 122.372 269.395 122.602 273.145 124.252C274.435 124.822 276.245 125.272 276.195 126.862C276.145 128.612 274.255 128.622 272.875 128.902C273.005 126.142 270.745 125.722 268.925 125.132C265.445 124.002 261.865 123.182 257.995 122.822C258.795 120.992 260.295 121.882 261.365 121.552Z" fill="#363636"/>
<path d="M246.055 90.6021C243.925 91.0321 242.895 92.9721 241.275 94.1021C240.225 94.8321 239.395 96.0121 237.855 95.6121C241.755 91.8921 245.885 88.4221 249.485 84.3421C249.075 86.8721 247.255 88.5621 246.055 90.6021Z" fill="#363636"/>
<path d="M249.475 71.2421C246.635 73.0721 244.545 75.9421 241.245 77.1221C242.995 73.7721 246.285 72.5821 249.475 71.2421Z" fill="#363636"/>
<path d="M327.385 71.2821C326.985 72.2321 326.455 73.0021 325.235 72.7821C325.465 71.5921 326.365 71.3621 327.385 71.2821Z" fill="#363636"/>
<path d="M325.305 72.7221C325.445 73.8621 324.595 73.9721 323.815 74.1621C323.575 72.9221 324.375 72.7521 325.305 72.7221Z" fill="#363636"/>
<path d="M226.945 135.192C227.415 136.652 226.525 136.782 225.445 136.702C225.365 135.622 226.145 135.392 226.945 135.192Z" fill="#363636"/>
<path d="M323.815 74.1621C323.535 74.7921 323.275 75.4621 322.375 74.9521C322.485 74.0221 322.945 73.7021 323.815 74.1621Z" fill="#363636"/>
<path d="M228.255 134.392C228.085 135.192 227.935 136.002 226.825 135.292C227.035 134.562 227.565 134.342 228.255 134.392Z" fill="#363636"/>
<path d="M49.545 79.2221C47.795 83.1421 43.955 85.5521 42.165 89.4421C41.155 91.6321 39.265 93.5021 39.685 96.2121C39.265 97.5121 38.215 97.8021 37.125 97.4821C36.295 97.2421 36.375 96.2621 36.655 95.6321C39.585 89.0921 43.265 83.1321 49.545 79.2221Z" fill="#363636"/>
<path d="M53.655 75.5821C53.445 76.7421 52.645 77.3321 51.635 77.7321C51.255 76.0221 52.715 76.0521 53.655 75.5821Z" fill="#363636"/>
<path d="M50.885 78.4821C50.605 79.0721 50.375 79.7721 49.475 79.2821C49.525 78.2721 49.855 77.7621 50.885 78.4821Z" fill="#363636"/>
<path d="M51.625 77.7421C51.625 78.2221 51.375 78.4621 50.895 78.4721C50.885 78.2121 50.875 77.9621 50.865 77.7021C51.115 77.7121 51.375 77.7321 51.625 77.7421Z" fill="#363636"/>
<path d="M107.625 75.5921C103.325 80.1921 98.665 84.5121 95.755 90.2421C94.915 91.9021 93.615 93.4821 94.315 95.5721C93.575 96.4221 92.635 97.1021 91.585 96.4721C90.555 95.8521 91.035 94.7421 91.425 93.9021C95.025 86.3721 100.215 80.1621 107.045 75.3421C107.135 75.2821 107.425 75.5021 107.615 75.5921H107.625Z" fill="#363636"/>
<path d="M109.675 73.5821C109.585 73.9421 109.505 74.3021 108.985 74.1521C109.215 73.9621 109.445 73.7721 109.675 73.5821Z" fill="#363636"/>
<path d="M108.375 74.8621C108.445 75.4321 108.095 75.5721 107.625 75.5921C107.285 74.7421 107.715 74.6921 108.375 74.8621Z" fill="#363636"/>
<path d="M109.085 74.1221C109.215 74.7421 108.875 74.9121 108.345 74.8921C108.125 74.1821 108.525 74.0721 109.085 74.1221Z" fill="#363636"/>
<path d="M181.115 117.262H181.265L181.185 117.442L181.115 117.262Z" fill="#363636"/>
</g>
<defs>
<clipPath id="clip0_2006_13296">
<rect width="348.65" height="173.65" fill="white" transform="translate(0.675003 0.232117)"/>
</clipPath>
</defs>
</svg>
