<svg width="310" height="287" viewBox="0 0 310 287" fill="none" xmlns="http://www.w3.org/2000/svg">
<g clip-path="url(#clip0_2006_13255)">
<path d="M116.515 163.787C115.525 164.657 114.525 165.537 113.315 166.597C112.465 165.997 111.605 165.387 110.515 164.617C107.915 168.937 105.345 173.207 102.785 177.477C102.235 177.307 101.685 177.147 101.135 176.977C101.895 169.597 102.655 162.217 103.445 154.537C103.665 154.547 102.815 154.507 101.935 154.467C101.355 143.407 100.635 132.357 100.245 121.287C100.015 114.777 101.445 113.557 107.735 114.507C123.195 116.847 138.635 117.157 154.025 114.077C157.125 113.457 158.325 115.017 158.655 117.537C159.825 126.407 161.715 135.297 161.755 144.187C161.845 163.517 160.985 182.847 160.475 202.177C160.435 203.727 159.935 205.257 159.815 206.817C159.495 210.697 157.265 212.277 153.585 212.317C147.615 212.377 141.635 212.447 135.665 212.567C124.585 212.787 113.495 212.937 102.425 213.337C99.015 213.457 97.565 212.227 97.925 208.947C98.835 200.747 99.805 192.557 100.805 184.367C100.885 183.727 101.195 182.807 101.665 182.587C106.375 180.417 107.015 175.487 109.335 171.697C110.015 170.587 111.635 170.097 112.705 169.187C114.365 167.787 115.925 166.277 117.525 164.807C117.195 164.467 116.865 164.137 116.535 163.797L116.515 163.787ZM137.725 178.237C140.785 177.847 144.045 176.617 146.905 177.247C150.845 178.117 151.435 182.127 151.205 185.587C151.035 187.987 150.435 190.867 148.935 192.557C145.075 196.917 140.285 194.487 135.135 192.517C135.945 194.667 136.405 195.887 137.275 198.207C133.885 198.207 130.905 198.687 128.155 198.107C122.955 196.997 124.095 191.757 122.765 187.477C120.905 188.917 119.325 189.707 118.385 190.977C117.505 192.157 117.305 193.827 116.805 195.287C117.955 194.417 119.105 193.547 120.265 192.697C120.465 192.547 120.735 192.497 120.975 192.407C123.325 200.417 128.855 203.847 135.785 201.657C139.365 200.527 142.995 199.537 146.595 198.467C151.275 197.077 154.165 193.947 154.885 189.167C155.675 184.007 154.905 179.127 150.375 175.757C146.005 172.507 139.165 173.977 137.715 178.227L137.725 178.237ZM141.005 153.787C141.745 152.727 142.375 152.227 142.305 151.867C141.305 146.757 140.415 141.607 138.985 136.617C138.615 135.327 136.565 133.797 135.175 133.687C132.515 133.467 132.155 131.967 131.495 129.967C129.705 124.527 126.825 123.207 122.355 126.677C117.615 130.357 113.535 134.957 109.505 139.457C108.735 140.317 109.555 142.597 109.645 144.227C111.065 143.447 112.825 142.957 113.825 141.817C116.325 138.947 118.235 135.537 120.855 132.807C122.415 131.177 124.875 130.417 126.925 129.257C127.675 131.427 128.425 133.597 129.185 135.767C129.275 136.027 129.455 136.257 129.685 136.677C139.595 137.707 138.555 146.707 141.015 153.797L141.005 153.787ZM119.415 178.747C115.095 176.177 111.955 177.747 109.295 180.507C105.315 184.627 104.775 191.767 107.855 196.707C110.285 200.597 115.055 202.487 120.375 200.987C115.265 198.357 109.925 196.697 110.055 190.007C110.175 183.707 113.045 180.117 119.415 178.747ZM122.175 161.337C129.535 157.747 136.815 155.727 145.135 155.927C144.595 158.357 144.175 160.237 143.755 162.117C144.175 162.237 144.595 162.367 145.005 162.487C145.695 160.457 146.615 158.467 146.945 156.387C147.055 155.707 145.645 154.087 144.925 154.087C137.335 154.067 129.925 154.987 123.485 159.527C122.905 159.937 122.605 160.727 122.175 161.347V161.337ZM129.525 165.057C125.335 165.217 122.095 169.897 123.045 174.047C123.285 175.087 124.285 176.157 125.235 176.737C125.595 176.957 127.245 176.017 127.465 175.327C127.795 174.317 127.555 172.997 127.205 171.927C126.995 171.307 126.095 170.927 125.435 170.377C126.165 169.277 126.655 168.437 127.255 167.657C127.885 166.837 128.615 166.077 129.515 165.037L129.525 165.057ZM141.515 164.287C137.425 165.587 134.785 169.737 135.975 172.637C136.305 173.437 137.195 174.397 137.945 174.507C138.645 174.617 139.875 173.887 140.205 173.197C140.515 172.547 140.125 171.407 139.735 170.627C139.485 170.127 138.695 169.907 137.795 169.327C139.055 167.617 140.115 166.177 141.515 164.277V164.287Z" fill="#363636"/>
<path d="M207.205 214.817C208.525 212.297 209.585 210.957 209.965 209.447C211.035 205.197 211.625 200.817 212.775 196.587C213.645 193.397 213.205 190.817 211.105 188.277C209.555 186.407 208.505 185.807 206.295 187.657C203.615 189.897 200.405 191.497 196.945 193.667C199.185 185.047 201.235 177.187 203.435 168.707C194.805 175.097 186.675 181.497 180.845 190.327C181.065 190.797 181.275 191.277 181.495 191.747C184.365 190.767 187.225 189.777 190.765 188.567C186.485 193.927 182.285 198.917 178.435 204.167C177.345 205.667 176.315 208.387 176.955 209.727C178.205 212.327 180.875 211.797 183.195 210.437C189.295 206.857 195.415 203.317 202.205 199.357C202.445 204.547 202.675 209.337 202.915 214.367C201.365 214.517 200.275 214.687 199.175 214.717C190.515 214.987 181.845 215.207 173.185 215.507C167.795 215.697 167.015 214.897 167.655 209.437C168.715 200.407 170.465 191.387 170.655 182.327C171.025 164.717 170.535 147.097 170.375 129.477C170.345 125.927 170.085 122.377 170.195 118.827C170.265 116.487 171.425 114.977 174.125 114.677C181.465 113.857 188.785 112.857 196.095 111.847C203.835 110.767 211.405 111.347 218.845 113.797C220.185 114.237 221.595 114.627 222.985 114.747C229.235 115.287 229.685 115.277 230.265 121.587C231.575 135.737 232.515 149.917 233.515 164.087C234.375 176.277 235.115 188.477 235.915 200.667C235.985 201.797 236.205 202.927 236.245 204.057C236.555 212.807 234.815 214.687 226.175 214.777C220.365 214.847 214.555 214.787 207.195 214.787L207.205 214.817ZM208.835 147.227C206.925 146.057 205.455 145.167 204.055 144.307C206.465 140.217 208.535 136.697 210.615 133.167L209.525 132.437C207.945 133.417 206.365 134.397 204.785 135.387C212.255 131.777 209.055 123.857 211.625 118.447C211.825 118.027 211.245 117.227 210.955 116.387C205.395 122.087 199.955 127.407 194.835 133.007C191.815 136.317 199.105 136.467 197.345 139.737C197.325 139.777 198.705 140.957 199.275 140.847C200.155 140.677 200.875 139.757 201.735 139.307C202.525 138.897 203.425 138.687 204.285 138.397C195.245 143.497 191.395 152.557 185.775 160.067C185.965 160.407 186.155 160.747 186.355 161.087C190.025 159.527 193.695 157.957 197.365 156.397C197.705 156.727 198.045 157.067 198.395 157.397C196.145 160.597 194.005 163.877 191.615 166.967C188.485 171.017 183.245 173.817 184.285 181.707C189.565 176.797 195.085 173.177 198.485 168.127C202.925 161.527 205.685 153.797 208.845 147.217L208.835 147.227Z" fill="#363636"/>
<path d="M182.085 49.2171C185.285 50.2571 188.045 51.1471 191.735 52.3471C189.615 48.9371 187.945 46.3771 186.405 43.7471C185.545 42.2871 184.585 40.7671 184.245 39.1571C184.005 38.0271 184.755 36.6871 185.055 35.4471C186.255 35.8771 188.045 35.9471 188.565 36.7971C191.295 41.2571 193.735 45.9071 196.215 50.5271C196.855 51.7171 197.255 53.0271 198.055 55.0071C200.035 50.7771 201.495 47.1271 203.435 43.7471C204.235 42.3571 206.315 40.4971 207.375 40.7371C209.355 41.1971 211.665 42.6871 212.595 44.4171C213.205 45.5371 212.095 48.3071 210.915 49.5171C208.885 51.6071 206.205 53.0471 202.975 55.3371C208.705 57.0271 213.845 58.5371 218.845 60.0171C216.935 62.0171 216.945 61.9771 210.545 59.9171C207.595 58.9671 204.595 58.1771 200.795 57.0871C203.105 60.7571 204.865 63.8571 206.935 66.7471C208.685 69.1871 208.845 71.3171 207.625 74.1571C204.145 82.2471 201.045 90.5071 197.815 98.6971C197.355 99.8571 196.995 101.057 196.605 102.167C196.985 102.397 197.095 102.507 197.225 102.537C202.625 103.557 206.418 101.52 208.605 96.4271C211.355 90.0271 213.895 83.5271 216.925 77.2671C218.685 73.6271 218.885 70.6671 215.895 67.6971C214.915 66.7171 214.265 65.4071 213.205 63.8671H221.415C220.865 60.8571 220.405 58.3171 219.985 55.9671C216.585 55.6771 213.575 55.4271 209.475 55.0771C213.305 52.0971 217.385 50.4071 216.095 45.5371C215.275 42.4571 209.715 37.3671 206.785 37.4571C201.035 37.6371 201.245 43.5471 198.615 46.4771C196.405 42.7471 194.295 38.9071 191.905 35.2471C190.085 32.4671 187.745 30.5071 184.045 32.3371C180.125 34.2671 178.325 37.4271 178.695 39.6271C175.835 44.9871 173.675 49.0271 171.515 53.0771C171.265 53.0671 171.015 53.0571 170.765 53.0471C170.765 49.1671 170.845 45.2771 170.745 41.3971C170.505 31.7271 170.315 22.0571 169.865 12.3971C169.645 7.81715 171.615 5.40714 175.985 4.79714C179.355 4.32714 182.755 3.63715 186.135 3.70715C198.785 3.96715 211.445 4.45714 224.085 4.94714C230.065 5.17715 231.715 6.24715 232.085 12.0971C233.115 28.2571 234.475 44.4571 234.165 60.6071C233.925 73.0371 231.485 85.4371 229.765 97.8171C228.955 103.627 227.915 104.417 221.865 104.417C210.345 104.427 198.825 104.167 187.305 104.107C183.185 104.087 179.045 104.107 174.945 104.477C171.225 104.817 169.275 103.357 168.695 99.7771C167.325 91.3971 167.045 83.2071 170.835 75.1871C174.765 66.8471 178.205 58.2671 182.095 49.2271L182.085 49.2171ZM184.665 54.2371C180.215 65.1471 175.065 75.2671 172.235 86.0071C171.135 90.1971 175.255 95.7771 177.085 100.687C177.195 100.977 178.115 101.017 178.675 101.077C181.495 101.357 184.345 101.927 187.145 101.737C188.575 101.637 190.625 100.477 191.175 99.2571C195.125 90.4671 198.815 81.5471 202.455 72.6171C202.935 71.4471 203.065 69.7671 202.585 68.6571C201.305 65.6971 199.605 62.9271 198.555 60.9771H191.555C193.285 59.0971 194.095 58.2171 195.305 56.8971C191.585 55.9671 188.355 55.1571 184.675 54.2371H184.665Z" fill="#363636"/>
<path d="M141.065 53.0572C145.195 56.4771 148.515 59.3672 152.005 62.0272C153.015 62.7972 154.825 63.5972 155.715 63.1872C156.585 62.7872 157.075 60.8872 157.165 59.5972C157.385 56.6172 157.505 53.8572 153.265 52.9272C151.205 52.4771 149.455 50.0872 147.825 48.3272C138.375 38.1572 129.745 27.3572 122.535 15.4372C121.765 14.1672 118.595 12.9072 117.675 13.4872C115.935 14.5672 114.875 16.9072 113.845 18.8772C113.405 19.7072 114.175 21.2272 113.685 21.9772C109.985 27.6972 106.115 33.3072 102.275 38.9272C102.165 39.0872 101.785 39.0572 101.325 39.1572C100.595 30.4072 99.875 21.6972 99.135 12.9872C98.915 10.4372 98.565 7.89715 98.455 5.34715C98.245 0.627153 99.195 -0.372847 103.825 0.217153C111.995 1.24715 120.125 3.27715 128.295 3.43715C136.575 3.59715 144.935 2.30715 153.165 1.08715C158.935 0.237153 159.745 0.347154 159.645 6.31715C159.415 19.5372 158.605 32.7572 158.715 45.9672C158.865 63.4472 159.775 80.9172 160.155 98.3872C160.375 108.777 159.585 109.237 149.535 106.247C147.095 105.517 143.735 105.467 142.495 103.827C141.375 102.327 142.775 99.0872 142.685 96.6272C142.215 83.7271 141.615 70.8271 141.085 57.9272C141.025 56.5672 141.085 55.1972 141.085 53.0672L141.065 53.0572Z" fill="#363636"/>
<path d="M119.135 26.2172C124.145 33.0772 128.905 39.4072 133.405 45.9272C134.155 47.0172 133.965 48.8972 133.895 50.3872C133.295 63.4072 132.465 76.4172 132.045 89.4472C131.905 93.7971 132.715 98.1771 133.105 102.657C123.805 104.077 114.625 105.637 105.395 106.797C101.305 107.317 99.275 105.307 99.295 101.017C99.325 95.0572 99.795 89.0972 100.055 83.1372C100.435 74.3272 100.665 65.5172 101.255 56.7272C101.395 54.6472 102.365 52.4372 103.495 50.6272C107.755 43.7672 112.245 37.0572 116.635 30.2772C117.385 29.1172 118.095 27.9272 119.155 26.2072L119.135 26.2172Z" fill="#363636"/>
<path d="M67.075 215.497C59.805 215.497 52.415 215.687 45.055 215.417C41.445 215.287 39.935 216.347 39.105 220.027C34.445 240.677 29.475 261.257 24.605 281.857C24.285 283.217 23.845 284.547 23.425 286.057H0.414993V277.927C4.76499 277.927 9.26499 277.727 13.735 277.997C16.945 278.187 18.115 276.887 18.825 273.907C23.845 253.057 29.115 232.257 34.085 211.397C34.875 208.087 36.265 207.077 39.525 207.177C46.775 207.387 54.035 207.247 61.285 207.247C68.525 207.247 68.855 207.687 67.075 215.497Z" fill="#363636"/>
<path d="M241.645 269.007H234.355C234.355 262.237 234.125 255.577 234.435 248.947C234.625 244.887 233.435 243.487 229.255 243.677C220.345 244.067 221.705 242.777 221.615 251.507C221.555 257.307 221.605 263.097 221.605 268.997H214.555V235.737C223.605 236.467 232.925 232.907 241.525 240.207C241.355 235.897 243.505 235.237 246.585 235.607C248.405 235.827 250.275 235.577 252.125 235.657C258.215 235.907 261.895 239.697 261.895 245.657C261.895 253.307 261.895 260.957 261.895 268.927H254.585V252.187C254.585 243.647 254.585 243.797 245.925 243.687C242.575 243.647 241.455 244.617 241.575 248.017C241.815 254.937 241.645 261.867 241.645 269.007Z" fill="#363636"/>
<path d="M115.755 269.347H93.075V285.987H86.065V235.707C95.365 235.707 104.565 235.657 113.765 235.807C114.435 235.817 115.665 237.197 115.675 237.947C115.805 248.157 115.765 258.377 115.765 269.357L115.755 269.347ZM108.155 260.707V244.677C104.135 244.367 100.125 244.057 96.105 243.767C95.685 243.737 95.115 243.637 94.855 243.847C94.185 244.407 93.155 245.117 93.135 245.787C92.985 250.697 93.055 255.617 93.055 260.697H108.155V260.707Z" fill="#363636"/>
<path d="M121.375 243.757V235.987H150.705V268.927H121.525V248.267C127.545 248.267 133.485 248.337 139.415 248.217C141.005 248.187 143.465 249.227 143.555 246.117C143.645 243.037 141.255 243.807 139.585 243.787C133.645 243.717 127.695 243.757 121.375 243.757ZM143.145 260.657C144.085 257.857 143.595 256.377 140.475 256.477C137.495 256.577 134.505 256.557 131.525 256.477C128.015 256.387 127.865 258.077 128.975 260.657H143.135H143.145Z" fill="#363636"/>
<path d="M179.345 268.947V248.477H200.945C202.075 245.227 201.715 243.687 198.315 243.747C192.105 243.857 185.905 243.777 179.505 243.777C179.355 242.137 179.295 241.037 179.145 239.947C178.685 236.667 179.905 235.447 183.355 235.557C190.735 235.797 198.135 235.517 205.515 235.737C206.705 235.777 208.855 237.247 208.875 238.097C209.115 248.277 209.025 258.467 209.025 268.947H179.345ZM202.625 260.877C201.265 258.787 200.605 256.767 199.775 256.687C196.005 256.327 192.175 256.397 188.395 256.637C187.675 256.687 186.765 258.147 186.515 259.107C186.415 259.487 187.865 260.757 188.645 260.787C192.825 260.957 197.015 260.867 202.635 260.867L202.625 260.877Z" fill="#363636"/>
<path d="M287.855 248.387H309.585V268.887H280.285V260.887H301.915C303.155 257.357 301.965 256.387 298.915 256.447C292.835 256.587 286.745 256.487 280.335 256.487V235.977H309.515V243.757C303.345 243.757 297.025 243.847 290.705 243.717C287.485 243.647 286.625 244.907 287.845 248.377L287.855 248.387Z" fill="#363636"/>
<path d="M67.265 268.987H60.555C60.555 264.387 60.445 260.017 60.595 255.647C60.685 253.077 59.815 252.097 57.185 252.177C51.815 252.327 46.435 252.217 40.735 252.217V244.047C45.925 244.047 51.135 243.857 56.315 244.117C59.745 244.287 60.745 243.057 60.625 239.737C60.395 233.817 60.565 227.887 60.565 221.717H67.275V268.987H67.265Z" fill="#363636"/>
<path d="M173.085 243.557C171.765 243.637 170.645 243.707 169.525 243.767C165.365 243.987 163.635 245.677 163.605 249.787C163.555 256.137 163.595 262.497 163.595 269.037H156.405C156.405 266.797 156.405 264.607 156.405 262.407C156.405 254.747 156.525 247.087 156.345 239.427C156.265 236.357 157.425 235.377 160.305 235.587C162.565 235.747 164.845 235.637 167.115 235.637C174.375 235.637 174.445 235.737 173.095 243.557H173.085Z" fill="#363636"/>
<path d="M79.915 269.047H73.445V221.727H79.915V269.047Z" fill="#363636"/>
<path d="M274.305 269.097H267.625V235.937H274.305V269.097Z" fill="#363636"/>
</g>
<defs>
<clipPath id="clip0_2006_13255">
<rect width="309.17" height="286" fill="white" transform="translate(0.414993 0.0571289)"/>
</clipPath>
</defs>
</svg>
