<svg width="416" height="276" viewBox="0 0 416 276" fill="none" xmlns="http://www.w3.org/2000/svg">
<g clip-path="url(#clip0_2006_13174)">
<path d="M416 203.428C415.74 204.123 415.515 204.842 415.22 205.514C412.986 210.498 407.916 212.537 402.917 211.488C401.014 211.088 399.3 210.263 397.788 209.167C396.488 209.674 395.991 211.241 394.526 211.3C394.148 210.157 394.077 202.509 394.408 200.942C395.755 200.671 395.79 200.659 396.121 201.814C396.7 203.817 397.539 205.691 398.899 207.305C402.125 211.135 407.715 211.5 411.296 208.13C412.514 206.987 413.329 205.608 413.53 203.947C413.849 201.295 412.963 199.092 410.493 197.901C408.318 196.853 406.002 196.099 403.744 195.238C402.61 194.802 401.44 194.484 400.329 194.013C395.731 192.045 394.124 187.732 394.549 183.396C394.987 178.906 398.048 175.724 402.562 174.97C405.352 174.499 407.999 174.994 410.469 176.372C410.953 176.643 411.426 176.926 411.852 177.185C413.034 176.867 413.353 175.312 414.7 175.359C415.078 176.419 415.196 182.924 414.854 185.305C414.369 185.328 413.861 185.352 413.234 185.375C413.116 184.786 413.034 184.291 412.915 183.82C412.005 180.179 410.173 177.327 406.309 176.266C402.905 175.335 399.43 176.785 398.048 179.672C397.409 181.003 397.35 182.394 397.693 183.796C397.965 184.88 398.662 185.693 399.667 186.153C400.482 186.53 401.357 186.825 402.22 187.107C404.761 187.944 407.337 188.686 409.843 189.594C412.254 190.466 414.144 192.033 415.255 194.39C415.575 195.062 415.764 195.804 416.024 196.511V203.463L416 203.428Z" fill="#1E1E1E"/>
<path d="M204.011 53.6199C203.408 52.7597 202.321 52.0408 200.619 51.4045C199.957 53.7259 198.752 55.4935 195.998 55.5053C195.809 53.3842 196.719 52.4179 200.17 51.051C199.107 50.2968 198.197 49.472 196.92 49.2481L196.956 49.2834C195.845 48.5764 194.746 47.8694 193.635 47.1623L193.67 47.1977C192.595 46.4906 191.519 45.7718 190.314 44.9705C189.569 47.5865 188.245 49.307 185.515 49.472C185.196 47.3391 186.106 46.361 189.829 44.8173C188.659 44.1221 187.749 43.2147 186.402 42.9319C184.381 42.5077 183.222 41.0701 183.092 38.949C185.054 38.8665 186.413 39.8092 187.524 41.4825C188.044 40.6694 187.749 39.9035 187.903 39.1022C185.279 38.6072 183.601 37.311 183.199 34.5182C185.385 34.6596 186.863 35.567 187.749 37.6763C188.163 36.5922 188.056 35.732 188.056 34.7068C186.603 34.4829 185.161 34.1647 184.31 32.8214C183.861 32.1143 183.423 31.3837 183.482 30.3585C185.551 30.5589 187.099 31.3484 188.186 33.1749C188.222 32.4443 188.257 31.7137 188.293 30.9831V31.0066C188.411 31.5134 188.659 32.0318 188.683 32.5503C188.813 34.966 188.872 37.3817 188.966 39.7974C188.978 40.1745 189.037 40.5516 189.12 41.294C190.219 39.0786 191.708 38.018 193.871 37.9709C193.824 40.2923 192.736 41.3882 189.356 42.4252C190.491 43.0615 191.448 43.5918 192.524 44.1928C192.855 43.3679 193.044 42.5784 193.469 41.9421C193.883 41.3411 194.486 40.8226 195.1 40.422C195.762 39.9977 196.518 39.6796 197.452 39.9035C197.062 42.3192 195.667 43.6979 193.197 44.3106C194.155 45.1473 195.171 45.5126 196.211 46.0193C196.518 45.2416 196.707 44.452 197.121 43.8039C197.523 43.2029 198.126 42.6727 198.74 42.272C199.402 41.836 200.182 41.5768 201.198 41.73C200.667 44.1457 199.378 45.6422 196.672 46.1489C197.759 46.9973 198.717 47.4334 199.839 47.8929C200.442 45.2887 201.99 43.7804 204.709 43.474C204.543 45.9368 203.468 47.0798 200.56 48.0697C201.234 48.7885 204.047 50.344 205.796 50.9332C205.843 50.6386 205.938 50.3675 205.938 50.0847C206.02 45.4537 206.079 40.8226 206.174 36.1915C206.186 35.5199 206.044 35.0132 205.382 34.7304C204.839 34.4947 204.307 34.2354 203.775 33.988L203.799 34.0115C202.723 33.0924 201.529 32.3736 200.111 31.808C199.497 34.2236 198.267 35.8734 195.608 35.9677C195.266 33.929 196.176 32.9392 199.757 31.5134C198.717 30.877 197.818 30.335 196.743 29.6751C196.187 31.2659 195.585 32.6682 194.166 33.4106C193.481 33.7641 192.701 33.9644 191.909 34.2472C191.755 31.8197 192.76 30.7238 196.164 29.4983C195.289 28.7559 194.403 28.261 193.28 28.0843C191.176 27.7543 189.888 26.2106 189.758 23.9363C191.779 24.0895 193.304 24.938 194.214 27.0591C194.616 26.0103 194.474 25.1619 194.497 24.1838C191.968 23.8774 190.278 22.6401 189.876 19.812C192.063 19.7766 193.457 20.7665 194.616 22.5458C194.686 21.9331 194.757 21.3085 194.805 20.8725C195.206 20.4837 195.561 20.2362 195.786 19.9062C196.778 18.4333 197.877 17.7734 199.78 17.573C200.099 19.7295 198.646 21.2378 195.36 22.1216V25.374C196.105 24.4902 196.648 23.6771 197.357 23.0408C198.078 22.4044 199.024 22.1452 200.005 22.1098C200.253 24.2309 198.917 25.6096 195.585 26.7409C195.277 27.4951 195.868 27.7072 196.341 27.9664C197.854 28.7795 199.378 29.569 200.903 30.3703C202.156 31.0302 203.397 31.7019 204.649 32.35C205.075 32.5739 205.524 32.7507 206.15 33.0335V29.6279C203.55 29.3451 201.896 27.9428 201.352 25.2679C203.539 25.0558 204.839 25.9867 206.009 28.4378C206.422 27.554 206.493 26.2578 206.198 24.6316C202.959 23.9835 201.837 23.0054 201.458 20.4719C203.208 20.1537 204.378 20.8607 206.304 23.4768V19.7059C204.969 19.5174 203.669 19.1639 202.77 18.0326C202.132 17.2313 201.766 16.3475 201.541 15.3223C203.858 15.2988 204.756 15.9704 206.387 18.9282V14.7213C203.255 14.2264 202.049 13.1541 201.683 10.5616C203.763 10.326 205.158 11.2922 206.446 14.0732V9.97245C202.77 8.60552 202.132 8.01633 201.612 5.36496C203.964 5.38853 205.37 6.70832 206.564 8.54661V4.78755C205.323 4.69328 204.106 4.44582 203.196 3.46776C202.463 2.69002 201.955 1.78267 201.86 0.51001C204.189 0.616065 205.666 1.72375 206.635 3.75057C206.694 3.2203 206.753 2.69002 206.812 2.15975C206.86 2.15975 206.895 2.15975 206.942 2.14797C207.001 2.90213 207.108 3.6563 207.12 4.41047C207.261 13.1777 207.403 21.9449 207.533 30.7003C207.533 31.3484 207.533 31.9965 207.533 32.951C209.649 32.0201 211.433 31.0302 213.206 30.0286C214.943 29.0387 216.953 28.4496 218.583 26.8234C217.579 26.4699 216.775 26.3167 216.113 25.916C215.475 25.5389 214.908 24.9851 214.459 24.4077C213.986 23.7949 213.572 23.0761 213.667 22.2159C215.747 22.0863 216.834 22.8286 218.489 25.6921C218.052 23.2647 219.612 22.098 220.77 20.8018C221.514 19.9652 222.649 19.7177 223.807 19.7648C223.807 22.1688 222.614 23.3118 219.163 24.1956C219.163 25.1854 219.08 26.2342 219.186 27.2594C219.281 28.1667 218.926 28.6145 218.17 29.0387C215.168 30.7003 212.225 32.4678 209.2 34.1058C208.041 34.7304 207.557 35.4138 207.628 36.8161C207.817 40.693 207.781 44.5699 207.829 48.4468C207.829 49.1891 207.829 49.9315 207.829 50.8153C208.301 50.6975 208.55 50.6857 208.75 50.5796C213.242 48.27 217.733 45.9604 222.224 43.639C222.389 43.5565 222.495 43.3679 222.637 43.2265L222.602 43.2619C222.885 43.1676 223.181 43.0851 223.465 42.9791C224.41 42.6373 224.859 42.0599 224.871 40.9522C224.906 37.9827 225.084 35.0132 225.379 32.0201C225.509 32.5975 225.639 33.1631 225.828 33.9997C226.703 31.8315 228.145 30.7592 230.248 30.5706C230.532 32.9039 228.948 34.5536 225.734 35.1781C225.734 35.7791 225.71 36.4154 225.734 37.0518C225.793 38.7604 225.84 40.4809 225.97 42.1777C226.041 43.038 225.757 43.5447 224.989 43.9925C220.333 46.7263 215.7 49.5073 211.055 52.2765C210.712 52.4768 210.381 52.7007 209.991 52.96C211.091 53.502 212.166 53.8909 213.076 54.5272C214.01 55.1754 214.447 56.2005 214.494 57.3671C211.953 57.6028 210.63 56.5305 209.566 53.4549C208.136 53.8438 207.994 53.9616 208.006 55.1636C208.077 60.6549 208.171 66.1461 208.254 71.6256C208.254 71.8613 208.337 72.097 208.396 72.4505C208.774 72.3209 209.046 72.2502 209.306 72.1205C216.539 68.3968 223.748 64.6496 230.993 60.9612C232.092 60.3956 232.588 59.7121 232.482 58.4984C232.411 57.65 232.47 56.8015 232.47 55.8588C231.135 55.5171 229.717 55.3757 228.818 54.1973C228.204 53.3842 227.802 52.4768 227.672 51.4634C229.575 51.1806 230.816 51.9348 232.447 54.3976C232.872 53.2781 232.683 52.194 232.766 51.1453C232.848 50.0965 232.825 49.036 232.884 47.9754C232.943 46.8677 233.026 45.7718 233.262 44.6524C233.345 45.2651 233.416 45.8661 233.51 46.5967C234.196 45.7954 234.751 45.0059 235.46 44.3813C236.181 43.745 237.103 43.4504 238.096 43.4386C238.19 45.8779 236.961 47.1505 233.628 48.0933C233.605 48.3171 233.558 48.5528 233.546 48.8003C233.546 49.4955 233.546 50.2026 233.546 51.1688C234.397 50.2497 234.976 49.4837 235.697 48.8828C236.441 48.27 237.363 47.999 238.356 48.0461C238.261 50.4854 237.198 51.5106 233.806 52.4886C233.806 53.6788 233.782 54.869 233.806 56.0709C233.841 57.5321 233.865 58.9933 233.995 60.4427C234.089 61.4444 233.699 62.01 232.848 62.5049C228.96 64.7439 225.084 67.0417 221.219 69.316C217.307 71.6138 213.395 73.9353 209.471 76.2213C208.833 76.5866 208.349 76.9401 208.372 77.8239C208.502 83.3152 208.585 88.8065 208.68 94.286C208.68 94.4745 208.739 94.6749 208.798 94.9577C209.129 94.8516 209.424 94.8163 209.672 94.6866C214.305 92.3063 218.926 89.926 223.547 87.5338C223.807 87.4042 224.008 87.1685 224.245 86.98L224.197 87.0271C224.575 86.8857 224.965 86.7915 225.32 86.6029C230.036 84.1872 234.739 81.7362 239.467 79.3441C240.353 78.8963 240.743 78.3778 240.731 77.3762C240.72 75.8796 240.861 74.3713 240.932 72.8158C238.297 72.3444 236.607 71.0364 236.181 68.2672C238.391 68.3144 239.845 69.3278 240.968 71.1425C241.169 66.4407 241.381 61.739 241.582 57.0372C241.665 57.0372 241.748 57.0372 241.83 57.0372C242.067 62.7995 242.315 68.55 242.551 74.4184C243.296 73.6407 243.887 72.9219 244.584 72.3444C245.329 71.7199 246.274 71.496 247.255 71.4724C247.409 73.7232 246.097 74.9958 242.705 75.856C242.705 76.8105 242.634 77.8004 242.729 78.7784C242.823 79.7683 242.469 80.3339 241.606 80.8406C233.179 85.7309 224.776 90.6684 216.373 95.594C215.771 95.9475 215.203 96.3835 214.624 96.7842L214.66 96.7606C212.863 97.7622 211.055 98.7757 209.247 99.7655C208.691 100.072 208.727 100.567 208.739 101.074C208.798 104.243 208.845 107.425 208.916 110.595C208.963 112.798 209.01 115.002 209.058 117.418C209.672 117.147 210.121 116.97 210.559 116.758C222.484 110.689 234.408 104.609 246.333 98.54C246.688 98.3514 247.042 98.1511 247.409 97.9861C248.177 97.6326 248.555 97.0434 248.532 96.1832C248.508 95.3348 248.532 94.4745 248.532 93.4611C245.872 93.3669 244.064 92.1296 243.521 89.2072C246.002 89.2072 247.551 90.3148 248.673 92.3181C248.78 89.1365 248.898 85.9548 249.004 82.6553C246.345 82.3254 244.324 81.3591 244.159 78.3896C246.085 77.9536 247.397 78.7784 248.874 81.3709C249.241 80.0864 249.063 78.9198 249.146 77.7886C249.241 76.5277 249.276 75.2786 249.323 74.0178C249.371 72.8394 249.394 71.6492 249.418 70.4708C249.536 70.4708 249.666 70.4472 249.784 70.4355C249.843 70.895 249.926 71.3546 249.938 71.8142C250.174 79.4148 250.411 87.0154 250.647 94.6277C250.683 95.7354 250.683 96.8431 250.813 97.9508C250.919 98.8935 250.576 99.412 249.773 99.8715C244.383 102.959 239.03 106.105 233.652 109.228C225.84 113.777 218.04 118.337 210.204 122.862C209.424 123.321 209.046 123.793 209.081 124.759C209.211 128.023 209.247 131.299 209.33 134.728C210.712 135.412 212.131 136.119 213.537 136.826C213.513 136.932 213.49 137.038 213.466 137.156C212.071 137.45 210.641 137.25 209.223 137.285C207.71 137.321 206.186 137.285 204.673 137.285C203.231 137.285 201.789 137.285 200.359 137.285C200.336 137.167 200.312 137.061 200.288 136.944C201.458 135.859 203.148 135.659 204.531 134.563C204.531 132.76 204.531 130.851 204.531 128.942C204.531 127.681 204.531 126.421 204.638 125.172C204.732 124.087 204.354 123.439 203.385 122.885C197.736 119.645 192.134 116.322 186.508 113.034C179.003 108.651 171.51 104.255 163.994 99.9069C163.096 99.3884 162.717 98.7874 162.765 97.7387C163.155 88.9361 163.486 80.1218 163.852 71.3192C163.852 71.0482 163.935 70.7772 164.029 70.1762C164.526 71.06 164.407 71.7081 164.431 72.3209C164.703 80.1218 164.998 87.9227 165.199 95.7354C165.235 97.067 165.707 97.8212 166.901 98.4221C179.157 104.62 191.389 110.866 203.633 117.1C203.893 117.229 204.177 117.335 204.59 117.5C204.673 117.1 204.779 116.793 204.779 116.475C204.874 111.443 204.933 106.4 205.075 101.368C205.099 100.449 204.709 100.013 203.999 99.5887C196.152 94.993 188.328 90.3738 180.492 85.7545C177.703 84.1165 174.938 82.4432 172.125 80.8524C171.238 80.3575 170.931 79.7801 171.026 78.7902C171.12 77.8475 171.049 76.893 171.049 75.8089C168.426 75.6204 166.747 74.3241 166.31 71.4724C168.52 71.5903 170.021 72.5094 170.86 74.5127C171.321 73.4993 171.522 69.7638 171.25 67.2656C168.78 66.8767 167.019 65.6041 166.558 62.9527C168.237 62.5992 169.478 63.2944 171.392 65.7926C171.451 64.6496 171.487 63.7422 171.534 62.7877C170.175 62.446 168.839 62.2692 167.965 61.138C167.338 60.3249 166.877 59.4529 166.818 58.4041C168.508 58.027 169.454 58.6162 171.593 61.4444C171.64 59.6297 171.688 58.0388 171.735 56.448C171.877 56.448 172.019 56.448 172.16 56.448C172.196 57.0136 172.255 57.5675 172.267 58.1331C172.468 64.5317 172.692 70.9186 172.834 77.3172C172.858 78.366 173.2 78.9198 174.146 79.403C184.085 84.4818 194.001 89.6078 203.929 94.722C204.236 94.8752 204.555 94.993 204.992 95.1816C205.051 94.7809 205.122 94.4981 205.134 94.2271C205.24 88.9361 205.311 83.6452 205.453 78.366C205.477 77.3762 205.181 76.7987 204.295 76.3392C202.782 75.5379 201.34 74.6069 199.875 73.7349C199.213 74.7366 198.681 75.75 197.937 76.5866C197.18 77.4351 196.081 77.7297 194.946 77.7768C194.568 75.8089 195.656 74.6069 198.799 73.4286C198.208 72.6744 194.58 70.4001 192.689 69.6224C191.98 71.9674 190.562 73.5464 187.962 73.8056C187.737 71.5785 189.025 70.1644 192.216 69.2689C191.212 68.6325 190.361 68.0905 189.309 67.4188C188.553 69.8934 187.264 71.6728 184.345 71.7906C184.534 69.0567 186.236 67.8901 188.801 67.1595C187.69 66.4996 186.851 65.9929 185.846 65.4037C185.066 67.9255 183.731 69.6813 180.8 69.7166C181.131 67.0299 182.762 65.769 185.326 65.1091C184.251 64.4728 183.388 63.9779 182.383 63.3887C181.627 65.8869 180.303 67.6073 177.502 67.5955C177.609 65.2388 178.566 64.2961 181.722 63.3062C181.284 62.6817 179.393 61.303 178.731 61.1733C176.58 60.7138 175.481 59.3115 175.068 57.2493C176.793 56.8722 177.999 57.5439 179.76 59.9596C179.901 58.8991 179.866 58.0271 179.831 57.0019C177.183 56.6837 175.375 55.4228 175.103 52.5358C177.148 52.5004 177.881 52.9364 179.901 55.4582C179.949 54.3151 179.996 53.4078 180.043 52.3826C177.396 52.1469 175.777 50.8389 175.257 48.0461C177.455 48.1404 178.921 49.1067 180.031 50.8507V48.1168C178.755 47.6926 177.29 47.4805 176.474 46.1725C176.001 45.4065 175.552 44.617 175.611 43.6625C177.337 43.4622 178.353 44.0514 180.043 46.2785C180.256 45.324 180.197 44.5227 180.126 43.639C177.715 43.1087 175.93 41.9303 175.552 39.1964C177.1 39.0432 178.318 39.6089 179.192 40.6812C180.114 41.8125 180.729 43.1322 180.764 44.6641C180.823 47.7869 180.93 50.9096 181.024 54.0323C181.024 54.268 181.083 54.4919 181.213 54.7747C181.97 52.5358 183.553 51.5224 185.834 51.2278C185.503 54.1384 184.333 55.2696 181.19 55.8235V59.4411C183.045 56.283 183.92 55.6467 186.047 55.7528C185.728 58.1449 184.889 59.0405 181.603 60.2895C182.691 60.8787 183.648 61.3854 184.783 61.9982C185.22 59.2879 186.78 57.9092 189.427 57.6853C189.368 59.995 188.293 61.138 185.173 62.1278C186.449 62.7524 187.347 63.6244 188.671 63.7069L188.624 63.6597C189.498 64.626 190.597 65.1563 191.874 65.4037L191.85 65.3802C193.032 66.1226 194.214 66.8649 195.585 67.7369C196.27 65.0384 197.606 63.2944 200.667 63.2709C200.17 65.8044 198.657 67.1124 195.975 67.7369C197.216 68.4204 198.149 68.9271 199.284 69.5517C199.627 67.9962 200.04 66.5939 201.423 65.8044C202.215 65.3448 203.042 65.062 203.976 65.0502C203.893 67.407 202.77 68.609 199.567 69.6813C201.577 70.7418 203.385 71.7081 205.37 72.6862C205.441 72.1205 205.524 71.7788 205.524 71.4489C205.619 66.1108 205.701 60.7727 205.784 55.4346C205.808 54.0559 205.429 53.7142 203.917 53.5492L203.952 53.5963L204.011 53.6199Z" fill="#1E1E1E"/>
<path d="M28.9672 196.735H27.3008C27.1117 195.627 26.9699 194.59 26.7335 193.565C26.5444 192.74 26.2962 191.904 25.9535 191.126C25.2916 189.629 24.1571 188.569 22.5734 188.074C20.6351 187.461 18.6378 187.284 16.6287 187.508C16.3214 188.663 16.2505 206.999 16.5459 209.002H23.2116V210.616C22.0415 210.97 1.4655 211.005 0.0236366 210.628V209.061H7.07929V165.095H0.15364C-0.153641 163.398 -0.106367 163.316 1.34731 163.316C6.252 163.316 11.1567 163.316 16.0614 163.316C23.2943 163.316 30.5154 163.316 37.7483 163.316H39.592C39.8639 168.1 40.0293 172.79 40.0766 177.633H38.2802C38.1029 176.985 37.9493 176.302 37.7483 175.642C37.2874 174.157 36.8974 172.625 36.2829 171.199C34.9237 168.006 32.5837 165.908 29.0263 165.52C26.7217 165.272 24.3934 165.213 22.0652 165.131C20.2569 165.072 18.4487 165.131 16.6877 165.131C16.2859 166.38 16.2386 183.879 16.605 185.517C19.0633 185.67 21.5215 185.552 23.7552 184.315C25.8353 183.16 26.5798 181.121 26.9817 178.93C27.088 178.34 27.159 177.739 27.2653 176.985C27.8208 176.95 28.329 176.926 28.9554 176.891V196.747L28.9672 196.735Z" fill="#1E1E1E"/>
<path d="M379.41 265.105C378.63 265.423 377.862 265.765 377.082 266.059C375.037 266.849 373.808 266.236 373.17 264.127C373.087 263.844 372.981 263.573 372.862 263.219C370.901 263.42 369.246 264.256 367.627 265.176C365.275 266.519 363.289 268.298 361.528 270.337C360.571 271.445 359.614 272.552 358.704 273.695C358.219 274.32 357.664 274.579 356.884 274.52C356.198 274.473 355.501 274.52 354.426 274.52C356.813 271.551 359.212 269.076 361.54 266.283C360.465 266.436 359.555 266.731 358.668 266.649C357.747 266.566 356.86 266.13 355.785 265.788C355.347 266.295 354.863 266.931 354.296 267.485C352.605 269.147 350.939 270.832 349.166 272.399C347.642 273.754 345.786 274.685 343.836 275.18C342.619 275.486 341.165 275.522 339.971 275.168C338.187 274.65 337.43 272.741 337.891 270.832C338.045 270.219 338.27 269.618 338.53 268.781C337.986 269.064 337.655 269.241 337.312 269.406C334.996 270.525 332.679 271.645 330.363 272.753C328.862 273.471 327.337 274.131 325.86 274.921C324.761 275.51 323.603 275.369 322.456 275.392C321.948 275.404 321.452 275.345 320.944 275.333C319.466 275.298 318.675 274.673 318.627 273.212C318.58 272.081 318.805 270.95 318.911 269.736C318.568 269.936 318.19 270.148 317.835 270.384C314.644 272.47 311.312 274.273 307.589 275.157C306.194 275.486 304.67 275.428 303.228 275.31C302.046 275.215 301.065 273.931 301.124 272.705C301.171 271.822 301.325 270.867 301.691 270.078C302.306 268.758 303.015 267.462 303.901 266.307C306.549 262.854 309.822 260.097 313.77 258.223C315.117 257.587 316.606 257.127 318.084 256.903C320.14 256.585 321.452 258.164 321.026 260.191C320.707 261.711 319.715 262.772 318.533 263.691C316.5 265.27 314.16 266.201 311.702 266.849C310.437 267.179 309.137 267.391 307.837 267.556C307.14 267.638 306.584 267.815 306.135 268.381C305.426 269.3 304.646 270.16 303.96 271.091C303.606 271.574 303.299 272.116 303.11 272.682C302.731 273.79 303.133 274.544 304.291 274.603C305.58 274.673 306.927 274.579 308.191 274.296C310.933 273.684 313.415 272.423 315.767 270.926C320.518 267.921 324.986 264.551 328.803 260.403C329.146 260.038 329.429 259.614 329.772 259.237C330.186 258.789 330.233 258.341 330.079 257.728C329.678 256.126 330.174 254.735 331.427 253.663C332.124 253.074 332.904 253.026 333.365 253.451C333.956 253.993 333.861 254.641 333.542 255.254C333.211 255.878 332.809 256.456 332.408 257.033C332.029 257.563 331.592 258.046 331.119 258.647C331.663 259.319 332.148 259.944 332.656 260.556C335.433 263.903 335.433 266.802 332.656 270.184C332.384 270.514 332.148 270.867 332.041 271.386C332.349 271.268 332.679 271.185 332.963 271.032C334.039 270.478 335.114 269.913 336.19 269.347C338.081 268.357 339.664 267.061 341 265.329C343.576 261.97 346.767 259.237 350.655 257.457C351.861 256.903 353.244 256.644 354.567 256.42C355.099 256.326 355.785 256.573 356.269 256.868C356.825 257.198 357.262 257.587 357.995 257.634C358.692 257.669 358.976 258.365 358.94 258.989C358.881 259.779 358.787 260.615 358.491 261.334C357.983 262.583 357.309 263.773 356.647 265.081C357.368 265.989 358.456 266.095 359.567 265.93C361.387 265.659 362.876 264.692 364.117 263.42C365.594 261.9 366.977 260.285 368.312 258.647C369.021 257.787 369.79 257.351 370.912 257.492C371.539 257.575 372.177 257.504 372.803 257.504C372.851 257.61 372.886 257.728 372.933 257.834C370.924 260.05 368.915 262.253 366.67 264.74C368.891 263.891 370.759 263.208 372.602 262.442C372.91 262.312 373.122 261.864 373.276 261.511C373.843 260.179 374.671 259.06 375.782 258.152C376.207 257.811 376.692 257.528 377.188 257.257C377.826 256.915 378.488 256.892 378.984 257.469C379.445 257.999 379.292 258.636 378.973 259.166C378.689 259.637 378.358 260.12 377.921 260.438C377.034 261.098 376.077 261.664 375.132 262.241C374.753 262.477 374.316 262.618 373.761 262.878C373.879 263.467 373.914 264.068 374.139 264.586C374.552 265.564 375.356 265.977 376.361 265.623C378.784 264.775 381.183 263.962 382.955 261.853C385.118 259.272 387.494 256.868 389.987 254.158C388.711 254.099 387.706 254.052 386.702 254.016C386.678 253.922 386.655 253.84 386.631 253.745C386.844 253.616 387.045 253.439 387.281 253.38C387.517 253.309 387.789 253.321 388.037 253.356C389.857 253.651 391.169 252.944 392.339 251.53C393.781 249.786 395.459 248.242 396.972 246.545C397.634 245.803 398.343 245.426 399.348 245.52C400.021 245.591 400.707 245.532 401.392 245.532C401.44 245.65 401.475 245.756 401.522 245.874C399.3 248.242 397.079 250.611 394.632 253.215C395.79 253.309 396.677 253.38 397.681 253.462C397.362 254.181 396.854 254.134 396.464 254.063C394.431 253.71 393.131 254.629 391.819 256.114C387.163 261.358 382.376 266.484 377.649 271.657C377.176 272.175 376.739 272.741 376.361 273.342C375.888 274.084 376.16 274.614 377.058 274.662C377.755 274.697 378.488 274.626 379.162 274.449C383.381 273.33 387.092 271.244 390.425 268.451C392.316 266.861 394.242 265.305 396.074 263.644C397.339 262.501 398.485 261.204 399.667 259.967C400.222 259.39 400.411 258.777 400.151 257.917C399.738 256.503 400.577 254.641 401.759 253.981C402.338 253.651 402.988 253.38 403.579 253.946C404.111 254.452 403.945 255.089 403.65 255.619C403.236 256.361 402.74 257.056 402.243 257.752C401.96 258.152 401.593 258.506 401.215 258.942C401.83 259.743 402.361 260.545 403 261.252C406.072 264.645 404.796 268.251 402.822 270.549C402.503 270.926 402.172 271.291 401.936 271.786C405.434 270.502 408.542 268.546 411.497 266.319C411.58 266.401 411.663 266.484 411.745 266.566C411.58 266.802 411.474 267.085 411.249 267.25C408.212 269.536 404.938 271.421 401.428 272.906C399.986 273.507 398.568 274.155 397.197 274.897C395.814 275.64 394.419 275.333 392.942 275.074C393.214 274.897 393.474 274.685 393.758 274.544C396.18 273.306 398.213 271.598 399.939 269.512C400.352 269.005 400.719 268.463 401.073 267.909C402.811 265.128 402.669 262.395 400.754 259.637C400.589 259.743 400.411 259.814 400.305 259.944C398.343 262.607 395.897 264.787 393.379 266.896C392.564 267.579 391.772 268.275 391.004 269.005C389.125 270.808 388.817 272.376 389.798 274.85C389.846 274.956 389.763 275.121 389.739 275.274C388.569 274.438 388.427 273.589 388.936 270.49C388.581 270.667 388.274 270.773 388.014 270.95C385.319 272.776 382.447 274.237 379.303 275.109C378.358 275.369 377.306 275.357 376.313 275.333C375.604 275.31 375.037 274.485 374.931 273.566C374.812 272.517 375.061 271.527 375.628 270.679C376.573 269.253 377.613 267.886 378.63 266.507C378.925 266.107 379.268 265.741 379.587 265.364C379.528 265.27 379.481 265.187 379.422 265.093L379.41 265.105ZM356.316 258.176C355.383 256.927 355.028 256.727 353.906 257.41C352.7 258.129 351.495 258.942 350.549 259.955C347.334 263.373 344.226 266.884 341.118 270.396C340.633 270.95 340.267 271.657 339.995 272.34C339.593 273.401 340.042 274.261 341.153 274.544C341.721 274.685 342.394 274.779 342.938 274.626C344.191 274.273 345.491 273.919 346.613 273.283C349.97 271.409 352.617 268.711 354.993 265.729C355.347 265.282 355.371 264.881 355.194 264.339C354.437 262.124 354.745 260.073 356.316 258.176ZM330.67 259.166C330.528 259.237 330.41 259.26 330.351 259.331C328.058 262.454 325.092 264.893 322.185 267.391C321.275 268.169 320.506 269.123 319.797 270.089C319.076 271.068 318.994 272.246 319.218 273.424C319.455 274.614 320.199 275.121 321.416 274.921C321.759 274.862 322.114 274.768 322.433 274.638C326.546 273 329.642 270.243 331.58 266.26C332.821 263.714 332.124 261.381 330.658 259.166H330.67ZM307.695 266.554C307.742 266.672 307.79 266.79 307.849 266.896C308.487 266.814 309.149 266.79 309.775 266.649C312.765 266 315.365 264.61 317.54 262.477C318.143 261.888 318.698 261.204 319.135 260.474C319.596 259.708 320.093 258.848 319.455 257.94C319.041 257.339 318.001 257.398 316.784 258.035C316.382 258.247 315.98 258.471 315.625 258.742C312.612 260.981 310.177 263.785 307.695 266.543V266.554Z" fill="#1E1E1E"/>
<path d="M104.582 245.885C102.36 248.254 100.126 250.634 97.6682 253.25C98.9328 253.321 99.8901 253.38 100.847 253.427C100.871 253.51 100.895 253.58 100.918 253.663C100.717 253.792 100.528 253.969 100.304 254.052C100.126 254.122 99.9019 254.111 99.701 254.075C97.6564 253.675 96.3682 254.723 95.0682 256.161C90.3408 261.405 85.4952 266.554 80.7087 271.739C80.0705 272.423 79.3613 273.094 79.125 274.143C79.9286 274.897 80.8387 274.803 81.6778 274.449C82.836 273.955 83.9942 273.413 85.0342 272.717C89.0643 270.007 92.8108 266.943 96.2973 263.561C98.6374 261.299 101.178 259.319 104.18 258.011C105.374 257.493 106.65 257.08 107.939 256.892C110.231 256.562 111.65 258.258 110.952 260.45C110.704 261.24 110.243 262.065 109.652 262.619C108.671 263.538 107.56 264.374 106.378 265.022C103.778 266.436 100.966 267.285 98.011 267.521C97.1246 267.591 96.4864 267.898 95.9546 268.581C95.2691 269.453 94.5245 270.29 93.8863 271.185C93.5199 271.716 93.2127 272.317 93.0354 272.941C92.799 273.754 93.1536 274.343 93.9927 274.532C94.6663 274.685 95.3991 274.709 96.0964 274.662C97.9873 274.532 99.7601 273.907 101.438 273.083C105.74 270.985 109.463 268.027 113.198 265.117C113.434 264.94 113.588 264.657 113.765 264.421C121.033 254.476 129.377 245.532 138.938 237.743C140.298 236.635 141.834 235.728 143.359 234.844C144.34 234.267 145.486 233.984 146.467 234.879C147.436 235.775 147.176 236.918 146.81 237.99C146.207 239.734 145.096 241.172 143.867 242.527C140.747 246.003 137.083 248.867 133.301 251.565C130.016 253.91 126.659 256.161 123.291 258.4C122.144 259.166 121.116 259.991 120.277 261.11C117.795 264.41 115.254 267.686 112.749 270.973C112.359 271.492 111.992 272.046 111.697 272.623C111.07 273.86 111.602 274.756 113.009 274.685C114.061 274.638 115.171 274.52 116.117 274.108C118.055 273.259 120.029 272.399 121.743 271.197C125.584 268.51 129.401 265.765 132.757 262.454C133.443 261.782 134.081 261.075 134.743 260.368C135.547 259.496 136.149 258.6 135.901 257.28C135.724 256.338 136.055 255.36 136.669 254.582C137 254.158 137.461 253.769 137.946 253.58C138.288 253.451 138.868 253.557 139.175 253.792C139.411 253.969 139.518 254.558 139.411 254.865C139.151 255.56 138.785 256.232 138.359 256.856C137.934 257.481 137.402 258.023 136.823 258.718C137.485 259.531 138.147 260.332 138.797 261.134C140.546 263.278 141.019 265.612 139.778 268.169C139.541 268.664 139.163 269.088 138.844 269.547C138.454 270.101 138.052 270.655 137.733 271.303C141.231 270.219 144.198 268.216 147.176 266.224C147.306 266.389 147.436 266.543 147.566 266.708C147.271 266.861 146.951 266.99 146.691 267.179C143.465 269.465 140.109 271.504 136.315 272.717C135.795 272.882 135.298 273.153 134.837 273.448C132.509 274.921 130.027 275.758 127.238 275.392C127.037 275.369 126.836 275.345 126.635 275.345C125.087 275.31 124.307 274.65 124.284 273.118C124.272 272.187 124.496 271.256 124.638 270.148C123.657 270.82 122.747 271.421 121.861 272.046C119.911 273.424 117.795 274.532 115.514 275.204C114.439 275.522 113.198 275.486 112.063 275.333C111.141 275.204 110.539 274.391 110.243 273.483C109.877 272.376 109.995 271.291 110.444 270.231C110.858 269.265 111.33 268.322 111.839 267.238C111.177 267.332 110.846 267.803 110.432 268.098C108.399 269.512 106.414 270.973 104.346 272.328C102.218 273.731 99.8428 274.65 97.3846 275.251C96.0964 275.569 94.6663 275.463 93.319 275.322C92.0308 275.192 91.0499 273.943 91.1444 272.623C91.2035 271.692 91.5108 270.761 91.7826 269.854C91.9481 269.3 92.2554 268.793 92.3144 268.122C91.0971 269.076 89.8916 270.031 88.6743 270.973C86.677 272.529 84.5851 273.919 82.2923 275.027C81.4059 275.451 80.5314 275.439 79.645 275.357C78.9241 275.286 78.2386 274.508 78.2977 273.589C78.3568 272.564 78.5222 271.456 78.9713 270.549C79.5859 269.3 80.5196 268.204 81.3114 267.037C81.465 266.814 81.6305 266.59 82.0087 266.048C79.8459 266.908 78.0377 267.014 76.3594 265.612C75.7331 266.33 75.2367 266.967 74.6694 267.521C73.133 269.052 71.6084 270.596 70.0011 272.046C68.2874 273.601 66.231 274.638 64.0209 275.204C62.8154 275.51 61.3381 275.498 60.1799 275.074C58.4189 274.438 57.7571 272.564 58.3362 270.632C58.6671 269.536 59.128 268.44 59.7544 267.473C62.5081 263.184 66.1246 259.814 70.7102 257.528C72.022 256.868 73.4048 256.338 74.9058 256.397C75.4021 256.42 75.9458 256.491 76.3476 256.727C76.974 257.104 77.4704 257.634 78.3095 257.681C78.5813 257.705 79.0304 258.435 79.0068 258.824C78.9595 259.814 78.8177 260.839 78.475 261.77C78.0613 262.89 77.3995 263.927 76.8085 265.07C77.5886 265.93 78.6759 266.118 79.7868 265.906C81.5005 265.588 83.096 264.81 84.2897 263.573C87.0788 260.721 89.738 257.752 92.4444 254.818C92.5626 254.688 92.6572 254.511 92.8817 254.193C91.7353 254.111 90.778 254.028 89.6907 253.946C90.1989 253.144 90.8253 253.297 91.298 253.368C93.1299 253.639 94.43 252.968 95.5882 251.542C96.9828 249.821 98.6492 248.325 100.115 246.663C100.847 245.838 101.616 245.379 102.738 245.52C103.27 245.591 103.826 245.52 104.369 245.52L104.547 245.862L104.582 245.885ZM76.4776 258.07C75.6858 256.974 75.3312 256.762 74.3621 257.269C73.2984 257.822 72.1993 258.447 71.3957 259.307C67.9801 262.925 64.6355 266.625 61.3263 270.349C60.8181 270.926 60.4872 271.727 60.2744 272.482C59.9435 273.66 60.5226 274.45 61.7163 274.65C62.1536 274.721 62.6618 274.768 63.0636 274.626C64.4346 274.167 65.8882 273.79 67.1174 273.071C70.2965 271.221 72.8139 268.628 75.0949 265.777C75.4967 265.282 75.4967 264.846 75.2958 264.256C74.7285 262.56 74.8112 260.886 75.6621 259.295C75.8985 258.859 76.2058 258.459 76.454 258.07H76.4776ZM123.232 257.28L123.492 257.516C123.74 257.351 124 257.21 124.248 257.033C127.746 254.547 131.256 252.084 134.719 249.55C137.981 247.17 141.184 244.683 143.796 241.584C144.659 240.559 145.344 239.357 145.971 238.167C146.254 237.625 146.325 236.906 146.313 236.27C146.301 235.304 145.711 234.856 144.8 235.162C144.056 235.41 143.3 235.81 142.685 236.305C141.125 237.578 139.506 238.827 138.147 240.288C134.4 244.306 130.748 248.407 127.096 252.52C125.737 254.052 124.508 255.69 123.22 257.28H123.232ZM136.563 259.39C134.814 261.087 133.195 262.736 131.493 264.304C130.122 265.564 128.656 266.719 127.262 267.957C126.021 269.052 125.123 270.361 124.957 272.069C124.697 274.626 125.702 275.51 128.136 274.662C131.859 273.377 134.672 270.926 136.717 267.591C138.371 264.881 138.194 262.159 136.563 259.378V259.39ZM97.5264 266.849C98.0937 266.849 98.3419 266.884 98.5901 266.849C102.667 266.26 106.036 264.41 108.648 261.24C109.026 260.78 109.286 260.215 109.522 259.661C109.759 259.095 109.9 258.471 109.439 257.952C108.919 257.363 108.199 257.457 107.608 257.716C106.698 258.129 105.74 258.577 105.019 259.237C102.738 261.369 100.552 263.608 98.3419 265.812C98.1055 266.048 97.9282 266.342 97.5264 266.849Z" fill="#1E1E1E"/>
<path d="M202.534 176.278H200.454C200.182 175.17 199.981 174.086 199.638 173.038C198.185 168.654 195.514 165.413 190.822 164.329C187.312 163.516 184.073 164.164 181.45 166.804C179.441 168.819 178.826 171.27 179.322 174.027C179.618 175.677 180.516 176.938 182.029 177.645C183.116 178.152 184.286 178.517 185.433 178.871C188.754 179.908 192.145 180.756 195.419 181.934C200.915 183.926 203.988 187.885 204.579 193.754C204.945 197.336 204.638 200.8 203.054 204.076C199.875 210.628 193.316 212.655 187.513 211.83C184.617 211.418 181.958 210.369 179.712 208.519C177.987 209.167 177.254 211.312 175.08 211.312V197.23H177.041C177.207 197.831 177.361 198.408 177.526 198.986C178.412 202.026 179.76 204.819 182.1 207.034C187.134 211.818 195.537 211.052 199.248 205.455C200.749 203.192 201.151 200.706 200.525 198.078C200.088 196.24 199.059 194.708 197.405 193.789C195.738 192.858 193.989 192.057 192.205 191.373C189.935 190.513 187.607 189.853 185.303 189.099C181.332 187.815 178.141 185.599 176.474 181.64C175.02 178.175 174.725 174.581 175.942 171.011C177.656 165.979 181.32 163.198 186.555 162.562C190.928 162.031 195.017 162.88 198.504 165.684C200.111 165.248 200.513 163.021 202.534 163.174V176.29V176.278Z" fill="#1E1E1E"/>
<path d="M153.641 209.827C153.853 210.534 153.747 210.911 153.168 211.052C150.462 211.736 147.767 211.877 145.131 210.769C142.224 209.544 141.314 207.081 141.113 204.206C140.995 202.544 140.924 200.894 140.806 199.233C140.77 198.785 140.664 198.337 140.581 197.901C140.049 194.955 138.631 193.565 134.967 192.858C133.809 192.634 132.58 192.823 131.268 192.823V209.426H136.362C136.398 209.944 136.433 210.31 136.468 210.769H119.438C119.213 209.556 119.213 209.508 120.171 209.485C121.53 209.45 122.889 209.485 124.201 209.485C124.555 208.307 124.674 179.165 124.343 176.903H119.355V175.571C119.757 175.524 120.1 175.453 120.454 175.453C126.423 175.453 132.391 175.453 138.348 175.524C139.908 175.547 141.468 175.807 143.016 176.007C143.56 176.078 144.103 176.254 144.623 176.431C147.33 177.362 149.102 179.141 149.516 182.029C149.953 185.057 149.079 187.602 146.491 189.441C144.6 190.784 142.449 191.467 140.203 191.939C139.967 191.986 139.742 192.045 139.175 192.186C139.695 192.422 139.919 192.563 140.156 192.634C145.758 194.142 147.72 197.171 148.299 202.745C148.441 204.147 148.417 205.561 148.511 206.975C148.653 209.226 149.516 209.992 151.785 209.944C152.376 209.933 152.979 209.874 153.641 209.827ZM131.28 191.232C133.396 191.232 135.417 191.385 137.402 191.196C139.707 190.972 141.314 189.653 141.881 187.319C142.437 185.033 142.366 182.724 141.846 180.449C141.385 178.458 140.085 177.327 138.064 177.091C136.858 176.95 135.653 176.903 134.447 176.879C133.407 176.855 132.367 176.891 131.28 176.903V191.244V191.232Z" fill="#1E1E1E"/>
<path d="M196.459 257.704C194.828 259.425 193.351 260.98 191.874 262.536C191.921 262.595 191.98 262.654 192.027 262.724C192.287 262.548 192.547 262.371 192.795 262.182C194.805 260.757 196.79 259.284 198.847 257.917C199.461 257.504 200.229 257.268 200.962 257.127C203.03 256.715 204.874 258.152 204.886 260.238C204.886 261.063 204.72 261.982 204.319 262.689C203.55 264.032 202.64 265.329 201.636 266.507C200.265 268.121 198.74 269.606 197.322 271.173C196.707 271.845 196.128 272.552 195.632 273.295C195.455 273.577 195.384 274.155 195.561 274.379C195.738 274.614 196.317 274.732 196.637 274.638C197.405 274.414 198.208 274.143 198.847 273.683C200.938 272.187 202.971 270.608 205.004 269.029C206.6 267.78 207.982 266.33 209.294 264.787C211.989 261.629 215.274 259.201 219.222 257.811C220.522 257.351 221.987 257.104 223.37 257.115C225.651 257.151 226.372 258.046 226.419 260.568C226.845 260.191 227.164 259.932 227.436 259.637C233.132 253.639 238.84 247.641 244.502 241.608C245.27 240.795 246.038 240.406 247.137 240.524C247.823 240.594 248.52 240.535 249.548 240.535C249.016 241.148 248.721 241.525 248.39 241.867C239.006 251.612 229.622 261.346 220.25 271.079C219.765 271.586 219.257 272.104 218.914 272.705C218.666 273.141 218.418 273.872 218.607 274.19C218.808 274.532 219.6 274.744 220.061 274.661C221.29 274.438 222.543 274.178 223.677 273.672C226.183 272.54 228.275 270.761 230.39 269.029C231.56 268.074 232.671 267.049 233.818 266.059C234.219 265.718 234.633 265.388 235.035 265.058C235.106 265.128 235.177 265.211 235.259 265.282C235.141 265.458 235.047 265.682 234.893 265.812C232.198 268.086 229.551 270.443 226.75 272.588C225.32 273.672 223.654 274.508 221.964 275.133C220.935 275.522 219.659 275.439 218.536 275.286C217.662 275.168 217.083 274.402 217 273.448C216.953 272.953 217 272.446 217 271.763C216.622 271.987 216.35 272.14 216.078 272.305C214.53 273.247 213.064 274.39 211.421 275.062C210.381 275.486 209.022 275.439 207.888 275.192C206.919 274.98 206.15 274.06 206.103 272.965C206.044 271.633 206.186 270.301 206.245 268.935C206.091 269.052 205.819 269.217 205.583 269.406C203.196 271.35 200.903 273.424 198.137 274.85C197.582 275.133 196.92 275.333 196.294 275.369C194.876 275.451 194.048 274.791 194.025 273.389C194.013 272.47 194.237 271.468 194.651 270.655C195.254 269.512 196.057 268.44 196.908 267.45C198.397 265.741 200.005 264.127 201.518 262.442C202.191 261.699 202.853 260.91 203.349 260.049C203.94 259.024 203.385 257.917 202.191 257.846C201.376 257.799 200.442 257.964 199.721 258.353C198.161 259.177 196.636 260.097 195.242 261.157C190.633 264.633 186.496 268.64 182.702 272.976C181.674 274.155 180.622 274.779 179.062 274.532C178.672 274.473 178.271 274.532 177.573 274.532C178.519 273.035 179.771 272.093 180.575 270.726C180.256 270.914 179.937 271.079 179.641 271.291C177.573 272.752 175.446 274.072 173.094 275.062C172.101 275.475 171.12 275.451 170.128 275.345C169.194 275.251 168.414 274.202 168.414 273.141C168.414 272.517 168.556 271.892 168.65 271.091C167.988 271.609 167.468 272.104 166.877 272.458C165.329 273.401 163.852 274.603 162.174 275.145C158.888 276.193 156.3 274.779 156.678 270.973C156.855 269.158 157.742 267.603 158.841 266.212C162.233 261.958 166.558 258.989 171.711 257.268C172.728 256.927 173.909 256.868 174.985 256.997C176.663 257.198 177.242 258.058 177.301 259.778C177.301 259.908 177.361 260.038 177.431 260.379C177.999 259.826 178.519 259.437 178.897 258.942C179.807 257.728 180.989 257.304 182.454 257.504C182.88 257.563 183.317 257.563 183.967 257.61C183.648 257.999 183.494 258.223 183.293 258.423C179.476 262.453 175.659 266.472 171.853 270.525C171.168 271.256 170.529 272.057 170.009 272.917C169.407 273.907 169.962 274.815 171.109 274.673C172.184 274.532 173.295 274.202 174.264 273.719C177.597 272.081 180.492 269.807 183.329 267.438C186.366 264.916 189.144 262.135 191.673 259.119C192.961 257.587 194.367 257.221 196.483 257.716L196.459 257.704ZM160.555 274.72C161.015 274.579 161.949 274.461 162.741 274.049C164.029 273.377 165.306 272.623 166.464 271.739C169.206 269.653 171.64 267.238 173.768 264.539C174.63 263.431 175.41 262.241 176.131 261.039C176.64 260.203 176.9 259.26 176.179 258.364C175.481 257.504 174.548 257.469 173.555 257.622C172.255 257.822 171.191 258.494 170.198 259.284C166.251 262.453 162.729 266.047 159.385 269.83C158.829 270.455 158.392 271.256 158.132 272.045C157.588 273.695 158.38 274.685 160.555 274.72ZM209.932 274.709C210.381 274.555 211.232 274.355 211.977 273.966C212.993 273.424 213.986 272.811 214.908 272.104C218.442 269.382 221.538 266.224 224.162 262.618C224.575 262.053 224.954 261.452 225.285 260.827C225.71 260.049 225.97 259.213 225.249 258.447C224.552 257.704 223.642 257.563 222.744 257.94C221.774 258.341 220.794 258.8 219.919 259.378C216.043 261.97 212.544 264.999 209.601 268.628C208.81 269.594 208.1 270.667 207.569 271.786C206.789 273.412 207.734 274.72 209.921 274.697L209.932 274.709Z" fill="#1E1E1E"/>
<path d="M33.7891 241.608C33.7182 242.185 33.73 242.433 33.6473 242.645C31.8391 247.512 28.5654 250.835 23.4007 252.001C22.2897 252.249 21.0724 252.249 19.9378 252.084C16.4632 251.577 14.4068 248.655 15.1277 245.143C15.3877 243.847 15.9195 242.503 16.6759 241.419C19.4887 237.354 23.4243 234.844 28.2226 233.642C30.0545 233.182 31.8627 233.336 33.541 234.16C34.9001 234.832 36.2592 235.539 37.4765 236.423C41.223 239.121 44.8749 238.945 48.5505 236.352C49.2478 235.857 49.9569 235.362 50.6778 234.891C50.9024 234.75 51.1742 234.691 51.6587 234.49C51.1387 235.798 50.0396 236.105 49.3187 236.812C48.5623 237.554 47.7114 238.202 46.9432 238.921C46.1749 239.652 45.4304 240.406 44.6976 241.172C43.9649 241.938 43.2558 242.727 42.5703 243.54C41.8494 244.389 41.1639 245.261 40.4784 246.133C39.8284 246.969 39.202 247.818 38.5756 248.678C37.9493 249.538 37.3465 250.399 36.732 251.271C36.1292 252.143 35.5383 253.015 34.9474 253.898C34.3682 254.759 33.8128 255.631 33.0446 256.809C34.5928 256.562 35.7983 256.456 36.9447 256.137C37.4056 256.008 37.8074 255.489 38.1502 255.077C39.6275 253.356 41.0575 251.601 42.523 249.868C42.8658 249.468 43.2794 249.114 43.7522 248.831C41.8612 251.035 40.183 253.356 38.5756 256.102C40.1357 255.855 41.4003 255.725 42.6058 255.407C43.0667 255.289 43.4567 254.747 43.7994 254.323C47.9241 249.279 52.2733 244.436 57.1189 240.064C59.258 238.132 61.4563 236.27 64.0564 234.974C64.8128 234.596 65.64 234.266 66.4673 234.137C67.9801 233.901 68.7601 234.702 68.6538 236.211C68.5474 237.766 67.8737 239.121 67.0819 240.418C65.1437 243.54 62.5436 246.074 59.7308 248.395C56.8471 250.787 53.727 252.838 50.276 254.346C49.9096 254.511 49.5432 254.735 49.1532 254.782C47.1559 255.041 45.9977 256.326 44.9813 257.893C43.3267 260.415 41.5185 262.854 39.923 265.423C39.1075 266.731 38.4575 268.192 37.9729 269.665C36.9329 272.835 38.4929 274.803 41.8612 274.721C43.504 274.685 45.0758 274.296 46.5531 273.625C51.4578 271.386 55.1807 267.886 57.698 263.149C58.1117 262.371 58.4308 261.464 58.5253 260.592C58.7853 258.235 57.308 256.868 55.0152 257.445C53.7743 257.764 52.4979 258.317 51.4696 259.072C49.7796 260.332 48.2668 261.829 46.7068 263.267C46.3877 263.561 46.2222 264.009 45.9859 264.386L45.5604 264.033C45.6786 263.809 45.7613 263.549 45.9149 263.361C47.5459 261.499 49.2596 259.708 51.3278 258.317C52.5451 257.492 53.8452 256.809 55.3461 256.668C57.7689 256.456 59.0571 257.587 59.2108 260.002C59.3171 261.723 58.8326 263.29 58.0289 264.775C56.9771 266.696 55.5707 268.334 53.9397 269.795C51.1978 272.258 48.1132 274.19 44.544 275.156C42.7121 275.651 40.7621 275.781 38.942 274.838C37.4765 274.084 36.6847 272.894 36.3892 271.303C36.0347 269.418 36.2947 267.603 36.9565 265.812C37.9965 262.996 39.5566 260.474 41.2112 257.999C41.5421 257.516 41.8494 257.009 42.3694 256.208C40.8803 256.432 39.7457 256.538 38.6466 256.809C38.2684 256.903 37.9138 257.339 37.6893 257.705C36.661 259.378 35.6565 261.063 34.6992 262.772C34.0373 263.974 34.0846 263.997 32.4773 263.75C33.6 261.405 35.2192 259.401 36.661 257.092C35.2074 256.903 33.9546 257.245 32.7491 257.587C32.2764 257.728 31.9218 258.423 31.5909 258.918C29.0972 262.618 26.2371 265.989 22.8452 268.899C19.2169 272.022 15.1041 274.285 10.4121 275.18C7.87113 275.663 5.18833 275.899 2.73008 274.497C0.945482 273.483 0.141823 271.81 0.661837 270.089C1.11094 268.628 2.41098 267.839 3.81738 268.192C4.89287 268.463 5.54288 269.288 5.53107 270.384C5.53107 271.504 4.9165 272.34 3.86466 272.623C3.48646 272.717 3.10827 272.788 2.65917 272.882C2.67099 273.896 3.36828 274.131 4.0183 274.32C6.00381 274.897 8.01295 274.827 10.0221 274.379C13.4849 273.589 16.2859 271.657 18.8269 269.276C21.7933 266.507 24.1807 263.243 26.6153 260.026C27.029 259.472 27.4308 258.918 27.6672 258.105C26.5208 258.435 25.3507 258.718 24.228 259.107C23.0816 259.508 21.9588 259.967 20.8715 260.497C19.8315 261.004 18.8269 261.593 17.846 262.23C16.865 262.866 15.9432 263.597 14.9977 264.292C14.915 264.198 14.8322 264.103 14.7495 264.009C15.1159 263.644 15.4586 263.243 15.8605 262.925C19.2996 260.25 23.1288 258.364 27.4071 257.492C28.329 257.304 28.9081 256.903 29.4517 256.161C33.7537 250.281 38.5756 244.86 44.154 240.135C44.8276 239.557 45.5368 239.027 46.1159 238.273C45.584 238.509 45.0404 238.733 44.5204 238.968C41.2348 240.488 38.0793 240.512 35.0892 238.249C34.4864 237.79 33.8246 237.413 33.1864 237.012C30.9882 235.657 28.6245 235.15 26.0716 235.681C22.0297 236.517 18.9214 238.697 16.9241 242.28C16.3214 243.352 15.955 244.625 15.8132 245.85C15.3995 249.456 18.2832 252.084 21.8761 251.447C22.7625 251.294 23.6489 251.023 24.4762 250.646C28.3644 248.878 31.4845 246.274 33.2573 242.291C33.3282 242.138 33.4819 242.02 33.8128 241.608H33.7891ZM47.6286 254.641C48.3259 254.417 48.7987 254.299 49.2478 254.122C53.7152 252.296 57.4853 249.444 60.9363 246.145C63.3827 243.811 65.6991 241.325 67.2119 238.261C67.5665 237.554 67.8147 236.765 67.9565 235.987C68.1101 235.15 67.6728 234.702 66.8455 234.832C66.2192 234.938 65.5455 235.174 65.0491 235.551C63.7964 236.482 62.5554 237.448 61.4445 238.532C56.5516 243.293 52.2851 248.596 48.0068 253.887C47.8886 254.028 47.8414 254.217 47.6523 254.641H47.6286Z" fill="#1E1E1E"/>
<path d="M216.622 176.844H211.516V175.547H240.897C240.991 178.705 241.074 181.757 241.169 184.809C239.928 185.269 239.892 185.234 239.526 184.173C239.183 183.172 238.852 182.17 238.403 181.215C237.351 178.965 235.555 177.621 233.097 177.138C231.537 176.832 225.627 176.714 223.784 177.02V191.892C225.805 192.057 227.778 192.033 229.563 190.878C230.686 190.148 231.194 188.993 231.466 187.72C231.56 187.272 231.572 186.813 231.667 186.377C231.832 185.599 231.844 185.611 233.014 185.776V200.046C231.832 200.317 231.797 200.293 231.607 199.421C231.407 198.491 231.277 197.536 230.993 196.629C230.473 195.014 229.315 193.977 227.648 193.683C226.431 193.471 225.166 193.435 223.973 193.329C223.618 194.602 223.512 206.751 223.795 209.308C224.15 209.355 224.528 209.45 224.906 209.45C227.128 209.461 229.362 209.485 231.584 209.45C235.909 209.391 238.439 207.505 239.774 203.369C240.081 202.415 240.282 201.425 240.566 200.458C240.814 199.575 240.838 199.586 242.091 199.834C241.949 203.416 241.795 207.01 241.641 210.746C241.027 210.781 240.542 210.84 240.058 210.84C231.052 210.84 222.058 210.84 213.052 210.84C212.804 210.84 212.544 210.84 212.296 210.84C211.386 210.805 211.351 210.31 211.67 209.438H216.645V176.82L216.622 176.844Z" fill="#1E1E1E"/>
<path d="M74.2676 191.691C74.1021 197.477 72.7666 201.896 69.8238 205.761C63.5127 214.034 51.3278 213.574 45.584 205.844C41.5775 200.447 40.0175 194.425 41.743 187.873C43.0903 182.771 46.2695 178.918 51.0205 176.467C55.1452 174.334 59.3881 174.122 63.5718 176.184C70.3911 179.542 73.8657 185.116 74.2676 191.691ZM48.7868 193.2C48.7868 193.2 48.8578 193.2 48.8932 193.2C48.8932 194.814 48.8578 196.428 48.8932 198.031C48.9287 199.645 48.8932 201.272 49.1414 202.851C49.8387 207.435 52.2733 209.945 56.1971 210.31C57.5325 210.439 58.9271 210.322 60.2508 210.086C62.4254 209.697 63.9855 208.413 64.9191 206.386C65.9355 204.194 66.3255 201.861 66.361 199.48C66.4319 195.05 66.361 190.619 66.3964 186.188C66.4083 184.079 65.8173 182.111 65.0018 180.202C64.0564 177.987 62.3427 176.69 60.0263 176.184C58.3362 175.818 56.6107 175.842 54.9088 176.243C52.2851 176.855 50.5242 178.458 49.7323 181.039C49.4487 181.946 49.165 182.889 49.1178 183.832C48.9405 186.942 48.8814 190.065 48.775 193.188L48.7868 193.2Z" fill="#1E1E1E"/>
<path d="M315.176 192.893C315.117 183.938 321.806 176.042 330.15 174.911C334.37 174.346 338.081 175.748 341.236 178.423C347.37 183.631 349.332 190.254 347.382 198.008C346.306 202.273 344.285 205.997 340.74 208.731C334.535 213.515 325.47 212.572 320.341 206.657C316.807 202.58 315.294 197.784 315.164 192.893H315.176ZM322.917 193.801C323 196.629 322.965 199.657 323.213 202.662C323.591 207.199 326.12 209.85 330.328 210.345C331.226 210.451 332.148 210.451 333.046 210.357C336.343 210.027 338.577 208.33 339.522 205.113C339.794 204.206 340.078 203.251 340.09 202.32C340.161 196.535 340.184 190.749 340.172 184.975C340.172 184.126 339.995 183.278 339.818 182.441C338.896 178.222 336.19 176.031 331.899 175.995C331.297 175.995 330.682 175.995 330.079 176.066C327.007 176.467 324.796 178.01 323.851 181.027C323.52 182.076 323.236 183.172 323.177 184.268C323.024 187.378 323 190.501 322.917 193.801Z" fill="#1E1E1E"/>
<path d="M381.679 197.972V176.867C380.308 176.867 379.02 176.867 377.732 176.844C376.774 176.82 376.774 176.797 376.928 175.547H388.581C388.605 175.96 388.617 176.29 388.652 176.808H383.44C383.334 180.791 383.405 184.597 383.393 188.404C383.381 192.233 383.393 196.063 383.393 199.881V211.288C381.88 211.63 381.868 211.641 381.064 210.439C376.727 203.947 372.39 197.442 368.064 190.937C365.523 187.119 362.97 183.301 360.417 179.495C360.205 179.177 359.957 178.894 359.531 178.352V209.438H364.377C364.4 209.98 364.412 210.31 364.436 210.64C364.235 210.722 364.105 210.828 363.975 210.84C360.488 210.864 357.002 210.887 353.515 210.864C352.558 210.864 352.546 210.781 352.759 209.509H357.345C357.687 208.283 357.758 178.918 357.439 176.903H352.783C352.546 175.559 352.57 175.477 353.504 175.465C357.451 175.441 361.387 175.465 365.334 175.441C366.161 175.441 366.469 175.995 366.835 176.526C369.27 180.12 371.692 183.702 374.127 187.296C376.302 190.513 378.464 193.73 380.639 196.947C380.887 197.312 381.159 197.678 381.431 198.031C381.525 198.008 381.62 197.984 381.714 197.972H381.679Z" fill="#1E1E1E"/>
<path d="M290.31 253.439C291.586 255.843 290.7 257.763 289.317 259.566C287.875 261.452 286.398 263.302 284.956 265.187C283.881 266.601 282.923 268.063 282.439 269.807C281.706 272.481 282.864 274.343 285.642 274.614C286.753 274.72 288.017 274.591 289.045 274.167C293.737 272.234 297.271 268.935 299.812 264.586C300.309 263.738 300.639 262.724 300.769 261.746C301.077 259.507 299.221 257.999 297.023 258.588C295.463 259.013 294.246 260.002 293.087 261.063C292.638 261.475 292.248 261.935 291.811 262.359C291.646 262.512 291.421 262.583 291.208 262.701C291.126 262.524 291.031 262.394 291.066 262.359C292.366 260.592 293.974 259.166 295.971 258.211C296.326 258.034 296.728 257.917 297.118 257.846C299.67 257.375 301.656 259.083 301.549 261.664C301.479 263.361 300.911 264.928 300.049 266.377C297.484 270.737 293.797 273.813 288.939 275.204C286.41 275.934 283.763 275.675 281.813 273.507C279.945 271.421 279.626 268.97 280.702 266.46C281.304 265.046 282.191 263.714 283.113 262.465C284.342 260.804 285.76 259.295 287.048 257.669C287.615 256.962 288.1 256.184 288.525 255.395C288.797 254.9 288.904 254.311 289.093 253.722C287.556 253.722 286.185 253.863 284.874 253.686C283.42 253.486 282.474 252.472 282.061 250.799C281.612 251.412 281.293 251.848 280.973 252.284C277.96 256.326 275.017 260.415 271.909 264.398C270.018 266.825 267.725 268.911 265.278 270.808C262.43 273.012 259.239 274.591 255.741 275.227C253.247 275.675 250.612 275.875 248.177 274.603C246.842 273.907 245.861 272.965 245.601 271.456C245.388 270.207 245.825 269.17 246.865 268.428C247.823 267.744 248.886 267.721 249.843 268.345C250.73 268.923 251.084 269.771 251.013 270.808C250.943 271.774 250.245 272.152 249.442 272.423C249.028 272.564 248.626 272.729 248.153 272.906C248.413 273.789 249.075 274.049 249.737 274.273C251.664 274.921 253.614 274.885 255.564 274.332C257.691 273.731 259.535 272.611 261.26 271.268C263.707 269.359 265.834 267.132 267.737 264.716C270.999 260.544 274.166 256.302 277.369 252.084C279.993 248.631 282.64 245.19 285.724 242.114C288.313 239.534 291.126 237.248 294.529 235.787C294.647 235.739 294.742 235.61 294.978 235.409C293.726 234.738 292.449 234.526 291.173 234.372C284.283 233.524 277.806 234.926 271.59 237.849C268.729 239.192 266.094 240.877 263.872 243.116C262.714 244.294 261.686 245.626 260.752 246.993C259.759 248.454 259.464 250.139 259.747 251.919C260.185 254.641 262.312 256.196 264.995 255.524C266.342 255.183 267.689 254.617 268.871 253.887C272.476 251.671 275.265 248.631 277.18 244.872C277.877 243.505 278.184 241.938 278.657 240.453C278.763 240.135 278.834 239.805 278.917 239.475C279.023 239.475 279.118 239.475 279.224 239.475C279.272 239.817 279.378 240.17 279.354 240.512C279.142 243.022 278.302 245.331 277.038 247.476C275.041 250.846 272.429 253.604 268.789 255.23C267.654 255.737 266.413 256.102 265.172 256.302C261.225 256.939 258.447 254.169 258.979 250.222C259.192 248.654 259.747 247.205 260.61 245.873C262.43 243.057 264.912 240.936 267.737 239.192C273.989 235.351 280.784 233.324 288.171 233.43C290.665 233.465 293.111 233.807 295.463 234.691C296.078 234.926 296.598 234.891 297.2 234.632C299.115 233.807 299.127 233.83 300.238 234.101C299.363 234.479 298.477 234.867 297.484 235.292C298.075 235.728 298.571 236.069 299.044 236.435C303.37 239.758 303.7 244.931 299.789 248.725C297.519 250.929 294.742 252.213 291.728 253.062C291.35 253.168 290.96 253.274 290.334 253.451L290.31 253.439ZM282.687 249.821C285.819 249.22 288.277 250.069 290.062 252.555C292.437 252.084 295.085 250.375 297.011 248.112C298.335 246.545 299.328 244.825 299.659 242.763C300.119 239.899 298.737 237.118 296.137 235.798C290.452 239.286 286.445 244.412 282.699 249.809L282.687 249.821ZM288.892 252.956C288.868 252.001 288.395 251.494 287.816 251.247C286.906 250.87 285.937 250.563 284.968 250.422C283.834 250.245 282.994 250.67 282.923 251.223C282.853 251.789 283.503 252.496 284.495 252.838C285.914 253.333 287.344 253.156 288.892 252.956Z" fill="#1E1E1E"/>
<path d="M90.518 176.844C90.4707 177.468 90.4117 177.904 90.4117 178.352C90.4117 185.752 90.4117 193.164 90.4353 200.565C90.4353 201.719 90.5535 202.886 90.7662 204.017C91.3099 207.046 93.0235 209.014 96.1318 209.626C97.9755 209.992 99.8428 210.086 101.71 209.744C105.208 209.096 107.489 206.539 107.974 202.721C108.116 201.625 108.175 200.517 108.175 199.41C108.199 192.457 108.175 185.505 108.175 178.564C108.175 178.069 108.128 177.586 108.092 176.926H103.258C103.211 176.396 103.187 176.031 103.152 175.712C103.341 175.606 103.436 175.524 103.518 175.524C107.111 175.5 110.692 175.477 114.285 175.488C115.254 175.488 115.254 175.547 115.077 176.879H109.983C109.983 177.657 109.983 178.246 109.983 178.835C109.959 186.035 109.948 193.235 109.924 200.435C109.924 202.261 109.652 204.053 108.967 205.749C108.187 207.682 106.993 209.332 105.019 210.133C99.4174 212.443 93.839 212.572 88.3316 209.756C86.0979 208.613 84.786 206.775 84.3369 204.371C84.0297 202.697 83.7815 200.977 83.7578 199.28C83.6869 192.481 83.7106 185.682 83.6987 178.882C83.6987 178.293 83.6987 177.704 83.6987 176.914H78.5104V175.571H95.5645V176.867H90.518V176.844Z" fill="#1E1E1E"/>
<path d="M269.805 209.485C269.71 209.014 269.687 208.719 269.592 208.448C268.789 206.115 267.949 203.793 267.181 201.448C266.898 200.576 266.437 200.294 265.538 200.305C262.501 200.353 259.476 200.353 256.438 200.305C255.552 200.294 255.079 200.565 254.795 201.448C254.063 203.746 253.212 206.009 252.42 208.295C252.314 208.613 252.254 208.955 252.136 209.461H257.005C257.289 210.687 257.266 210.84 256.521 210.84C253.094 210.876 249.666 210.852 246.262 210.852C246.026 209.544 246.026 209.532 246.995 209.485C247.704 209.45 248.413 209.485 249.123 209.485C250.387 209.473 250.399 209.473 250.836 208.271C252.396 204.017 253.944 199.763 255.505 195.498C257.892 188.969 260.291 182.453 262.678 175.925C262.891 175.359 263.009 174.805 263.837 174.758C264.747 174.711 265.054 175.159 265.314 175.913C266.626 179.778 267.961 183.631 269.297 187.485C271.672 194.39 274.06 201.295 276.435 208.201C276.565 208.578 276.731 208.943 276.943 209.473H281.163C281.186 209.98 281.21 210.298 281.222 210.699C280.867 210.77 280.583 210.876 280.3 210.876C275.395 210.876 270.49 210.887 265.586 210.876C264.475 210.876 264.475 210.84 264.64 209.497H269.805V209.485ZM265.999 198.832C264.475 193.954 262.938 189.229 261.367 184.527C261.248 184.527 261.142 184.527 261.024 184.527C259.275 189.24 257.537 193.954 255.729 198.832H265.999Z" fill="#1E1E1E"/>
<path d="M303.393 177.244C304.209 176.537 304.882 175.948 305.58 175.371C305.674 175.288 305.875 175.335 306.017 175.335C306.49 176.255 306.643 182.877 306.23 185.269C305.84 185.293 305.414 185.328 304.977 185.352C304.859 185.081 304.729 184.916 304.693 184.727C304.315 182.712 303.57 180.862 302.294 179.248C300.309 176.75 297.697 175.701 294.541 176.054C291.09 176.443 288.596 179.46 288.927 182.759C289.081 184.35 289.826 185.517 291.303 186.177C291.894 186.448 292.52 186.672 293.135 186.872C295.392 187.591 297.661 188.286 299.919 189.005C300.545 189.205 301.171 189.417 301.774 189.676C305.083 191.091 307.246 193.494 307.719 197.1C307.955 198.927 308.062 200.859 307.742 202.65C306.301 210.628 298.867 213.126 293.087 211.123C291.716 210.652 290.44 209.921 289.046 209.273C288.029 209.697 287.58 211.194 286.197 211.335C285.819 210.18 285.724 202.698 286.044 200.942C287.202 200.741 287.166 200.753 287.533 201.696C288.088 203.098 288.561 204.559 289.317 205.844C291.161 208.955 293.95 210.546 297.626 210.404C301.892 210.239 305.213 206.704 304.989 202.58C304.894 200.765 304.15 199.245 302.601 198.255C301.68 197.654 300.663 197.159 299.635 196.77C297.224 195.863 294.766 195.097 292.355 194.201C288.738 192.858 286.741 190.195 286.245 186.436C285.748 182.653 286.635 179.318 289.755 176.844C292.981 174.275 298.264 174.122 302.046 176.431C302.471 176.691 302.897 176.962 303.393 177.268V177.244Z" fill="#1E1E1E"/>
<path d="M245.742 124.523C249.134 124.523 251.935 127.352 251.959 130.828C251.994 134.41 249.241 137.297 245.778 137.321C242.268 137.332 239.29 134.363 239.313 130.875C239.337 127.446 242.28 124.535 245.731 124.535L245.742 124.523ZM245.79 125.902C242.847 125.879 240.483 128.129 240.483 130.946C240.483 133.797 242.646 135.907 245.624 135.954C248.543 136.001 250.789 133.88 250.848 131.04C250.895 128.259 248.603 125.926 245.802 125.902H245.79Z" fill="#1E1E1E"/>
<path d="M227.956 115.132C228.842 115.521 229.457 115.438 229.752 114.413C230.107 114.802 230.367 115.073 230.65 115.367C230.969 115.273 231.3 115.191 231.773 115.061C231.702 115.485 231.537 115.85 231.631 116.121C231.726 116.404 232.068 116.616 232.258 116.817C232.021 117.371 231.773 117.936 231.466 118.62C231.064 118.796 230.426 119.067 229.835 119.327C229.338 119.091 228.759 118.808 228.086 118.49C228.086 118.325 228.18 117.948 228.062 117.677C227.932 117.394 227.589 117.217 227.223 116.887C228.015 116.558 228.464 116.086 227.956 115.12V115.132Z" fill="#1E1E1E"/>
<path d="M219.423 76.0798C219.553 75.1843 219.706 74.4301 218.879 74.2769C219.163 73.6641 219.434 73.0985 219.765 72.3915C220.297 72.5565 220.935 72.4386 221.254 71.3074C221.644 72.3915 222.235 72.6507 223.323 72.1322C222.696 73.1457 222.909 73.7113 223.784 74.0294C223.453 74.3358 223.098 74.5244 223.004 74.7954C222.897 75.09 223.051 75.4671 223.098 75.9149C222.708 75.8559 222.342 75.8088 221.916 75.7381C221.727 75.9738 221.526 76.2448 221.243 76.6101C220.888 75.7499 220.321 75.5142 219.411 76.0681L219.423 76.0798Z" fill="#1E1E1E"/>
<path d="M226.407 97.1729C226.833 98.2217 227.341 98.5045 228.251 97.9978C228.003 98.8816 227.696 99.6593 228.984 99.7771C228.381 100.39 227.542 100.767 228.499 101.981C227.294 101.415 226.786 101.792 226.49 102.676C225.946 102.04 225.592 101.203 224.776 101.745C224.528 101.085 224.304 100.496 224.103 99.9657C224.304 99.4118 224.528 98.8227 224.776 98.151C225.379 98.4809 225.958 98.2924 226.396 97.1611L226.407 97.1729Z" fill="#1E1E1E"/>
<path d="M217.449 88.2525C216.917 88.4646 216.373 88.6885 215.877 88.8889C215.357 88.7003 214.778 88.4882 214.045 88.229C214.069 88.0993 214.246 87.7458 214.175 87.4748C214.092 87.1802 213.773 86.9563 213.466 86.6028C214.199 86.2611 214.447 85.719 213.88 84.9531C214.589 84.6467 215.652 85.6129 215.759 83.9514C216.22 85.1062 216.882 85.0827 217.733 84.7174C217.508 85.5894 217.343 86.3318 218.193 86.4849C217.933 87.0977 217.685 87.6751 217.425 88.2525H217.449Z" fill="#1E1E1E"/>
<path d="M244.549 98.2099C243.721 97.9271 243.131 97.9271 242.894 98.6459C242.244 98.4103 241.665 98.1981 240.944 97.9271C240.897 97.55 241.275 96.7252 240.306 96.6191C240.601 95.9946 240.873 95.4172 241.133 94.8515C241.618 94.6276 242.185 94.3566 242.8 94.062C243.194 94.4784 243.777 94.6708 244.549 94.6394C244.289 95.3347 244.206 96.0181 245.341 96.3363C244.442 96.7959 244.1 97.3261 244.549 98.1982V98.2099Z" fill="#1E1E1E"/>
<path d="M240.436 106.859C243.261 107.06 244.584 108.309 244.939 111.031C242.587 111.644 240.188 109.487 240.436 106.859Z" fill="#1E1E1E"/>
<path d="M188.293 30.9949C188.127 30.2997 187.489 30.5 187.052 30.3821C185.031 29.8872 183.731 28.4849 183.447 26.4228C183.447 26.3403 183.53 26.246 183.565 26.1635C186.283 26.081 188.304 28.1432 188.269 31.0185L188.281 30.9949H188.293Z" fill="#1E1E1E"/>
<path d="M257.384 92.3769C254.5 92.4005 252.834 90.9393 252.585 88.2526C254.855 87.8519 256.828 89.5134 257.384 92.3769Z" fill="#1E1E1E"/>
<path d="M214.66 96.8431C217.473 96.5721 219.281 97.939 219.754 100.72C217.981 101.144 215.924 99.9894 215.215 98.1982C215.038 97.7387 214.884 97.2673 214.707 96.8195L214.66 96.8549V96.8431Z" fill="#1E1E1E"/>
<path d="M225.379 118.761C226.006 121.365 224.847 123.569 222.59 124.205C221.68 121.801 222.732 119.692 225.379 118.761Z" fill="#1E1E1E"/>
<path d="M228.854 94.8281C227.92 92.5892 229.007 90.3738 231.513 89.3958C232.388 91.6465 231.217 94.015 228.854 94.8281Z" fill="#1E1E1E"/>
<path d="M213.951 17.8206C216.61 18.068 217.993 19.3171 218.619 21.9803C216.35 22.5577 214.163 20.6723 213.951 17.8206Z" fill="#1E1E1E"/>
<path d="M230.166 26.1399C229.776 28.9209 228.381 30.2642 225.781 30.441C225.45 28.1432 227.436 26.1399 230.166 26.1399Z" fill="#1E1E1E"/>
<path d="M225.166 78.1302C224.256 75.7499 225.367 73.5463 227.861 72.6389C228.594 74.9839 227.625 77.0225 225.166 78.1302Z" fill="#1E1E1E"/>
<path d="M214.683 107.649C217.425 107.885 219.127 109.581 218.985 111.844C216.953 112.551 214.388 109.817 214.683 107.649Z" fill="#1E1E1E"/>
<path d="M223.63 15.499C223.429 18.174 221.585 19.753 219.044 19.5291C219.151 17.2195 220.794 15.7465 223.63 15.499Z" fill="#1E1E1E"/>
<path d="M190.184 15.5344C192.914 15.6405 194.521 17.0899 194.651 19.4585C192.37 19.8709 190.526 18.3036 190.184 15.5344Z" fill="#1E1E1E"/>
<path d="M193.623 47.1624C193.256 49.0596 192.394 50.568 190.42 51.1454C189.912 51.2986 189.368 51.3103 188.801 51.381C189.049 48.7297 190.857 47.2213 193.658 47.186L193.623 47.1506V47.1624Z" fill="#1E1E1E"/>
<path d="M203.787 33.9997C203.527 34.5182 203.255 35.0367 202.995 35.5552C202.132 37.311 200.738 38.1241 198.906 37.9238C199.024 35.3195 201.246 33.5402 203.799 34.0233L203.787 33.9997Z" fill="#1E1E1E"/>
<path d="M224.245 87.0506C221.337 86.7678 219.86 85.5069 219.47 82.9852C221.881 82.5374 223.973 84.3403 224.197 87.0859L224.245 87.0388V87.0506Z" fill="#1E1E1E"/>
<path d="M222.649 43.2735C222.413 43.2028 222.176 43.1085 221.94 43.0496C219.718 42.5429 218.678 41.4234 218.288 39.0785C220.924 38.7367 223.134 40.8814 222.614 43.3089L222.649 43.2735Z" fill="#1E1E1E"/>
<path d="M191.933 65.439C192.134 64.9912 192.323 64.5434 192.547 64.1074C193.422 62.3162 194.946 61.5974 196.861 61.3735C196.837 64.1192 194.509 65.9575 191.921 65.4154L191.945 65.439H191.933Z" fill="#1E1E1E"/>
<path d="M188.73 63.7421C188.884 61.2204 190.479 59.7356 193.15 59.6414C193.221 62.057 191.354 63.7657 188.694 63.7068L188.742 63.7421H188.73Z" fill="#1E1E1E"/>
<path d="M196.908 49.2481C196.767 51.7934 195.112 53.3725 192.595 53.3489C192.228 51.1807 194.048 49.4602 196.944 49.2717L196.908 49.2363V49.2481Z" fill="#1E1E1E"/>
<path d="M203.964 53.5728C203.468 55.6821 202.392 57.2376 200.052 57.5322C199.863 57.5558 199.662 57.5086 199.426 57.4968C199.154 56.7191 199.508 56.1063 199.851 55.5171C200.726 54.0324 202.463 53.2546 203.999 53.6199L203.964 53.5846V53.5728Z" fill="#1E1E1E"/>
<path d="M247.35 131.605C247.834 132.466 248.307 133.279 248.78 134.127C247.882 134.504 247.302 134.363 246.936 133.55C246.712 133.043 246.404 132.584 246.144 132.089C245.778 131.358 245.246 131.217 244.454 131.605C244.407 132.419 244.36 133.255 244.301 134.151C243.71 134.328 243.06 134.563 243.036 133.691C242.965 131.7 243.012 129.696 243.012 127.552C244.572 127.552 245.967 127.481 247.362 127.575C248.319 127.634 248.863 128.259 248.993 129.096C249.146 130.144 248.815 130.828 247.905 131.323C247.728 131.417 247.562 131.499 247.338 131.617L247.35 131.605ZM244.454 130.415C245.364 130.415 246.097 130.439 246.842 130.415C247.326 130.392 247.74 130.168 247.763 129.614C247.799 129.072 247.432 128.789 246.948 128.73C246.121 128.624 245.282 128.459 244.454 128.872V130.427V130.415Z" fill="#1E1E1E"/>
</g>
<defs>
<clipPath id="clip0_2006_13174">
<rect width="416" height="275" fill="white" transform="translate(0 0.557129)"/>
</clipPath>
</defs>
</svg>
