<svg width="360" height="120" viewBox="0 0 360 120" fill="none" xmlns="http://www.w3.org/2000/svg">
<g clip-path="url(#clip0_2006_13273)">
<path d="M86.545 88.2221C86.545 97.0721 86.345 105.932 86.625 114.782C86.755 119.012 84.655 119.762 81.395 119.102C80.395 118.902 78.905 117.482 78.895 116.602C78.745 100.542 78.785 84.4921 78.785 67.6121C81.385 67.6121 83.565 67.7721 85.705 67.5721C88.515 67.3021 89.605 68.6321 90.245 71.1821C92.115 78.5721 94.205 85.9021 96.945 93.2021C96.945 86.2021 97.035 79.2021 96.905 72.2121C96.845 69.2321 97.255 67.4721 100.965 67.5321C104.415 67.5821 104.815 69.2121 104.795 71.9821C104.725 86.3121 104.755 100.642 104.745 114.972C104.745 117.072 104.965 119.392 101.755 119.172C99.115 118.992 96.025 120.312 94.995 115.962C93.095 107.912 90.725 99.9721 88.555 91.9921C88.195 90.6821 87.815 89.3821 87.445 88.0721C87.145 88.1221 86.845 88.1621 86.545 88.2121V88.2221Z" fill="#363636"/>
<path d="M351.685 93.1321V68.5021C358.645 66.5721 359.315 67.0221 359.325 73.4621C359.335 87.0021 359.365 100.532 359.295 114.072C359.285 116.212 360.365 119.172 356.325 119.212C353.075 119.242 350.325 119.602 349.315 115.032C347.255 105.782 344.465 96.6921 341.145 87.6521C341.145 96.6321 341.075 105.622 341.185 114.602C341.225 117.542 340.885 119.292 337.165 119.322C333.255 119.352 333.265 117.272 333.275 114.482C333.335 100.472 333.275 86.4521 333.335 72.4421C333.335 70.4421 332.385 67.3621 336.095 67.7021C339.295 67.9921 343.595 65.5421 344.945 71.2521C346.685 78.6521 348.865 85.9521 350.845 93.2921C351.125 93.2421 351.405 93.1921 351.695 93.1421L351.685 93.1321Z" fill="#363636"/>
<path d="M127.305 87.7421C127.305 96.8021 127.235 105.862 127.345 114.922C127.375 117.742 126.875 119.332 123.475 119.332C120.195 119.332 119.445 117.962 119.465 115.032C119.545 100.722 119.465 86.4021 119.505 72.0921C119.505 70.1521 118.945 67.3121 122.205 67.7421C125.225 68.1421 129.515 65.3221 130.925 70.7121C132.615 77.1621 134.395 83.6021 136.145 90.0321C136.335 90.7221 136.635 91.3921 137.775 91.9521V68.4821C144.955 66.6621 145.475 67.0221 145.475 73.5621C145.485 87.2421 145.505 100.922 145.435 114.592C145.435 116.442 146.355 119.202 142.945 119.142C140.205 119.092 136.955 120.532 135.835 115.872C133.545 106.362 130.735 96.9721 128.145 87.5321C127.865 87.6021 127.575 87.6621 127.295 87.7321L127.305 87.7421Z" fill="#363636"/>
<path d="M294.145 93.4621C294.145 88.6921 293.985 83.9221 294.185 79.1521C294.495 71.5221 298.775 67.3521 306.165 67.1721C313.905 66.9921 318.635 70.9621 318.925 78.7721C319.275 88.4521 319.285 98.1721 318.965 107.852C318.705 115.662 313.975 119.732 306.295 119.612C298.885 119.502 294.585 115.412 294.215 107.752C293.985 102.992 294.175 98.2121 294.175 93.4521H294.155L294.145 93.4621ZM302.815 93.1321C302.815 93.1321 302.825 93.1321 302.835 93.1321C302.835 97.7321 302.825 102.342 302.835 106.942C302.835 109.602 303.685 112.182 306.755 111.462C308.225 111.122 310.135 108.592 310.195 107.002C310.525 97.9621 310.525 88.9021 310.195 79.8721C310.135 78.2521 308.275 75.7021 306.815 75.3421C303.775 74.5921 302.845 77.1421 302.815 79.8021C302.775 84.2421 302.815 88.6921 302.815 93.1321Z" fill="#363636"/>
<path d="M39.6551 93.2821C39.6551 88.3521 39.4851 83.4221 39.6951 78.5021C39.9851 71.4721 44.2151 67.4821 51.2551 67.2021C58.8151 66.9021 63.6651 70.3521 64.0251 77.5621C64.5451 88.0221 64.5651 98.5421 64.1351 109.002C63.8351 116.152 58.8551 119.862 51.5051 119.662C44.2551 119.462 40.0051 115.412 39.7051 108.062C39.5051 103.142 39.6651 98.2121 39.6651 93.2821H39.6551ZM55.8251 93.5721C55.8251 88.9621 56.1451 84.3321 55.6551 79.7721C55.4751 78.1321 53.6351 75.8121 52.0951 75.3621C49.3151 74.5621 48.2551 76.9721 48.2351 79.4321C48.1651 88.6421 48.1551 97.8521 48.2151 107.062C48.2351 109.402 48.7751 111.622 51.8251 111.662C55.0351 111.702 55.7951 109.552 55.8151 106.912C55.8551 102.462 55.8251 98.0221 55.8251 93.5721Z" fill="#363636"/>
<path d="M104.475 51.3221C96.645 52.9921 96.195 52.8721 95.145 46.0521C94.595 42.5221 92.425 42.8121 89.995 42.8221C87.415 42.8221 85.165 42.4821 84.665 46.3521C83.825 52.8321 83.315 52.9121 76.095 51.3421C77.395 42.9521 78.685 34.5121 80.025 26.0821C81.155 19.0121 82.565 11.9821 83.405 4.88213C83.815 1.38213 85.165 0.172133 88.555 0.512133C90.895 0.752133 93.285 0.562133 96.345 0.562133C99.085 17.6721 101.785 34.5221 104.475 51.3321V51.3221ZM90.235 14.8121C89.975 14.8021 89.705 14.7921 89.445 14.7821C88.485 21.3921 87.515 27.9921 86.535 34.7821H93.245C92.195 27.8121 91.225 21.3121 90.245 14.8221L90.235 14.8121Z" fill="#363636"/>
<path d="M197.225 93.4721C197.225 88.2321 196.885 82.9621 197.305 77.7521C197.875 70.7021 201.985 67.2321 208.925 67.1421C216.115 67.0521 220.235 70.5621 221.235 77.6721C221.415 78.9321 221.355 80.2121 221.515 81.4721C221.935 84.7021 220.345 85.5421 217.365 85.5621C214.355 85.5821 212.835 84.6921 213.215 81.4821C213.325 80.5521 213.505 79.3221 213.035 78.6921C212.035 77.3521 210.605 75.3821 209.405 75.4121C208.115 75.4521 205.825 77.4621 205.785 78.6621C205.495 88.5121 205.515 98.3721 205.815 108.222C205.855 109.402 208.205 111.392 209.485 111.382C210.695 111.382 212.175 109.402 212.995 107.982C213.555 107.012 213.275 105.492 213.205 104.232C213.065 101.412 213.295 99.4121 217.125 99.4021C220.905 99.4021 221.565 100.962 221.555 104.282C221.535 115.202 217.325 120.142 208.095 119.622C201.905 119.272 197.905 115.942 197.335 109.662C196.855 104.302 197.235 98.8721 197.235 93.4721C197.225 93.4721 197.215 93.4721 197.205 93.4721H197.225Z" fill="#363636"/>
<path d="M17.825 86.3121C17.545 82.7621 17.805 80.4021 17.045 78.4421C16.505 77.0621 14.625 75.5121 13.225 75.3821C12.175 75.2821 9.95504 77.3121 9.92504 78.4421C9.66504 88.4521 9.66504 98.4721 9.92504 108.482C9.95504 109.552 12.285 111.502 13.345 111.362C14.745 111.182 16.695 109.572 17.075 108.212C17.775 105.702 17.505 102.912 17.655 99.8921H25.485C25.485 102.912 25.675 105.602 25.445 108.252C24.795 115.802 20.675 119.642 13.445 119.642C5.81504 119.642 1.50504 115.932 1.23504 108.092C0.895039 98.2521 1.07504 88.3821 1.23504 78.5321C1.31504 73.7521 3.23504 69.7321 8.04504 68.0521C12.755 66.4121 17.575 66.4021 21.575 69.8621C25.755 73.4721 26.205 78.6321 25.165 83.4721C24.885 84.7721 20.785 85.2421 17.825 86.3221V86.3121Z" fill="#363636"/>
<path d="M169.365 111.282H182.535V119.152C175.785 119.152 169.185 119.252 162.595 119.022C161.835 118.992 160.515 117.132 160.505 116.112C160.375 101.002 160.355 85.8821 160.555 70.7721C160.565 69.7121 162.435 67.8321 163.525 67.7721C168.915 67.4521 174.365 67.2921 179.735 67.7121C185.295 68.1521 181.865 72.3121 182.705 75.5321H169.345V88.7321C172.825 88.9421 176.085 89.1421 179.705 89.3721V96.6521C176.165 96.8621 172.905 97.0521 169.375 97.2621V111.272L169.365 111.282Z" fill="#363636"/>
<path d="M40.735 0.582133C47.405 0.582133 53.755 0.412133 60.075 0.762133C61.035 0.812133 62.565 3.28213 62.545 4.61213C62.525 5.90213 60.995 8.12213 59.895 8.28213C56.485 8.76213 52.975 8.46213 49.155 8.46213V21.9221C51.485 21.9221 53.525 22.0021 55.555 21.9021C58.335 21.7621 59.975 22.3621 60.045 25.7621C60.125 29.4021 58.415 30.0321 55.405 29.8721C53.395 29.7621 51.355 30.0121 49.085 30.1121V43.8121C53.485 44.0121 57.825 44.2121 62.055 44.4021C63.605 51.6521 63.285 52.0921 56.765 52.1021C51.545 52.1221 46.325 52.1021 40.755 52.1021V0.582133H40.735Z" fill="#363636"/>
<path d="M241.505 75.9121C239.715 75.7521 238.465 75.4621 237.245 75.5621C234.225 75.8221 233.005 74.7721 233.035 71.5521C233.055 68.2921 234.415 67.5021 237.355 67.5621C244.155 67.7021 250.965 67.6021 257.615 67.6021C259.565 74.7121 259.445 74.8321 250.435 76.0021C250.345 77.5921 250.185 79.2721 250.185 80.9621C250.165 91.9321 250.145 102.902 250.185 113.872C250.195 116.862 250.505 119.342 245.965 119.402C241.175 119.462 241.465 116.852 241.475 113.652C241.535 101.262 241.505 88.8621 241.505 75.9121Z" fill="#363636"/>
<path d="M8.765 51.7021V9.15213C2.93167 8.01213 0.358333 5.2688 1.045 0.922133H25.365V8.13213C22.885 8.31213 20.565 8.49213 17.575 8.71213V51.7021H8.755H8.765Z" fill="#363636"/>
<path d="M279.875 93.9521C279.875 101.102 279.725 108.252 279.935 115.402C280.035 118.832 278.365 119.282 275.555 119.272C272.815 119.262 271.065 118.972 271.105 115.482C271.245 100.712 271.255 85.9321 271.105 71.1621C271.065 67.4621 273.215 67.6521 275.725 67.5921C278.255 67.5321 279.995 67.8121 279.925 71.0821C279.765 78.7021 279.875 86.3321 279.875 93.9621V93.9521Z" fill="#363636"/>
</g>
<defs>
<clipPath id="clip0_2006_13273">
<rect width="358.83" height="119.21" fill="white" transform="translate(0.585022 0.452133)"/>
</clipPath>
</defs>
</svg>
