<svg width="338" height="76" viewBox="0 0 338 76" fill="none" xmlns="http://www.w3.org/2000/svg">
<g clip-path="url(#clip0_2006_13358)">
<path d="M207.94 28.5222C213.23 22.2022 220.15 20.2322 228.12 21.6422C235.71 22.9822 239.6 27.5822 239.84 35.9522C240.08 44.1822 240 52.4322 239.9 60.6722C239.84 65.4822 240.28 69.7722 246.23 70.7422C246.46 70.7822 246.59 71.4422 247.05 72.4222H221.13C221.06 71.2222 220.91 69.7022 220.91 68.1922C220.89 58.9422 220.94 49.6822 220.86 40.4322C220.84 37.9922 221.01 35.2622 220.01 33.2022C219.11 31.3622 216.9 29.5022 214.92 29.0022C212.07 28.2822 209.99 30.2522 209.44 33.2422C209.1 35.0722 208.9 36.9622 208.89 38.8322C208.83 46.2022 208.97 53.5822 208.82 60.9522C208.73 65.6422 209.14 69.7622 214.87 70.7722C215.12 70.8122 215.26 71.4622 215.77 72.4322H182.42C183.03 71.5022 183.26 70.7322 183.61 70.6822C189.22 69.8422 189.67 65.8322 189.62 61.3222C189.53 53.6622 189.65 45.9922 189.56 38.3322C189.54 36.3322 189.63 33.9522 188.62 32.4522C187.51 30.8122 185.22 29.1322 183.39 29.0622C181.82 29.0022 179.46 30.8822 178.73 32.4822C177.77 34.5922 177.87 37.2722 177.85 39.7122C177.76 49.4022 177.72 59.0922 177.85 68.7722C177.89 71.8622 177.1 73.2022 173.72 73.0622C167.51 72.8122 161.29 73.0022 155.07 72.9622C154.01 72.9622 152.94 72.6822 151.73 72.5122C151.94 71.7322 151.98 71.0422 152.16 71.0022C158.08 69.8022 158.78 65.6022 158.55 60.5422C158.32 55.3522 158.37 50.1322 158.55 44.9322C158.68 41.4322 157.57 38.9222 154.62 36.8622C150.7 34.1422 151.04 32.8722 155.49 30.8522C160.62 28.5222 165.67 26.0322 170.76 23.6222C172.14 22.9722 173.54 22.3522 175.39 21.5022C175.72 23.9022 175.96 25.6922 176.28 28.0122C186.85 19.8522 197.23 17.5922 207.93 28.5422L207.94 28.5222Z" fill="#363636"/>
<path d="M48.85 72.5022H10.22C10.1 72.1122 9.98997 71.7322 9.86997 71.3422C10.84 70.8822 11.77 70.1722 12.79 69.9922C16.41 69.3722 18.19 66.9622 18.21 63.6622C18.33 44.6122 18.27 25.5522 18.27 5.94216C8.82997 7.10216 4.53997 13.8122 0.169973 20.8122C-0.730027 13.6422 2.11997 7.22216 2.68997 0.842163H56.38C57.56 7.05216 58.82 13.6922 60.07 20.3322C59.63 20.6222 59.19 20.9122 58.75 21.2022C54.55 14.2722 50.58 7.06216 41.1 5.99216C40.93 7.31216 40.64 8.52216 40.64 9.74216C40.61 26.3622 40.61 42.9822 40.62 59.5922C40.62 60.8922 40.82 62.1822 40.89 63.4822C41.08 67.1322 42.79 69.4022 46.53 70.0822C47.46 70.2522 48.28 70.9622 49.15 71.4222L48.84 72.4922L48.85 72.5022Z" fill="#363636"/>
<path d="M303.06 67.1321C298.29 77.0421 286.3 76.7821 278.13 67.6221C274.38 69.8421 270.92 72.5821 266.98 74.0921C257.8 77.6221 248.59 72.9221 247.38 64.5121C246.58 58.9621 248.61 54.2021 253.25 51.4321C259.91 47.4721 266.88 43.9021 274.03 40.9421C278.35 39.1521 277.43 36.1321 277.3 33.1621C277.15 29.8121 276.68 26.3421 272.69 25.1821C268.52 23.9721 264.83 26.6721 264.53 31.0721C264.4 33.0821 264.68 35.1321 264.47 37.1321C264 41.7121 260.99 44.0821 256.47 43.6321C252.57 43.2421 250.4 40.4221 250.82 35.9021C251.37 29.9421 255.02 26.0921 260.19 23.8621C268.92 20.0921 277.93 20.0421 286.79 23.4321C292.72 25.6921 296.13 30.1521 296.33 36.6321C296.56 44.4221 296.49 52.2321 296.76 60.0221C296.89 63.7321 297.38 67.5421 303.05 67.1221L303.06 67.1321ZM277.14 43.4921C270.04 46.0421 265.85 54.1921 268.13 61.2021C268.73 63.0321 271.29 64.2121 272.95 65.7021C274.35 64.1321 276.8 62.6621 276.95 60.9821C277.46 55.3221 277.14 49.5921 277.14 43.5021V43.4921Z" fill="#363636"/>
<path d="M73.36 43.2521C73.96 51.2321 76.85 57.3421 83.23 61.5021C89.88 65.8321 96.54 65.5121 103.06 60.6421C103.37 60.9621 103.67 61.2821 103.98 61.6021C102.97 63.2521 102.22 65.1521 100.92 66.5221C91.42 76.5421 75.54 78.0521 65.45 70.0121C54.79 61.5221 52.32 45.1821 59.88 33.1221C66.3 22.8721 78.77 18.5021 90.15 22.6821C97.53 25.3921 101.16 31.1621 102.59 38.6121C103.19 41.7021 102.33 43.1521 98.87 43.0621C92.23 42.8721 85.58 42.9921 78.93 43.0221C77.24 43.0221 75.56 43.1621 73.36 43.2621V43.2521ZM72.6 39.6821C76.1 39.6821 78.5 39.7921 80.88 39.6621C87.86 39.2921 89.82 37.0421 87.98 30.4021C87.37 28.2021 85.06 25.7121 82.94 24.8821C80 23.7321 76.67 25.0921 75.43 28.2821C74.12 31.6421 73.64 35.3221 72.6 39.6821Z" fill="#363636"/>
<path d="M138.07 72.3622H105.19C105.14 72.0522 105.08 71.7322 105.03 71.4222C105.69 71.0522 106.31 70.5122 107.02 70.3422C110.17 69.5922 111.7 67.5322 111.73 64.4322C111.81 57.2022 112.09 49.9522 111.59 42.7522C111.44 40.6422 109.22 38.4122 107.47 36.7322C104.57 33.9622 104.56 32.8922 108.14 31.2022C113.63 28.6122 119.09 25.9622 124.58 23.3822C125.96 22.7322 127.41 22.2422 129.26 21.5122C129.51 24.0322 129.7 25.9622 129.98 28.7922C132.05 26.6522 133.46 24.8522 135.19 23.4822C138.36 20.9722 142.24 19.9322 145.67 22.1522C147.63 23.4222 149.3 26.3122 149.58 28.6522C149.81 30.6022 148.33 33.7522 146.67 34.6522C144.77 35.6722 141.8 35.0322 139.38 34.6322C138.25 34.4522 137.3 33.1522 136.28 32.3522C134.21 30.7222 132.58 31.3922 132.02 33.6722C131.41 36.1622 131.18 38.8022 131.14 41.3822C131.03 48.1722 131.17 54.9722 131.08 61.7722C131.02 66.2822 132.03 69.8522 137.28 70.5422C137.84 70.6122 138.38 70.8922 138.93 71.0722C138.65 71.5022 138.36 71.9322 138.08 72.3622H138.07Z" fill="#363636"/>
<path d="M329.32 33.4221C330.56 34.5921 339.25 43.0621 337.84 54.7221C337.58 56.8521 336.81 63.1921 331.45 67.5021C323.49 73.9021 312.83 69.8521 312.28 69.6321C313.82 69.3121 318.95 68.0421 322.93 63.2421C326.52 58.9121 327.07 54.2421 327.19 52.5921C326.31 54.6121 324.46 58.1321 320.8 61.1121C319.22 62.4021 312.74 67.6821 308.02 65.3721C303.96 63.3921 303.11 56.7221 303.76 52.5921C305.18 43.6121 315.41 36.3121 329.32 33.4221Z" fill="#363636"/>
</g>
<defs>
<clipPath id="clip0_2006_13358">
<rect width="338" height="74.43" fill="white" transform="translate(0 0.842163)"/>
</clipPath>
</defs>
</svg>
