<svg width="25" height="25" viewBox="0 0 25 25" fill="none" xmlns="http://www.w3.org/2000/svg">
<mask id="mask0_2006_11677" style="mask-type:alpha" maskUnits="userSpaceOnUse" x="0" y="0" width="25" height="25">
<rect x="0.640625" y="0.523438" width="24" height="24" fill="#D9D9D9"/>
</mask>
<g mask="url(#mask0_2006_11677)">
<path d="M10.1073 16.3734C8.29995 16.3734 6.77033 15.7471 5.51845 14.4943C4.26657 13.2415 3.64062 11.7235 3.64062 9.94012C3.64062 8.15679 4.26702 6.63873 5.5198 5.38595C6.77257 4.13317 8.2934 3.50677 10.0823 3.50677C11.8712 3.50677 13.3892 4.13317 14.6365 5.38595C15.8837 6.63873 16.5073 8.15763 16.5073 9.94263C16.5073 10.6632 16.3906 11.354 16.1573 12.0151C15.924 12.6762 15.5851 13.2846 15.1406 13.8401L21.0406 19.7068C21.2017 19.863 21.2823 20.0617 21.2823 20.3031C21.2823 20.5444 21.2017 20.7457 21.0406 20.9068C20.8795 21.0679 20.6783 21.1484 20.4369 21.1484C20.1956 21.1484 19.9968 21.0679 19.8406 20.9068L13.9573 15.0234C13.4573 15.4457 12.877 15.7762 12.2163 16.0151C11.5557 16.254 10.8527 16.3734 10.1073 16.3734ZM10.0906 14.7068C11.4101 14.7068 12.5316 14.2415 13.4552 13.3109C14.3788 12.3804 14.8406 11.2568 14.8406 9.94012C14.8406 8.62344 14.3788 7.49982 13.4552 6.56927C12.5316 5.63873 11.4101 5.17345 10.0906 5.17345C8.76193 5.17345 7.63253 5.63873 6.70243 6.56927C5.77233 7.49982 5.30728 8.62344 5.30728 9.94012C5.30728 11.2568 5.77233 12.3804 6.70243 13.3109C7.63253 14.2415 8.76193 14.7068 10.0906 14.7068Z" fill="#1E1E1E"/>
</g>
</svg>
