<svg width="23" height="20" viewBox="0 0 23 20" fill="none" xmlns="http://www.w3.org/2000/svg">
<path d="M-0.00785828 2.00002C-0.00785828 1.11502 0.707142 0.400024 1.59214 0.400024H20.7921C21.6771 0.400024 22.3921 1.11502 22.3921 2.00002C22.3921 2.88502 21.6771 3.60002 20.7921 3.60002H1.59214C0.707142 3.60002 -0.00785828 2.88502 -0.00785828 2.00002ZM-0.00785828 10C-0.00785828 9.11502 0.707142 8.40002 1.59214 8.40002H20.7921C21.6771 8.40002 22.3921 9.11502 22.3921 10C22.3921 10.885 21.6771 11.6 20.7921 11.6H1.59214C0.707142 11.6 -0.00785828 10.885 -0.00785828 10ZM22.3921 18C22.3921 18.885 21.6771 19.6 20.7921 19.6H1.59214C0.707142 19.6 -0.00785828 18.885 -0.00785828 18C-0.00785828 17.115 0.707142 16.4 1.59214 16.4H20.7921C21.6771 16.4 22.3921 17.115 22.3921 18Z" fill="white"/>
</svg>
